<?xml version="1.0" encoding="UTF-8" standalone="no"?>
<!-- Created with Inkscape (http://www.inkscape.org/) -->

<svg
   width="236.29439mm"
   height="53.257595mm"
   viewBox="0 0 236.29439 53.257595"
   version="1.1"
   id="svg1"
   inkscape:version="1.3.1 (9b9bdc1480, 2023-11-25, custom)"
   sodipodi:docname="fig2b.svg"
   xmlns:inkscape="http://www.inkscape.org/namespaces/inkscape"
   xmlns:sodipodi="http://sodipodi.sourceforge.net/DTD/sodipodi-0.dtd"
   xmlns="http://www.w3.org/2000/svg"
   xmlns:svg="http://www.w3.org/2000/svg">
  <sodipodi:namedview
     id="namedview1"
     pagecolor="#ffffff"
     bordercolor="#666666"
     borderopacity="1.0"
     inkscape:showpageshadow="2"
     inkscape:pageopacity="0.0"
     inkscape:pagecheckerboard="0"
     inkscape:deskcolor="#d1d1d1"
     inkscape:document-units="mm"
     inkscape:zoom="0.58618126"
     inkscape:cx="446.96073"
     inkscape:cy="100.65146"
     inkscape:window-width="1558"
     inkscape:window-height="836"
     inkscape:window-x="42"
     inkscape:window-y="27"
     inkscape:window-maximized="1"
     inkscape:current-layer="layer1" />
  <defs
     id="defs1" />
  <g
     inkscape:label="Layer 1"
     inkscape:groupmode="layer"
     id="layer1"
     transform="translate(12.964583,-121.97292)">
    <path
       id="rect11"
       style="fill:#ffffff;stroke-width:0.365001;stroke-linecap:square;stroke-miterlimit:40;stroke-dasharray:0.365001, 0.365001;paint-order:fill markers stroke"
       d="M -12.409753,121.97292 H 222.77497 c 0.30738,0 0.55483,0.24746 0.55483,0.55483 v 52.14794 c 0,0.30737 -0.24745,0.55483 -0.55483,0.55483 H -12.409753 c -0.307376,0 -0.55483,-0.24746 -0.55483,-0.55483 v -52.14794 c 0,-0.30737 0.247454,-0.55483 0.55483,-0.55483 z" />
    <g
       id="g3"
       transform="translate(-25.475932,-28.275623)">
      <path
         style="fill:none;stroke:#cccccc;stroke-width:0.365;stroke-linecap:butt;stroke-linejoin:miter;stroke-dasharray:none;stroke-opacity:1"
         d="M 20.414515,164.06254 H 127.98343"
         id="path75" />
      <path
         id="rect64"
         style="fill:#a8cbfe;stroke-width:0.465;stroke-linecap:square;stroke-miterlimit:40;paint-order:fill markers stroke"
         d="m 42.700239,170.5715 h 14.078875 c 0.539224,0 0.973329,0.43411 0.973329,0.97333 v 4.21764 c 0,0.53923 -0.434105,0.97333 -0.973329,0.97333 H 42.700239 c -0.539224,0 -0.973329,-0.4341 -0.973329,-0.97333 v -4.21764 c 0,-0.53922 0.434105,-0.97333 0.973329,-0.97333 z" />
      <path
         d="m 23.183338,174.78831 q -0.269751,0.30386 -0.486792,0.44959 -0.217041,0.14573 -0.409278,0.18914 -0.189135,0.0434 -0.384472,0.0434 -0.337964,0 -0.63252,-0.17363 -0.291455,-0.17673 -0.474389,-0.50539 -0.179834,-0.33177 -0.179834,-0.79065 0,-0.44649 0.21394,-0.80926 0.21394,-0.36277 0.592212,-0.57671 0.378271,-0.21394 0.868164,-0.21394 0.136426,0 0.313159,0.031 0.176734,0.031 0.331763,0.0868 0.155029,0.0527 0.223242,0.12712 0.0062,0.0372 -0.0186,0.15193 -0.02481,0.11162 -0.06821,0.24805 -0.04341,0.13642 -0.08682,0.25424 -0.04341,0.11473 -0.07131,0.15503 l -0.207739,-0.031 q -0.10232,-0.30386 -0.251148,-0.46819 -0.148828,-0.16743 -0.396875,-0.16743 -0.182935,0 -0.341064,0.11162 -0.15813,0.11162 -0.257349,0.35967 -0.09922,0.24494 -0.09922,0.64492 0,0.49299 0.235645,0.76894 0.238745,0.27596 0.576709,0.27596 0.117822,0 0.226343,-0.0217 0.10852,-0.0217 0.251147,-0.0961 0.145728,-0.0775 0.365869,-0.24184 z m 3.255615,-0.91467 q 0,0.31006 -0.120923,0.59531 -0.120923,0.28526 -0.331763,0.5116 -0.21084,0.22634 -0.486792,0.35967 -0.275952,0.13022 -0.58291,0.13022 -0.427881,0 -0.74414,-0.19223 -0.31626,-0.19224 -0.489893,-0.524 -0.173633,-0.33176 -0.173633,-0.75344 0,-0.30696 0.111621,-0.59222 0.111621,-0.28835 0.31626,-0.51469 0.204639,-0.22945 0.483691,-0.35967 0.282154,-0.13333 0.617017,-0.13333 0.42168,0 0.737939,0.19224 0.31626,0.19224 0.489893,0.524 0.173633,0.33176 0.173633,0.75654 z m -0.781348,0.13953 q 0,-0.32866 -0.08992,-0.60462 -0.08992,-0.27905 -0.251147,-0.44958 -0.15813,-0.17053 -0.36897,-0.17053 -0.257349,0 -0.399976,0.14883 -0.142626,0.14572 -0.198437,0.39997 -0.05581,0.25425 -0.05581,0.57361 0,0.32556 0.09612,0.59221 0.09922,0.26665 0.260449,0.42478 0.16123,0.15503 0.353467,0.15503 0.368969,0 0.511596,-0.27905 0.142627,-0.27905 0.142627,-0.79065 z m 1.147217,1.36426 v -0.22635 q 0.26665,-0.0465 0.353467,-0.093 0.08682,-0.0465 0.08682,-0.0961 v -3.50987 q 0,-0.18293 -0.03101,-0.26355 -0.03101,-0.0806 -0.117822,-0.10542 -0.08682,-0.0279 -0.260449,-0.0465 v -0.21705 q 0.310059,-0.0434 0.542602,-0.0961 0.232544,-0.0527 0.477491,-0.15193 l 0.133325,0.12712 v 4.26331 q 0,0.0465 0.09302,0.0961 0.09612,0.0496 0.350367,0.093 v 0.22635 z m 4.874122,-1.50379 q 0,0.31006 -0.120923,0.59531 -0.120923,0.28526 -0.331763,0.5116 -0.21084,0.22634 -0.486792,0.35967 -0.275952,0.13022 -0.58291,0.13022 -0.427881,0 -0.744141,-0.19223 -0.316259,-0.19224 -0.489892,-0.524 -0.173633,-0.33176 -0.173633,-0.75344 0,-0.30696 0.111621,-0.59222 0.111621,-0.28835 0.31626,-0.51469 0.204638,-0.22945 0.483691,-0.35967 0.282153,-0.13333 0.617017,-0.13333 0.421679,0 0.737939,0.19224 0.31626,0.19224 0.489893,0.524 0.173633,0.33176 0.173633,0.75654 z m -0.781348,0.13953 q 0,-0.32866 -0.08992,-0.60462 -0.08992,-0.27905 -0.251148,-0.44958 -0.158129,-0.17053 -0.368969,-0.17053 -0.257349,0 -0.399976,0.14883 -0.142627,0.14572 -0.198437,0.39997 -0.05581,0.25425 -0.05581,0.57361 0,0.32556 0.09612,0.59221 0.09922,0.26665 0.26045,0.42478 0.16123,0.15503 0.353466,0.15503 0.36897,0 0.511597,-0.27905 0.142627,-0.27905 0.142627,-0.79065 z m 4.529956,1.01699 q -0.151929,0.0992 -0.341064,0.20154 -0.186036,0.10232 -0.341065,0.17053 -0.155029,0.0682 -0.204639,0.0682 -0.111621,0 -0.204638,-0.0961 -0.09302,-0.0992 -0.130225,-0.41858 -0.257348,0.22324 -0.446484,0.33486 -0.189136,0.10852 -0.334864,0.14263 -0.145727,0.0372 -0.279052,0.0372 -0.192237,0 -0.372071,-0.0775 -0.179834,-0.0775 -0.297656,-0.28525 -0.114721,-0.20774 -0.114721,-0.59532 v -1.27124 q 0,-0.19533 -0.0186,-0.28215 -0.0155,-0.0868 -0.09612,-0.11472 -0.07751,-0.0279 -0.260449,-0.0465 v -0.21704 q 0.310058,-0.0279 0.5302,-0.062 0.223242,-0.0372 0.480591,-0.11783 l 0.10852,0.14263 v 1.77354 q 0,0.38447 0.09302,0.50229 0.09302,0.11472 0.26665,0.11472 0.130225,0 0.306958,-0.0744 0.179834,-0.0744 0.434082,-0.29456 v -1.32395 q 0,-0.18603 -0.0248,-0.27595 -0.0217,-0.0899 -0.10852,-0.12402 -0.08682,-0.0341 -0.275952,-0.0434 v -0.21704 q 0.310058,-0.0279 0.561206,-0.0744 0.254248,-0.0496 0.47749,-0.10542 l 0.114722,0.14263 v 1.95337 q 0,0.18914 0.0155,0.26665 0.0155,0.0744 0.05581,0.10542 0.03411,0.0279 0.10232,0.0124 0.06821,-0.0155 0.226342,-0.0837 z m 2.740917,-2.49287 q 0.02791,0.0186 0.0155,0.14883 -0.0124,0.13022 -0.04961,0.31006 -0.03721,0.17673 -0.08372,0.34106 -0.04651,0.16123 -0.08372,0.24495 h -0.226342 q -0.0217,-0.25115 -0.108521,-0.42788 -0.08682,-0.17984 -0.235644,-0.17984 -0.08062,0 -0.182935,0.0465 -0.102319,0.0434 -0.217041,0.17983 -0.114722,0.13643 -0.238745,0.40618 v 1.35496 q 0,0.0465 0.127124,0.0961 0.130224,0.0496 0.42168,0.093 v 0.22635 h -1.702222 v -0.22635 q 0.409277,-0.093 0.409277,-0.18913 v -1.64331 q 0,-0.20464 -0.0217,-0.28526 -0.0217,-0.0806 -0.04961,-0.10852 -0.04031,-0.0403 -0.10542,-0.0558 -0.06201,-0.0186 -0.232544,-0.0279 v -0.21704 q 0.226343,-0.031 0.378271,-0.0589 0.15503,-0.031 0.288355,-0.0682 0.136426,-0.0403 0.310058,-0.0961 l 0.130225,0.13023 0.04031,0.44958 q 0.167431,-0.23874 0.412378,-0.40927 0.248046,-0.17054 0.514697,-0.17054 0.254248,0 0.489892,0.13643 z"
         id="text65"
         style="font-weight:bold;font-size:6.35px;line-height:1.25;font-family:'Gentium Plus';-inkscape-font-specification:'Gentium Plus, Bold';fill:#094bac;stroke-width:0.264583"
         aria-label="colour" />
      <path
         d="m 45.094846,173.03723 q 0.135467,-0.0339 0.359833,-0.072 0.224367,-0.0381 0.516466,-0.0381 0.262467,0 0.436033,0.0762 0.173567,0.072 0.275167,0.20743 0.105833,0.13123 0.148166,0.3175 0.04233,0.18627 0.04233,0.41063 v 1.23613 h -0.3937 v -1.15146 q 0,-0.2032 -0.02963,-0.34713 -0.0254,-0.14394 -0.0889,-0.23284 -0.0635,-0.0889 -0.169333,-0.127 -0.105834,-0.0423 -0.262467,-0.0423 -0.0635,0 -0.131233,0.004 -0.06773,0.004 -0.131233,0.0127 -0.05927,0.004 -0.110067,0.0127 -0.04657,0.008 -0.06773,0.0127 v 1.85843 h -0.3937 z m 4.373027,1.03717 q 0,0.26246 -0.0762,0.47413 -0.0762,0.21167 -0.215899,0.36407 -0.135467,0.1524 -0.325967,0.23706 -0.1905,0.0804 -0.414866,0.0804 -0.224367,0 -0.414866,-0.0804 -0.1905,-0.0847 -0.3302,-0.23706 -0.135467,-0.1524 -0.211667,-0.36407 -0.0762,-0.21167 -0.0762,-0.47413 0,-0.25823 0.0762,-0.4699 0.0762,-0.2159 0.211667,-0.3683 0.1397,-0.1524 0.3302,-0.23283 0.190499,-0.0847 0.414866,-0.0847 0.224366,0 0.414866,0.0847 0.1905,0.0804 0.325967,0.23283 0.139699,0.1524 0.215899,0.3683 0.0762,0.21167 0.0762,0.4699 z m -0.410633,0 q 0,-0.37253 -0.169333,-0.58843 -0.1651,-0.22014 -0.452966,-0.22014 -0.287867,0 -0.4572,0.22014 -0.1651,0.2159 -0.1651,0.58843 0,0.37253 0.1651,0.59266 0.169333,0.2159 0.4572,0.2159 0.287866,0 0.452966,-0.2159 0.169333,-0.22013 0.169333,-0.59266 z m 2.71779,1.03716 q -0.135466,0.0339 -0.359833,0.072 -0.220133,0.0381 -0.512233,0.0381 -0.253999,0 -0.427566,-0.072 -0.173566,-0.0762 -0.2794,-0.21166 -0.105833,-0.13547 -0.1524,-0.3175 -0.04657,-0.18627 -0.04657,-0.41064 v -1.23613 h 0.393699 v 1.15147 q 0,0.40216 0.127,0.57573 0.127,0.17357 0.427567,0.17357 0.0635,0 0.131233,-0.004 0.06773,-0.004 0.127,-0.008 0.05927,-0.008 0.105833,-0.0127 0.0508,-0.008 0.07197,-0.0169 v -1.85843 h 0.393699 z m 0.677331,-2.07433 q 0.135466,-0.0339 0.359833,-0.072 0.224366,-0.0381 0.516466,-0.0381 0.262466,0 0.436033,0.0762 0.173566,0.072 0.275166,0.20743 0.105833,0.13123 0.148167,0.3175 0.04233,0.18627 0.04233,0.41063 v 1.23613 h -0.3937 v -1.15146 q 0,-0.2032 -0.02963,-0.34713 -0.0254,-0.14394 -0.0889,-0.23284 -0.0635,-0.0889 -0.169333,-0.127 -0.105833,-0.0423 -0.262466,-0.0423 -0.0635,0 -0.131234,0.004 -0.06773,0.004 -0.131233,0.0127 -0.05927,0.004 -0.110066,0.0127 -0.04657,0.008 -0.06773,0.0127 v 1.85843 h -0.393699 z"
         id="text66"
         style="font-size:4.23333px;line-height:1.25;font-family:Ubuntu;-inkscape-font-specification:'Ubuntu, Normal';stroke-width:0.264583"
         aria-label="noun" />
      <path
         d="m 31.620145,183.51051 q 0.0508,0 0.1143,0.008 0.06773,0.004 0.131233,0.0169 0.0635,0.008 0.1143,0.0212 0.05503,0.008 0.08043,0.0169 l -0.06773,0.3429 q -0.04657,-0.0169 -0.156633,-0.0381 -0.105833,-0.0254 -0.275166,-0.0254 -0.110067,0 -0.220134,0.0254 -0.105833,0.0212 -0.1397,0.0296 v 1.84997 h -0.393699 v -2.1082 q 0.1397,-0.0508 0.347133,-0.0931 0.207433,-0.0466 0.465666,-0.0466 z m 0.698498,1.15147 q 0,-0.2921 0.08467,-0.508 0.08467,-0.22014 0.224366,-0.36407 0.1397,-0.14393 0.321733,-0.2159 0.182034,-0.072 0.372533,-0.072 0.4445,0 0.681566,0.2794 0.237067,0.27517 0.237067,0.84244 0,0.0254 0,0.0677 0,0.0381 -0.0042,0.072 h -1.507066 q 0.0254,0.34289 0.198967,0.52069 0.173566,0.1778 0.541866,0.1778 0.207433,0 0.347133,-0.0339 0.143933,-0.0381 0.2159,-0.072 l 0.05503,0.3302 q -0.07197,0.0381 -0.254,0.0804 -0.1778,0.0423 -0.406399,0.0423 -0.287867,0 -0.499533,-0.0847 -0.207433,-0.0889 -0.3429,-0.2413 -0.135467,-0.1524 -0.2032,-0.35983 -0.0635,-0.21167 -0.0635,-0.46143 z m 1.511299,-0.2159 q 0.0042,-0.2667 -0.135467,-0.43604 -0.135466,-0.17356 -0.376766,-0.17356 -0.135467,0 -0.2413,0.055 -0.1016,0.0508 -0.173566,0.13547 -0.07197,0.0847 -0.1143,0.19473 -0.0381,0.11007 -0.0508,0.22437 z m 2.40029,-0.42334 q -0.07197,-0.0593 -0.207433,-0.1143 -0.135467,-0.055 -0.296333,-0.055 -0.169333,0 -0.2921,0.0635 -0.118533,0.0593 -0.194733,0.16933 -0.0762,0.10584 -0.110067,0.254 -0.03387,0.14817 -0.03387,0.3175 0,0.38523 0.190499,0.5969 0.1905,0.20743 0.508,0.20743 0.160867,0 0.2667,-0.0127 0.110066,-0.0169 0.169333,-0.0339 z m 0,-1.48166 0.3937,-0.0677 v 3.22157 q -0.135467,0.0381 -0.347133,0.0762 -0.211667,0.0381 -0.486833,0.0381 -0.254,0 -0.4572,-0.0804 -0.2032,-0.0804 -0.347133,-0.2286 -0.143933,-0.14816 -0.224366,-0.35983 -0.0762,-0.2159 -0.0762,-0.4826 0,-0.254 0.0635,-0.46566 0.06773,-0.21167 0.194733,-0.36407 0.127,-0.1524 0.309033,-0.23707 0.186266,-0.0847 0.423333,-0.0847 0.1905,0 0.334433,0.0508 0.148166,0.0508 0.220133,0.0974 z m 1.485894,2.73473 q 0.0042,0.0339 0.0042,0.0677 0,0.0296 0,0.0635 0,0.2667 -0.08043,0.52493 -0.0762,0.26247 -0.211667,0.49954 l -0.304799,-0.0974 q 0.105833,-0.2159 0.139699,-0.44027 0.03387,-0.22013 0.03387,-0.41486 0,-0.055 -0.0042,-0.10584 0,-0.0508 -0.0042,-0.0974 z m 1.99812,-1.62137 q 0.07197,-0.0466 0.2159,-0.0974 0.148167,-0.0508 0.338666,-0.0508 0.237067,0 0.4191,0.0847 0.186267,0.0847 0.313266,0.23707 0.127,0.1524 0.1905,0.36407 0.06773,0.21166 0.06773,0.46566 0,0.2667 -0.08043,0.4826 -0.0762,0.21167 -0.220133,0.35983 -0.143933,0.14817 -0.347133,0.2286 -0.2032,0.0804 -0.457199,0.0804 -0.275167,0 -0.486833,-0.0381 -0.211667,-0.0381 -0.347133,-0.0762 v -3.15383 l 0.393699,-0.0677 z m 0,1.76107 q 0.05927,0.0169 0.1651,0.0339 0.110067,0.0127 0.270933,0.0127 0.3175,0 0.508,-0.20743 0.1905,-0.21167 0.1905,-0.5969 0,-0.16933 -0.03387,-0.3175 -0.03387,-0.14816 -0.110067,-0.254 -0.0762,-0.11006 -0.198966,-0.16933 -0.118533,-0.0635 -0.287867,-0.0635 -0.160866,0 -0.296333,0.055 -0.135466,0.055 -0.207433,0.1143 z m 2.760126,0.38523 q -0.364066,-0.008 -0.516466,-0.15663 -0.1524,-0.14817 -0.1524,-0.46144 v -2.64159 l 0.3937,-0.0677 v 2.64583 q 0,0.0974 0.01693,0.16087 0.01693,0.0635 0.05503,0.1016 0.0381,0.0381 0.101599,0.0593 0.0635,0.0169 0.156634,0.0296 z m 2.247893,-0.10583 q -0.135466,0.0339 -0.359833,0.072 -0.220133,0.0381 -0.512233,0.0381 -0.253999,0 -0.427566,-0.072 -0.173566,-0.0762 -0.2794,-0.21167 -0.105833,-0.13547 -0.152399,-0.3175 -0.04657,-0.18627 -0.04657,-0.41063 v -1.23613 h 0.3937 v 1.15146 q 0,0.40217 0.126999,0.57573 0.127,0.17357 0.427567,0.17357 0.0635,0 0.131233,-0.004 0.06773,-0.004 0.127,-0.008 0.05927,-0.008 0.105833,-0.0127 0.0508,-0.008 0.07197,-0.0169 v -1.85843 h 0.393699 z m 0.554564,-1.03293 q 0,-0.2921 0.08467,-0.508 0.08467,-0.22014 0.224366,-0.36407 0.1397,-0.14393 0.321733,-0.2159 0.182033,-0.072 0.372533,-0.072 0.4445,0 0.681566,0.2794 0.237067,0.27517 0.237067,0.84244 0,0.0254 0,0.0677 0,0.0381 -0.0042,0.072 h -1.507066 q 0.0254,0.34289 0.198967,0.52069 0.173566,0.1778 0.541866,0.1778 0.207433,0 0.347133,-0.0339 0.143933,-0.0381 0.2159,-0.072 l 0.05503,0.3302 q -0.07197,0.0381 -0.254,0.0804 -0.1778,0.0423 -0.406399,0.0423 -0.287867,0 -0.499533,-0.0847 -0.207434,-0.0889 -0.3429,-0.2413 -0.135467,-0.1524 -0.2032,-0.35983 -0.0635,-0.21167 -0.0635,-0.46143 z m 1.511299,-0.2159 q 0.0042,-0.2667 -0.135467,-0.43604 -0.135466,-0.17356 -0.376766,-0.17356 -0.135467,0 -0.2413,0.055 -0.1016,0.0508 -0.173566,0.13547 -0.07197,0.0847 -0.1143,0.19473 -0.0381,0.11007 -0.0508,0.22437 z m 1.392758,0.82973 q 0.0042,0.0339 0.0042,0.0677 0,0.0296 0,0.0635 0,0.2667 -0.08043,0.52493 -0.0762,0.26247 -0.211667,0.49954 l -0.3048,-0.0974 q 0.105834,-0.2159 0.1397,-0.44027 0.03387,-0.22013 0.03387,-0.41486 0,-0.055 -0.0042,-0.10584 0,-0.0508 -0.0042,-0.0974 z m 1.346187,0.89323 q 0.04657,0.0212 0.118534,0.0381 0.0762,0.0212 0.148166,0.0212 0.232833,0 0.364066,-0.10584 0.131234,-0.1016 0.237067,-0.33443 -0.2667,-0.508 -0.499533,-1.07526 -0.2286,-0.5715 -0.381,-1.1557 h 0.423333 q 0.04657,0.1905 0.110067,0.41063 0.06773,0.22013 0.148166,0.45297 0.08043,0.23283 0.173567,0.46566 0.09313,0.23283 0.194733,0.44873 0.160867,-0.4445 0.2794,-0.88053 0.118533,-0.43603 0.224366,-0.89746 h 0.4064 q -0.1524,0.6223 -0.338666,1.19803 -0.186267,0.5715 -0.402167,1.07103 -0.08467,0.1905 -0.1778,0.32597 -0.0889,0.1397 -0.198966,0.2286 -0.110067,0.0889 -0.249767,0.13123 -0.135466,0.0423 -0.309033,0.0423 -0.04657,0 -0.09737,-0.008 -0.0508,-0.004 -0.1016,-0.0169 -0.04657,-0.008 -0.0889,-0.0212 -0.0381,-0.0127 -0.05503,-0.0212 z m 2.239431,-1.50706 q 0,-0.2921 0.08467,-0.508 0.08467,-0.22014 0.224367,-0.36407 0.1397,-0.14393 0.321733,-0.2159 0.182033,-0.072 0.372533,-0.072 0.444499,0 0.681566,0.2794 0.237066,0.27517 0.237066,0.84244 0,0.0254 0,0.0677 0,0.0381 -0.0042,0.072 h -1.507065 q 0.0254,0.34289 0.198966,0.52069 0.173567,0.1778 0.541866,0.1778 0.207434,0 0.347133,-0.0339 0.143934,-0.0381 0.2159,-0.072 l 0.05503,0.3302 q -0.07197,0.0381 -0.254,0.0804 -0.1778,0.0423 -0.4064,0.0423 -0.287866,0 -0.499533,-0.0847 -0.207433,-0.0889 -0.3429,-0.2413 -0.135466,-0.1524 -0.203199,-0.35983 -0.0635,-0.21167 -0.0635,-0.46143 z m 1.511298,-0.2159 q 0.0042,-0.2667 -0.135466,-0.43604 -0.135467,-0.17356 -0.376766,-0.17356 -0.135467,0 -0.2413,0.055 -0.1016,0.0508 -0.173567,0.13547 -0.07197,0.0847 -0.1143,0.19473 -0.0381,0.11007 -0.0508,0.22437 z m 1.63829,1.35466 q -0.364066,-0.008 -0.516466,-0.15663 -0.1524,-0.14817 -0.1524,-0.46144 v -2.64159 l 0.3937,-0.0677 v 2.64583 q 0,0.0974 0.01693,0.16087 0.01693,0.0635 0.05503,0.1016 0.0381,0.0381 0.101599,0.0593 0.0635,0.0169 0.156634,0.0296 z m 1.155695,0 q -0.364066,-0.008 -0.516466,-0.15663 -0.1524,-0.14817 -0.1524,-0.46144 v -2.64159 l 0.3937,-0.0677 v 2.64583 q 0,0.0974 0.01693,0.16087 0.01693,0.0635 0.05503,0.1016 0.0381,0.0381 0.1016,0.0593 0.0635,0.0169 0.156634,0.0296 z m 2.438392,-1.143 q 0,0.26247 -0.0762,0.47413 -0.0762,0.21167 -0.215899,0.36407 -0.135467,0.1524 -0.325967,0.23707 -0.1905,0.0804 -0.414866,0.0804 -0.224367,0 -0.414866,-0.0804 -0.1905,-0.0847 -0.3302,-0.23707 -0.135467,-0.1524 -0.211667,-0.36407 -0.0762,-0.21166 -0.0762,-0.47413 0,-0.25823 0.0762,-0.4699 0.0762,-0.2159 0.211667,-0.3683 0.1397,-0.1524 0.3302,-0.23283 0.190499,-0.0847 0.414866,-0.0847 0.224366,0 0.414866,0.0847 0.1905,0.0804 0.325967,0.23283 0.139699,0.1524 0.215899,0.3683 0.0762,0.21167 0.0762,0.4699 z m -0.410633,0 q 0,-0.37253 -0.169333,-0.58843 -0.1651,-0.22013 -0.452966,-0.22013 -0.287867,0 -0.4572,0.22013 -0.1651,0.2159 -0.1651,0.58843 0,0.37253 0.1651,0.59267 0.169333,0.2159 0.4572,0.2159 0.287866,0 0.452966,-0.2159 0.169333,-0.22014 0.169333,-0.59267 z m 2.709321,1.10067 q -0.118533,-0.3048 -0.253999,-0.69427 -0.131234,-0.3937 -0.2413,-0.81703 -0.110067,0.42333 -0.2413,0.81703 -0.131233,0.38947 -0.249767,0.69427 h -0.342899 q -0.194733,-0.43604 -0.381,-0.99483 -0.186266,-0.5588 -0.351366,-1.2065 h 0.423333 q 0.04233,0.19896 0.1016,0.4318 0.05927,0.23283 0.122766,0.46566 0.06773,0.23284 0.1397,0.44873 0.07197,0.2159 0.135467,0.37677 0.07197,-0.19897 0.139699,-0.4191 0.07197,-0.22436 0.135467,-0.44873 0.0635,-0.2286 0.118533,-0.4445 0.05927,-0.22013 0.1016,-0.41063 h 0.325967 q 0.0381,0.1905 0.09313,0.41063 0.05503,0.2159 0.118533,0.4445 0.0635,0.22437 0.131233,0.44873 0.07197,0.22013 0.143933,0.4191 0.0635,-0.16087 0.131234,-0.37677 0.07197,-0.21589 0.1397,-0.44873 0.06773,-0.23283 0.126999,-0.46566 0.05927,-0.23284 0.1016,-0.4318 h 0.4064 q -0.1651,0.6477 -0.351366,1.2065 -0.186267,0.55879 -0.381,0.99483 z m 2.345256,-1.09643 q 0,-0.2921 0.08467,-0.508 0.08467,-0.22014 0.224367,-0.36407 0.1397,-0.14393 0.321733,-0.2159 0.182033,-0.072 0.372533,-0.072 0.444499,0 0.681566,0.2794 0.237066,0.27517 0.237066,0.84244 0,0.0254 0,0.0677 0,0.0381 -0.0042,0.072 h -1.507065 q 0.0254,0.34289 0.198966,0.52069 0.173567,0.1778 0.541866,0.1778 0.207434,0 0.347133,-0.0339 0.143934,-0.0381 0.2159,-0.072 l 0.05503,0.3302 q -0.07197,0.0381 -0.254,0.0804 -0.1778,0.0423 -0.4064,0.0423 -0.287866,0 -0.499533,-0.0847 -0.207433,-0.0889 -0.3429,-0.2413 -0.135466,-0.1524 -0.203199,-0.35983 -0.0635,-0.21167 -0.0635,-0.46143 z m 1.511298,-0.2159 q 0.0042,-0.2667 -0.135466,-0.43604 -0.135467,-0.17356 -0.376766,-0.17356 -0.135467,0 -0.2413,0.055 -0.1016,0.0508 -0.173567,0.13547 -0.07197,0.0847 -0.1143,0.19473 -0.0381,0.11007 -0.0508,0.22437 z m 1.346193,-0.889 h 0.833965 v 0.3302 h -0.833965 v 1.01599 q 0,0.1651 0.0254,0.27517 0.0254,0.10583 0.0762,0.16933 0.0508,0.0593 0.127,0.0847 0.0762,0.0254 0.1778,0.0254 0.1778,0 0.283633,-0.0381 0.110067,-0.0423 0.1524,-0.0593 l 0.0762,0.32597 q -0.05927,0.0296 -0.207433,0.072 -0.148167,0.0466 -0.338666,0.0466 -0.224367,0 -0.372533,-0.055 -0.143934,-0.0593 -0.232834,-0.17357 -0.0889,-0.1143 -0.127,-0.2794 -0.03387,-0.16933 -0.03387,-0.38946 v -1.96427 l 0.3937,-0.0677 z m 2.235188,2.25213 q -0.2667,0 -0.4699,-0.0847 -0.198967,-0.0847 -0.338666,-0.23707 -0.135467,-0.1524 -0.2032,-0.35983 -0.06773,-0.21167 -0.06773,-0.46566 0,-0.254 0.07197,-0.46567 0.0762,-0.21167 0.211667,-0.36407 0.135466,-0.15663 0.330199,-0.2413 0.198967,-0.0889 0.440267,-0.0889 0.148166,0 0.296333,0.0254 0.148166,0.0254 0.283633,0.0804 l -0.0889,0.33443 q -0.0889,-0.0423 -0.207433,-0.0677 -0.1143,-0.0254 -0.245533,-0.0254 -0.3302,0 -0.508,0.20743 -0.173567,0.20743 -0.173567,0.60537 0,0.1778 0.0381,0.32596 0.04233,0.14817 0.127,0.254 0.0889,0.10583 0.224367,0.1651 0.135466,0.055 0.3302,0.055 0.156633,0 0.283633,-0.0296 0.127,-0.0296 0.198966,-0.0635 l 0.05503,0.3302 q -0.03387,0.0212 -0.09737,0.0423 -0.0635,0.0169 -0.143933,0.0296 -0.08043,0.0169 -0.173567,0.0254 -0.0889,0.0127 -0.173566,0.0127 z m 1.519752,-0.2794 q 0,0.1143 -0.0762,0.19896 -0.0762,0.0847 -0.207433,0.0847 -0.131234,0 -0.207433,-0.0847 -0.0762,-0.0847 -0.0762,-0.19896 0,-0.1143 0.0762,-0.19897 0.0762,-0.0847 0.207433,-0.0847 0.131233,0 0.207433,0.0847 0.0762,0.0847 0.0762,0.19897 z"
         id="text67"
         style="font-size:4.23333px;line-height:1.25;font-family:Ubuntu;-inkscape-font-specification:'Ubuntu, Normal';stroke-width:0.264583"
         aria-label="red, blue, yellow etc." />
      <path
         id="rect67"
         style="fill:#999999;stroke-width:0.465;stroke-linecap:square;stroke-miterlimit:40;paint-order:fill markers stroke"
         d="m 23.288132,183.05734 h 2.196578 v 2.50828 h -2.196578 z" />
      <path
         d="m 34.293424,190.0184 -0.02015,0.16347 q -0.176906,0.0381 -0.250803,0.0694 -0.0739,0.0291 -0.08733,0.0694 l -0.799434,2.38711 q -0.02239,0.0649 -0.08733,0.10524 -0.0627,0.0403 -0.134358,0.0627 -0.06942,0.0224 -0.111966,0.0313 l -0.429948,-2.03105 -0.84422,1.83176 q -0.04255,0.0963 -0.158991,0.13883 -0.116445,0.0425 -0.19482,0.0605 L 30.9882,190.33862 q -0.0045,-0.056 -0.0627,-0.0918 -0.05822,-0.0358 -0.201538,-0.0649 l 0.02239,-0.16347 h 1.012169 l -0.02015,0.16347 q -0.206017,0.0224 -0.250803,0.0649 -0.04255,0.0425 -0.03807,0.0918 l 0.127641,1.63694 0.87557,-1.95716 h 0.210496 l 0.42323,1.95716 0.559828,-1.65485 q 0.01568,-0.0515 -0.0739,-0.0828 -0.08733,-0.0314 -0.223931,-0.056 l 0.02015,-0.16347 z m 2.093756,2.57521 q -0.138837,0.0806 -0.288871,0.15899 -0.150034,0.0784 -0.282153,0.12764 -0.129881,0.0515 -0.212735,0.0515 -0.06494,0 -0.116444,-0.0717 -0.0515,-0.0694 -0.0515,-0.19034 -0.0022,-0.047 0.01568,-0.17019 0.02015,-0.12316 0.04702,-0.28439 0.02687,-0.16123 0.0515,-0.32246 0.02687,-0.16347 0.04479,-0.29335 0.02015,-0.13212 0.02015,-0.19258 0,-0.14556 -0.02687,-0.19035 -0.02687,-0.047 -0.08509,-0.047 -0.05822,0 -0.203777,0.0784 -0.145556,0.0761 -0.273196,0.28888 -0.0627,0.10524 -0.105248,0.26871 -0.04255,0.16123 -0.0739,0.36053 -0.03807,0.24633 -0.04479,0.35605 -0.0067,0.10749 -0.0067,0.17691 -0.02911,0.0134 -0.100769,0.0448 -0.06942,0.0314 -0.154512,0.0694 -0.08286,0.0381 -0.152273,0.0694 -0.06942,0.0336 -0.09629,0.0493 l -0.09181,-0.0873 q 0.02687,-0.15899 0.06718,-0.40531 0.04255,-0.24857 0.08957,-0.53968 0.04703,-0.29335 0.09405,-0.59341 0.04703,-0.30007 0.08509,-0.57103 0.03807,-0.27319 0.06046,-0.47697 0.02463,-0.20378 0.02463,-0.29783 0,-0.10301 -0.02911,-0.1254 -0.02687,-0.0246 -0.0627,-0.0246 -0.03583,0 -0.118683,0.0246 -0.08062,0.0224 -0.123162,0.0358 l -0.03583,-0.15451 q 0.125401,-0.056 0.29111,-0.12093 0.165709,-0.0649 0.309025,-0.11196 0.143316,-0.047 0.199299,-0.047 0.06046,0 0.103008,0.0403 0.04479,0.0403 0.04479,0.14332 0,0.0627 -0.01792,0.21497 -0.01791,0.15003 -0.04703,0.34709 -0.02687,0.19482 -0.05822,0.3986 -0.03135,0.20154 -0.05822,0.37173 -0.02687,0.17018 -0.04255,0.26871 0.262,-0.25976 0.492649,-0.36724 0.230649,-0.10973 0.432187,-0.10973 0.141077,0 0.214974,0.0717 0.0739,0.0717 0.0739,0.28887 0,0.11644 -0.02911,0.29559 -0.02911,0.1769 -0.06494,0.36948 -0.03583,0.19259 -0.06494,0.35829 -0.02687,0.16571 -0.02687,0.25753 0,0.0761 0.02015,0.10524 0.02015,0.0269 0.06046,0.0269 0.06046,0 0.114204,-0.0179 0.05598,-0.0202 0.13212,-0.056 z m 2.257226,0.009 q -0.190342,0.13436 -0.360529,0.23289 -0.170188,0.0963 -0.248564,0.0963 -0.05374,0 -0.127641,-0.0582 -0.07166,-0.056 -0.125401,-0.20153 -0.05374,-0.14556 -0.05374,-0.41204 0,-0.0515 0.01344,-0.16571 0.01568,-0.1142 0.03807,-0.25976 0.02239,-0.14555 0.04479,-0.29111 0.02463,-0.14555 0.04479,-0.25976 0.02015,-0.11644 0.02911,-0.16794 0.01567,-0.0694 0.120923,-0.1366 0.105248,-0.0672 0.237367,-0.12764 0.134359,-0.0605 0.235128,-0.10749 l 0.06942,0.14555 q -0.0739,0.0627 -0.107487,0.11421 -0.03135,0.0493 -0.06046,0.20154 -0.06942,0.32022 -0.107487,0.59118 -0.03583,0.26871 -0.03583,0.36724 0,0.15452 0.03135,0.25528 0.03359,0.0985 0.08733,0.0985 0.04479,0 0.09629,-0.0112 0.05374,-0.0134 0.143316,-0.0515 z m -0.219453,-1.60111 q -0.0627,0.0448 -0.120922,0.14332 -0.05822,0.0985 -0.107487,0.18138 -0.04927,0.0829 -0.08957,0.0829 -0.02911,0 -0.08285,-0.0515 -0.05374,-0.0537 -0.123162,-0.12092 -0.06942,-0.0694 -0.147795,-0.12092 -0.07614,-0.0538 -0.150034,-0.0538 -0.141077,0.004 -0.246324,0.0985 -0.105248,0.0918 -0.174667,0.23737 -0.06942,0.14331 -0.105247,0.30231 -0.03359,0.15899 -0.03359,0.29111 0,0.2508 0.06718,0.3762 0.06718,0.12316 0.150033,0.12316 0.0739,0 0.214974,-0.14331 0.143316,-0.14556 0.320222,-0.41428 l -0.04031,0.43219 q -0.09405,0.1366 -0.212734,0.26648 -0.116445,0.12988 -0.244085,0.21497 -0.125402,0.0851 -0.253043,0.0851 -0.107486,0 -0.22617,-0.0784 -0.118684,-0.0761 -0.201538,-0.24632 -0.08286,-0.17019 -0.08286,-0.4501 0,-0.35382 0.174667,-0.66956 0.174666,-0.31574 0.490409,-0.53296 0.120923,-0.0829 0.29111,-0.14555 0.170188,-0.0649 0.35829,-0.0649 0.116445,0 0.22841,0.0627 0.114205,0.0605 0.203777,0.1254 0.09181,0.0627 0.143316,0.0694 z m 1.85415,-0.10973 q -0.03135,0.0426 -0.09405,0.10525 -0.0627,0.0627 -0.125401,0.11645 -0.0627,0.0537 -0.08957,0.0694 -0.02687,-0.0627 -0.105247,-0.0806 -0.07838,-0.0202 -0.221692,-0.0202 h -0.835263 l -0.0515,-0.0873 0.268718,-0.18138 h 1.191314 z m -0.136598,1.60111 q -0.246324,0.19482 -0.483691,0.31798 -0.237367,0.12093 -0.360529,0.12093 -0.136598,0 -0.25976,-0.1254 -0.120923,-0.12765 -0.120923,-0.3247 0,-0.0851 0.0045,-0.17243 0.0067,-0.0896 0.02687,-0.21274 l 0.217213,-1.3615 q 0.02687,-0.17466 0.06046,-0.23065 0.03359,-0.056 0.09405,-0.0873 l 0.427708,-0.2105 0.0627,0.056 q -0.01791,0.0157 -0.0515,0.11868 -0.03135,0.10077 -0.0627,0.30231 l -0.190341,1.20699 q -0.01344,0.0873 -0.02015,0.18362 -0.0067,0.0963 -0.0067,0.14108 0,0.13883 0.04031,0.19706 0.04255,0.0582 0.105247,0.0582 0.138838,0 0.45682,-0.14332 z m 2.241552,-2.47892 q 0,0.0829 -0.04703,0.17243 -0.04479,0.0873 -0.132119,0.15003 -0.08733,0.0605 -0.214974,0.0605 -0.118684,0 -0.174666,-0.056 -0.05374,-0.0582 -0.05374,-0.13436 0,-0.0806 0.04479,-0.17018 0.04703,-0.0896 0.134359,-0.15228 0.08957,-0.0627 0.212735,-0.0627 0.120922,0 0.174666,0.0582 0.05598,0.0582 0.05598,0.13435 z m -0.0515,2.57969 q -0.141076,0.0829 -0.286631,0.16123 -0.145556,0.0784 -0.273196,0.12764 -0.125402,0.0493 -0.208256,0.0493 -0.0739,0 -0.127641,-0.0717 -0.05374,-0.0694 -0.05374,-0.19034 0,-0.0806 0.02015,-0.22393 0.02015,-0.14556 0.0515,-0.31799 0.03135,-0.17466 0.0627,-0.34485 0.03135,-0.17243 0.0515,-0.30902 0.02015,-0.1366 0.02015,-0.20154 0,-0.10301 -0.02463,-0.1254 -0.02463,-0.0246 -0.06718,-0.0246 -0.02687,0 -0.09181,0.0179 -0.06494,0.0179 -0.114204,0.0358 l -0.04031,-0.15004 q 0.125401,-0.0582 0.286632,-0.12316 0.16347,-0.0649 0.302307,-0.11196 0.138837,-0.047 0.19482,-0.047 0.0627,0 0.09629,0.0425 0.03583,0.0425 0.03583,0.14555 0,0.0784 -0.02239,0.22617 -0.02239,0.14556 -0.05374,0.3247 -0.03135,0.17691 -0.06494,0.35605 -0.03135,0.17691 -0.05374,0.32246 -0.02239,0.14556 -0.02239,0.22394 0,0.13211 0.06718,0.13211 0.06942,0 0.125401,-0.0157 0.05822,-0.0179 0.147795,-0.0582 z m 1.831757,-1.64365 q -0.0515,0.0672 -0.118683,0.15003 -0.06718,0.0806 -0.127641,0.13884 -0.05822,0.0582 -0.08733,0.0582 -0.03583,0 -0.08062,-0.0448 -0.04255,-0.0448 -0.09853,-0.103 -0.05374,-0.0605 -0.120923,-0.10525 -0.06494,-0.0448 -0.145555,-0.0448 -0.123162,0 -0.190342,0.0649 -0.06494,0.0649 -0.06494,0.17019 0,0.10525 0.09181,0.18362 0.09181,0.0784 0.273196,0.17019 0.120923,0.0627 0.235128,0.14332 0.114205,0.0784 0.185863,0.19034 0.0739,0.11196 0.0739,0.27095 0,0.15452 -0.09405,0.28888 -0.09181,0.13435 -0.239607,0.23512 -0.145555,0.10077 -0.313503,0.15675 -0.165709,0.0582 -0.311264,0.0582 -0.190342,0 -0.342615,-0.0605 -0.152273,-0.0582 -0.241846,-0.13884 -0.08957,-0.0829 -0.08957,-0.14556 0,-0.0314 0.03135,-0.0985 0.03135,-0.0672 0.07614,-0.13883 0.04479,-0.0739 0.08733,-0.12541 0.04479,-0.0515 0.06718,-0.0515 0.02911,0 0.06718,0.0717 0.03807,0.0717 0.09853,0.16795 0.06046,0.0941 0.154513,0.16571 0.09629,0.0716 0.237367,0.0716 0.145555,0 0.230649,-0.0806 0.08733,-0.0829 0.08733,-0.21274 0,-0.15227 -0.141077,-0.262 -0.138837,-0.11196 -0.306785,-0.19705 -0.237367,-0.11869 -0.322461,-0.24633 -0.08286,-0.12988 -0.08286,-0.2732 0,-0.14107 0.08062,-0.25752 0.08062,-0.11644 0.210495,-0.19929 0.132119,-0.0851 0.282153,-0.12988 0.150034,-0.047 0.288871,-0.047 0.158991,0 0.273196,0.0448 0.114205,0.0448 0.203778,0.0941 0.09181,0.0493 0.183623,0.0672 z m 2.194526,1.76681 -0.367247,0.43219 -0.0739,-0.0649 q -0.03135,-0.19258 -0.09181,-0.45234 -0.05822,-0.25976 -0.127641,-0.524 -0.06718,-0.26424 -0.134359,-0.47921 -0.06718,-0.21498 -0.116444,-0.32246 -0.0515,-0.11421 -0.08733,-0.1478 -0.03583,-0.0358 -0.0739,-0.0358 -0.03135,0 -0.09853,0.0179 -0.06718,0.0179 -0.120923,0.0358 l -0.04479,-0.15004 q 0.132119,-0.0649 0.273196,-0.12988 0.141076,-0.0649 0.257521,-0.10748 0.116444,-0.0448 0.167948,-0.0448 0.0627,0 0.109726,0.0649 0.04703,0.0649 0.100769,0.21945 0.06494,0.1881 0.143316,0.47026 0.08062,0.28215 0.156752,0.60013 0.07614,0.31799 0.127641,0.61805 z m 0.871092,-1.80264 q 0,0.10077 -0.103008,0.34709 -0.103009,0.24409 -0.282154,0.60238 -0.179145,0.35605 -0.414272,0.79271 -0.206017,0.38516 -0.409794,0.67851 -0.201538,0.29335 -0.42323,0.45906 -0.219453,0.16571 -0.481452,0.16571 -0.116444,0 -0.223931,-0.0358 -0.109727,-0.0358 -0.181385,-0.0828 -0.07166,-0.047 -0.07166,-0.0806 0,-0.0314 0.03583,-0.0963 0.03583,-0.0627 0.08957,-0.13436 0.0515,-0.0717 0.103008,-0.12764 0.0515,-0.056 0.08286,-0.0739 0.105247,0.10076 0.212734,0.14779 0.109727,0.0493 0.192581,0.0493 0.165709,0 0.347094,-0.22393 0.183623,-0.22393 0.398597,-0.627 0.116444,-0.21946 0.22841,-0.45011 0.114205,-0.23064 0.203777,-0.43666 0.09181,-0.20826 0.145555,-0.36277 0.05374,-0.15451 0.05374,-0.22169 0,-0.11868 -0.118684,-0.11868 -0.06718,0 -0.185863,0.0515 l -0.05822,-0.15003 q 0.161231,-0.0918 0.351572,-0.16571 0.192581,-0.0761 0.306786,-0.0761 0.07614,0 0.138837,0.0291 0.0627,0.0291 0.0627,0.14108 z m 1.945962,0.67403 q 0,0.29783 -0.147795,0.60237 -0.147794,0.30231 -0.398597,0.50833 -0.116444,0.0963 -0.277675,0.16347 -0.158991,0.0694 -0.293349,0.0694 -0.232889,0 -0.400837,-0.11197 -0.167949,-0.1142 -0.257521,-0.30902 -0.08957,-0.19706 -0.08957,-0.44115 0,-0.32022 0.127641,-0.60013 0.12988,-0.27992 0.429948,-0.51057 0.116444,-0.0896 0.275435,-0.15227 0.158991,-0.0627 0.309025,-0.0627 0.351572,0 0.537435,0.23737 0.185863,0.23512 0.185863,0.60685 z m -0.52176,0.17467 q 0,-0.34038 -0.107487,-0.524 -0.105247,-0.18363 -0.248563,-0.18363 -0.172427,0 -0.275435,0.13212 -0.100769,0.13212 -0.145556,0.32694 -0.04255,0.19258 -0.04255,0.38293 0,0.19929 0.05374,0.36724 0.05598,0.16571 0.141076,0.26424 0.08733,0.0985 0.181385,0.0985 0.123162,0 0.208256,-0.0806 0.08509,-0.0829 0.136598,-0.21274 0.0515,-0.13212 0.0739,-0.28215 0.02463,-0.15004 0.02463,-0.28887 z m 3.000678,0.83974 q -0.176906,0.12092 -0.353812,0.22617 -0.174666,0.10301 -0.284392,0.10301 -0.07838,0 -0.156752,-0.0873 -0.07614,-0.0873 -0.118684,-0.26647 -0.04031,-0.17915 -0.01343,-0.45458 0.01343,-0.13884 0.04031,-0.30007 0.02911,-0.16347 0.05374,-0.31127 0.02463,-0.14779 0.02463,-0.2396 0,-0.10301 -0.02239,-0.1254 -0.02239,-0.0246 -0.06046,-0.0246 -0.02911,0 -0.08957,0.0179 -0.05822,0.0179 -0.105248,0.0358 l -0.04031,-0.15004 q 0.125401,-0.0582 0.288871,-0.12316 0.16347,-0.0649 0.302307,-0.11196 0.141077,-0.047 0.19482,-0.047 0.0627,0 0.08286,0.0425 0.02015,0.0425 0.02015,0.14555 0,0.0985 -0.02463,0.25976 -0.02463,0.15899 -0.05598,0.34038 -0.03135,0.17914 -0.05598,0.34485 -0.02463,0.16571 -0.02463,0.27544 0,0.20377 0.03135,0.28439 0.03135,0.0806 0.08733,0.0806 0.05822,0 0.107487,-0.0134 0.0515,-0.0157 0.132119,-0.0493 z m -0.895725,-0.68075 -0.02463,0.42995 q -0.172427,0.24856 -0.398598,0.41427 -0.22617,0.16571 -0.432187,0.16571 -0.08509,0 -0.176906,-0.0627 -0.09181,-0.0605 -0.156751,-0.18363 -0.0627,-0.12316 -0.0627,-0.30454 0,-0.10077 0.02239,-0.25305 0.02239,-0.15227 0.0515,-0.31798 0.02911,-0.16795 0.0515,-0.31126 0.02239,-0.14332 0.02239,-0.22617 0,-0.10301 -0.02687,-0.1254 -0.02463,-0.0246 -0.06494,-0.0246 -0.02687,0 -0.09405,0.0179 -0.06718,0.0179 -0.118683,0.0358 l -0.03583,-0.15004 q 0.127641,-0.0582 0.295589,-0.12316 0.167948,-0.0649 0.311264,-0.11196 0.145556,-0.047 0.199299,-0.047 0.06494,0 0.08733,0.0425 0.02239,0.0425 0.02239,0.14555 0,0.0985 -0.02687,0.27544 -0.02687,0.1769 -0.0627,0.37844 -0.03583,0.1993 -0.0627,0.37621 -0.02687,0.1769 -0.02687,0.27319 0,0.1254 0.03583,0.19258 0.03807,0.0649 0.08286,0.0649 0.07838,0 0.232888,-0.13212 0.154513,-0.13436 0.356051,-0.4389 z m 2.964849,-0.9853 q -0.02911,0.0358 -0.0739,0.11197 -0.04479,0.0761 -0.09405,0.15899 -0.04926,0.0829 -0.09181,0.14107 -0.04031,0.0582 -0.0627,0.0582 -0.05598,0 -0.105247,-0.0426 -0.04926,-0.0426 -0.09629,-0.0851 -0.04479,-0.0448 -0.08733,-0.0448 -0.07838,0 -0.176906,0.0985 -0.09853,0.0963 -0.190341,0.26648 -0.09181,0.16795 -0.154513,0.38292 -0.04926,0.16795 -0.07838,0.35381 -0.02911,0.18586 -0.02239,0.36277 -0.04703,0.0202 -0.154512,0.0694 -0.107487,0.047 -0.210495,0.094 -0.103009,0.0493 -0.141077,0.0694 l -0.08957,-0.0873 q 0.06494,-0.31798 0.118683,-0.627 0.05374,-0.31127 0.08509,-0.55983 0.03135,-0.2508 0.03135,-0.38516 0,-0.10301 -0.02687,-0.1254 -0.02687,-0.0246 -0.06494,-0.0246 -0.03135,0 -0.105248,0.0224 -0.0739,0.0202 -0.107487,0.0314 l -0.04031,-0.15004 q 0.127641,-0.0582 0.291111,-0.12316 0.165709,-0.0649 0.306786,-0.11196 0.141076,-0.047 0.19482,-0.047 0.0627,0 0.08285,0.047 0.02239,0.0448 0.02239,0.1769 0,0.047 -0.01344,0.15899 -0.01344,0.10973 -0.02687,0.19482 0.145555,-0.23513 0.261999,-0.36053 0.118684,-0.1254 0.221692,-0.17018 0.103008,-0.047 0.199299,-0.047 0.07838,0 0.188102,0.0761 0.111965,0.0761 0.210495,0.11644 z m 2.456525,-0.0448 q -0.02911,0.0426 -0.09405,0.10525 -0.06494,0.0627 -0.12988,0.11645 -0.0627,0.0537 -0.09405,0.0694 -0.02239,-0.0627 -0.09405,-0.0806 -0.07166,-0.0202 -0.214974,-0.0202 h -0.866614 l -0.0515,-0.0873 0.29335,-0.18138 h 1.191313 z m 0.611332,-1.17787 q -0.04926,0.0358 -0.123162,0.094 -0.0739,0.0582 -0.152273,0.11868 -0.07614,0.0605 -0.141077,0.10077 -0.0627,0.0403 -0.08957,0.0403 -0.04926,0 -0.09629,-0.0649 -0.04703,-0.0672 -0.105248,-0.13436 -0.05598,-0.0672 -0.132119,-0.0672 -0.09405,0 -0.158991,0.0873 -0.06494,0.0851 -0.107487,0.22393 -0.04255,0.1366 -0.06942,0.29559 -0.02463,0.15675 -0.04031,0.30007 l -0.19706,1.69964 q -0.03807,0.32694 -0.19258,0.62253 -0.152274,0.29783 -0.367248,0.52847 -0.212734,0.23289 -0.434426,0.36725 l -0.09181,-0.19258 q 0.150034,-0.0829 0.25976,-0.27543 0.111966,-0.19035 0.181385,-0.43891 0.07166,-0.24632 0.09853,-0.49041 l 0.19706,-1.70188 q 0.04479,-0.365 0.170187,-0.66731 0.127641,-0.30231 0.412034,-0.51504 0.118683,-0.0873 0.248563,-0.1478 0.12988,-0.0605 0.266478,-0.0605 0.147795,0 0.282154,0.0627 0.134358,0.0627 0.235127,0.13212 0.100769,0.0672 0.147795,0.0829 z m 1.390612,2.88871 q -0.190341,0.13436 -0.360529,0.23289 -0.170188,0.0963 -0.248563,0.0963 -0.05374,0 -0.127641,-0.0582 -0.07166,-0.056 -0.125402,-0.20153 -0.05374,-0.14556 -0.05374,-0.41204 0,-0.0515 0.01344,-0.16571 0.01568,-0.1142 0.03807,-0.25976 0.02239,-0.14555 0.04479,-0.29111 0.02463,-0.14555 0.04479,-0.25976 0.02015,-0.11644 0.02911,-0.16794 0.01568,-0.0694 0.120922,-0.1366 0.105248,-0.0672 0.237367,-0.12764 0.134359,-0.0605 0.235128,-0.10749 l 0.06942,0.14555 q -0.0739,0.0627 -0.107487,0.11421 -0.03135,0.0493 -0.06046,0.20154 -0.06942,0.32022 -0.107487,0.59118 -0.03583,0.26871 -0.03583,0.36724 0,0.15452 0.03135,0.25528 0.03359,0.0985 0.08733,0.0985 0.04479,0 0.09629,-0.0112 0.05374,-0.0134 0.143316,-0.0515 z m -0.219452,-1.60111 q -0.0627,0.0448 -0.120923,0.14332 -0.05822,0.0985 -0.107487,0.18138 -0.04926,0.0829 -0.08957,0.0829 -0.02911,0 -0.08285,-0.0515 -0.05374,-0.0537 -0.123162,-0.12092 -0.06942,-0.0694 -0.147795,-0.12092 -0.07614,-0.0538 -0.150034,-0.0538 -0.141076,0.004 -0.246324,0.0985 -0.105247,0.0918 -0.174666,0.23737 -0.06942,0.14331 -0.105248,0.30231 -0.03359,0.15899 -0.03359,0.29111 0,0.2508 0.06718,0.3762 0.06718,0.12316 0.150034,0.12316 0.0739,0 0.214974,-0.14331 0.143316,-0.14556 0.320221,-0.41428 l -0.04031,0.43219 q -0.09405,0.1366 -0.212735,0.26648 -0.116444,0.12988 -0.244085,0.21497 -0.125401,0.0851 -0.253042,0.0851 -0.107487,0 -0.226171,-0.0784 -0.118683,-0.0761 -0.201538,-0.24632 -0.08285,-0.17019 -0.08285,-0.4501 0,-0.35382 0.174666,-0.66956 0.174666,-0.31574 0.490409,-0.53296 0.120923,-0.0829 0.291111,-0.14555 0.170188,-0.0649 0.35829,-0.0649 0.116444,0 0.22841,0.0627 0.114204,0.0605 0.203777,0.1254 0.09181,0.0627 0.143316,0.0694 z m 2.349037,-0.0694 q 0,0.0963 -0.09405,0.29783 -0.09405,0.20154 -0.311264,0.56655 -0.214974,0.365 -0.582221,0.95394 -0.02463,0.0134 -0.103009,0.0538 -0.07838,0.0381 -0.158991,0.0761 -0.07838,0.0381 -0.107487,0.0515 l -0.08957,-0.0873 q -0.02463,-0.1881 -0.0627,-0.40755 -0.03807,-0.22169 -0.08062,-0.43891 -0.04031,-0.21721 -0.08062,-0.39411 -0.03807,-0.17915 -0.06942,-0.28216 -0.03583,-0.12092 -0.07838,-0.15227 -0.04255,-0.0314 -0.08286,-0.0314 -0.03135,0 -0.103008,0.0202 -0.06942,0.0202 -0.116444,0.0336 l -0.05374,-0.15003 q 0.125402,-0.0627 0.270957,-0.13212 0.145555,-0.0694 0.262,-0.11645 0.118683,-0.0493 0.165709,-0.0493 0.06494,0 0.105247,0.0627 0.04255,0.0627 0.08957,0.22169 0.02015,0.0694 0.04927,0.20826 0.03135,0.13884 0.06494,0.30902 0.03359,0.17019 0.0627,0.33366 0.02911,0.16347 0.04703,0.28439 0.02015,0.11869 0.02239,0.15228 0.206017,-0.3247 0.311264,-0.55311 0.105248,-0.22841 0.141077,-0.36277 0.03583,-0.13436 0.03583,-0.17691 0,-0.10972 -0.123162,-0.10972 -0.0739,0 -0.161231,0.0336 l -0.04926,-0.14556 q 0.09405,-0.0515 0.23065,-0.11197 0.138837,-0.0605 0.268717,-0.103 0.12988,-0.0425 0.197059,-0.0425 0.07838,0 0.12988,0.0425 0.05374,0.0403 0.05374,0.14555 z m 1.91685,0.65612 q 0,0.29783 -0.147794,0.60237 -0.147795,0.30231 -0.398598,0.50833 -0.116444,0.0963 -0.277675,0.16347 -0.158991,0.0694 -0.293349,0.0694 -0.232889,0 -0.400837,-0.11197 -0.167949,-0.1142 -0.257521,-0.30902 -0.08957,-0.19706 -0.08957,-0.44115 0,-0.32022 0.12764,-0.60013 0.12988,-0.27992 0.429948,-0.51057 0.116444,-0.0896 0.275435,-0.15227 0.158992,-0.0627 0.309025,-0.0627 0.351572,0 0.537435,0.23737 0.185863,0.23512 0.185863,0.60685 z m -0.52176,0.17467 q 0,-0.34038 -0.107486,-0.524 -0.105248,-0.18363 -0.248564,-0.18363 -0.172427,0 -0.275435,0.13212 -0.100769,0.13212 -0.145556,0.32694 -0.04255,0.19258 -0.04255,0.38293 0,0.19929 0.05374,0.36724 0.05598,0.16571 0.141077,0.26424 0.08733,0.0985 0.181384,0.0985 0.123162,0 0.208256,-0.0806 0.08509,-0.0829 0.136598,-0.21274 0.0515,-0.13212 0.0739,-0.28215 0.02463,-0.15004 0.02463,-0.28887 z m 3.000678,0.83974 q -0.176906,0.12092 -0.353812,0.22617 -0.174666,0.10301 -0.284392,0.10301 -0.07838,0 -0.156752,-0.0873 -0.07614,-0.0873 -0.118683,-0.26647 -0.04031,-0.17915 -0.01344,-0.45458 0.01344,-0.13884 0.04031,-0.30007 0.02911,-0.16347 0.05374,-0.31127 0.02463,-0.14779 0.02463,-0.2396 0,-0.10301 -0.02239,-0.1254 -0.02239,-0.0246 -0.06046,-0.0246 -0.02911,0 -0.08957,0.0179 -0.05822,0.0179 -0.105247,0.0358 l -0.04031,-0.15004 q 0.125401,-0.0582 0.288871,-0.12316 0.16347,-0.0649 0.302307,-0.11196 0.141077,-0.047 0.19482,-0.047 0.0627,0 0.08285,0.0425 0.02015,0.0425 0.02015,0.14555 0,0.0985 -0.02463,0.25976 -0.02463,0.15899 -0.05598,0.34038 -0.03135,0.17914 -0.05598,0.34485 -0.02463,0.16571 -0.02463,0.27544 0,0.20377 0.03135,0.28439 0.03135,0.0806 0.08733,0.0806 0.05822,0 0.107487,-0.0134 0.0515,-0.0157 0.132119,-0.0493 z m -0.895725,-0.68075 -0.02463,0.42995 q -0.172427,0.24856 -0.398598,0.41427 -0.22617,0.16571 -0.432187,0.16571 -0.08509,0 -0.176906,-0.0627 -0.09181,-0.0605 -0.156751,-0.18363 -0.0627,-0.12316 -0.0627,-0.30454 0,-0.10077 0.02239,-0.25305 0.02239,-0.15227 0.0515,-0.31798 0.02911,-0.16795 0.0515,-0.31126 0.02239,-0.14332 0.02239,-0.22617 0,-0.10301 -0.02687,-0.1254 -0.02463,-0.0246 -0.06494,-0.0246 -0.02687,0 -0.09405,0.0179 -0.06718,0.0179 -0.118684,0.0358 l -0.03583,-0.15004 q 0.127641,-0.0582 0.295589,-0.12316 0.167949,-0.0649 0.311265,-0.11196 0.145555,-0.047 0.199298,-0.047 0.06494,0 0.08733,0.0425 0.02239,0.0425 0.02239,0.14555 0,0.0985 -0.02687,0.27544 -0.02687,0.1769 -0.0627,0.37844 -0.03583,0.1993 -0.0627,0.37621 -0.02687,0.1769 -0.02687,0.27319 0,0.1254 0.03583,0.19258 0.03807,0.0649 0.08285,0.0649 0.07838,0 0.232889,-0.13212 0.154512,-0.13436 0.35605,-0.4389 z m 2.964847,-0.9853 q -0.02911,0.0358 -0.0739,0.11197 -0.04479,0.0761 -0.09405,0.15899 -0.04926,0.0829 -0.09181,0.14107 -0.04031,0.0582 -0.0627,0.0582 -0.05598,0 -0.105247,-0.0426 -0.04926,-0.0426 -0.09629,-0.0851 -0.04479,-0.0448 -0.08733,-0.0448 -0.07838,0 -0.176905,0.0985 -0.09853,0.0963 -0.190342,0.26648 -0.09181,0.16795 -0.154512,0.38292 -0.04926,0.16795 -0.07838,0.35381 -0.02911,0.18586 -0.02239,0.36277 -0.04703,0.0202 -0.154513,0.0694 -0.107487,0.047 -0.210495,0.094 -0.103008,0.0493 -0.141077,0.0694 l -0.08957,-0.0873 q 0.06494,-0.31798 0.118683,-0.627 0.05374,-0.31127 0.08509,-0.55983 0.03135,-0.2508 0.03135,-0.38516 0,-0.10301 -0.02687,-0.1254 -0.02687,-0.0246 -0.06494,-0.0246 -0.03135,0 -0.105248,0.0224 -0.0739,0.0202 -0.107487,0.0314 l -0.04031,-0.15004 q 0.12764,-0.0582 0.29111,-0.12316 0.165709,-0.0649 0.306786,-0.11196 0.141076,-0.047 0.19482,-0.047 0.0627,0 0.08285,0.047 0.02239,0.0448 0.02239,0.1769 0,0.047 -0.01344,0.15899 -0.01344,0.10973 -0.02687,0.19482 0.145555,-0.23513 0.261999,-0.36053 0.118684,-0.1254 0.221692,-0.17018 0.103008,-0.047 0.199299,-0.047 0.07838,0 0.188102,0.0761 0.111966,0.0761 0.210495,0.11644 z m 1.130855,-0.9226 q 0,0.0829 -0.04703,0.17243 -0.04479,0.0873 -0.132119,0.15003 -0.08733,0.0605 -0.214974,0.0605 -0.118684,0 -0.174666,-0.056 -0.05374,-0.0582 -0.05374,-0.13436 0,-0.0806 0.04479,-0.17018 0.04703,-0.0896 0.134359,-0.15228 0.08957,-0.0627 0.212735,-0.0627 0.120922,0 0.174666,0.0582 0.05598,0.0582 0.05598,0.13435 z m -0.0515,2.57969 q -0.141077,0.0829 -0.286632,0.16123 -0.145556,0.0784 -0.273196,0.12764 -0.125402,0.0493 -0.208256,0.0493 -0.0739,0 -0.127641,-0.0717 -0.05374,-0.0694 -0.05374,-0.19034 0,-0.0806 0.02015,-0.22393 0.02015,-0.14556 0.0515,-0.31799 0.03135,-0.17466 0.0627,-0.34485 0.03135,-0.17243 0.0515,-0.30902 0.02015,-0.1366 0.02015,-0.20154 0,-0.10301 -0.02463,-0.1254 -0.02463,-0.0246 -0.06718,-0.0246 -0.02687,0 -0.09181,0.0179 -0.06494,0.0179 -0.114205,0.0358 l -0.04031,-0.15004 q 0.125401,-0.0582 0.286632,-0.12316 0.16347,-0.0649 0.302307,-0.11196 0.138837,-0.047 0.19482,-0.047 0.0627,0 0.09629,0.0425 0.03583,0.0425 0.03583,0.14555 0,0.0784 -0.02239,0.22617 -0.02239,0.14556 -0.05374,0.3247 -0.03135,0.17691 -0.06494,0.35605 -0.03135,0.17691 -0.05374,0.32246 -0.02239,0.14556 -0.02239,0.22394 0,0.13211 0.06718,0.13211 0.06942,0 0.125401,-0.0157 0.05822,-0.0179 0.147795,-0.0582 z m 1.688442,-1.70188 q -0.03135,0.0426 -0.09405,0.10525 -0.0627,0.0627 -0.125401,0.11645 -0.0627,0.0537 -0.08957,0.0694 -0.02687,-0.0627 -0.105247,-0.0806 -0.07838,-0.0202 -0.221692,-0.0202 H 68.07344 l -0.0515,-0.0873 0.268718,-0.18138 h 1.191313 z m -0.136598,1.60111 q -0.246324,0.19482 -0.483691,0.31798 -0.237367,0.12093 -0.360529,0.12093 -0.136598,0 -0.25976,-0.1254 -0.120923,-0.12765 -0.120923,-0.3247 0,-0.0851 0.0045,-0.17243 0.0067,-0.0896 0.02687,-0.21274 l 0.217213,-1.3615 q 0.02687,-0.17466 0.06046,-0.23065 0.03359,-0.056 0.09405,-0.0873 l 0.427708,-0.2105 0.0627,0.056 q -0.01791,0.0157 -0.0515,0.11868 -0.03135,0.10077 -0.0627,0.30231 l -0.190341,1.20699 q -0.01344,0.0873 -0.02015,0.18362 -0.0067,0.0963 -0.0067,0.14108 0,0.13883 0.04031,0.19706 0.04255,0.0582 0.105247,0.0582 0.138838,0 0.45682,-0.14332 z m 1.91461,-1.35478 q 0,0.0985 -0.04703,0.21721 -0.04479,0.11869 -0.188102,0.25528 -0.143316,0.13436 -0.432187,0.2844 -0.288872,0.15003 -0.777042,0.30678 l -0.01568,-0.23289 q 0.306786,-0.12316 0.485931,-0.21945 0.181384,-0.0985 0.270957,-0.17914 0.08957,-0.0806 0.116444,-0.15452 0.02687,-0.0761 0.02687,-0.16123 0,-0.10301 -0.04702,-0.15451 -0.04479,-0.0537 -0.107487,-0.0537 -0.03583,0 -0.109726,0.0381 -0.0739,0.0381 -0.12988,0.10524 -0.120923,0.14108 -0.19482,0.3247 -0.07166,0.18363 -0.07166,0.42995 0,0.29335 0.100769,0.46802 0.103008,0.17242 0.235127,0.17242 0.09405,0 0.275436,-0.0873 0.183623,-0.0873 0.45458,-0.30455 0.02463,0.0134 0.06046,0.0784 0.03583,0.0649 0.04255,0.0806 -0.367247,0.32022 -0.606853,0.4501 -0.239607,0.12988 -0.438905,0.12988 -0.123162,0 -0.275436,-0.0761 -0.150033,-0.0739 -0.25976,-0.24185 -0.107487,-0.17018 -0.107487,-0.45234 0,-0.35157 0.16347,-0.64044 0.16347,-0.29111 0.445623,-0.52624 0.100769,-0.0829 0.279914,-0.16571 0.181384,-0.0851 0.35829,-0.0851 0.253042,0 0.371726,0.1254 0.120922,0.12316 0.120922,0.26872 z m 3.036506,-0.14108 q -0.0627,0.0627 -0.154512,0.14556 -0.09181,0.0806 -0.179145,0.14107 -0.08733,0.0582 -0.134359,0.0582 -0.04703,0 -0.09853,-0.0694 -0.0515,-0.0694 -0.116444,-0.13884 -0.06494,-0.0717 -0.152273,-0.0717 -0.16347,0 -0.275435,0.14108 -0.111966,0.13884 -0.172427,0.34933 -0.05822,0.20826 -0.05822,0.41875 0,0.28887 0.08957,0.45234 0.09181,0.16123 0.232888,0.16123 0.118684,0 0.288872,-0.0873 0.172427,-0.0896 0.412033,-0.28663 0.01791,0.0224 0.05822,0.0829 0.04255,0.0582 0.0515,0.0761 -0.351572,0.31798 -0.591178,0.44114 -0.237367,0.12093 -0.438905,0.12093 -0.127641,0 -0.275435,-0.0717 -0.145556,-0.0717 -0.250803,-0.24856 -0.105248,-0.17915 -0.105248,-0.49265 0,-0.30231 0.132119,-0.60686 0.134359,-0.30454 0.463538,-0.524 0.125401,-0.0829 0.322461,-0.16347 0.197059,-0.0806 0.385161,-0.0806 0.13212,0 0.22841,0.0537 0.09629,0.0515 0.176906,0.11421 0.08061,0.0605 0.16123,0.0851 z m 1.876542,0.59118 q 0,0.29783 -0.147794,0.60237 -0.147795,0.30231 -0.398598,0.50833 -0.116444,0.0963 -0.277674,0.16347 -0.158992,0.0694 -0.29335,0.0694 -0.232889,0 -0.400837,-0.11197 -0.167948,-0.1142 -0.257521,-0.30902 -0.08957,-0.19706 -0.08957,-0.44115 0,-0.32022 0.12764,-0.60013 0.129881,-0.27992 0.429948,-0.51057 0.116444,-0.0896 0.275436,-0.15227 0.158991,-0.0627 0.309025,-0.0627 0.351572,0 0.537434,0.23737 0.185863,0.23512 0.185863,0.60685 z m -0.521759,0.17467 q 0,-0.34038 -0.107487,-0.524 -0.105248,-0.18363 -0.248564,-0.18363 -0.172427,0 -0.275435,0.13212 -0.100769,0.13212 -0.145555,0.32694 -0.04255,0.19258 -0.04255,0.38293 0,0.19929 0.05374,0.36724 0.05598,0.16571 0.141077,0.26424 0.08733,0.0985 0.181384,0.0985 0.123162,0 0.208256,-0.0806 0.08509,-0.0829 0.136598,-0.21274 0.0515,-0.13212 0.0739,-0.28215 0.02463,-0.15004 0.02463,-0.28887 z m 1.764577,0.83078 q -0.219453,0.13884 -0.438905,0.23961 -0.217213,0.0985 -0.35829,0.0985 -0.06046,0 -0.111966,-0.0694 -0.04926,-0.0672 -0.04926,-0.19706 0,-0.0739 0.02687,-0.27096 0.02687,-0.19706 0.06718,-0.46801 0.04255,-0.27096 0.08957,-0.56879 0.04927,-0.29783 0.08957,-0.57774 0.04255,-0.27992 0.06942,-0.49713 0.02687,-0.21721 0.02687,-0.32246 0,-0.10301 -0.03583,-0.1254 -0.03583,-0.0246 -0.07838,-0.0246 -0.02687,0 -0.09629,0.0202 -0.06718,0.0202 -0.120923,0.0403 l -0.04031,-0.15451 q 0.125402,-0.056 0.29335,-0.12093 0.170188,-0.0649 0.315743,-0.11196 0.145555,-0.047 0.201538,-0.047 0.0627,0 0.09853,0.0403 0.03807,0.0403 0.03807,0.14332 0,0.11644 -0.02687,0.33589 -0.02687,0.21722 -0.06942,0.49489 -0.04255,0.27767 -0.08957,0.57326 -0.04703,0.29559 -0.08957,0.56879 -0.04255,0.27319 -0.06942,0.48369 -0.02687,0.20826 -0.02687,0.30903 0,0.0761 0.02015,0.10524 0.02239,0.0269 0.05822,0.0269 0.0515,0 0.111966,-0.0157 0.06046,-0.0179 0.158991,-0.0582 z m 2.017619,-1.00545 q 0,0.29783 -0.147794,0.60237 -0.147795,0.30231 -0.398598,0.50833 -0.116444,0.0963 -0.277674,0.16347 -0.158992,0.0694 -0.29335,0.0694 -0.232889,0 -0.400837,-0.11197 -0.167948,-0.1142 -0.257521,-0.30902 -0.08957,-0.19706 -0.08957,-0.44115 0,-0.32022 0.12764,-0.60013 0.129881,-0.27992 0.429948,-0.51057 0.116444,-0.0896 0.275436,-0.15227 0.158991,-0.0627 0.309025,-0.0627 0.351572,0 0.537434,0.23737 0.185863,0.23512 0.185863,0.60685 z m -0.521759,0.17467 q 0,-0.34038 -0.107487,-0.524 -0.105248,-0.18363 -0.248564,-0.18363 -0.172427,0 -0.275435,0.13212 -0.100769,0.13212 -0.145555,0.32694 -0.04255,0.19258 -0.04255,0.38293 0,0.19929 0.05374,0.36724 0.05598,0.16571 0.141077,0.26424 0.08733,0.0985 0.181384,0.0985 0.123162,0 0.208256,-0.0806 0.08509,-0.0829 0.136598,-0.21274 0.0515,-0.13212 0.0739,-0.28215 0.02463,-0.15004 0.02463,-0.28887 z m 3.000681,0.83974 q -0.176906,0.12092 -0.353812,0.22617 -0.174666,0.10301 -0.284392,0.10301 -0.07838,0 -0.156752,-0.0873 -0.07614,-0.0873 -0.118683,-0.26647 -0.04031,-0.17915 -0.01344,-0.45458 0.01344,-0.13884 0.04031,-0.30007 0.02911,-0.16347 0.05374,-0.31127 0.02463,-0.14779 0.02463,-0.2396 0,-0.10301 -0.02239,-0.1254 -0.02239,-0.0246 -0.06046,-0.0246 -0.02911,0 -0.08957,0.0179 -0.05822,0.0179 -0.105247,0.0358 l -0.04031,-0.15004 q 0.125401,-0.0582 0.288871,-0.12316 0.16347,-0.0649 0.302307,-0.11196 0.141077,-0.047 0.19482,-0.047 0.0627,0 0.08286,0.0425 0.02015,0.0425 0.02015,0.14555 0,0.0985 -0.02463,0.25976 -0.02463,0.15899 -0.05598,0.34038 -0.03135,0.17914 -0.05598,0.34485 -0.02463,0.16571 -0.02463,0.27544 0,0.20377 0.03135,0.28439 0.03135,0.0806 0.08733,0.0806 0.05822,0 0.107487,-0.0134 0.0515,-0.0157 0.132119,-0.0493 z m -0.895725,-0.68075 -0.02463,0.42995 q -0.172427,0.24856 -0.398598,0.41427 -0.22617,0.16571 -0.432187,0.16571 -0.08509,0 -0.176906,-0.0627 -0.09181,-0.0605 -0.156751,-0.18363 -0.0627,-0.12316 -0.0627,-0.30454 0,-0.10077 0.02239,-0.25305 0.02239,-0.15227 0.0515,-0.31798 0.02911,-0.16795 0.0515,-0.31126 0.02239,-0.14332 0.02239,-0.22617 0,-0.10301 -0.02687,-0.1254 -0.02463,-0.0246 -0.06494,-0.0246 -0.02687,0 -0.09405,0.0179 -0.06718,0.0179 -0.118684,0.0358 l -0.03583,-0.15004 q 0.127641,-0.0582 0.295589,-0.12316 0.167949,-0.0649 0.311265,-0.11196 0.145555,-0.047 0.199298,-0.047 0.06494,0 0.08733,0.0425 0.02239,0.0425 0.02239,0.14555 0,0.0985 -0.02687,0.27544 -0.02687,0.1769 -0.0627,0.37844 -0.03583,0.1993 -0.0627,0.37621 -0.02687,0.1769 -0.02687,0.27319 0,0.1254 0.03583,0.19258 0.03807,0.0649 0.08285,0.0649 0.07838,0 0.232888,-0.13212 0.154513,-0.13436 0.356051,-0.4389 z m 2.964847,-0.9853 q -0.02911,0.0358 -0.0739,0.11197 -0.04479,0.0761 -0.09405,0.15899 -0.04927,0.0829 -0.09181,0.14107 -0.04031,0.0582 -0.0627,0.0582 -0.05598,0 -0.105247,-0.0426 -0.04927,-0.0426 -0.09629,-0.0851 -0.04479,-0.0448 -0.08733,-0.0448 -0.07838,0 -0.176905,0.0985 -0.09853,0.0963 -0.190342,0.26648 -0.09181,0.16795 -0.154512,0.38292 -0.04927,0.16795 -0.07838,0.35381 -0.02911,0.18586 -0.02239,0.36277 -0.04703,0.0202 -0.154513,0.0694 -0.107487,0.047 -0.210495,0.094 -0.103008,0.0493 -0.141077,0.0694 l -0.08957,-0.0873 q 0.06494,-0.31798 0.118683,-0.627 0.05374,-0.31127 0.08509,-0.55983 0.03135,-0.2508 0.03135,-0.38516 0,-0.10301 -0.02687,-0.1254 -0.02687,-0.0246 -0.06494,-0.0246 -0.03135,0 -0.105248,0.0224 -0.0739,0.0202 -0.107487,0.0314 l -0.04031,-0.15004 q 0.127641,-0.0582 0.291111,-0.12316 0.165709,-0.0649 0.306786,-0.11196 0.141076,-0.047 0.19482,-0.047 0.0627,0 0.08285,0.047 0.02239,0.0448 0.02239,0.1769 0,0.047 -0.01344,0.15899 -0.01344,0.10973 -0.02687,0.19482 0.145555,-0.23513 0.261999,-0.36053 0.118684,-0.1254 0.221692,-0.17018 0.103008,-0.047 0.199299,-0.047 0.07838,0 0.188102,0.0761 0.111966,0.0761 0.210495,0.11644 z m 1.872063,-0.75241 q 0,0.22617 -0.08733,0.39412 -0.08733,0.16795 -0.219453,0.30455 -0.132119,0.13436 -0.268717,0.25976 -0.134359,0.1254 -0.237367,0.26424 -0.100769,0.13659 -0.123162,0.3135 l -0.02463,0.19706 q -0.04255,0.0314 -0.111965,0.0627 -0.06718,0.0291 -0.123162,0.047 l -0.0515,-0.047 0.0112,-0.27767 q 0.0067,-0.17019 0.07614,-0.31127 0.07166,-0.14332 0.170187,-0.27096 0.100769,-0.12764 0.19706,-0.25304 0.09853,-0.1254 0.165709,-0.25976 0.06718,-0.1366 0.06718,-0.29335 0,-0.18362 -0.0739,-0.30678 -0.0739,-0.12317 -0.214974,-0.12317 -0.147795,0 -0.219453,0.15004 -0.06942,0.15003 -0.02687,0.36277 -0.06494,0.0314 -0.161231,0.0605 -0.09405,0.0291 -0.190341,0.0515 -0.09405,0.0202 -0.158991,0.0269 l -0.0627,-0.0873 q 0,-0.19034 0.127641,-0.3762 0.12988,-0.18811 0.360529,-0.31127 0.232888,-0.12316 0.539674,-0.12316 0.311264,0 0.474734,0.16123 0.165709,0.15899 0.165709,0.38516 z m -0.837503,2.28186 q 0,0.10077 -0.04926,0.20378 -0.04703,0.10077 -0.141077,0.17019 -0.09181,0.0694 -0.22617,0.0694 -0.138838,0 -0.206017,-0.0694 -0.06494,-0.0717 -0.06494,-0.18587 0,-0.094 0.0515,-0.19482 0.0515,-0.10077 0.145555,-0.16795 0.09405,-0.0694 0.221692,-0.0694 0.134359,0 0.201538,0.0694 0.06718,0.0694 0.06718,0.17467 z"
         id="text68"
         style="font-style:italic;font-weight:bold;font-size:4.58611px;line-height:1.25;font-family:'Gentium Plus';-inkscape-font-specification:'Gentium Plus, Bold Italic';fill:#094bac;stroke-width:0.264583"
         aria-label="What is your favourite colour?" />
      <path
         d="m 62.28552,172.72775 h 1.626086 l -0.05684,0.29283 h -1.279854 l -0.148139,0.76137 h 1.228177 l -0.05684,0.29283 h -1.228177 l -0.179145,0.9319 h 1.309137 l -0.05684,0.29283 h -1.658815 z m 2.179024,0 h 0.349678 l -0.303169,1.56235 q -0.01895,0.10508 -0.02756,0.17398 -0.0069,0.0672 -0.0069,0.11885 0,0.23772 0.132636,0.36174 0.132636,0.1223 0.389296,0.1223 0.332452,0 0.516765,-0.18259 0.186035,-0.18259 0.265272,-0.59428 l 0.303169,-1.56235 h 0.349677 l -0.310058,1.60541 q -0.101631,0.52021 -0.385851,0.76826 -0.284221,0.24805 -0.778592,0.24805 -0.385851,0 -0.611505,-0.19293 -0.223932,-0.19464 -0.223932,-0.5271 0,-0.0603 0.0086,-0.13436 0.0086,-0.0758 0.02584,-0.16192 z m 2.924888,0.28594 -0.1757,0.91295 h 0.447863 q 0.26355,0 0.425469,-0.14469 0.163643,-0.14642 0.163643,-0.38068 0,-0.18776 -0.110243,-0.28767 -0.108521,-0.0999 -0.313504,-0.0999 z m 0.639066,1.05076 q 0.110243,0.0258 0.18259,0.12747 0.07407,0.10163 0.170532,0.40479 l 0.218764,0.7028 h -0.366903 l -0.201538,-0.65973 q -0.07752,-0.25494 -0.179145,-0.34107 -0.101631,-0.0861 -0.311781,-0.0861 h -0.384129 l -0.211873,1.08692 h -0.349678 l 0.501262,-2.57176 h 0.78376 q 0.356567,0 0.546048,0.16192 0.191203,0.1602 0.191203,0.46336 0,0.26872 -0.16192,0.46509 -0.16192,0.19637 -0.427192,0.24633 z m 2.532147,-1.10071 q -0.285943,0 -0.504707,0.13952 -0.218764,0.13781 -0.380683,0.42203 -0.103353,0.18087 -0.158475,0.38413 -0.0534,0.20326 -0.0534,0.40996 0,0.35829 0.170532,0.55294 0.172255,0.19465 0.485759,0.19465 0.282498,0 0.502985,-0.13953 0.222208,-0.14124 0.37896,-0.41858 0.105076,-0.18603 0.160197,-0.38929 0.05512,-0.20498 0.05512,-0.40825 0,-0.35656 -0.172255,-0.55121 -0.172255,-0.19637 -0.484036,-0.19637 z m -0.451308,2.38573 q -0.473701,0 -0.745864,-0.28078 -0.27044,-0.28077 -0.27044,-0.76825 0,-0.27906 0.105076,-0.57017 0.106798,-0.29111 0.292833,-0.51848 0.218764,-0.267 0.487481,-0.39791 0.268718,-0.13264 0.592557,-0.13264 0.471978,0 0.744141,0.27905 0.272163,0.27733 0.272163,0.75792 0,0.29628 -0.103353,0.58223 -0.103353,0.28594 -0.296278,0.51848 -0.220487,0.26872 -0.487482,0.39963 -0.265272,0.13092 -0.590834,0.13092 z m 2.215198,-2.62172 h 0.80443 q 0.3514,0 0.535713,0.16364 0.184312,0.16364 0.184312,0.47887 0,0.42375 -0.272162,0.65974 -0.272163,0.23599 -0.764812,0.23599 h -0.437527 l -0.201539,1.03352 h -0.349677 z m 0.292833,0.28594 -0.186035,0.96635 h 0.437527 q 0.296279,0 0.454753,-0.15158 0.158475,-0.15159 0.158475,-0.43408 0,-0.18087 -0.108521,-0.28078 -0.106798,-0.0999 -0.301446,-0.0999 z m 1.834515,-0.28594 h 1.626086 l -0.05684,0.29283 h -1.279854 l -0.148139,0.76137 h 1.228177 l -0.05684,0.29283 h -1.228177 l -0.179146,0.9319 h 1.309138 l -0.05684,0.29283 h -1.658814 z m 2.931778,0 h 0.394463 l 0.477146,2.57176 h -0.363457 l -0.106798,-0.65973 h -1.157553 l -0.363458,0.65973 h -0.366903 z m 0.125746,0.34279 -0.721748,1.27985 h 0.943957 z m 1.584745,-0.34279 h 0.468533 l 0.70969,2.20486 0.430637,-2.20486 h 0.339343 l -0.501262,2.57176 h -0.470256 l -0.707968,-2.21864 -0.430637,2.21864 H 78.59289 Z m 5.29167,0.0844 -0.06718,0.33935 q -0.173978,-0.093 -0.346233,-0.13953 -0.170532,-0.0482 -0.330729,-0.0482 -0.311781,0 -0.496094,0.13608 -0.184313,0.13608 -0.184313,0.36174 0,0.12402 0.06718,0.1912 0.0689,0.0654 0.3514,0.14125 l 0.208428,0.0517 q 0.353123,0.0913 0.490926,0.23255 0.137804,0.13952 0.137804,0.39274 0,0.38929 -0.306613,0.6339 -0.304891,0.2446 -0.804431,0.2446 -0.204983,0 -0.411689,-0.0413 -0.206706,-0.0396 -0.415134,-0.1223 l 0.07062,-0.35829 q 0.191203,0.11885 0.382406,0.17914 0.192926,0.0603 0.384129,0.0603 0.325561,0 0.521932,-0.14469 0.196371,-0.1447 0.196371,-0.37724 0,-0.15503 -0.07924,-0.23427 -0.07751,-0.081 -0.335897,-0.14641 l -0.208428,-0.0534 q -0.356568,-0.093 -0.487481,-0.2136 -0.129192,-0.1223 -0.129192,-0.34106 0,-0.38413 0.294556,-0.62874 0.296279,-0.24632 0.76998,-0.24632 0.184312,0 0.36518,0.0327 0.180868,0.0327 0.361735,0.0982 z m 0.707967,-0.0844 h 0.804431 q 0.3514,0 0.535712,0.16364 0.184313,0.16364 0.184313,0.47887 0,0.42375 -0.272163,0.65974 -0.272162,0.23599 -0.764811,0.23599 h -0.437528 l -0.201538,1.03352 h -0.349677 z m 0.292834,0.28594 -0.186036,0.96635 h 0.437528 q 0.296278,0 0.454753,-0.15158 0.158474,-0.15159 0.158474,-0.43408 0,-0.18087 -0.10852,-0.28078 -0.106798,-0.0999 -0.301446,-0.0999 z m 1.834514,-0.28594 h 1.626086 l -0.05684,0.29283 h -1.279853 l -0.14814,0.76137 h 1.228178 l -0.05684,0.29283 h -1.228178 l -0.179145,0.9319 h 1.309137 l -0.05684,0.29283 h -1.658814 z m 2.225532,0 h 0.349678 l -0.440973,2.28238 h 1.252293 l -0.05684,0.28938 h -1.60197 z m 1.96543,0 h 0.349677 l -0.440972,2.28238 h 1.252293 l -0.05684,0.28938 h -1.601971 z m 1.968872,0 h 0.349678 l -0.501262,2.57176 H 92.87971 Z m 1.040421,0 h 0.468533 l 0.70969,2.20486 0.430637,-2.20486 h 0.339343 l -0.501262,2.57176 h -0.470256 l -0.707968,-2.21864 -0.430637,2.21864 H 93.92013 Z m 3.96875,2.18764 0.134359,-0.67352 h -0.571886 l 0.0534,-0.28594 h 0.912951 l -0.222209,1.13171 q -0.229099,0.12575 -0.499539,0.19465 -0.27044,0.0672 -0.544326,0.0672 -0.484036,0 -0.757921,-0.26872 -0.272163,-0.26872 -0.272163,-0.74759 0,-0.3979 0.165365,-0.75619 0.167087,-0.36002 0.45992,-0.59945 0.184313,-0.14986 0.403077,-0.22221 0.218763,-0.0741 0.485759,-0.0741 0.241156,0 0.461643,0.062 0.222208,0.0603 0.423747,0.18259 l -0.07062,0.37035 q -0.155029,-0.16192 -0.363458,-0.24632 -0.208428,-0.0861 -0.444417,-0.0861 -0.273886,0 -0.482314,0.10507 -0.208428,0.10336 -0.372071,0.32212 -0.139526,0.18604 -0.220486,0.43925 -0.07924,0.25149 -0.07924,0.51332 0,0.36001 0.184313,0.5426 0.184312,0.18087 0.549493,0.18087 0.18259,0 0.353122,-0.0379 0.170533,-0.0396 0.313504,-0.11368 z"
         id="text70"
         style="font-style:italic;font-size:3.52778px;line-height:1.25;font-family:Sans;-inkscape-font-specification:'Sans, Italic';fill:#1b722f;stroke-width:0.264583"
         aria-label="EUROPEAN SPELLING" />
      <path
         d="m 22.192516,160.3034 q 0,-0.2413 0.0762,-0.45297 0.08043,-0.2159 0.2286,-0.37253 0.148166,-0.16087 0.359833,-0.254 0.211666,-0.0931 0.482599,-0.0931 0.1778,0 0.325967,0.0339 0.148166,0.0296 0.287866,0.0889 l -0.131233,0.50377 q -0.0889,-0.0339 -0.194733,-0.0593 -0.105834,-0.0254 -0.237067,-0.0254 -0.2794,0 -0.419099,0.17357 -0.135467,0.17356 -0.135467,0.4572 0,0.30056 0.127,0.46566 0.131233,0.1651 0.452966,0.1651 0.1143,0 0.245533,-0.0212 0.131234,-0.0212 0.2413,-0.0677 l 0.0889,0.51647 q -0.110067,0.0466 -0.275166,0.0804 -0.1651,0.0339 -0.364067,0.0339 -0.304799,0 -0.524933,-0.0889 -0.220133,-0.0931 -0.364066,-0.24977 -0.1397,-0.15663 -0.207433,-0.3683 -0.0635,-0.2159 -0.0635,-0.46566 z m 4.199448,-0.004 q 0,0.26247 -0.0762,0.4826 -0.0762,0.2159 -0.220134,0.37254 -0.143933,0.1524 -0.347133,0.23706 -0.198966,0.0847 -0.448733,0.0847 -0.245533,0 -0.448733,-0.0847 -0.198966,-0.0847 -0.342899,-0.23706 -0.143934,-0.15664 -0.224367,-0.37254 -0.08043,-0.22013 -0.08043,-0.4826 0,-0.26246 0.08043,-0.47836 0.08467,-0.2159 0.2286,-0.3683 0.148167,-0.1524 0.347133,-0.23707 0.2032,-0.0847 0.440266,-0.0847 0.2413,0 0.440267,0.0847 0.203199,0.0847 0.347133,0.23707 0.143933,0.1524 0.224366,0.3683 0.08043,0.2159 0.08043,0.47836 z m -0.643466,0 q 0,-0.2921 -0.118533,-0.4572 -0.1143,-0.16933 -0.3302,-0.16933 -0.215899,0 -0.334433,0.16933 -0.118533,0.1651 -0.118533,0.4572 0,0.2921 0.118533,0.46567 0.118534,0.16933 0.334433,0.16933 0.2159,0 0.3302,-0.16933 0.118533,-0.17357 0.118533,-0.46567 z m 2.019292,1.15994 q -0.275167,-0.004 -0.448733,-0.0593 -0.169333,-0.055 -0.270933,-0.1524 -0.09737,-0.1016 -0.135467,-0.2413 -0.03387,-0.14393 -0.03387,-0.32173 v -2.4511 l 0.630766,-0.1016 v 2.4257 q 0,0.0847 0.0127,0.1524 0.0127,0.0677 0.04657,0.1143 0.0381,0.0466 0.105834,0.0762 0.06773,0.0296 0.182033,0.0381 z m 2.531531,-1.15994 q 0,0.26247 -0.0762,0.4826 -0.0762,0.2159 -0.220133,0.37254 -0.143933,0.1524 -0.347133,0.23706 -0.198966,0.0847 -0.448733,0.0847 -0.245533,0 -0.448733,-0.0847 -0.198966,-0.0847 -0.3429,-0.23706 -0.143933,-0.15664 -0.224366,-0.37254 -0.08043,-0.22013 -0.08043,-0.4826 0,-0.26246 0.08043,-0.47836 0.08467,-0.2159 0.2286,-0.3683 0.148166,-0.1524 0.347133,-0.23707 0.2032,-0.0847 0.440266,-0.0847 0.2413,0 0.440266,0.0847 0.2032,0.0847 0.347133,0.23707 0.143934,0.1524 0.224367,0.3683 0.08043,0.2159 0.08043,0.47836 z m -0.643466,0 q 0,-0.2921 -0.118533,-0.4572 -0.1143,-0.16933 -0.3302,-0.16933 -0.2159,0 -0.334433,0.16933 -0.118533,0.1651 -0.118533,0.4572 0,0.2921 0.118533,0.46567 0.118533,0.16933 0.334433,0.16933 0.2159,0 0.3302,-0.16933 0.118533,-0.17357 0.118533,-0.46567 z m 3.031058,1.0414 q -0.160867,0.0466 -0.414866,0.0847 -0.254,0.0423 -0.5334,0.0423 -0.283633,0 -0.474133,-0.0762 -0.186266,-0.0762 -0.296333,-0.21166 -0.110067,-0.1397 -0.156633,-0.3302 -0.04657,-0.1905 -0.04657,-0.4191 v -1.24037 h 0.630766 v 1.16417 q 0,0.3048 0.08043,0.44026 0.08043,0.13547 0.300566,0.13547 0.06773,0 0.143933,-0.004 0.0762,-0.008 0.135467,-0.0169 v -1.71873 h 0.630766 z m 1.934627,-1.59173 q -0.08467,-0.0212 -0.198967,-0.0423 -0.1143,-0.0254 -0.245533,-0.0254 -0.05927,0 -0.143933,0.0127 -0.08043,0.008 -0.122767,0.0212 v 1.7018 h -0.630766 v -2.10819 q 0.169333,-0.0593 0.397933,-0.11007 0.232833,-0.055 0.516466,-0.055 0.0508,0 0.122767,0.008 0.07197,0.004 0.143933,0.0169 0.07197,0.008 0.143933,0.0254 0.07197,0.0127 0.122767,0.0339 z"
         id="text73"
         style="font-weight:bold;font-size:4.23333px;line-height:1.25;font-family:Ubuntu;-inkscape-font-specification:'Ubuntu, Bold';stroke-width:0.264583"
         aria-label="colour" />
      <path
         style="fill:none;stroke:#000000;stroke-width:0.665;stroke-linecap:butt;stroke-linejoin:miter;stroke-dasharray:none;stroke-opacity:1"
         d="M 20.414514,164.06254 H 42.940781"
         id="path73" />
      <path
         d="m 31.677647,166.04216 3.037596,-2.26776 h -6.07519 z"
         id="text74"
         style="font-size:10.5833px;line-height:1.25;font-family:'Noto Sans CJK HK';-inkscape-font-specification:'Noto Sans CJK HK';stroke-width:0.264583"
         aria-label="" />
      <path
         d="m 47.063356,160.3034 q 0,-0.2413 0.0762,-0.45297 0.08043,-0.2159 0.2286,-0.37253 0.148166,-0.16087 0.359833,-0.254 0.211666,-0.0931 0.482599,-0.0931 0.1778,0 0.325967,0.0339 0.148166,0.0296 0.287866,0.0889 l -0.131233,0.50377 q -0.0889,-0.0339 -0.194733,-0.0593 -0.105833,-0.0254 -0.237067,-0.0254 -0.279399,0 -0.419099,0.17357 -0.135467,0.17356 -0.135467,0.4572 0,0.30056 0.127,0.46566 0.131233,0.1651 0.452966,0.1651 0.1143,0 0.245533,-0.0212 0.131234,-0.0212 0.2413,-0.0677 l 0.0889,0.51647 q -0.110066,0.0466 -0.275166,0.0804 -0.1651,0.0339 -0.364067,0.0339 -0.304799,0 -0.524933,-0.0889 -0.220133,-0.0931 -0.364066,-0.24977 -0.1397,-0.15663 -0.207433,-0.3683 -0.0635,-0.2159 -0.0635,-0.46566 z m 4.199449,-0.004 q 0,0.26247 -0.0762,0.4826 -0.0762,0.2159 -0.220134,0.37254 -0.143933,0.1524 -0.347133,0.23706 -0.198966,0.0847 -0.448733,0.0847 -0.245533,0 -0.448733,-0.0847 -0.198966,-0.0847 -0.342899,-0.23706 -0.143933,-0.15664 -0.224367,-0.37254 -0.08043,-0.22013 -0.08043,-0.4826 0,-0.26246 0.08043,-0.47836 0.08467,-0.2159 0.2286,-0.3683 0.148167,-0.1524 0.347133,-0.23707 0.2032,-0.0847 0.440266,-0.0847 0.2413,0 0.440267,0.0847 0.2032,0.0847 0.347133,0.23707 0.143933,0.1524 0.224366,0.3683 0.08043,0.2159 0.08043,0.47836 z m -0.643467,0 q 0,-0.2921 -0.118533,-0.4572 -0.1143,-0.16933 -0.3302,-0.16933 -0.215899,0 -0.334433,0.16933 -0.118533,0.1651 -0.118533,0.4572 0,0.2921 0.118533,0.46567 0.118534,0.16933 0.334433,0.16933 0.2159,0 0.3302,-0.16933 0.118533,-0.17357 0.118533,-0.46567 z m 2.019292,1.15994 q -0.275166,-0.004 -0.448733,-0.0593 -0.169333,-0.055 -0.270933,-0.1524 -0.09737,-0.1016 -0.135467,-0.2413 -0.03387,-0.14393 -0.03387,-0.32173 v -2.4511 l 0.630766,-0.1016 v 2.4257 q 0,0.0847 0.0127,0.1524 0.0127,0.0677 0.04657,0.1143 0.0381,0.0466 0.105834,0.0762 0.06773,0.0296 0.182033,0.0381 z m 2.531531,-1.15994 q 0,0.26247 -0.0762,0.4826 -0.0762,0.2159 -0.220133,0.37254 -0.143933,0.1524 -0.347133,0.23706 -0.198966,0.0847 -0.448733,0.0847 -0.245533,0 -0.448733,-0.0847 -0.198966,-0.0847 -0.342899,-0.23706 -0.143934,-0.15664 -0.224367,-0.37254 -0.08043,-0.22013 -0.08043,-0.4826 0,-0.26246 0.08043,-0.47836 0.08467,-0.2159 0.2286,-0.3683 0.148166,-0.1524 0.347133,-0.23707 0.2032,-0.0847 0.440266,-0.0847 0.2413,0 0.440266,0.0847 0.2032,0.0847 0.347134,0.23707 0.143933,0.1524 0.224366,0.3683 0.08043,0.2159 0.08043,0.47836 z m -0.643466,0 q 0,-0.2921 -0.118533,-0.4572 -0.1143,-0.16933 -0.3302,-0.16933 -0.2159,0 -0.334433,0.16933 -0.118533,0.1651 -0.118533,0.4572 0,0.2921 0.118533,0.46567 0.118533,0.16933 0.334433,0.16933 0.2159,0 0.3302,-0.16933 0.118533,-0.17357 0.118533,-0.46567 z m 2.472258,-0.55033 q -0.08467,-0.0212 -0.198966,-0.0423 -0.1143,-0.0254 -0.245533,-0.0254 -0.05927,0 -0.143933,0.0127 -0.08043,0.008 -0.122767,0.0212 v 1.7018 h -0.630766 v -2.10819 q 0.169333,-0.0593 0.397933,-0.11007 0.232833,-0.055 0.516466,-0.055 0.0508,0 0.122767,0.008 0.07197,0.004 0.143933,0.0169 0.07197,0.008 0.143933,0.0254 0.07197,0.0127 0.122767,0.0339 z"
         id="text75"
         style="font-weight:bold;font-size:4.23333px;line-height:1.25;font-family:Ubuntu;-inkscape-font-specification:'Ubuntu, Bold';fill:#999999;stroke-width:0.264583"
         aria-label="color" />
      <path
         d="m 37.414678,157.38189 h 1.626086 l -0.05684,0.29284 h -1.279854 l -0.148139,0.76136 h 1.228177 l -0.05684,0.29284 h -1.228177 l -0.179145,0.9319 h 1.309137 l -0.05684,0.29283 h -1.658815 z m 2.179024,0 h 0.349678 l -0.303169,1.56236 q -0.01895,0.10507 -0.02756,0.17397 -0.0069,0.0672 -0.0069,0.11886 0,0.23771 0.132636,0.36173 0.132637,0.1223 0.389296,0.1223 0.332452,0 0.516765,-0.18259 0.186035,-0.18259 0.265272,-0.59427 l 0.303169,-1.56236 h 0.349677 l -0.310058,1.60542 q -0.101631,0.52021 -0.385851,0.76826 -0.284221,0.24804 -0.778592,0.24804 -0.385851,0 -0.611505,-0.19292 -0.223932,-0.19465 -0.223932,-0.5271 0,-0.0603 0.0086,-0.13436 0.0086,-0.0758 0.02584,-0.16192 z"
         id="text76"
         style="font-style:italic;font-size:3.52778px;line-height:1.25;font-family:Sans;-inkscape-font-specification:'Sans, Italic';fill:#1b722f;stroke-width:0.264583"
         aria-label="EU" />
      <path
         d="m 60.342484,157.38189 h 0.394464 l 0.477146,2.57177 h -0.363458 l -0.106798,-0.65974 h -1.157553 l -0.363458,0.65974 h -0.366903 z m 0.125746,0.34279 -0.721748,1.27985 h 0.943957 z m 1.584745,-0.34279 h 0.521932 l 0.299724,1.73289 0.995633,-1.73289 h 0.535713 l -0.501262,2.57177 h -0.33762 l 0.437528,-2.25482 -1.009414,1.76045 h -0.339342 l -0.327284,-1.76734 -0.437528,2.26171 h -0.339342 z"
         id="text77"
         style="font-style:italic;font-size:3.52778px;line-height:1.25;font-family:Sans;-inkscape-font-specification:'Sans, Italic';fill:#1b722f;stroke-width:0.264583"
         aria-label="AM" />
    </g>
    <g
       id="g4"
       transform="translate(-25.475932,-28.275623)">
      <path
         d="m 136.78713,186.59824 1.15587,-1.31452 V 184.77 l -1.15587,-1.31453 -0.29464,0.25686 0.99722,1.31453 -0.99722,1.33719 z m 1.33718,0 1.15588,-1.31452 V 184.77 l -1.15588,-1.31453 -0.29463,0.25686 0.99723,1.31453 -0.99723,1.33719 z"
         id="text95"
         style="font-size:10.5833px;line-height:1.25;font-family:'Noto Sans CJK HK';-inkscape-font-specification:'Noto Sans CJK HK';fill:#666666;fill-opacity:1;stroke-width:0.264583"
         aria-label="" />
      <path
         style="fill:none;stroke:#cccccc;stroke-width:0.365;stroke-linecap:butt;stroke-linejoin:miter;stroke-dasharray:none;stroke-opacity:1"
         d="M 133.65622,164.06254 H 241.22518"
         id="path86" />
      <path
         id="rect86"
         style="fill:#a8cbfe;stroke-width:0.465;stroke-linecap:square;stroke-miterlimit:40;paint-order:fill markers stroke"
         d="m 153.29607,170.5715 h 14.07887 c 0.53923,0 0.97333,0.43411 0.97333,0.97333 v 4.21764 c 0,0.53923 -0.4341,0.97333 -0.97333,0.97333 h -14.07887 c -0.53923,0 -0.97333,-0.4341 -0.97333,-0.97333 v -4.21764 c 0,-0.53922 0.4341,-0.97333 0.97333,-0.97333 z" />
      <path
         d="m 136.42497,174.78831 q -0.26975,0.30386 -0.4868,0.44959 -0.21704,0.14573 -0.40927,0.18914 -0.18914,0.0434 -0.38448,0.0434 -0.33796,0 -0.63252,-0.17363 -0.29145,-0.17673 -0.47438,-0.50539 -0.17984,-0.33177 -0.17984,-0.79065 0,-0.44649 0.21394,-0.80926 0.21394,-0.36277 0.59221,-0.57671 0.37828,-0.21394 0.86817,-0.21394 0.13642,0 0.31316,0.031 0.17673,0.031 0.33176,0.0868 0.15503,0.0527 0.22324,0.12712 0.006,0.0372 -0.0186,0.15193 -0.0248,0.11162 -0.0682,0.24805 -0.0434,0.13642 -0.0868,0.25424 -0.0434,0.11473 -0.0713,0.15503 l -0.20774,-0.031 q -0.10232,-0.30386 -0.25115,-0.46819 -0.14883,-0.16743 -0.39688,-0.16743 -0.18293,0 -0.34106,0.11162 -0.15813,0.11162 -0.25735,0.35967 -0.0992,0.24494 -0.0992,0.64492 0,0.49299 0.23565,0.76894 0.23874,0.27596 0.57671,0.27596 0.11782,0 0.22634,-0.0217 0.10852,-0.0217 0.25115,-0.0961 0.14572,-0.0775 0.36586,-0.24184 z m 3.25561,-0.91467 q 0,0.31006 -0.12092,0.59531 -0.12092,0.28526 -0.33176,0.5116 -0.21084,0.22634 -0.4868,0.35967 -0.27595,0.13022 -0.58291,0.13022 -0.42788,0 -0.74414,-0.19223 -0.31626,-0.19224 -0.48989,-0.524 -0.17363,-0.33176 -0.17363,-0.75344 0,-0.30696 0.11162,-0.59222 0.11162,-0.28835 0.31626,-0.51469 0.20464,-0.22945 0.48369,-0.35967 0.28215,-0.13333 0.61702,-0.13333 0.42168,0 0.73794,0.19224 0.31626,0.19224 0.48989,0.524 0.17363,0.33176 0.17363,0.75654 z m -0.78135,0.13953 q 0,-0.32866 -0.0899,-0.60462 -0.0899,-0.27905 -0.25115,-0.44958 -0.15813,-0.17053 -0.36897,-0.17053 -0.25735,0 -0.39998,0.14883 -0.14262,0.14572 -0.19843,0.39997 -0.0558,0.25425 -0.0558,0.57361 0,0.32556 0.0961,0.59221 0.0992,0.26665 0.26045,0.42478 0.16123,0.15503 0.35347,0.15503 0.36897,0 0.5116,-0.27905 0.14262,-0.27905 0.14262,-0.79065 z m 1.14722,1.36426 v -0.22635 q 0.26665,-0.0465 0.35347,-0.093 0.0868,-0.0465 0.0868,-0.0961 v -3.50987 q 0,-0.18293 -0.031,-0.26355 -0.031,-0.0806 -0.11782,-0.10542 -0.0868,-0.0279 -0.26045,-0.0465 v -0.21705 q 0.31006,-0.0434 0.5426,-0.0961 0.23254,-0.0527 0.47749,-0.15193 l 0.13332,0.12712 v 4.26331 q 0,0.0465 0.093,0.0961 0.0961,0.0496 0.35037,0.093 v 0.22635 z m 4.87412,-1.50379 q 0,0.31006 -0.12092,0.59531 -0.12092,0.28526 -0.33176,0.5116 -0.21084,0.22634 -0.4868,0.35967 -0.27595,0.13022 -0.58291,0.13022 -0.42788,0 -0.74414,-0.19223 -0.31626,-0.19224 -0.48989,-0.524 -0.17363,-0.33176 -0.17363,-0.75344 0,-0.30696 0.11162,-0.59222 0.11162,-0.28835 0.31626,-0.51469 0.20464,-0.22945 0.48369,-0.35967 0.28215,-0.13333 0.61702,-0.13333 0.42168,0 0.73794,0.19224 0.31626,0.19224 0.48989,0.524 0.17363,0.33176 0.17363,0.75654 z m -0.78135,0.13953 q 0,-0.32866 -0.0899,-0.60462 -0.0899,-0.27905 -0.25115,-0.44958 -0.15813,-0.17053 -0.36897,-0.17053 -0.25735,0 -0.39998,0.14883 -0.14262,0.14572 -0.19843,0.39997 -0.0558,0.25425 -0.0558,0.57361 0,0.32556 0.0961,0.59221 0.0992,0.26665 0.26045,0.42478 0.16123,0.15503 0.35347,0.15503 0.36897,0 0.5116,-0.27905 0.14262,-0.27905 0.14262,-0.79065 z m 3.6959,-1.47588 q 0.0279,0.0186 0.0155,0.14883 -0.0124,0.13022 -0.0496,0.31006 -0.0372,0.17673 -0.0837,0.34106 -0.0465,0.16123 -0.0837,0.24495 h -0.22634 q -0.0217,-0.25115 -0.10852,-0.42788 -0.0868,-0.17984 -0.23564,-0.17984 -0.0806,0 -0.18294,0.0465 -0.10232,0.0434 -0.21704,0.17983 -0.11472,0.13643 -0.23874,0.40618 v 1.35496 q 0,0.0465 0.12712,0.0961 0.13023,0.0496 0.42168,0.093 v 0.22635 h -1.70222 v -0.22635 q 0.40928,-0.093 0.40928,-0.18913 v -1.64331 q 0,-0.20464 -0.0217,-0.28526 -0.0217,-0.0806 -0.0496,-0.10852 -0.0403,-0.0403 -0.10542,-0.0558 -0.062,-0.0186 -0.23254,-0.0279 v -0.21704 q 0.22634,-0.031 0.37827,-0.0589 0.15503,-0.031 0.28835,-0.0682 0.13643,-0.0403 0.31006,-0.0961 l 0.13023,0.13023 0.0403,0.44958 q 0.16743,-0.23874 0.41237,-0.40927 0.24805,-0.17054 0.5147,-0.17054 0.25425,0 0.48989,0.13643 z"
         id="text86"
         style="font-weight:bold;font-size:6.35px;line-height:1.25;font-family:'Gentium Plus';-inkscape-font-specification:'Gentium Plus, Bold';fill:#094bac;stroke-width:0.264583"
         aria-label="color" />
      <path
         d="m 155.69069,173.03723 q 0.13546,-0.0339 0.35983,-0.072 0.22437,-0.0381 0.51647,-0.0381 0.26246,0 0.43603,0.0762 0.17357,0.072 0.27517,0.20743 0.10583,0.13123 0.14816,0.3175 0.0423,0.18627 0.0423,0.41063 v 1.23613 h -0.3937 v -1.15146 q 0,-0.2032 -0.0296,-0.34713 -0.0254,-0.14394 -0.0889,-0.23284 -0.0635,-0.0889 -0.16933,-0.127 -0.10583,-0.0423 -0.26247,-0.0423 -0.0635,0 -0.13123,0.004 -0.0677,0.004 -0.13123,0.0127 -0.0593,0.004 -0.11007,0.0127 -0.0466,0.008 -0.0677,0.0127 v 1.85843 h -0.3937 z m 4.37302,1.03717 q 0,0.26246 -0.0762,0.47413 -0.0762,0.21167 -0.2159,0.36407 -0.13546,0.1524 -0.32596,0.23706 -0.1905,0.0804 -0.41487,0.0804 -0.22437,0 -0.41486,-0.0804 -0.1905,-0.0847 -0.3302,-0.23706 -0.13547,-0.1524 -0.21167,-0.36407 -0.0762,-0.21167 -0.0762,-0.47413 0,-0.25823 0.0762,-0.4699 0.0762,-0.2159 0.21167,-0.3683 0.1397,-0.1524 0.3302,-0.23283 0.19049,-0.0847 0.41486,-0.0847 0.22437,0 0.41487,0.0847 0.1905,0.0804 0.32596,0.23283 0.1397,0.1524 0.2159,0.3683 0.0762,0.21167 0.0762,0.4699 z m -0.41063,0 q 0,-0.37253 -0.16933,-0.58843 -0.1651,-0.22014 -0.45297,-0.22014 -0.28787,0 -0.4572,0.22014 -0.1651,0.2159 -0.1651,0.58843 0,0.37253 0.1651,0.59266 0.16933,0.2159 0.4572,0.2159 0.28787,0 0.45297,-0.2159 0.16933,-0.22013 0.16933,-0.59266 z m 2.71779,1.03716 q -0.13547,0.0339 -0.35983,0.072 -0.22014,0.0381 -0.51224,0.0381 -0.25399,0 -0.42756,-0.072 -0.17357,-0.0762 -0.2794,-0.21166 -0.10583,-0.13547 -0.1524,-0.3175 -0.0466,-0.18627 -0.0466,-0.41064 v -1.23613 h 0.3937 v 1.15147 q 0,0.40216 0.127,0.57573 0.127,0.17357 0.42757,0.17357 0.0635,0 0.13123,-0.004 0.0677,-0.004 0.127,-0.008 0.0593,-0.008 0.10583,-0.0127 0.0508,-0.008 0.072,-0.0169 v -1.85843 h 0.3937 z m 0.67733,-2.07433 q 0.13547,-0.0339 0.35983,-0.072 0.22437,-0.0381 0.51647,-0.0381 0.26247,0 0.43603,0.0762 0.17357,0.072 0.27517,0.20743 0.10583,0.13123 0.14817,0.3175 0.0423,0.18627 0.0423,0.41063 v 1.23613 h -0.3937 v -1.15146 q 0,-0.2032 -0.0296,-0.34713 -0.0254,-0.14394 -0.0889,-0.23284 -0.0635,-0.0889 -0.16934,-0.127 -0.10583,-0.0423 -0.26246,-0.0423 -0.0635,0 -0.13124,0.004 -0.0677,0.004 -0.13123,0.0127 -0.0593,0.004 -0.11007,0.0127 -0.0466,0.008 -0.0677,0.0127 v 1.85843 h -0.3937 z"
         id="text87"
         style="font-size:4.23333px;line-height:1.25;font-family:Ubuntu;-inkscape-font-specification:'Ubuntu, Normal';stroke-width:0.264583"
         aria-label="noun" />
      <path
         d="m 173.58417,172.72775 h 0.39447 l 0.47714,2.57176 h -0.36346 l -0.10679,-0.65973 h -1.15756 l -0.36346,0.65973 h -0.3669 z m 0.12575,0.34279 -0.72175,1.27985 h 0.94396 z m 1.58474,-0.34279 h 0.52194 l 0.29972,1.73288 0.99563,-1.73288 h 0.53571 l -0.50126,2.57176 h -0.33762 l 0.43753,-2.25481 -1.00941,1.76044 h -0.33935 l -0.32728,-1.76733 -0.43753,2.2617 h -0.33934 z m 3.04375,0 h 1.62608 l -0.0568,0.29283 h -1.27985 l -0.14814,0.76137 h 1.22817 l -0.0568,0.29283 h -1.22818 l -0.17914,0.9319 h 1.30913 l -0.0568,0.29283 h -1.65881 z m 2.52181,0.28594 -0.1757,0.91295 h 0.44786 q 0.26355,0 0.42547,-0.14469 0.16364,-0.14642 0.16364,-0.38068 0,-0.18776 -0.11024,-0.28767 -0.10852,-0.0999 -0.3135,-0.0999 z m 0.63906,1.05076 q 0.11025,0.0258 0.18259,0.12747 0.0741,0.10163 0.17054,0.40479 l 0.21876,0.7028 h -0.3669 l -0.20154,-0.65973 q -0.0775,-0.25494 -0.17915,-0.34107 -0.10163,-0.0861 -0.31178,-0.0861 h -0.38413 l -0.21187,1.08692 h -0.34968 l 0.50126,-2.57176 h 0.78376 q 0.35657,0 0.54605,0.16192 0.19121,0.1602 0.19121,0.46336 0,0.26872 -0.16192,0.46509 -0.16192,0.19637 -0.4272,0.24633 z m 1.51929,-1.3367 h 0.34968 l -0.50126,2.57176 h -0.34968 z m 2.89561,0.19809 -0.0706,0.36691 q -0.16536,-0.16709 -0.3514,-0.24805 -0.18431,-0.081 -0.39963,-0.081 -0.29455,0 -0.51849,0.14125 -0.2222,0.14125 -0.38412,0.43063 -0.10336,0.18604 -0.15848,0.39447 -0.0534,0.2067 -0.0534,0.41686 0,0.3514 0.18087,0.53571 0.18259,0.18431 0.52882,0.18431 0.23944,0 0.45992,-0.0758 0.22049,-0.0775 0.42892,-0.23082 l -0.081,0.41169 q -0.20499,0.0878 -0.41514,0.13263 -0.20843,0.0448 -0.41858,0.0448 -0.49437,0 -0.77342,-0.26872 -0.27733,-0.26872 -0.27733,-0.74759 0,-0.30661 0.10507,-0.60289 0.1068,-0.29628 0.3049,-0.54088 0.21015,-0.2601 0.47886,-0.38413 0.27044,-0.12402 0.62873,-0.12402 0.22049,0 0.41686,0.062 0.19809,0.0603 0.36863,0.18259 z m 1.31086,-0.19809 h 0.39446 l 0.47715,2.57176 h -0.36346 l -0.1068,-0.65973 h -1.15755 l -0.36346,0.65973 h -0.3669 z m 0.12574,0.34279 -0.72175,1.27985 h 0.94396 z m 1.58475,-0.34279 h 0.46853 l 0.70969,2.20486 0.43064,-2.20486 h 0.33934 l -0.50126,2.57176 h -0.47026 l -0.70797,-2.21864 -0.43063,2.21864 h -0.33934 z m 5.29167,0.0844 -0.0672,0.33935 q -0.17398,-0.093 -0.34623,-0.13953 -0.17054,-0.0482 -0.33073,-0.0482 -0.31178,0 -0.4961,0.13608 -0.18431,0.13608 -0.18431,0.36174 0,0.12402 0.0672,0.1912 0.0689,0.0654 0.3514,0.14125 l 0.20843,0.0517 q 0.35312,0.0913 0.49092,0.23255 0.13781,0.13952 0.13781,0.39274 0,0.38929 -0.30662,0.6339 -0.30489,0.2446 -0.80443,0.2446 -0.20498,0 -0.41169,-0.0413 -0.2067,-0.0396 -0.41513,-0.1223 l 0.0706,-0.35829 q 0.19121,0.11885 0.38241,0.17914 0.19293,0.0603 0.38413,0.0603 0.32556,0 0.52193,-0.14469 0.19637,-0.1447 0.19637,-0.37724 0,-0.15503 -0.0792,-0.23427 -0.0775,-0.081 -0.33589,-0.14641 l -0.20843,-0.0534 q -0.35657,-0.093 -0.48748,-0.2136 -0.12919,-0.1223 -0.12919,-0.34106 0,-0.38413 0.29455,-0.62874 0.29628,-0.24632 0.76998,-0.24632 0.18431,0 0.36518,0.0327 0.18087,0.0327 0.36174,0.0982 z m 0.70796,-0.0844 h 0.80444 q 0.3514,0 0.53571,0.16364 0.18431,0.16364 0.18431,0.47887 0,0.42375 -0.27216,0.65974 -0.27216,0.23599 -0.76481,0.23599 h -0.43753 l -0.20154,1.03352 h -0.34968 z m 0.29284,0.28594 -0.18604,0.96635 h 0.43753 q 0.29628,0 0.45475,-0.15158 0.15848,-0.15159 0.15848,-0.43408 0,-0.18087 -0.10852,-0.28078 -0.1068,-0.0999 -0.30145,-0.0999 z m 1.83451,-0.28594 h 1.62609 l -0.0568,0.29283 h -1.27985 l -0.14814,0.76137 h 1.22818 l -0.0568,0.29283 h -1.22817 l -0.17915,0.9319 h 1.30914 l -0.0568,0.29283 h -1.65882 z m 2.22554,0 h 0.34967 l -0.44097,2.28238 h 1.25229 l -0.0568,0.28938 h -1.60197 z m 1.96542,0 h 0.34968 l -0.44097,2.28238 h 1.25229 l -0.0568,0.28938 h -1.60197 z m 1.96888,0 h 0.34968 l -0.50127,2.57176 h -0.34967 z m 1.04042,0 h 0.46853 l 0.70969,2.20486 0.43064,-2.20486 h 0.33934 l -0.50126,2.57176 h -0.47026 l -0.70797,-2.21864 -0.43063,2.21864 h -0.33934 z m 3.96875,2.18764 0.13436,-0.67352 h -0.57189 l 0.0534,-0.28594 h 0.91295 l -0.22221,1.13171 q -0.2291,0.12575 -0.49954,0.19465 -0.27044,0.0672 -0.54432,0.0672 -0.48404,0 -0.75792,-0.26872 -0.27217,-0.26872 -0.27217,-0.74759 0,-0.3979 0.16537,-0.75619 0.16709,-0.36002 0.45992,-0.59945 0.18431,-0.14986 0.40308,-0.22221 0.21876,-0.0741 0.48575,-0.0741 0.24116,0 0.46165,0.062 0.22221,0.0603 0.42374,0.18259 l -0.0706,0.37035 q -0.15503,-0.16192 -0.36346,-0.24632 -0.20843,-0.0861 -0.44442,-0.0861 -0.27388,0 -0.48231,0.10507 -0.20843,0.10336 -0.37207,0.32212 -0.13953,0.18604 -0.22049,0.43925 -0.0792,0.25149 -0.0792,0.51332 0,0.36001 0.18431,0.5426 0.18431,0.18087 0.54949,0.18087 0.18259,0 0.35313,-0.0379 0.17053,-0.0396 0.3135,-0.11368 z"
         id="text90"
         style="font-style:italic;font-size:3.52778px;line-height:1.25;font-family:Sans;-inkscape-font-specification:'Sans, Italic';fill:#1b722f;stroke-width:0.264583"
         aria-label="AMERICAN SPELLING" />
      <path
         d="m 135.43414,160.3034 q 0,-0.2413 0.0762,-0.45297 0.0804,-0.2159 0.2286,-0.37253 0.14816,-0.16087 0.35983,-0.254 0.21167,-0.0931 0.4826,-0.0931 0.1778,0 0.32597,0.0339 0.14816,0.0296 0.28786,0.0889 l -0.13123,0.50377 q -0.0889,-0.0339 -0.19473,-0.0593 -0.10584,-0.0254 -0.23707,-0.0254 -0.2794,0 -0.4191,0.17357 -0.13547,0.17356 -0.13547,0.4572 0,0.30056 0.127,0.46566 0.13124,0.1651 0.45297,0.1651 0.1143,0 0.24553,-0.0212 0.13124,-0.0212 0.2413,-0.0677 l 0.0889,0.51647 q -0.11006,0.0466 -0.27516,0.0804 -0.1651,0.0339 -0.36407,0.0339 -0.3048,0 -0.52493,-0.0889 -0.22014,-0.0931 -0.36407,-0.24977 -0.1397,-0.15663 -0.20743,-0.3683 -0.0635,-0.2159 -0.0635,-0.46566 z m 4.19945,-0.004 q 0,0.26247 -0.0762,0.4826 -0.0762,0.2159 -0.22014,0.37254 -0.14393,0.1524 -0.34713,0.23706 -0.19897,0.0847 -0.44873,0.0847 -0.24554,0 -0.44874,-0.0847 -0.19896,-0.0847 -0.3429,-0.23706 -0.14393,-0.15664 -0.22436,-0.37254 -0.0804,-0.22013 -0.0804,-0.4826 0,-0.26246 0.0804,-0.47836 0.0847,-0.2159 0.2286,-0.3683 0.14816,-0.1524 0.34713,-0.23707 0.2032,-0.0847 0.44027,-0.0847 0.2413,0 0.44026,0.0847 0.2032,0.0847 0.34714,0.23707 0.14393,0.1524 0.22436,0.3683 0.0804,0.2159 0.0804,0.47836 z m -0.64347,0 q 0,-0.2921 -0.11853,-0.4572 -0.1143,-0.16933 -0.3302,-0.16933 -0.2159,0 -0.33444,0.16933 -0.11853,0.1651 -0.11853,0.4572 0,0.2921 0.11853,0.46567 0.11854,0.16933 0.33444,0.16933 0.2159,0 0.3302,-0.16933 0.11853,-0.17357 0.11853,-0.46567 z m 2.01929,1.15994 q -0.27517,-0.004 -0.44873,-0.0593 -0.16934,-0.055 -0.27094,-0.1524 -0.0974,-0.1016 -0.13546,-0.2413 -0.0339,-0.14393 -0.0339,-0.32173 v -2.4511 l 0.63077,-0.1016 v 2.4257 q 0,0.0847 0.0127,0.1524 0.0127,0.0677 0.0466,0.1143 0.0381,0.0466 0.10584,0.0762 0.0677,0.0296 0.18203,0.0381 z m 2.53153,-1.15994 q 0,0.26247 -0.0762,0.4826 -0.0762,0.2159 -0.22013,0.37254 -0.14393,0.1524 -0.34713,0.23706 -0.19897,0.0847 -0.44874,0.0847 -0.24553,0 -0.44873,-0.0847 -0.19897,-0.0847 -0.3429,-0.23706 -0.14393,-0.15664 -0.22437,-0.37254 -0.0804,-0.22013 -0.0804,-0.4826 0,-0.26246 0.0804,-0.47836 0.0847,-0.2159 0.2286,-0.3683 0.14817,-0.1524 0.34714,-0.23707 0.2032,-0.0847 0.44026,-0.0847 0.2413,0 0.44027,0.0847 0.2032,0.0847 0.34713,0.23707 0.14394,0.1524 0.22437,0.3683 0.0804,0.2159 0.0804,0.47836 z m -0.64346,0 q 0,-0.2921 -0.11854,-0.4572 -0.1143,-0.16933 -0.3302,-0.16933 -0.2159,0 -0.33443,0.16933 -0.11853,0.1651 -0.11853,0.4572 0,0.2921 0.11853,0.46567 0.11853,0.16933 0.33443,0.16933 0.2159,0 0.3302,-0.16933 0.11854,-0.17357 0.11854,-0.46567 z m 3.03105,1.0414 q -0.16086,0.0466 -0.41486,0.0847 -0.254,0.0423 -0.5334,0.0423 -0.28364,0 -0.47413,-0.0762 -0.18627,-0.0762 -0.29634,-0.21166 -0.11006,-0.1397 -0.15663,-0.3302 -0.0466,-0.1905 -0.0466,-0.4191 v -1.24037 h 0.63077 v 1.16417 q 0,0.3048 0.0804,0.44026 0.0804,0.13547 0.30057,0.13547 0.0677,0 0.14393,-0.004 0.0762,-0.008 0.13547,-0.0169 v -1.71873 h 0.63076 z m 1.93463,-1.59173 q -0.0847,-0.0212 -0.19897,-0.0423 -0.1143,-0.0254 -0.24553,-0.0254 -0.0593,0 -0.14393,0.0127 -0.0804,0.008 -0.12277,0.0212 v 1.7018 h -0.63076 v -2.10819 q 0.16933,-0.0593 0.39793,-0.11007 0.23283,-0.055 0.51646,-0.055 0.0508,0 0.12277,0.008 0.072,0.004 0.14393,0.0169 0.072,0.008 0.14394,0.0254 0.072,0.0127 0.12276,0.0339 z"
         id="text91"
         style="font-weight:bold;font-size:4.23333px;line-height:1.25;font-family:Ubuntu;-inkscape-font-specification:'Ubuntu, Bold';fill:#999999;stroke-width:0.264583"
         aria-label="colour" />
      <path
         style="fill:none;stroke:#000000;stroke-width:0.665;stroke-linecap:butt;stroke-linejoin:miter;stroke-dasharray:none;stroke-opacity:1"
         d="m 157.99789,164.06254 h 22.52628"
         id="path91" />
      <path
         d="m 169.26103,166.04216 3.03759,-2.26776 h -6.07519 z"
         id="path92"
         style="font-size:10.5833px;line-height:1.25;font-family:'Noto Sans CJK HK';-inkscape-font-specification:'Noto Sans CJK HK';stroke-width:0.264583"
         aria-label="" />
      <path
         d="m 160.305,160.3034 q 0,-0.2413 0.0762,-0.45297 0.0804,-0.2159 0.2286,-0.37253 0.14817,-0.16087 0.35983,-0.254 0.21167,-0.0931 0.4826,-0.0931 0.1778,0 0.32597,0.0339 0.14817,0.0296 0.28787,0.0889 l -0.13124,0.50377 q -0.0889,-0.0339 -0.19473,-0.0593 -0.10583,-0.0254 -0.23707,-0.0254 -0.2794,0 -0.4191,0.17357 -0.13546,0.17356 -0.13546,0.4572 0,0.30056 0.127,0.46566 0.13123,0.1651 0.45296,0.1651 0.1143,0 0.24554,-0.0212 0.13123,-0.0212 0.2413,-0.0677 l 0.0889,0.51647 q -0.11007,0.0466 -0.27517,0.0804 -0.1651,0.0339 -0.36407,0.0339 -0.3048,0 -0.52493,-0.0889 -0.22013,-0.0931 -0.36407,-0.24977 -0.13969,-0.15663 -0.20743,-0.3683 -0.0635,-0.2159 -0.0635,-0.46566 z m 4.19945,-0.004 q 0,0.26247 -0.0762,0.4826 -0.0762,0.2159 -0.22013,0.37254 -0.14394,0.1524 -0.34714,0.23706 -0.19896,0.0847 -0.44873,0.0847 -0.24553,0 -0.44873,-0.0847 -0.19897,-0.0847 -0.3429,-0.23706 -0.14393,-0.15664 -0.22437,-0.37254 -0.0804,-0.22013 -0.0804,-0.4826 0,-0.26246 0.0804,-0.47836 0.0847,-0.2159 0.2286,-0.3683 0.14817,-0.1524 0.34713,-0.23707 0.2032,-0.0847 0.44027,-0.0847 0.2413,0 0.44027,0.0847 0.2032,0.0847 0.34713,0.23707 0.14393,0.1524 0.22437,0.3683 0.0804,0.2159 0.0804,0.47836 z m -0.64347,0 q 0,-0.2921 -0.11853,-0.4572 -0.1143,-0.16933 -0.3302,-0.16933 -0.2159,0 -0.33443,0.16933 -0.11854,0.1651 -0.11854,0.4572 0,0.2921 0.11854,0.46567 0.11853,0.16933 0.33443,0.16933 0.2159,0 0.3302,-0.16933 0.11853,-0.17357 0.11853,-0.46567 z m 2.0193,1.15994 q -0.27517,-0.004 -0.44874,-0.0593 -0.16933,-0.055 -0.27093,-0.1524 -0.0974,-0.1016 -0.13547,-0.2413 -0.0339,-0.14393 -0.0339,-0.32173 v -2.4511 l 0.63076,-0.1016 v 2.4257 q 0,0.0847 0.0127,0.1524 0.0127,0.0677 0.0466,0.1143 0.0381,0.0466 0.10583,0.0762 0.0677,0.0296 0.18204,0.0381 z m 2.53153,-1.15994 q 0,0.26247 -0.0762,0.4826 -0.0762,0.2159 -0.22014,0.37254 -0.14393,0.1524 -0.34713,0.23706 -0.19897,0.0847 -0.44873,0.0847 -0.24554,0 -0.44873,-0.0847 -0.19897,-0.0847 -0.3429,-0.23706 -0.14394,-0.15664 -0.22437,-0.37254 -0.0804,-0.22013 -0.0804,-0.4826 0,-0.26246 0.0804,-0.47836 0.0847,-0.2159 0.2286,-0.3683 0.14817,-0.1524 0.34713,-0.23707 0.2032,-0.0847 0.44027,-0.0847 0.2413,0 0.44026,0.0847 0.2032,0.0847 0.34714,0.23707 0.14393,0.1524 0.22436,0.3683 0.0804,0.2159 0.0804,0.47836 z m -0.64347,0 q 0,-0.2921 -0.11853,-0.4572 -0.1143,-0.16933 -0.3302,-0.16933 -0.2159,0 -0.33444,0.16933 -0.11853,0.1651 -0.11853,0.4572 0,0.2921 0.11853,0.46567 0.11854,0.16933 0.33444,0.16933 0.2159,0 0.3302,-0.16933 0.11853,-0.17357 0.11853,-0.46567 z m 2.47226,-0.55033 q -0.0847,-0.0212 -0.19897,-0.0423 -0.1143,-0.0254 -0.24553,-0.0254 -0.0593,0 -0.14393,0.0127 -0.0804,0.008 -0.12277,0.0212 v 1.7018 h -0.63077 v -2.10819 q 0.16934,-0.0593 0.39794,-0.11007 0.23283,-0.055 0.51646,-0.055 0.0508,0 0.12277,0.008 0.072,0.004 0.14393,0.0169 0.072,0.008 0.14394,0.0254 0.072,0.0127 0.12276,0.0339 z"
         id="text92"
         style="font-weight:bold;font-size:4.23333px;line-height:1.25;font-family:Ubuntu;-inkscape-font-specification:'Ubuntu, Bold';stroke-width:0.264583"
         aria-label="color" />
      <path
         d="m 150.65632,157.38189 h 1.62609 l -0.0568,0.29284 h -1.27985 l -0.14814,0.76136 h 1.22818 l -0.0568,0.29284 h -1.22818 l -0.17914,0.9319 h 1.30914 l -0.0568,0.29283 h -1.65881 z m 2.17902,0 h 0.34968 l -0.30317,1.56236 q -0.0189,0.10507 -0.0276,0.17397 -0.007,0.0672 -0.007,0.11886 0,0.23771 0.13264,0.36173 0.13263,0.1223 0.38929,0.1223 0.33246,0 0.51677,-0.18259 0.18603,-0.18259 0.26527,-0.59427 l 0.30317,-1.56236 h 0.34968 l -0.31006,1.60542 q -0.10163,0.52021 -0.38585,0.76826 -0.28422,0.24804 -0.77859,0.24804 -0.38586,0 -0.61151,-0.19292 -0.22393,-0.19465 -0.22393,-0.5271 0,-0.0603 0.009,-0.13436 0.009,-0.0758 0.0258,-0.16192 z"
         id="text93"
         style="font-style:italic;font-size:3.52778px;line-height:1.25;font-family:Sans;-inkscape-font-specification:'Sans, Italic';fill:#1b722f;stroke-width:0.264583"
         aria-label="EU" />
      <path
         d="m 173.58414,157.38189 h 0.39446 l 0.47715,2.57177 h -0.36346 l -0.10679,-0.65974 h -1.15756 l -0.36346,0.65974 h -0.3669 z m 0.12575,0.34279 -0.72175,1.27985 h 0.94396 z m 1.58474,-0.34279 h 0.52193 l 0.29973,1.73289 0.99563,-1.73289 h 0.53571 l -0.50126,2.57177 h -0.33762 l 0.43753,-2.25482 -1.00941,1.76045 h -0.33935 l -0.32728,-1.76734 -0.43753,2.26171 h -0.33934 z"
         id="text94"
         style="font-style:italic;font-size:3.52778px;line-height:1.25;font-family:Sans;-inkscape-font-specification:'Sans, Italic';fill:#1b722f;stroke-width:0.264583"
         aria-label="AM" />
      <path
         d="m 144.14372,185.76121 q 0.2413,0 0.3556,-0.0635 0.11853,-0.0635 0.11853,-0.2032 0,-0.14393 -0.1143,-0.2286 -0.1143,-0.0847 -0.37677,-0.1905 -0.127,-0.0508 -0.24553,-0.1016 -0.1143,-0.055 -0.19897,-0.127 -0.0847,-0.072 -0.13546,-0.17356 -0.0508,-0.1016 -0.0508,-0.24977 0,-0.2921 0.2159,-0.46143 0.2159,-0.17357 0.58843,-0.17357 0.0931,0 0.18627,0.0127 0.0931,0.008 0.17356,0.0254 0.0804,0.0127 0.1397,0.0296 0.0635,0.0169 0.0974,0.0296 l -0.072,0.33866 q -0.0635,-0.0339 -0.19896,-0.0677 -0.13547,-0.0381 -0.32597,-0.0381 -0.1651,0 -0.28787,0.0677 -0.12276,0.0635 -0.12276,0.2032 0,0.072 0.0254,0.127 0.0296,0.055 0.0847,0.1016 0.0593,0.0423 0.14394,0.0804 0.0847,0.0381 0.2032,0.0804 0.15663,0.0593 0.2794,0.11853 0.12276,0.055 0.20743,0.13124 0.0889,0.0762 0.13546,0.18626 0.0466,0.10584 0.0466,0.26247 0,0.3048 -0.2286,0.46143 -0.22436,0.15664 -0.64346,0.15664 -0.2921,0 -0.4572,-0.0508 -0.1651,-0.0466 -0.22437,-0.072 l 0.072,-0.33867 q 0.0677,0.0254 0.2159,0.0762 0.14816,0.0508 0.3937,0.0508 z m 1.25306,-0.8128 q 0,-0.2921 0.0847,-0.508 0.0847,-0.22013 0.22437,-0.36406 0.1397,-0.14394 0.32173,-0.2159 0.18204,-0.072 0.37254,-0.072 0.4445,0 0.68156,0.2794 0.23707,0.27517 0.23707,0.84243 0,0.0254 0,0.0677 0,0.0381 -0.004,0.072 h -1.50707 q 0.0254,0.3429 0.19897,0.5207 0.17356,0.1778 0.54186,0.1778 0.20744,0 0.34714,-0.0339 0.14393,-0.0381 0.2159,-0.072 l 0.055,0.3302 q -0.072,0.0381 -0.254,0.0804 -0.1778,0.0423 -0.4064,0.0423 -0.28787,0 -0.49953,-0.0847 -0.20744,-0.0889 -0.3429,-0.2413 -0.13547,-0.1524 -0.2032,-0.35983 -0.0635,-0.21167 -0.0635,-0.46144 z m 1.5113,-0.2159 q 0.004,-0.2667 -0.13547,-0.43603 -0.13547,-0.17357 -0.37677,-0.17357 -0.13546,0 -0.2413,0.055 -0.1016,0.0508 -0.17356,0.13546 -0.072,0.0847 -0.1143,0.19474 -0.0381,0.11006 -0.0508,0.22436 z m 0.85512,0.2159 q 0,-0.2921 0.0847,-0.508 0.0847,-0.22013 0.22436,-0.36406 0.1397,-0.14394 0.32174,-0.2159 0.18203,-0.072 0.37253,-0.072 0.4445,0 0.68157,0.2794 0.23706,0.27517 0.23706,0.84243 0,0.0254 0,0.0677 0,0.0381 -0.004,0.072 h -1.50707 q 0.0254,0.3429 0.19897,0.5207 0.17357,0.1778 0.54187,0.1778 0.20743,0 0.34713,-0.0339 0.14393,-0.0381 0.2159,-0.072 l 0.055,0.3302 q -0.072,0.0381 -0.254,0.0804 -0.1778,0.0423 -0.4064,0.0423 -0.28786,0 -0.49953,-0.0847 -0.20743,-0.0889 -0.3429,-0.2413 -0.13547,-0.1524 -0.2032,-0.35983 -0.0635,-0.21167 -0.0635,-0.46144 z m 1.5113,-0.2159 q 0.004,-0.2667 -0.13547,-0.43603 -0.13546,-0.17357 -0.37676,-0.17357 -0.13547,0 -0.2413,0.055 -0.1016,0.0508 -0.17357,0.13546 -0.072,0.0847 -0.1143,0.19474 -0.0381,0.11006 -0.0508,0.22436 z"
         id="text96"
         style="font-size:4.23333px;line-height:1.25;font-family:Ubuntu;-inkscape-font-specification:'Ubuntu, Normal';stroke-width:0.264583"
         aria-label="see" />
      <path
         d="m 153.72297,185.66949 q -0.19482,0.21945 -0.35157,0.3247 -0.15675,0.10524 -0.29559,0.13659 -0.1366,0.0314 -0.27767,0.0314 -0.24409,0 -0.45682,-0.1254 -0.2105,-0.12764 -0.34262,-0.365 -0.12988,-0.23961 -0.12988,-0.57103 0,-0.32246 0.15451,-0.58446 0.15452,-0.262 0.42771,-0.41651 0.2732,-0.15451 0.62701,-0.15451 0.0985,0 0.22617,0.0224 0.12764,0.0224 0.23961,0.0627 0.11196,0.0381 0.16123,0.0918 0.004,0.0269 -0.0134,0.10973 -0.0179,0.0806 -0.0493,0.17914 -0.0314,0.0985 -0.0627,0.18363 -0.0314,0.0829 -0.0515,0.11196 l -0.15003,-0.0224 q -0.0739,-0.21945 -0.18139,-0.33814 -0.10748,-0.12092 -0.28663,-0.12092 -0.13212,0 -0.24632,0.0806 -0.11421,0.0806 -0.18587,0.25976 -0.0717,0.1769 -0.0717,0.46577 0,0.35605 0.17018,0.55535 0.17243,0.1993 0.41652,0.1993 0.0851,0 0.16347,-0.0157 0.0784,-0.0157 0.18138,-0.0694 0.10525,-0.056 0.26424,-0.17467 z m 2.35128,-0.6606 q 0,0.22393 -0.0873,0.42995 -0.0873,0.20601 -0.23961,0.36948 -0.15227,0.16347 -0.35157,0.25976 -0.1993,0.094 -0.42099,0.094 -0.30903,0 -0.53744,-0.13883 -0.22841,-0.13884 -0.35381,-0.37845 -0.1254,-0.2396 -0.1254,-0.54415 0,-0.22169 0.0806,-0.42771 0.0806,-0.20825 0.22841,-0.37172 0.1478,-0.16571 0.34934,-0.25976 0.20377,-0.0963 0.44562,-0.0963 0.30455,0 0.53296,0.13883 0.22841,0.13884 0.35381,0.37845 0.1254,0.2396 0.1254,0.54639 z m -0.56431,0.10077 q 0,-0.23737 -0.0649,-0.43667 -0.0649,-0.20154 -0.18138,-0.3247 -0.11421,-0.12316 -0.26648,-0.12316 -0.18586,0 -0.28887,0.10749 -0.10301,0.10524 -0.14332,0.28887 -0.0403,0.18362 -0.0403,0.41427 0,0.23513 0.0694,0.42771 0.0717,0.19258 0.18811,0.30679 0.11644,0.11196 0.25528,0.11196 0.26648,0 0.36948,-0.20154 0.10301,-0.20154 0.10301,-0.57102 z m 0.82855,0.9853 v -0.16347 q 0.19258,-0.0336 0.25528,-0.0672 0.0627,-0.0336 0.0627,-0.0694 v -2.5349 q 0,-0.13212 -0.0224,-0.19034 -0.0224,-0.0582 -0.0851,-0.0761 -0.0627,-0.0201 -0.1881,-0.0336 v -0.15675 q 0.22393,-0.0314 0.39188,-0.0694 0.16795,-0.0381 0.34485,-0.10973 l 0.0963,0.0918 v 3.07906 q 0,0.0336 0.0672,0.0694 0.0694,0.0358 0.25305,0.0672 v 0.16347 z m 3.5202,-1.08607 q 0,0.22393 -0.0873,0.42995 -0.0873,0.20601 -0.2396,0.36948 -0.15228,0.16347 -0.35158,0.25976 -0.19929,0.094 -0.42099,0.094 -0.30902,0 -0.53743,-0.13883 -0.22841,-0.13884 -0.35381,-0.37845 -0.1254,-0.2396 -0.1254,-0.54415 0,-0.22169 0.0806,-0.42771 0.0806,-0.20825 0.22841,-0.37172 0.1478,-0.16571 0.34933,-0.25976 0.20378,-0.0963 0.44563,-0.0963 0.30454,0 0.53295,0.13883 0.22841,0.13884 0.35381,0.37845 0.12541,0.2396 0.12541,0.54639 z m -0.56431,0.10077 q 0,-0.23737 -0.0649,-0.43667 -0.0649,-0.20154 -0.18139,-0.3247 -0.1142,-0.12316 -0.26647,-0.12316 -0.18587,0 -0.28887,0.10749 -0.10301,0.10524 -0.14332,0.28887 -0.0403,0.18362 -0.0403,0.41427 0,0.23513 0.0694,0.42771 0.0717,0.19258 0.1881,0.30679 0.11645,0.11196 0.25528,0.11196 0.26648,0 0.36949,-0.20154 0.10301,-0.20154 0.10301,-0.57102 z m 3.27163,0.73449 q -0.10972,0.0717 -0.24632,0.14556 -0.13436,0.0739 -0.24633,0.12316 -0.11196,0.0493 -0.14779,0.0493 -0.0806,0 -0.14779,-0.0694 -0.0672,-0.0717 -0.0941,-0.30231 -0.18586,0.16123 -0.32246,0.24184 -0.13659,0.0784 -0.24184,0.10301 -0.10525,0.0269 -0.20154,0.0269 -0.13884,0 -0.26872,-0.056 -0.12988,-0.056 -0.21497,-0.20601 -0.0829,-0.15004 -0.0829,-0.42995 v -0.91812 q 0,-0.14108 -0.0134,-0.20378 -0.0112,-0.0627 -0.0694,-0.0828 -0.056,-0.0202 -0.1881,-0.0336 v -0.15675 q 0.22393,-0.0202 0.38292,-0.0448 0.16123,-0.0269 0.34709,-0.0851 l 0.0784,0.103 v 1.28089 q 0,0.27768 0.0672,0.36277 0.0672,0.0829 0.19258,0.0829 0.0941,0 0.22169,-0.0537 0.12988,-0.0537 0.3135,-0.21273 v -0.95619 q 0,-0.13436 -0.0179,-0.1993 -0.0157,-0.0649 -0.0784,-0.0896 -0.0627,-0.0246 -0.19929,-0.0314 v -0.15675 q 0.22393,-0.0202 0.40531,-0.0537 0.18362,-0.0358 0.34485,-0.0761 l 0.0829,0.103 v 1.41077 q 0,0.1366 0.0112,0.19258 0.0112,0.0538 0.0403,0.0761 0.0246,0.0202 0.0739,0.009 0.0493,-0.0112 0.16347,-0.0605 z m 1.97955,-1.8004 q 0.0202,0.0134 0.0112,0.10748 -0.009,0.0941 -0.0358,0.22393 -0.0269,0.12764 -0.0605,0.24633 -0.0336,0.11644 -0.0605,0.1769 h -0.16347 q -0.0157,-0.18138 -0.0784,-0.30902 -0.0627,-0.12988 -0.17018,-0.12988 -0.0582,0 -0.13212,0.0336 -0.0739,0.0314 -0.15675,0.12988 -0.0829,0.0985 -0.17243,0.29335 v 0.97858 q 0,0.0336 0.0918,0.0694 0.094,0.0358 0.30455,0.0672 v 0.16347 h -1.22939 v -0.16347 q 0.29559,-0.0672 0.29559,-0.1366 v -1.18684 q 0,-0.14779 -0.0157,-0.20601 -0.0157,-0.0582 -0.0358,-0.0784 -0.0291,-0.0291 -0.0761,-0.0403 -0.0448,-0.0134 -0.16795,-0.0202 v -0.15675 q 0.16347,-0.0224 0.2732,-0.0426 0.11197,-0.0224 0.20826,-0.0493 0.0985,-0.0291 0.22393,-0.0694 l 0.094,0.094 0.0291,0.3247 q 0.12092,-0.17243 0.29783,-0.29559 0.17914,-0.12316 0.37172,-0.12316 0.18363,0 0.35381,0.0985 z"
         id="text97"
         style="font-weight:bold;font-size:4.58611px;line-height:1.25;font-family:'Gentium Plus';-inkscape-font-specification:'Gentium Plus, Bold';fill:#094bac;stroke-width:0.264583"
         aria-label="colour" />
      <path
         style="fill:#3b77cf;fill-opacity:1;stroke:#c0baff;stroke-width:0.365001;stroke-linecap:butt;stroke-linejoin:miter;stroke-dasharray:0.365001, 0.365001;stroke-dashoffset:0;stroke-opacity:1"
         d="m 151.79359,187.63235 h 12.8412"
         id="path97" />
    </g>
  </g>
</svg>
