<?xml version="1.0" encoding="UTF-8" standalone="no"?>
<!-- Created with Inkscape (http://www.inkscape.org/) -->

<svg
   width="236.29439mm"
   height="62.827789mm"
   viewBox="0 0 236.29439 62.827789"
   version="1.1"
   id="svg1"
   inkscape:version="1.3.1 (9b9bdc1480, 2023-11-25, custom)"
   sodipodi:docname="fig6c.svg"
   xmlns:inkscape="http://www.inkscape.org/namespaces/inkscape"
   xmlns:sodipodi="http://sodipodi.sourceforge.net/DTD/sodipodi-0.dtd"
   xmlns="http://www.w3.org/2000/svg"
   xmlns:svg="http://www.w3.org/2000/svg">
  <sodipodi:namedview
     id="namedview1"
     pagecolor="#ffffff"
     bordercolor="#666666"
     borderopacity="1.0"
     inkscape:showpageshadow="2"
     inkscape:pageopacity="0.0"
     inkscape:pagecheckerboard="0"
     inkscape:deskcolor="#d1d1d1"
     inkscape:document-units="mm"
     inkscape:zoom="0.58618126"
     inkscape:cx="446.96073"
     inkscape:cy="117.71103"
     inkscape:window-width="1558"
     inkscape:window-height="836"
     inkscape:window-x="42"
     inkscape:window-y="27"
     inkscape:window-maximized="1"
     inkscape:current-layer="layer1" />
  <defs
     id="defs1" />
  <g
     inkscape:label="Layer 1"
     inkscape:groupmode="layer"
     id="layer1"
     transform="translate(12.964583,-117.21041)">
    <path
       id="rect11"
       style="fill:#ffffff;stroke-width:0.365001;stroke-linecap:square;stroke-miterlimit:40;stroke-dasharray:0.365001, 0.365001;paint-order:fill markers stroke"
       d="M -12.310052,117.21041 H 222.67527 c 0.36261,0 0.65453,0.29192 0.65453,0.65453 v 61.51873 c 0,0.36261 -0.29192,0.65453 -0.65453,0.65453 H -12.310052 c -0.36261,0 -0.654531,-0.29192 -0.654531,-0.65453 v -61.51873 c 0,-0.36261 0.291921,-0.65453 0.654531,-0.65453 z" />
    <g
       id="g11"
       transform="translate(32.732404,-441.02152)">
      <path
         d="m 45.945808,581.85861 h 0.833966 v 0.33019 h -0.833966 v 1.016 q 0,0.1651 0.0254,0.27517 0.0254,0.10583 0.0762,0.16933 0.0508,0.0593 0.127,0.0847 0.0762,0.0254 0.1778,0.0254 0.1778,0 0.283633,-0.0381 0.110066,-0.0423 0.1524,-0.0593 l 0.0762,0.32597 q -0.05927,0.0296 -0.207434,0.072 -0.148166,0.0466 -0.338666,0.0466 -0.224366,0 -0.372533,-0.055 -0.143933,-0.0593 -0.232833,-0.17357 -0.0889,-0.1143 -0.127,-0.2794 -0.03387,-0.16933 -0.03387,-0.38946 v -1.96427 l 0.3937,-0.0677 z m 3.217317,1.10066 q 0,0.26247 -0.0762,0.47413 -0.0762,0.21167 -0.2159,0.36407 -0.135467,0.1524 -0.325966,0.23707 -0.1905,0.0804 -0.414867,0.0804 -0.224366,0 -0.414866,-0.0804 -0.1905,-0.0847 -0.3302,-0.23707 -0.135466,-0.1524 -0.211666,-0.36407 -0.0762,-0.21166 -0.0762,-0.47413 0,-0.25823 0.0762,-0.4699 0.0762,-0.2159 0.211666,-0.3683 0.1397,-0.1524 0.3302,-0.23283 0.1905,-0.0847 0.414866,-0.0847 0.224367,0 0.414867,0.0847 0.190499,0.0804 0.325966,0.23283 0.1397,0.1524 0.2159,0.3683 0.0762,0.21167 0.0762,0.4699 z m -0.410633,0 q 0,-0.37253 -0.169333,-0.58843 -0.1651,-0.22014 -0.452967,-0.22014 -0.287866,0 -0.457199,0.22014 -0.1651,0.2159 -0.1651,0.58843 0,0.37253 0.1651,0.59267 0.169333,0.2159 0.457199,0.2159 0.287867,0 0.452967,-0.2159 0.169333,-0.22014 0.169333,-0.59267 z m 1.943086,-1.03717 q 0.135467,-0.0339 0.3556,-0.072 0.224366,-0.0381 0.516466,-0.0381 0.211666,0 0.3556,0.0593 0.143933,0.055 0.241299,0.16509 0.02963,-0.0212 0.09313,-0.0593 0.0635,-0.0381 0.156633,-0.072 0.09313,-0.0381 0.207433,-0.0635 0.1143,-0.0296 0.245533,-0.0296 0.254,0 0.414867,0.0762 0.160866,0.072 0.249766,0.20743 0.09313,0.13547 0.122767,0.32173 0.03387,0.18627 0.03387,0.4064 v 1.23614 h -0.393699 v -1.15147 q 0,-0.19473 -0.02117,-0.33443 -0.01693,-0.1397 -0.07197,-0.23284 -0.0508,-0.0931 -0.143933,-0.13546 -0.0889,-0.0466 -0.232833,-0.0466 -0.198967,0 -0.3302,0.055 -0.127,0.0508 -0.173566,0.0931 0.03387,0.11006 0.0508,0.2413 0.01693,0.13123 0.01693,0.27516 v 1.23614 h -0.3937 v -1.15147 q 0,-0.19473 -0.02117,-0.33443 -0.02117,-0.1397 -0.0762,-0.23284 -0.0508,-0.0931 -0.143934,-0.13546 -0.0889,-0.0466 -0.228599,-0.0466 -0.05927,0 -0.127,0.004 -0.06773,0.004 -0.131233,0.0127 -0.05927,0.004 -0.110067,0.0127 -0.0508,0.008 -0.06773,0.0127 v 1.85844 h -0.3937 z m 5.587987,1.03717 q 0,0.26247 -0.0762,0.47413 -0.0762,0.21167 -0.215899,0.36407 -0.135467,0.1524 -0.325967,0.23707 -0.1905,0.0804 -0.414866,0.0804 -0.224367,0 -0.414866,-0.0804 -0.1905,-0.0847 -0.3302,-0.23707 -0.135467,-0.1524 -0.211667,-0.36407 -0.0762,-0.21166 -0.0762,-0.47413 0,-0.25823 0.0762,-0.4699 0.0762,-0.2159 0.211667,-0.3683 0.1397,-0.1524 0.3302,-0.23283 0.190499,-0.0847 0.414866,-0.0847 0.224366,0 0.414866,0.0847 0.1905,0.0804 0.325967,0.23283 0.139699,0.1524 0.215899,0.3683 0.0762,0.21167 0.0762,0.4699 z m -0.410633,0 q 0,-0.37253 -0.169333,-0.58843 -0.1651,-0.22014 -0.452966,-0.22014 -0.287867,0 -0.4572,0.22014 -0.1651,0.2159 -0.1651,0.58843 0,0.37253 0.1651,0.59267 0.169333,0.2159 0.4572,0.2159 0.287866,0 0.452966,-0.2159 0.169333,-0.22014 0.169333,-0.59267 z m 2.62465,-1.10066 q -0.1651,0.61806 -0.389466,1.18533 -0.220134,0.56726 -0.427567,1.016 H 57.32495 q -0.207434,-0.44874 -0.4318,-1.016 -0.220133,-0.56727 -0.385233,-1.18533 h 0.423333 q 0.0508,0.20743 0.118533,0.44449 0.07197,0.23284 0.148167,0.46567 0.08043,0.2286 0.160866,0.4445 0.08043,0.2159 0.1524,0.38523 0.07197,-0.16933 0.1524,-0.38523 0.08043,-0.2159 0.156633,-0.4445 0.08043,-0.23283 0.148167,-0.46567 0.07197,-0.23706 0.122766,-0.44449 z m 0.224354,1.10489 q 0,-0.2921 0.08467,-0.508 0.08467,-0.22013 0.224367,-0.36406 0.1397,-0.14394 0.321733,-0.2159 0.182033,-0.072 0.372533,-0.072 0.444499,0 0.681566,0.2794 0.237066,0.27517 0.237066,0.84243 0,0.0254 0,0.0677 0,0.0381 -0.0042,0.072 h -1.507065 q 0.0254,0.3429 0.198966,0.5207 0.173567,0.1778 0.541866,0.1778 0.207433,0 0.347133,-0.0339 0.143934,-0.0381 0.2159,-0.072 l 0.05503,0.3302 q -0.07197,0.0381 -0.253999,0.0804 -0.1778,0.0423 -0.4064,0.0423 -0.287866,0 -0.499533,-0.0847 -0.207433,-0.0889 -0.3429,-0.2413 -0.135466,-0.1524 -0.203199,-0.35983 -0.0635,-0.21167 -0.0635,-0.46144 z m 1.511298,-0.2159 q 0.0042,-0.2667 -0.135466,-0.43603 -0.135467,-0.17357 -0.376767,-0.17357 -0.135466,0 -0.241299,0.055 -0.1016,0.0508 -0.173567,0.13546 -0.07197,0.0847 -0.1143,0.19474 -0.0381,0.11006 -0.0508,0.22436 z m 3.898886,0.21167 q 0,0.26247 -0.0762,0.47413 -0.0762,0.21167 -0.2159,0.36407 -0.135466,0.1524 -0.325966,0.23707 -0.1905,0.0804 -0.414867,0.0804 -0.224366,0 -0.414866,-0.0804 -0.1905,-0.0847 -0.3302,-0.23707 -0.135466,-0.1524 -0.211666,-0.36407 -0.0762,-0.21166 -0.0762,-0.47413 0,-0.25823 0.0762,-0.4699 0.0762,-0.2159 0.211666,-0.3683 0.1397,-0.1524 0.3302,-0.23283 0.1905,-0.0847 0.414866,-0.0847 0.224367,0 0.414867,0.0847 0.1905,0.0804 0.325966,0.23283 0.1397,0.1524 0.2159,0.3683 0.0762,0.21167 0.0762,0.4699 z m -0.410633,0 q 0,-0.37253 -0.169333,-0.58843 -0.1651,-0.22014 -0.452967,-0.22014 -0.287866,0 -0.457199,0.22014 -0.1651,0.2159 -0.1651,0.58843 0,0.37253 0.1651,0.59267 0.169333,0.2159 0.457199,0.2159 0.287867,0 0.452967,-0.2159 0.169333,-0.22014 0.169333,-0.59267 z m 0.96519,-1.03717 q 0.135467,-0.0339 0.359833,-0.072 0.224367,-0.0381 0.516467,-0.0381 0.262466,0 0.436033,0.0762 0.173566,0.072 0.275166,0.20743 0.105833,0.13123 0.148167,0.3175 0.04233,0.18627 0.04233,0.41063 v 1.23614 h -0.3937 v -1.15147 q 0,-0.2032 -0.02963,-0.34713 -0.0254,-0.14394 -0.0889,-0.23284 -0.0635,-0.0889 -0.169333,-0.127 -0.105833,-0.0423 -0.262467,-0.0423 -0.0635,0 -0.131233,0.004 -0.06773,0.004 -0.131233,0.0127 -0.05927,0.004 -0.110067,0.0127 -0.04657,0.008 -0.06773,0.0127 v 1.85844 h -0.3937 z m 4.26719,-1.14723 q 0.173566,0 0.296333,0.0254 0.127,0.0254 0.1778,0.0466 l -0.07197,0.33867 q -0.0508,-0.0254 -0.143933,-0.0466 -0.09313,-0.0254 -0.2286,-0.0254 -0.275166,0 -0.385233,0.1524 -0.110066,0.14817 -0.110066,0.40217 v 0.1905 h 0.846666 v 0.33019 h -0.846666 v 1.87114 h -0.3937 v -2.4003 q 0,-0.42333 0.207433,-0.65193 0.207433,-0.23284 0.651933,-0.23284 z m 0.651931,2.18863 q 0,-0.2921 0.08467,-0.508 0.08467,-0.22013 0.224366,-0.36406 0.1397,-0.14394 0.321733,-0.2159 0.182033,-0.072 0.372533,-0.072 0.4445,0 0.681566,0.2794 0.237067,0.27517 0.237067,0.84243 0,0.0254 0,0.0677 0,0.0381 -0.0042,0.072 h -1.507066 q 0.0254,0.3429 0.198967,0.5207 0.173566,0.1778 0.541866,0.1778 0.207433,0 0.347133,-0.0339 0.143933,-0.0381 0.2159,-0.072 l 0.05503,0.3302 q -0.07197,0.0381 -0.254,0.0804 -0.1778,0.0423 -0.406399,0.0423 -0.287867,0 -0.499533,-0.0847 -0.207434,-0.0889 -0.3429,-0.2413 -0.135467,-0.1524 -0.2032,-0.35983 -0.0635,-0.21167 -0.0635,-0.46144 z m 1.511299,-0.2159 q 0.0042,-0.2667 -0.135467,-0.43603 -0.135466,-0.17357 -0.376766,-0.17357 -0.135467,0 -0.2413,0.055 -0.1016,0.0508 -0.173566,0.13546 -0.07197,0.0847 -0.1143,0.19474 -0.0381,0.11006 -0.0508,0.22436 z m 0.855126,0.2159 q 0,-0.2921 0.08467,-0.508 0.08467,-0.22013 0.224367,-0.36406 0.1397,-0.14394 0.321733,-0.2159 0.182033,-0.072 0.372533,-0.072 0.444499,0 0.681566,0.2794 0.237066,0.27517 0.237066,0.84243 0,0.0254 0,0.0677 0,0.0381 -0.0042,0.072 h -1.507065 q 0.0254,0.3429 0.198966,0.5207 0.173567,0.1778 0.541866,0.1778 0.207434,0 0.347133,-0.0339 0.143934,-0.0381 0.2159,-0.072 l 0.05503,0.3302 q -0.07197,0.0381 -0.254,0.0804 -0.1778,0.0423 -0.4064,0.0423 -0.287866,0 -0.499533,-0.0847 -0.207433,-0.0889 -0.3429,-0.2413 -0.135466,-0.1524 -0.203199,-0.35983 -0.0635,-0.21167 -0.0635,-0.46144 z m 1.511298,-0.2159 q 0.0042,-0.2667 -0.135466,-0.43603 -0.135467,-0.17357 -0.376766,-0.17357 -0.135467,0 -0.2413,0.055 -0.1016,0.0508 -0.173567,0.13546 -0.07197,0.0847 -0.1143,0.19474 -0.0381,0.11006 -0.0508,0.22436 z m 1.346191,-0.88899 h 0.833966 v 0.33019 h -0.833966 v 1.016 q 0,0.1651 0.0254,0.27517 0.0254,0.10583 0.0762,0.16933 0.0508,0.0593 0.126999,0.0847 0.0762,0.0254 0.1778,0.0254 0.1778,0 0.283633,-0.0381 0.110067,-0.0423 0.1524,-0.0593 l 0.0762,0.32597 q -0.05927,0.0296 -0.207433,0.072 -0.148167,0.0466 -0.338666,0.0466 -0.224367,0 -0.372533,-0.055 -0.143934,-0.0593 -0.232834,-0.17357 -0.0889,-0.1143 -0.126999,-0.2794 -0.03387,-0.16933 -0.03387,-0.38946 v -1.96427 l 0.3937,-0.0677 z"
         id="text148"
         style="font-size:4.23333px;line-height:1.25;font-family:Ubuntu;-inkscape-font-specification:'Ubuntu, Normal';stroke-width:0.264583"
         aria-label="to move on feet" />
      <path
         id="rect148"
         style="fill:#999999;stroke-width:0.465;stroke-linecap:square;stroke-miterlimit:40;paint-order:fill markers stroke"
         d="m 38.058296,581.35889 h 2.196578 v 2.50827 h -2.196578 z" />
      <path
         d="m 46.741424,587.79083 -0.02239,0.16347 q -0.29335,0.0649 -0.304547,0.13884 l -0.304546,2.21916 q -0.0022,0.0269 0.05822,0.0672 0.0627,0.0381 0.208256,0.0694 l -0.02239,0.16347 h -1.086066 l 0.02239,-0.16347 q 0.29111,-0.0627 0.302307,-0.1366 l 0.302307,-2.21916 q 0.0045,-0.0269 -0.05822,-0.0672 -0.0627,-0.0403 -0.206017,-0.0717 l 0.02239,-0.16347 z m 3.945667,0.89573 q 0,0.0896 -0.03807,0.21273 -0.03807,0.12316 -0.13212,0.3247 -0.09181,0.1993 -0.257521,0.5128 -0.163469,0.31127 -0.42099,0.77705 -0.02463,0.0134 -0.103009,0.0537 -0.07838,0.0403 -0.156751,0.0806 -0.07838,0.0426 -0.107487,0.056 l -0.09181,-0.0873 q -0.04927,-0.3762 -0.103008,-0.72553 -0.05374,-0.34934 -0.111966,-0.55535 -0.04031,0.15899 -0.174666,0.47473 -0.13212,0.31351 -0.338136,0.67851 -0.02687,0.0134 -0.114205,0.0605 -0.08733,0.047 -0.174667,0.0941 -0.08733,0.047 -0.118683,0.0605 l -0.08733,-0.0873 q -0.02239,-0.19034 -0.04703,-0.42323 -0.02239,-0.23288 -0.04702,-0.45905 -0.02463,-0.22617 -0.04703,-0.3986 -0.02239,-0.17243 -0.03807,-0.24185 -0.02687,-0.12092 -0.0739,-0.15227 -0.04479,-0.0313 -0.08509,-0.0313 -0.02687,0 -0.08062,0.0157 -0.05374,0.0134 -0.09853,0.0269 -0.04255,0.0112 -0.04255,0.0112 l -0.04926,-0.15003 q 0.12988,-0.0672 0.275435,-0.13436 0.145556,-0.0694 0.264239,-0.11644 0.118684,-0.047 0.165709,-0.047 0.0627,0 0.09405,0.0739 0.03359,0.0717 0.06942,0.23289 0.01568,0.0716 0.03807,0.23512 0.02463,0.16347 0.04703,0.35829 0.02463,0.19482 0.04255,0.36501 0.01791,0.17019 0.02239,0.25304 0.120923,-0.23065 0.219452,-0.47025 0.09853,-0.23961 0.158991,-0.44563 0.06046,-0.20601 0.06718,-0.34037 0.06046,-0.056 0.145555,-0.11644 0.08733,-0.0605 0.167948,-0.10301 0.08286,-0.0425 0.12988,-0.0425 0.01344,0 0.03807,0.0784 0.02463,0.0761 0.05374,0.19706 0.02911,0.11868 0.05598,0.24856 0.02687,0.12764 0.04479,0.22841 0.03359,0.21049 0.06942,0.42323 0.03807,0.21049 0.05374,0.37172 0.232889,-0.41651 0.353812,-0.69418 0.123162,-0.27768 0.123162,-0.41204 0,-0.10076 -0.123162,-0.10076 -0.08062,0 -0.188103,0.0336 l -0.05598,-0.15004 q 0.165709,-0.10301 0.344854,-0.16347 0.179145,-0.0605 0.273196,-0.0605 0.0739,0 0.12988,0.0291 0.05822,0.0291 0.05822,0.14108 z m 2.187808,1.68844 q -0.190342,0.13436 -0.36053,0.23289 -0.170187,0.0963 -0.248563,0.0963 -0.05374,0 -0.127641,-0.0582 -0.07166,-0.056 -0.125401,-0.20154 -0.05374,-0.14556 -0.05374,-0.41204 0,-0.0515 0.01344,-0.16571 0.01568,-0.1142 0.03807,-0.25976 0.02239,-0.14555 0.04479,-0.29111 0.02463,-0.14555 0.04479,-0.25976 0.02015,-0.11644 0.02911,-0.16794 0.01568,-0.0694 0.120923,-0.1366 0.105247,-0.0672 0.237367,-0.12764 0.134358,-0.0605 0.235127,-0.10749 l 0.06942,0.14556 q -0.0739,0.0627 -0.107487,0.1142 -0.03135,0.0493 -0.06046,0.20154 -0.06942,0.32022 -0.107487,0.59118 -0.03583,0.26871 -0.03583,0.36724 0,0.15452 0.03135,0.25529 0.03359,0.0985 0.08733,0.0985 0.04479,0 0.09629,-0.0112 0.05374,-0.0134 0.143316,-0.0515 z m -0.219453,-1.60111 q -0.0627,0.0448 -0.120923,0.14332 -0.05822,0.0985 -0.107487,0.18138 -0.04926,0.0829 -0.08957,0.0829 -0.02911,0 -0.08285,-0.0515 -0.05374,-0.0537 -0.123162,-0.12092 -0.06942,-0.0694 -0.147794,-0.12092 -0.07614,-0.0538 -0.150034,-0.0538 -0.141077,0.004 -0.246325,0.0985 -0.105247,0.0918 -0.174666,0.23737 -0.06942,0.14332 -0.105248,0.30231 -0.03359,0.15899 -0.03359,0.29111 0,0.2508 0.06718,0.3762 0.06718,0.12316 0.150034,0.12316 0.0739,0 0.214974,-0.14331 0.143316,-0.14556 0.320221,-0.41428 l -0.04031,0.43219 q -0.09405,0.1366 -0.212735,0.26648 -0.116444,0.12988 -0.244085,0.21497 -0.125401,0.0851 -0.253042,0.0851 -0.107487,0 -0.22617,-0.0784 -0.118684,-0.0761 -0.201538,-0.24632 -0.08286,-0.17019 -0.08286,-0.4501 0,-0.35382 0.174666,-0.66956 0.174667,-0.31574 0.49041,-0.53295 0.120922,-0.0829 0.29111,-0.14556 0.170188,-0.0649 0.35829,-0.0649 0.116444,0 0.22841,0.0627 0.114205,0.0605 0.203777,0.1254 0.09181,0.0627 0.143316,0.0694 z m 1.390612,1.59215 q -0.219452,0.13884 -0.438905,0.23961 -0.217213,0.0985 -0.35829,0.0985 -0.06046,0 -0.111965,-0.0694 -0.04927,-0.0672 -0.04927,-0.19706 0,-0.0739 0.02687,-0.27096 0.02687,-0.19706 0.06718,-0.46801 0.04255,-0.27096 0.08957,-0.56879 0.04926,-0.29783 0.08957,-0.57774 0.04255,-0.27991 0.06942,-0.49713 0.02687,-0.21721 0.02687,-0.32246 0,-0.10301 -0.03583,-0.1254 -0.03583,-0.0246 -0.07838,-0.0246 -0.02687,0 -0.09629,0.0201 -0.06718,0.0202 -0.120923,0.0403 l -0.04031,-0.15451 q 0.125401,-0.056 0.29335,-0.12093 0.170187,-0.0649 0.315742,-0.11196 0.145556,-0.047 0.201538,-0.047 0.0627,0 0.09853,0.0403 0.03807,0.0403 0.03807,0.14332 0,0.11644 -0.02687,0.33589 -0.02687,0.21722 -0.06942,0.49489 -0.04255,0.27767 -0.08957,0.57326 -0.04703,0.29559 -0.08957,0.56879 -0.04255,0.2732 -0.06942,0.48369 -0.02687,0.20826 -0.02687,0.30903 0,0.0761 0.02015,0.10524 0.02239,0.0269 0.05822,0.0269 0.0515,0 0.111965,-0.0157 0.06046,-0.0179 0.158991,-0.0582 z m 2.349038,-1.68172 q 0,0.0672 -0.190342,0.22841 -0.188102,0.16123 -0.523999,0.36501 l -0.463537,0.28439 -0.311264,-0.0784 0.456819,-0.33813 q 0.179145,-0.13212 0.273196,-0.21498 0.09629,-0.0829 0.09629,-0.1254 0,-0.056 -0.217214,-0.047 l -0.01791,-0.15452 q 0.181384,-0.0269 0.35829,-0.0493 0.179145,-0.0246 0.320221,-0.0246 0.13212,0 0.174667,0.0403 0.04479,0.0403 0.04479,0.11421 z m -1.128613,-1.24506 q 0,0.14332 -0.03359,0.40084 -0.03359,0.25528 -0.08509,0.57102 -0.04926,0.31575 -0.105247,0.64492 -0.05374,0.32694 -0.09853,0.62029 -0.04255,0.29335 -0.0627,0.50385 -0.01791,0.21049 0.0045,0.28663 -0.03135,0.0157 -0.105248,0.0493 -0.07166,0.0336 -0.156752,0.0716 -0.08509,0.0381 -0.156751,0.0694 -0.07166,0.0313 -0.09853,0.047 l -0.09629,-0.0873 q 0.0112,-0.0851 0.04479,-0.29782 0.03583,-0.21274 0.08285,-0.49937 0.04926,-0.28663 0.09853,-0.60014 0.0515,-0.31574 0.09405,-0.61133 0.04479,-0.29559 0.07166,-0.52624 0.02911,-0.23065 0.02911,-0.34261 0,-0.11197 -0.02911,-0.13436 -0.02687,-0.0224 -0.07838,-0.0224 -0.03359,0 -0.109726,0.0246 -0.07614,0.0224 -0.116444,0.0358 l -0.04031,-0.15451 q 0.09405,-0.0426 0.217213,-0.0896 0.123162,-0.0493 0.244085,-0.0918 0.123162,-0.0448 0.217213,-0.0717 0.09629,-0.0269 0.136598,-0.0269 0.0627,0 0.09629,0.0358 0.03583,0.0358 0.03583,0.19482 z m 1.090545,2.92006 q -0.09853,0.0829 -0.214974,0.16123 -0.116445,0.0784 -0.221692,0.12764 -0.105248,0.0515 -0.170188,0.0515 -0.09629,0 -0.188102,-0.10525 -0.09181,-0.10749 -0.179145,-0.27096 -0.08733,-0.16347 -0.167948,-0.33589 -0.08062,-0.17467 -0.158991,-0.31351 -0.07614,-0.13883 -0.150034,-0.19034 l 0.396358,-0.12092 q 0.07838,0.047 0.152273,0.15451 0.07614,0.10749 0.147795,0.23961 0.07166,0.12988 0.138837,0.25304 0.06718,0.12092 0.12988,0.20154 0.06494,0.0784 0.125401,0.0784 0.05822,0 0.136598,-0.0157 0.07838,-0.0179 0.152274,-0.0582 z m 1.82056,-1.44883 q 0,0.0985 -0.04702,0.21721 -0.04479,0.11869 -0.188102,0.25528 -0.143316,0.13436 -0.432187,0.2844 -0.288872,0.15003 -0.777042,0.30678 l -0.01568,-0.23289 q 0.306786,-0.12316 0.485931,-0.21945 0.181384,-0.0985 0.270957,-0.17914 0.08957,-0.0806 0.116444,-0.15452 0.02687,-0.0761 0.02687,-0.16123 0,-0.10301 -0.04702,-0.15451 -0.04479,-0.0537 -0.107487,-0.0537 -0.03583,0 -0.109726,0.0381 -0.0739,0.0381 -0.12988,0.10524 -0.120923,0.14108 -0.19482,0.3247 -0.07166,0.18363 -0.07166,0.42995 0,0.29335 0.100769,0.46802 0.103008,0.17242 0.235127,0.17242 0.09405,0 0.275436,-0.0873 0.183623,-0.0873 0.45458,-0.30455 0.02463,0.0134 0.06046,0.0784 0.03583,0.0649 0.04255,0.0806 -0.367247,0.32022 -0.606853,0.4501 -0.239607,0.12988 -0.438905,0.12988 -0.123162,0 -0.275436,-0.0761 -0.150033,-0.0739 -0.25976,-0.24184 -0.107487,-0.17019 -0.107487,-0.45235 0,-0.35157 0.16347,-0.64044 0.16347,-0.29111 0.445623,-0.52624 0.100769,-0.0829 0.279914,-0.16571 0.181384,-0.0851 0.35829,-0.0851 0.253042,0 0.371726,0.1254 0.120922,0.12316 0.120922,0.26872 z m 2.302012,1.46899 q -0.190341,0.12764 -0.362768,0.22617 -0.170188,0.0985 -0.257521,0.0985 -0.05598,0 -0.127641,-0.0627 -0.06942,-0.0605 -0.120923,-0.20826 -0.0515,-0.15003 -0.0515,-0.40755 0,-0.0672 0.02239,-0.23289 0.02239,-0.16571 0.05822,-0.38964 0.03583,-0.22393 0.07614,-0.47026 0.04031,-0.24632 0.0739,-0.48145 0.03583,-0.23513 0.05822,-0.42323 0.02463,-0.19034 0.02463,-0.29559 0,-0.10301 -0.03135,-0.1254 -0.02911,-0.0246 -0.06942,-0.0246 -0.02911,0 -0.09853,0.0201 -0.06942,0.0202 -0.125401,0.0403 l -0.03583,-0.15451 q 0.152273,-0.0739 0.311264,-0.1366 0.158991,-0.0649 0.284393,-0.10301 0.12764,-0.0403 0.181384,-0.0403 0.0739,0 0.114205,0.0403 0.04255,0.0403 0.04255,0.14332 0,0.11644 -0.02687,0.31798 -0.02687,0.20154 -0.06942,0.4501 -0.04031,0.24856 -0.08733,0.5128 -0.04479,0.26424 -0.08733,0.50833 -0.04031,0.24408 -0.06718,0.43666 -0.02687,0.19034 -0.02687,0.29111 0,0.37621 0.118683,0.37621 0.05598,0 0.109727,-0.0112 0.05374,-0.0134 0.132119,-0.047 z m -0.273196,-1.54961 -0.270956,0.38964 q -0.04031,0 -0.09629,-0.056 -0.05374,-0.0582 -0.118683,-0.13436 -0.06494,-0.0784 -0.143316,-0.1366 -0.07614,-0.0582 -0.16347,-0.0582 -0.141077,0 -0.246324,0.0941 -0.103009,0.0941 -0.172427,0.23961 -0.06718,0.14332 -0.100769,0.30455 -0.03359,0.15899 -0.03359,0.29111 0,0.2508 0.06942,0.3762 0.06942,0.12316 0.163469,0.12316 0.06718,0 0.201538,-0.12764 0.136598,-0.12764 0.333658,-0.44338 l -0.0515,0.4501 q -0.181385,0.27096 -0.367247,0.41651 -0.183624,0.14556 -0.340376,0.14556 -0.118683,0 -0.237367,-0.0829 -0.118683,-0.0829 -0.199299,-0.25976 -0.08061,-0.1769 -0.08061,-0.45458 0,-0.35381 0.170188,-0.66059 0.170188,-0.30903 0.48817,-0.51952 0.123162,-0.0806 0.295589,-0.14556 0.174666,-0.0649 0.338136,-0.0649 0.0627,0 0.134359,0.047 0.07166,0.047 0.145555,0.10972 0.0739,0.0627 0.145555,0.10973 0.07166,0.047 0.136598,0.047 z m 3.453019,1.54513 q -0.190342,0.13436 -0.36053,0.23289 -0.170187,0.0963 -0.248563,0.0963 -0.05374,0 -0.127641,-0.0582 -0.07166,-0.056 -0.125401,-0.20154 -0.05374,-0.14556 -0.05374,-0.41204 0,-0.0515 0.01344,-0.16571 0.01568,-0.1142 0.03807,-0.25976 0.02239,-0.14555 0.04479,-0.29111 0.02463,-0.14555 0.04479,-0.25976 0.02015,-0.11644 0.02911,-0.16794 0.01567,-0.0694 0.120923,-0.1366 0.105247,-0.0672 0.237367,-0.12764 0.134358,-0.0605 0.235127,-0.10749 l 0.06942,0.14556 q -0.0739,0.0627 -0.107487,0.1142 -0.03135,0.0493 -0.06046,0.20154 -0.06942,0.32022 -0.107487,0.59118 -0.03583,0.26871 -0.03583,0.36724 0,0.15452 0.03135,0.25529 0.03359,0.0985 0.08733,0.0985 0.04479,0 0.09629,-0.0112 0.05374,-0.0134 0.143316,-0.0515 z m -0.219453,-1.60111 q -0.0627,0.0448 -0.120923,0.14332 -0.05822,0.0985 -0.107487,0.18138 -0.04926,0.0829 -0.08957,0.0829 -0.02911,0 -0.08286,-0.0515 -0.05374,-0.0537 -0.123162,-0.12092 -0.06942,-0.0694 -0.147795,-0.12092 -0.07614,-0.0538 -0.150033,-0.0538 -0.141077,0.004 -0.246325,0.0985 -0.105247,0.0918 -0.174666,0.23737 -0.06942,0.14332 -0.105248,0.30231 -0.03359,0.15899 -0.03359,0.29111 0,0.2508 0.06718,0.3762 0.06718,0.12316 0.150034,0.12316 0.0739,0 0.214974,-0.14331 0.143316,-0.14556 0.320221,-0.41428 l -0.04031,0.43219 q -0.09405,0.1366 -0.212735,0.26648 -0.116444,0.12988 -0.244085,0.21497 -0.125401,0.0851 -0.253042,0.0851 -0.107487,0 -0.22617,-0.0784 -0.118684,-0.0761 -0.201538,-0.24632 -0.08286,-0.17019 -0.08286,-0.4501 0,-0.35382 0.174666,-0.66956 0.174667,-0.31574 0.49041,-0.53295 0.120922,-0.0829 0.29111,-0.14556 0.170188,-0.0649 0.35829,-0.0649 0.116444,0 0.22841,0.0627 0.114205,0.0605 0.203777,0.1254 0.09181,0.0627 0.143316,0.0694 z m 2.261705,-0.004 q -0.0627,0.0627 -0.154512,0.14556 -0.09181,0.0806 -0.179145,0.14107 -0.08733,0.0582 -0.134359,0.0582 -0.04703,0 -0.09853,-0.0694 -0.05151,-0.0694 -0.116445,-0.13884 -0.06494,-0.0717 -0.152273,-0.0717 -0.163469,0 -0.275435,0.14108 -0.111966,0.13884 -0.172427,0.34933 -0.05822,0.20826 -0.05822,0.41875 0,0.28887 0.08957,0.45234 0.09181,0.16123 0.232889,0.16123 0.118683,0 0.288871,-0.0873 0.172427,-0.0896 0.412033,-0.28663 0.01792,0.0224 0.05822,0.0829 0.04255,0.0582 0.05151,0.0761 -0.351572,0.31798 -0.591179,0.44114 -0.237367,0.12093 -0.438905,0.12093 -0.127641,0 -0.275435,-0.0717 -0.145555,-0.0717 -0.250803,-0.24856 -0.105248,-0.17915 -0.105248,-0.49265 0,-0.30231 0.13212,-0.60686 0.134358,-0.30454 0.463537,-0.52399 0.125402,-0.0829 0.322461,-0.16347 0.197059,-0.0806 0.385162,-0.0806 0.132119,0 0.228409,0.0537 0.09629,0.0515 0.176906,0.11421 0.08061,0.0605 0.16123,0.0851 z m 1.92357,-0.0605 q -0.02911,0.0358 -0.0739,0.11197 -0.04479,0.0761 -0.09405,0.15899 -0.04926,0.0829 -0.09181,0.14107 -0.04031,0.0582 -0.0627,0.0582 -0.05598,0 -0.105248,-0.0426 -0.04926,-0.0426 -0.09629,-0.0851 -0.04479,-0.0448 -0.08733,-0.0448 -0.07838,0 -0.176906,0.0985 -0.09853,0.0963 -0.190341,0.26648 -0.09181,0.16795 -0.154513,0.38292 -0.04927,0.16795 -0.07838,0.35381 -0.02911,0.18586 -0.02239,0.36277 -0.04703,0.0202 -0.154512,0.0694 -0.107487,0.047 -0.210496,0.0941 -0.103008,0.0493 -0.141076,0.0694 l -0.08957,-0.0873 q 0.06494,-0.31798 0.118684,-0.627 0.05374,-0.31127 0.08509,-0.55983 0.03135,-0.2508 0.03135,-0.38516 0,-0.10301 -0.02687,-0.1254 -0.02687,-0.0246 -0.06494,-0.0246 -0.03135,0 -0.105247,0.0224 -0.0739,0.0202 -0.107487,0.0314 l -0.04031,-0.15004 q 0.127641,-0.0582 0.291111,-0.12316 0.165709,-0.0649 0.306785,-0.11196 0.141077,-0.047 0.19482,-0.047 0.0627,0 0.08285,0.047 0.02239,0.0448 0.02239,0.1769 0,0.047 -0.01344,0.15899 -0.01344,0.10973 -0.02687,0.19482 0.145556,-0.23513 0.262,-0.36053 0.118683,-0.1254 0.221692,-0.17018 0.103008,-0.047 0.199298,-0.047 0.07838,0 0.188103,0.0761 0.111965,0.0761 0.210495,0.11644 z m 1.780253,0.65164 q 0,0.29783 -0.147795,0.60238 -0.147795,0.3023 -0.398597,0.50832 -0.116445,0.0963 -0.277675,0.16347 -0.158991,0.0694 -0.29335,0.0694 -0.232888,0 -0.400837,-0.11197 -0.167948,-0.1142 -0.257521,-0.30902 -0.08957,-0.19706 -0.08957,-0.44115 0,-0.32022 0.127641,-0.60013 0.12988,-0.27992 0.429948,-0.51057 0.116444,-0.0896 0.275435,-0.15227 0.158991,-0.0627 0.309025,-0.0627 0.351572,0 0.537435,0.23737 0.185863,0.23512 0.185863,0.60685 z m -0.52176,0.17467 q 0,-0.34038 -0.107487,-0.524 -0.105248,-0.18363 -0.248564,-0.18363 -0.172427,0 -0.275435,0.13212 -0.100769,0.13212 -0.145555,0.32694 -0.04255,0.19258 -0.04255,0.38293 0,0.19929 0.05374,0.36724 0.05598,0.16571 0.141077,0.26424 0.08733,0.0985 0.181384,0.0985 0.123162,0 0.208256,-0.0806 0.08509,-0.0829 0.136598,-0.21274 0.0515,-0.13212 0.0739,-0.28215 0.02463,-0.15004 0.02463,-0.28887 z m 2.371431,-0.81287 q -0.0515,0.0672 -0.118684,0.15003 -0.06718,0.0806 -0.127641,0.13884 -0.05822,0.0582 -0.08733,0.0582 -0.03583,0 -0.08061,-0.0448 -0.04255,-0.0448 -0.09853,-0.103 -0.05374,-0.0605 -0.120923,-0.10525 -0.06494,-0.0448 -0.145555,-0.0448 -0.123162,0 -0.190341,0.0649 -0.06494,0.0649 -0.06494,0.17019 0,0.10525 0.09181,0.18362 0.09181,0.0784 0.273196,0.17019 0.120923,0.0627 0.235128,0.14332 0.114205,0.0784 0.185863,0.19034 0.0739,0.11196 0.0739,0.27095 0,0.15452 -0.09405,0.28888 -0.09181,0.13435 -0.239606,0.23512 -0.145555,0.10077 -0.313504,0.15676 -0.165709,0.0582 -0.311264,0.0582 -0.190342,0 -0.342615,-0.0605 -0.152273,-0.0582 -0.241845,-0.13884 -0.08957,-0.0829 -0.08957,-0.14556 0,-0.0313 0.03135,-0.0985 0.03135,-0.0672 0.07614,-0.13883 0.04479,-0.0739 0.08733,-0.1254 0.04479,-0.0515 0.06718,-0.0515 0.02911,0 0.06718,0.0717 0.03807,0.0717 0.09853,0.16795 0.06046,0.0941 0.154512,0.16571 0.09629,0.0716 0.237367,0.0716 0.145555,0 0.230649,-0.0806 0.08733,-0.0829 0.08733,-0.21274 0,-0.15227 -0.141076,-0.262 -0.138838,-0.11196 -0.306786,-0.19705 -0.237367,-0.11869 -0.322461,-0.24633 -0.08285,-0.12988 -0.08285,-0.27319 0,-0.14108 0.08061,-0.25753 0.08061,-0.11644 0.210495,-0.19929 0.13212,-0.0851 0.282153,-0.12988 0.150034,-0.047 0.288872,-0.047 0.158991,0 0.273196,0.0448 0.114205,0.0448 0.203777,0.0941 0.09181,0.0493 0.183624,0.0672 z m 1.760099,0 q -0.0515,0.0672 -0.118684,0.15003 -0.06718,0.0806 -0.12764,0.13884 -0.05822,0.0582 -0.08733,0.0582 -0.03583,0 -0.08062,-0.0448 -0.04255,-0.0448 -0.09853,-0.103 -0.05374,-0.0605 -0.120923,-0.10525 -0.06494,-0.0448 -0.145555,-0.0448 -0.123163,0 -0.190342,0.0649 -0.06494,0.0649 -0.06494,0.17019 0,0.10525 0.09181,0.18362 0.09181,0.0784 0.273196,0.17019 0.120923,0.0627 0.235128,0.14332 0.114204,0.0784 0.185862,0.19034 0.0739,0.11196 0.0739,0.27095 0,0.15452 -0.09405,0.28888 -0.09181,0.13435 -0.239607,0.23512 -0.145555,0.10077 -0.313503,0.15676 -0.165709,0.0582 -0.311265,0.0582 -0.190341,0 -0.342614,-0.0605 -0.152274,-0.0582 -0.241846,-0.13884 -0.08957,-0.0829 -0.08957,-0.14556 0,-0.0313 0.03135,-0.0985 0.03135,-0.0672 0.07614,-0.13883 0.04479,-0.0739 0.08733,-0.1254 0.04479,-0.0515 0.06718,-0.0515 0.02911,0 0.06718,0.0717 0.03807,0.0717 0.09853,0.16795 0.06046,0.0941 0.154513,0.16571 0.09629,0.0716 0.237367,0.0716 0.145555,0 0.230649,-0.0806 0.08733,-0.0829 0.08733,-0.21274 0,-0.15227 -0.141077,-0.262 -0.138837,-0.11196 -0.306785,-0.19705 -0.237368,-0.11869 -0.322461,-0.24633 -0.08285,-0.12988 -0.08285,-0.27319 0,-0.14108 0.08061,-0.25753 0.08062,-0.11644 0.210496,-0.19929 0.132119,-0.0851 0.282153,-0.12988 0.150034,-0.047 0.288871,-0.047 0.158991,0 0.273196,0.0448 0.114205,0.0448 0.203777,0.0941 0.09181,0.0493 0.183624,0.0672 z m 2.534899,-0.0582 q -0.03135,0.0426 -0.09405,0.10525 -0.0627,0.0627 -0.125401,0.11645 -0.0627,0.0537 -0.08957,0.0694 -0.02687,-0.0627 -0.105248,-0.0806 -0.07837,-0.0201 -0.221691,-0.0201 h -0.835264 l -0.0515,-0.0873 0.268718,-0.18138 h 1.191313 z m -0.136598,1.60111 q -0.246324,0.19482 -0.483691,0.31798 -0.237367,0.12093 -0.360529,0.12093 -0.136598,0 -0.259761,-0.1254 -0.120922,-0.12764 -0.120922,-0.3247 0,-0.0851 0.0045,-0.17243 0.0067,-0.0896 0.02687,-0.21274 l 0.217213,-1.3615 q 0.02687,-0.17466 0.06046,-0.23065 0.03359,-0.056 0.09405,-0.0873 l 0.427708,-0.21049 0.0627,0.056 q -0.01792,0.0157 -0.0515,0.11868 -0.03135,0.10077 -0.0627,0.30231 l -0.190341,1.20699 q -0.01344,0.0873 -0.02015,0.18362 -0.0067,0.0963 -0.0067,0.14108 0,0.13884 0.04031,0.19706 0.04255,0.0582 0.105248,0.0582 0.138837,0 0.45682,-0.14332 z m 2.413979,0.10077 q -0.138838,0.0806 -0.288872,0.15899 -0.150033,0.0784 -0.282153,0.12764 -0.12988,0.0515 -0.212734,0.0515 -0.06494,0 -0.116445,-0.0717 -0.0515,-0.0694 -0.0515,-0.19034 -0.0022,-0.047 0.01568,-0.17019 0.02015,-0.12316 0.04703,-0.28439 0.02687,-0.16123 0.0515,-0.32246 0.02687,-0.16347 0.04479,-0.29335 0.02015,-0.13212 0.02015,-0.19258 0,-0.14556 -0.02687,-0.19035 -0.02687,-0.047 -0.08509,-0.047 -0.05822,0 -0.203778,0.0784 -0.145555,0.0761 -0.273196,0.28887 -0.0627,0.10524 -0.105247,0.26871 -0.04255,0.16123 -0.0739,0.36053 -0.03807,0.24633 -0.04479,0.35605 -0.0067,0.10749 -0.0067,0.17691 -0.02911,0.0134 -0.100769,0.0448 -0.06942,0.0313 -0.154512,0.0694 -0.08285,0.0381 -0.152274,0.0694 -0.06942,0.0336 -0.09629,0.0493 l -0.09181,-0.0873 q 0.02687,-0.15899 0.06718,-0.40531 0.04255,-0.24856 0.08957,-0.53968 0.04703,-0.29334 0.09405,-0.59341 0.04703,-0.30007 0.08509,-0.57103 0.03807,-0.27319 0.06046,-0.47697 0.02463,-0.20378 0.02463,-0.29783 0,-0.10301 -0.02911,-0.1254 -0.02687,-0.0246 -0.0627,-0.0246 -0.03583,0 -0.118683,0.0246 -0.08062,0.0224 -0.123163,0.0358 l -0.03583,-0.15451 q 0.125402,-0.056 0.291111,-0.12093 0.165709,-0.0649 0.309025,-0.11196 0.143316,-0.047 0.199299,-0.047 0.06046,0 0.103008,0.0403 0.04479,0.0403 0.04479,0.14332 0,0.0627 -0.01791,0.21497 -0.01792,0.15003 -0.04703,0.34709 -0.02687,0.19482 -0.05822,0.3986 -0.03135,0.20154 -0.05822,0.37173 -0.02687,0.17018 -0.04255,0.26871 0.262,-0.25976 0.492649,-0.36724 0.230649,-0.10973 0.432187,-0.10973 0.141076,0 0.214974,0.0717 0.0739,0.0717 0.0739,0.28887 0,0.11644 -0.02911,0.29559 -0.02911,0.1769 -0.06494,0.36948 -0.03583,0.19259 -0.06494,0.35829 -0.02687,0.16571 -0.02687,0.25753 0,0.0761 0.02015,0.10524 0.02015,0.0269 0.06046,0.0269 0.06046,0 0.114205,-0.0179 0.05598,-0.0201 0.13212,-0.056 z m 1.910131,-1.45555 q 0,0.0985 -0.04703,0.21721 -0.04479,0.11869 -0.188102,0.25528 -0.143316,0.13436 -0.432187,0.2844 -0.288872,0.15003 -0.777042,0.30678 l -0.01568,-0.23289 q 0.306786,-0.12316 0.485931,-0.21945 0.181384,-0.0985 0.270957,-0.17914 0.08957,-0.0806 0.116444,-0.15452 0.02687,-0.0761 0.02687,-0.16123 0,-0.10301 -0.04703,-0.15451 -0.04479,-0.0537 -0.107487,-0.0537 -0.03583,0 -0.109726,0.0381 -0.0739,0.0381 -0.12988,0.10524 -0.120923,0.14108 -0.19482,0.3247 -0.07166,0.18363 -0.07166,0.42995 0,0.29335 0.100769,0.46802 0.103008,0.17242 0.235127,0.17242 0.09405,0 0.275436,-0.0873 0.183623,-0.0873 0.45458,-0.30455 0.02463,0.0134 0.06046,0.0784 0.03583,0.0649 0.04255,0.0806 -0.367247,0.32022 -0.606853,0.4501 -0.239607,0.12988 -0.438905,0.12988 -0.123162,0 -0.275436,-0.0761 -0.150033,-0.0739 -0.25976,-0.24184 -0.107487,-0.17019 -0.107487,-0.45235 0,-0.35157 0.16347,-0.64044 0.16347,-0.29111 0.445623,-0.52624 0.100769,-0.0829 0.279914,-0.16571 0.181384,-0.0851 0.35829,-0.0851 0.253042,0 0.371726,0.1254 0.120922,0.12316 0.120922,0.26872 z m 3.005156,-0.20154 q -0.02911,0.0358 -0.0739,0.11197 -0.04479,0.0761 -0.09405,0.15899 -0.04927,0.0829 -0.09181,0.14107 -0.04031,0.0582 -0.0627,0.0582 -0.05598,0 -0.105248,-0.0426 -0.04926,-0.0426 -0.09629,-0.0851 -0.04479,-0.0448 -0.08733,-0.0448 -0.07838,0 -0.176906,0.0985 -0.09853,0.0963 -0.190341,0.26648 -0.09181,0.16795 -0.154513,0.38292 -0.04926,0.16795 -0.07838,0.35381 -0.02911,0.18586 -0.02239,0.36277 -0.04702,0.0202 -0.154512,0.0694 -0.107487,0.047 -0.210496,0.0941 -0.103008,0.0493 -0.141076,0.0694 l -0.08957,-0.0873 q 0.06494,-0.31798 0.118684,-0.627 0.05374,-0.31127 0.08509,-0.55983 0.03135,-0.2508 0.03135,-0.38516 0,-0.10301 -0.02687,-0.1254 -0.02687,-0.0246 -0.06494,-0.0246 -0.03135,0 -0.105247,0.0224 -0.0739,0.0202 -0.107487,0.0314 l -0.04031,-0.15004 q 0.127641,-0.0582 0.291111,-0.12316 0.165709,-0.0649 0.306785,-0.11196 0.141077,-0.047 0.19482,-0.047 0.0627,0 0.08286,0.047 0.02239,0.0448 0.02239,0.1769 0,0.047 -0.01344,0.15899 -0.01344,0.10973 -0.02687,0.19482 0.145556,-0.23513 0.262,-0.36053 0.118683,-0.1254 0.221692,-0.17018 0.103008,-0.047 0.199298,-0.047 0.07838,0 0.188103,0.0761 0.111965,0.0761 0.210495,0.11644 z m 1.130854,-0.9226 q 0,0.0829 -0.04703,0.17243 -0.04479,0.0873 -0.13212,0.15004 -0.08733,0.0605 -0.214974,0.0605 -0.118683,0 -0.174666,-0.056 -0.05374,-0.0582 -0.05374,-0.13435 0,-0.0806 0.04479,-0.17019 0.04703,-0.0896 0.134359,-0.15228 0.08957,-0.0627 0.212734,-0.0627 0.120923,0 0.174666,0.0582 0.05598,0.0582 0.05598,0.13435 z m -0.0515,2.57969 q -0.141077,0.0829 -0.286632,0.16123 -0.145555,0.0784 -0.273196,0.12764 -0.125401,0.0493 -0.208256,0.0493 -0.0739,0 -0.127641,-0.0717 -0.05374,-0.0694 -0.05374,-0.19034 0,-0.0806 0.02015,-0.22393 0.02015,-0.14556 0.0515,-0.31799 0.03135,-0.17466 0.0627,-0.34485 0.03135,-0.17243 0.0515,-0.30902 0.02015,-0.1366 0.02015,-0.20154 0,-0.10301 -0.02463,-0.1254 -0.02463,-0.0246 -0.06718,-0.0246 -0.02687,0 -0.09181,0.0179 -0.06494,0.0179 -0.114205,0.0358 l -0.04031,-0.15004 q 0.125401,-0.0582 0.286631,-0.12316 0.16347,-0.0649 0.302308,-0.11196 0.138837,-0.047 0.19482,-0.047 0.0627,0 0.09629,0.0425 0.03583,0.0425 0.03583,0.14555 0,0.0784 -0.02239,0.22617 -0.02239,0.14556 -0.05374,0.3247 -0.03135,0.17691 -0.06494,0.35605 -0.03135,0.17691 -0.05374,0.32246 -0.02239,0.14556 -0.02239,0.22394 0,0.13211 0.06718,0.13211 0.06942,0 0.125402,-0.0157 0.05822,-0.0179 0.147794,-0.0582 z m 2.243788,-1.66157 q 0,0.0963 -0.09405,0.29783 -0.09405,0.20154 -0.311264,0.56655 -0.214974,0.365 -0.582221,0.95394 -0.02463,0.0134 -0.103009,0.0538 -0.07837,0.0381 -0.158991,0.0761 -0.07838,0.0381 -0.107487,0.0515 l -0.08957,-0.0873 q -0.02463,-0.1881 -0.0627,-0.40755 -0.03807,-0.22169 -0.08061,-0.43891 -0.04031,-0.21721 -0.08061,-0.39411 -0.03807,-0.17915 -0.06942,-0.28216 -0.03583,-0.12092 -0.07838,-0.15227 -0.04255,-0.0313 -0.08285,-0.0313 -0.03135,0 -0.103009,0.0202 -0.06942,0.0202 -0.116444,0.0336 l -0.05374,-0.15003 q 0.125401,-0.0627 0.270956,-0.13212 0.145556,-0.0694 0.262,-0.11645 0.118683,-0.0493 0.165709,-0.0493 0.06494,0 0.105248,0.0627 0.04255,0.0627 0.08957,0.22169 0.02015,0.0694 0.04926,0.20826 0.03135,0.13884 0.06494,0.30902 0.03359,0.17019 0.0627,0.33366 0.02911,0.16347 0.04702,0.28439 0.02015,0.11869 0.02239,0.15228 0.206017,-0.3247 0.311265,-0.55311 0.105247,-0.22841 0.141076,-0.36277 0.03583,-0.13436 0.03583,-0.17691 0,-0.10972 -0.123162,-0.10972 -0.0739,0 -0.16123,0.0336 l -0.04927,-0.14556 q 0.09405,-0.0515 0.230649,-0.11196 0.138837,-0.0605 0.268717,-0.10301 0.12988,-0.0425 0.19706,-0.0425 0.07838,0 0.12988,0.0425 0.05374,0.0403 0.05374,0.14555 z m 1.813846,0.20602 q 0,0.0985 -0.04703,0.21721 -0.04479,0.11869 -0.188102,0.25528 -0.143316,0.13436 -0.432187,0.2844 -0.288871,0.15003 -0.777041,0.30678 l -0.01568,-0.23289 q 0.306785,-0.12316 0.48593,-0.21945 0.181385,-0.0985 0.270957,-0.17914 0.08957,-0.0806 0.116444,-0.15452 0.02687,-0.0761 0.02687,-0.16123 0,-0.10301 -0.04703,-0.15451 -0.04479,-0.0537 -0.107487,-0.0537 -0.03583,0 -0.109726,0.0381 -0.0739,0.0381 -0.12988,0.10524 -0.120923,0.14108 -0.19482,0.3247 -0.07166,0.18363 -0.07166,0.42995 0,0.29335 0.100769,0.46802 0.103008,0.17242 0.235128,0.17242 0.09405,0 0.275435,-0.0873 0.183624,-0.0873 0.45458,-0.30455 0.02463,0.0134 0.06046,0.0784 0.03583,0.0649 0.04255,0.0806 -0.367247,0.32022 -0.606854,0.4501 -0.239606,0.12988 -0.438905,0.12988 -0.123162,0 -0.275435,-0.0761 -0.150034,-0.0739 -0.25976,-0.24184 -0.107487,-0.17019 -0.107487,-0.45235 0,-0.35157 0.163469,-0.64044 0.16347,-0.29111 0.445623,-0.52624 0.10077,-0.0829 0.279914,-0.16571 0.181385,-0.0851 0.35829,-0.0851 0.253042,0 0.371726,0.1254 0.120923,0.12316 0.120923,0.26872 z m 2.087038,-0.20154 q -0.02911,0.0358 -0.0739,0.11197 -0.04479,0.0761 -0.09405,0.15899 -0.04926,0.0829 -0.09181,0.14107 -0.04031,0.0582 -0.0627,0.0582 -0.05598,0 -0.105248,-0.0426 -0.04926,-0.0426 -0.09629,-0.0851 -0.04479,-0.0448 -0.08733,-0.0448 -0.07838,0 -0.176906,0.0985 -0.09853,0.0963 -0.190341,0.26648 -0.09181,0.16795 -0.154513,0.38292 -0.04927,0.16795 -0.07838,0.35381 -0.02911,0.18586 -0.02239,0.36277 -0.04703,0.0202 -0.154512,0.0694 -0.107487,0.047 -0.210496,0.0941 -0.103008,0.0493 -0.141076,0.0694 l -0.08957,-0.0873 q 0.06494,-0.31798 0.118684,-0.627 0.05374,-0.31127 0.08509,-0.55983 0.03135,-0.2508 0.03135,-0.38516 0,-0.10301 -0.02687,-0.1254 -0.02687,-0.0246 -0.06494,-0.0246 -0.03135,0 -0.105247,0.0224 -0.0739,0.0202 -0.107487,0.0314 l -0.04031,-0.15004 q 0.127641,-0.0582 0.29111,-0.12316 0.16571,-0.0649 0.306786,-0.11196 0.141077,-0.047 0.19482,-0.047 0.0627,0 0.08285,0.047 0.02239,0.0448 0.02239,0.1769 0,0.047 -0.01344,0.15899 -0.01344,0.10973 -0.02687,0.19482 0.145556,-0.23513 0.262,-0.36053 0.118683,-0.1254 0.221692,-0.17018 0.103008,-0.047 0.199298,-0.047 0.07838,0 0.188103,0.0761 0.111965,0.0761 0.210495,0.11644 z m 0.257519,1.52945 q 0,0.10077 -0.04927,0.20378 -0.04703,0.10077 -0.141077,0.17019 -0.09181,0.0694 -0.22617,0.0694 -0.138838,0 -0.206017,-0.0694 -0.06494,-0.0717 -0.06494,-0.18587 0,-0.0941 0.0515,-0.19482 0.0515,-0.10077 0.145556,-0.16795 0.09405,-0.0694 0.221691,-0.0694 0.13212,0 0.199299,0.0694 0.06942,0.0694 0.06942,0.17467 z"
         id="text149"
         style="font-style:italic;font-weight:bold;font-size:4.58611px;line-height:1.25;font-family:'Gentium Plus';-inkscape-font-specification:'Gentium Plus, Bold Italic';fill:#094bac;stroke-width:0.264583"
         aria-label="I walked across the river." />
      <path
         d="m 45.945808,604.08358 h 0.833966 v 0.3302 h -0.833966 v 1.016 q 0,0.1651 0.0254,0.27517 0.0254,0.10583 0.0762,0.16933 0.0508,0.0593 0.127,0.0847 0.0762,0.0254 0.1778,0.0254 0.1778,0 0.283633,-0.0381 0.110066,-0.0423 0.1524,-0.0593 l 0.0762,0.32597 q -0.05927,0.0296 -0.207434,0.072 -0.148166,0.0466 -0.338666,0.0466 -0.224366,0 -0.372533,-0.055 -0.143933,-0.0593 -0.232833,-0.17357 -0.0889,-0.1143 -0.127,-0.2794 -0.03387,-0.16933 -0.03387,-0.38947 v -1.96426 l 0.3937,-0.0677 z m 1.333493,2.20133 v -3.21733 l 0.393699,-0.0677 v 1.12606 q 0.110067,-0.0423 0.232834,-0.0635 0.126999,-0.0254 0.249766,-0.0254 0.262466,0 0.436033,0.0762 0.173567,0.072 0.275166,0.20744 0.105834,0.13123 0.148167,0.3175 0.04233,0.18626 0.04233,0.41063 v 1.23613 H 48.6636 v -1.15146 q 0,-0.2032 -0.02963,-0.34714 -0.0254,-0.14393 -0.0889,-0.23283 -0.0635,-0.0889 -0.169333,-0.127 -0.105833,-0.0423 -0.262466,-0.0423 -0.0635,0 -0.131234,0.008 -0.06773,0.008 -0.131233,0.0212 -0.05927,0.008 -0.110066,0.0212 -0.04657,0.0127 -0.06773,0.0212 v 1.8288 z m 2.294461,-1.09643 q 0,-0.2921 0.08467,-0.508 0.08467,-0.22013 0.224367,-0.36407 0.1397,-0.14393 0.321733,-0.2159 0.182033,-0.072 0.372533,-0.072 0.4445,0 0.681566,0.2794 0.237067,0.27516 0.237067,0.84243 0,0.0254 0,0.0677 0,0.0381 -0.0042,0.072 h -1.507065 q 0.0254,0.3429 0.198966,0.5207 0.173567,0.1778 0.541867,0.1778 0.207433,0 0.347133,-0.0339 0.143933,-0.0381 0.215899,-0.072 l 0.05503,0.3302 q -0.07197,0.0381 -0.254,0.0804 -0.1778,0.0423 -0.4064,0.0423 -0.287866,0 -0.499533,-0.0847 -0.207433,-0.0889 -0.342899,-0.2413 -0.135467,-0.1524 -0.2032,-0.35984 -0.0635,-0.21166 -0.0635,-0.46143 z m 1.511299,-0.2159 q 0.0042,-0.2667 -0.135467,-0.43603 -0.135467,-0.17357 -0.376766,-0.17357 -0.135467,0 -0.2413,0.055 -0.1016,0.0508 -0.173567,0.13547 -0.07197,0.0847 -0.1143,0.19473 -0.0381,0.11007 -0.0508,0.22437 z m 2.700852,1.0287 q 0.1397,0 0.245533,-0.004 0.110067,-0.008 0.182033,-0.0254 v -0.65617 q -0.04233,-0.0212 -0.1397,-0.0339 -0.09313,-0.0169 -0.2286,-0.0169 -0.0889,0 -0.190499,0.0127 -0.09737,0.0127 -0.182034,0.055 -0.08043,0.0381 -0.135466,0.11007 -0.05503,0.0677 -0.05503,0.18203 0,0.21167 0.135466,0.29634 0.135467,0.0804 0.3683,0.0804 z m -0.03387,-1.97273 q 0.237067,0 0.397933,0.0635 0.1651,0.0593 0.262467,0.17356 0.1016,0.11007 0.143933,0.2667 0.04233,0.1524 0.04233,0.33867 v 1.37583 q -0.0508,0.008 -0.143933,0.0254 -0.0889,0.0127 -0.2032,0.0254 -0.1143,0.0127 -0.249766,0.0212 -0.131234,0.0127 -0.262467,0.0127 -0.186266,0 -0.3429,-0.0381 -0.156633,-0.0381 -0.270933,-0.11853 -0.1143,-0.0847 -0.177799,-0.22014 -0.0635,-0.13546 -0.0635,-0.32596 0,-0.18204 0.07197,-0.31327 0.0762,-0.13123 0.2032,-0.21167 0.127,-0.0804 0.296333,-0.11853 0.169333,-0.0381 0.3556,-0.0381 0.05927,0 0.122766,0.008 0.0635,0.004 0.118534,0.0169 0.05927,0.008 0.101599,0.0169 0.04233,0.008 0.05927,0.0127 v -0.11006 q 0,-0.0974 -0.02117,-0.1905 -0.02117,-0.0974 -0.0762,-0.16934 -0.05503,-0.0762 -0.1524,-0.11853 -0.09313,-0.0466 -0.245533,-0.0466 -0.194734,0 -0.3429,0.0296 -0.143933,0.0254 -0.2159,0.055 l -0.04657,-0.32597 q 0.0762,-0.0339 0.254,-0.0635 0.1778,-0.0339 0.385233,-0.0339 z m 2.455329,2.30716 q -0.2667,0 -0.4699,-0.0847 -0.198966,-0.0847 -0.338666,-0.23707 -0.135467,-0.1524 -0.2032,-0.35983 -0.06773,-0.21167 -0.06773,-0.46567 0,-0.254 0.07197,-0.46567 0.0762,-0.21166 0.211667,-0.36406 0.135466,-0.15664 0.330199,-0.2413 0.198967,-0.0889 0.440267,-0.0889 0.148166,0 0.296333,0.0254 0.148166,0.0254 0.283633,0.0804 l -0.0889,0.33443 q -0.0889,-0.0423 -0.207433,-0.0677 -0.1143,-0.0254 -0.245533,-0.0254 -0.3302,0 -0.508,0.20743 -0.173566,0.20744 -0.173566,0.60537 0,0.1778 0.0381,0.32597 0.04233,0.14816 0.127,0.254 0.0889,0.10583 0.224366,0.1651 0.135467,0.055 0.3302,0.055 0.156633,0 0.283633,-0.0296 0.127,-0.0296 0.198966,-0.0635 l 0.05503,0.3302 q -0.03387,0.0212 -0.09737,0.0423 -0.0635,0.0169 -0.143933,0.0296 -0.08043,0.0169 -0.173567,0.0254 -0.0889,0.0127 -0.173566,0.0127 z m 1.380058,-2.25213 h 0.833965 v 0.3302 h -0.833965 v 1.016 q 0,0.1651 0.0254,0.27517 0.0254,0.10583 0.0762,0.16933 0.0508,0.0593 0.127,0.0847 0.0762,0.0254 0.1778,0.0254 0.1778,0 0.283633,-0.0381 0.110067,-0.0423 0.1524,-0.0593 l 0.0762,0.32597 q -0.05927,0.0296 -0.207433,0.072 -0.148167,0.0466 -0.338666,0.0466 -0.224367,0 -0.372533,-0.055 -0.143934,-0.0593 -0.232834,-0.17357 -0.0889,-0.1143 -0.126999,-0.2794 -0.03387,-0.16933 -0.03387,-0.38947 v -1.96426 l 0.3937,-0.0677 z m 4.254486,1.10067 q 0,0.26246 -0.0762,0.47413 -0.0762,0.21167 -0.2159,0.36407 -0.135467,0.1524 -0.325966,0.23706 -0.1905,0.0804 -0.414867,0.0804 -0.224366,0 -0.414866,-0.0804 -0.1905,-0.0847 -0.3302,-0.23706 -0.135466,-0.1524 -0.211666,-0.36407 -0.0762,-0.21167 -0.0762,-0.47413 0,-0.25824 0.0762,-0.4699 0.0762,-0.2159 0.211666,-0.3683 0.1397,-0.1524 0.3302,-0.23284 0.1905,-0.0847 0.414866,-0.0847 0.224367,0 0.414867,0.0847 0.190499,0.0804 0.325966,0.23284 0.1397,0.1524 0.2159,0.3683 0.0762,0.21166 0.0762,0.4699 z m -0.410633,0 q 0,-0.37254 -0.169333,-0.58844 -0.1651,-0.22013 -0.452967,-0.22013 -0.287866,0 -0.457199,0.22013 -0.1651,0.2159 -0.1651,0.58844 0,0.37253 0.1651,0.59266 0.169333,0.2159 0.457199,0.2159 0.287867,0 0.452967,-0.2159 0.169333,-0.22013 0.169333,-0.59266 z m 1.824558,-2.1844 q 0.173567,0 0.296333,0.0254 0.127,0.0254 0.1778,0.0466 l -0.07197,0.33867 q -0.0508,-0.0254 -0.143933,-0.0466 -0.09313,-0.0254 -0.2286,-0.0254 -0.275166,0 -0.385233,0.1524 -0.110066,0.14817 -0.110066,0.40217 v 0.1905 h 0.846666 v 0.3302 h -0.846666 v 1.87113 h -0.3937 v -2.4003 q 0,-0.42333 0.207433,-0.65193 0.207433,-0.23283 0.651933,-0.23283 z m 1.752592,1.14723 q 0.135466,-0.0339 0.355599,-0.072 0.224367,-0.0381 0.516467,-0.0381 0.211666,0 0.355599,0.0593 0.143934,0.055 0.2413,0.1651 0.02963,-0.0212 0.09313,-0.0593 0.0635,-0.0381 0.156634,-0.072 0.09313,-0.0381 0.207433,-0.0635 0.1143,-0.0296 0.245533,-0.0296 0.254,0 0.414866,0.0762 0.160867,0.072 0.249767,0.20744 0.09313,0.13546 0.122766,0.32173 0.03387,0.18627 0.03387,0.4064 v 1.23613 h -0.3937 v -1.15146 q 0,-0.19474 -0.02117,-0.33444 -0.01693,-0.1397 -0.07197,-0.23283 -0.0508,-0.0931 -0.143933,-0.13547 -0.0889,-0.0466 -0.232833,-0.0466 -0.198967,0 -0.3302,0.055 -0.127,0.0508 -0.173567,0.0931 0.03387,0.11007 0.0508,0.2413 0.01693,0.13124 0.01693,0.27517 v 1.23613 h -0.3937 v -1.15146 q 0,-0.19474 -0.02117,-0.33444 -0.02117,-0.1397 -0.0762,-0.23283 -0.0508,-0.0931 -0.143933,-0.13547 -0.0889,-0.0466 -0.2286,-0.0466 -0.05927,0 -0.127,0.004 -0.06773,0.004 -0.131233,0.0127 -0.05927,0.004 -0.110066,0.0127 -0.0508,0.008 -0.06773,0.0127 v 1.85843 h -0.393699 z m 5.587988,1.03717 q 0,0.26246 -0.0762,0.47413 -0.0762,0.21167 -0.2159,0.36407 -0.135466,0.1524 -0.325966,0.23706 -0.1905,0.0804 -0.414867,0.0804 -0.224366,0 -0.414866,-0.0804 -0.1905,-0.0847 -0.3302,-0.23706 -0.135466,-0.1524 -0.211666,-0.36407 -0.0762,-0.21167 -0.0762,-0.47413 0,-0.25824 0.0762,-0.4699 0.0762,-0.2159 0.211666,-0.3683 0.1397,-0.1524 0.3302,-0.23284 0.1905,-0.0847 0.414866,-0.0847 0.224367,0 0.414867,0.0847 0.1905,0.0804 0.325966,0.23284 0.1397,0.1524 0.2159,0.3683 0.0762,0.21166 0.0762,0.4699 z m -0.410633,0 q 0,-0.37254 -0.169333,-0.58844 -0.1651,-0.22013 -0.452967,-0.22013 -0.287866,0 -0.457199,0.22013 -0.1651,0.2159 -0.1651,0.58844 0,0.37253 0.1651,0.59266 0.169333,0.2159 0.457199,0.2159 0.287867,0 0.452967,-0.2159 0.169333,-0.22013 0.169333,-0.59266 z m 2.624649,-1.10067 q -0.165099,0.61807 -0.389466,1.18533 -0.220133,0.56727 -0.427566,1.016 h -0.3556 q -0.207433,-0.44873 -0.431799,-1.016 -0.220134,-0.56726 -0.385234,-1.18533 h 0.423333 q 0.0508,0.20743 0.118534,0.4445 0.07197,0.23283 0.148166,0.46567 0.08043,0.2286 0.160867,0.4445 0.08043,0.2159 0.1524,0.38523 0.07197,-0.16933 0.1524,-0.38523 0.08043,-0.2159 0.156633,-0.4445 0.08043,-0.23284 0.148166,-0.46567 0.07197,-0.23707 0.122767,-0.4445 z m 0.800094,2.20133 h -0.3937 v -2.20133 h 0.3937 z m -0.198966,-2.59926 q -0.105834,0 -0.182034,-0.0677 -0.07197,-0.072 -0.07197,-0.1905 0,-0.11853 0.07197,-0.18626 0.0762,-0.072 0.182034,-0.072 0.105833,0 0.1778,0.072 0.0762,0.0677 0.0762,0.18626 0,0.11854 -0.0762,0.1905 -0.07197,0.0677 -0.1778,0.0677 z m 0.876292,0.46143 q 0.135467,-0.0339 0.359833,-0.072 0.224367,-0.0381 0.516467,-0.0381 0.262466,0 0.436033,0.0762 0.173566,0.072 0.275166,0.20744 0.105833,0.13123 0.148167,0.3175 0.04233,0.18626 0.04233,0.41063 v 1.23613 h -0.3937 v -1.15146 q 0,-0.2032 -0.02963,-0.34714 -0.0254,-0.14393 -0.0889,-0.23283 -0.0635,-0.0889 -0.169333,-0.127 -0.105833,-0.0423 -0.262467,-0.0423 -0.0635,0 -0.131233,0.004 -0.06773,0.004 -0.131233,0.0127 -0.05927,0.004 -0.110067,0.0127 -0.04657,0.008 -0.06773,0.0127 v 1.85843 h -0.3937 z m 3.809996,1.9177 q -0.0508,0.0339 -0.198967,0.0889 -0.143933,0.0508 -0.338666,0.0508 -0.198967,0 -0.376767,-0.0635 -0.173566,-0.0635 -0.304799,-0.19473 -0.131234,-0.13547 -0.207434,-0.33444 -0.0762,-0.19896 -0.0762,-0.47413 0,-0.2413 0.07197,-0.44027 0.07197,-0.2032 0.207433,-0.34713 0.1397,-0.14817 0.338667,-0.2286 0.198966,-0.0847 0.448733,-0.0847 0.275166,0 0.478366,0.0423 0.207433,0.0381 0.347133,0.072 v 1.96427 q 0,0.508 -0.262467,0.7366 -0.262466,0.2286 -0.795866,0.2286 -0.207433,0 -0.393699,-0.0339 -0.182033,-0.0339 -0.3175,-0.0804 l 0.07197,-0.3429 q 0.118533,0.0466 0.287866,0.0804 0.173567,0.0381 0.359833,0.0381 0.351367,0 0.503766,-0.1397 0.156634,-0.1397 0.156634,-0.4445 z m -0.0042,-1.63407 q -0.05927,-0.0169 -0.160866,-0.0296 -0.09737,-0.0169 -0.2667,-0.0169 -0.3175,0 -0.491066,0.20743 -0.169334,0.20743 -0.169334,0.55033 0,0.1905 0.04657,0.32597 0.0508,0.13547 0.131233,0.22437 0.08467,0.0889 0.1905,0.13123 0.110067,0.0423 0.224367,0.0423 0.156633,0 0.287866,-0.0423 0.131233,-0.0466 0.207433,-0.10583 z m 3.992022,0.75354 q 0,0.26246 -0.0762,0.47413 -0.0762,0.21167 -0.2159,0.36407 -0.135467,0.1524 -0.325967,0.23706 -0.190499,0.0804 -0.414866,0.0804 -0.224366,0 -0.414866,-0.0804 -0.1905,-0.0847 -0.3302,-0.23706 -0.135467,-0.1524 -0.211666,-0.36407 -0.0762,-0.21167 -0.0762,-0.47413 0,-0.25824 0.0762,-0.4699 0.0762,-0.2159 0.211666,-0.3683 0.1397,-0.1524 0.3302,-0.23284 0.1905,-0.0847 0.414866,-0.0847 0.224367,0 0.414866,0.0847 0.1905,0.0804 0.325967,0.23284 0.1397,0.1524 0.2159,0.3683 0.0762,0.21166 0.0762,0.4699 z m -0.410633,0 q 0,-0.37254 -0.169334,-0.58844 -0.1651,-0.22013 -0.452966,-0.22013 -0.287866,0 -0.4572,0.22013 -0.165099,0.2159 -0.165099,0.58844 0,0.37253 0.165099,0.59266 0.169334,0.2159 0.4572,0.2159 0.287866,0 0.452966,-0.2159 0.169334,-0.22013 0.169334,-0.59266 z m 0.965192,-1.03717 q 0.135466,-0.0339 0.359833,-0.072 0.224366,-0.0381 0.516466,-0.0381 0.262467,0 0.436033,0.0762 0.173567,0.072 0.275167,0.20744 0.105833,0.13123 0.148166,0.3175 0.04233,0.18626 0.04233,0.41063 v 1.23613 h -0.393699 v -1.15146 q 0,-0.2032 -0.02963,-0.34714 -0.0254,-0.14393 -0.0889,-0.23283 -0.0635,-0.0889 -0.169334,-0.127 -0.105833,-0.0423 -0.262466,-0.0423 -0.0635,0 -0.131233,0.004 -0.06773,0.004 -0.131234,0.0127 -0.05927,0.004 -0.110066,0.0127 -0.04657,0.008 -0.06773,0.0127 v 1.85843 h -0.3937 z m 4.267188,-1.14723 q 0.173566,0 0.296333,0.0254 0.127,0.0254 0.177799,0.0466 l -0.07197,0.33867 q -0.0508,-0.0254 -0.143933,-0.0466 -0.09313,-0.0254 -0.2286,-0.0254 -0.275167,0 -0.385233,0.1524 -0.110067,0.14817 -0.110067,0.40217 v 0.1905 h 0.846666 v 0.3302 h -0.846666 v 1.87113 h -0.393699 v -2.4003 q 0,-0.42333 0.207433,-0.65193 0.207433,-0.23283 0.651933,-0.23283 z m 2.717796,2.1844 q 0,0.26246 -0.0762,0.47413 -0.0762,0.21167 -0.2159,0.36407 -0.135467,0.1524 -0.325966,0.23706 -0.1905,0.0804 -0.414867,0.0804 -0.224366,0 -0.414866,-0.0804 -0.1905,-0.0847 -0.3302,-0.23706 -0.135466,-0.1524 -0.211666,-0.36407 -0.0762,-0.21167 -0.0762,-0.47413 0,-0.25824 0.0762,-0.4699 0.0762,-0.2159 0.211666,-0.3683 0.1397,-0.1524 0.3302,-0.23284 0.1905,-0.0847 0.414866,-0.0847 0.224367,0 0.414867,0.0847 0.190499,0.0804 0.325966,0.23284 0.1397,0.1524 0.2159,0.3683 0.0762,0.21166 0.0762,0.4699 z m -0.410633,0 q 0,-0.37254 -0.169333,-0.58844 -0.1651,-0.22013 -0.452967,-0.22013 -0.287866,0 -0.457199,0.22013 -0.1651,0.2159 -0.1651,0.58844 0,0.37253 0.1651,0.59266 0.169333,0.2159 0.457199,0.2159 0.287867,0 0.452967,-0.2159 0.169333,-0.22013 0.169333,-0.59266 z m 2.90829,0 q 0,0.26246 -0.0762,0.47413 -0.0762,0.21167 -0.2159,0.36407 -0.135467,0.1524 -0.325967,0.23706 -0.1905,0.0804 -0.414866,0.0804 -0.224366,0 -0.414866,-0.0804 -0.1905,-0.0847 -0.3302,-0.23706 -0.135467,-0.1524 -0.211667,-0.36407 -0.0762,-0.21167 -0.0762,-0.47413 0,-0.25824 0.0762,-0.4699 0.0762,-0.2159 0.211667,-0.3683 0.1397,-0.1524 0.3302,-0.23284 0.1905,-0.0847 0.414866,-0.0847 0.224366,0 0.414866,0.0847 0.1905,0.0804 0.325967,0.23284 0.1397,0.1524 0.2159,0.3683 0.0762,0.21166 0.0762,0.4699 z m -0.410633,0 q 0,-0.37254 -0.169333,-0.58844 -0.1651,-0.22013 -0.452966,-0.22013 -0.287866,0 -0.4572,0.22013 -0.165099,0.2159 -0.165099,0.58844 0,0.37253 0.165099,0.59266 0.169334,0.2159 0.4572,0.2159 0.287866,0 0.452966,-0.2159 0.169333,-0.22013 0.169333,-0.59266 z m 1.333493,-1.10067 h 0.833966 v 0.3302 h -0.833966 v 1.016 q 0,0.1651 0.0254,0.27517 0.0254,0.10583 0.0762,0.16933 0.0508,0.0593 0.127,0.0847 0.0762,0.0254 0.1778,0.0254 0.1778,0 0.283633,-0.0381 0.110067,-0.0423 0.1524,-0.0593 l 0.0762,0.32597 q -0.05927,0.0296 -0.207433,0.072 -0.148167,0.0466 -0.338666,0.0466 -0.224367,0 -0.372533,-0.055 -0.143934,-0.0593 -0.232834,-0.17357 -0.0889,-0.1143 -0.126999,-0.2794 -0.03387,-0.16933 -0.03387,-0.38947 v -1.96426 l 0.3937,-0.0677 z"
         id="text151"
         style="font-size:4.23333px;line-height:1.25;font-family:Ubuntu;-inkscape-font-specification:'Ubuntu, Normal';stroke-width:0.264583"
         aria-label="the act of moving on foot" />
      <path
         id="rect151"
         style="fill:#999999;stroke-width:0.465;stroke-linecap:square;stroke-miterlimit:40;paint-order:fill markers stroke"
         d="m 38.058296,603.58386 h 2.196578 v 2.50828 h -2.196578 z" />
      <path
         d="m 46.741424,610.01581 -0.02239,0.16347 q -0.29335,0.0649 -0.304547,0.13884 l -0.304546,2.21915 q -0.0022,0.0269 0.05822,0.0672 0.0627,0.0381 0.208256,0.0694 l -0.02239,0.16347 h -1.086066 l 0.02239,-0.16347 q 0.29111,-0.0627 0.302307,-0.1366 l 0.302307,-2.21915 q 0.0045,-0.0269 -0.05822,-0.0672 -0.0627,-0.0403 -0.206017,-0.0717 l 0.02239,-0.16347 z m 3.945667,0.89572 q 0,0.0896 -0.03807,0.21274 -0.03807,0.12316 -0.13212,0.3247 -0.09181,0.1993 -0.257521,0.5128 -0.163469,0.31126 -0.42099,0.77704 -0.02463,0.0134 -0.103009,0.0538 -0.07838,0.0403 -0.156751,0.0806 -0.07838,0.0426 -0.107487,0.056 l -0.09181,-0.0873 q -0.04927,-0.3762 -0.103008,-0.72554 -0.05374,-0.34933 -0.111966,-0.55535 -0.04031,0.15899 -0.174666,0.47474 -0.13212,0.3135 -0.338136,0.67851 -0.02687,0.0134 -0.114205,0.0605 -0.08733,0.047 -0.174667,0.0941 -0.08733,0.047 -0.118683,0.0605 l -0.08733,-0.0873 q -0.02239,-0.19034 -0.04703,-0.42323 -0.02239,-0.23289 -0.04702,-0.45906 -0.02463,-0.22617 -0.04703,-0.3986 -0.02239,-0.17242 -0.03807,-0.24184 -0.02687,-0.12092 -0.0739,-0.15228 -0.04479,-0.0314 -0.08509,-0.0314 -0.02687,0 -0.08062,0.0157 -0.05374,0.0134 -0.09853,0.0269 -0.04255,0.0112 -0.04255,0.0112 l -0.04926,-0.15004 q 0.12988,-0.0672 0.275435,-0.13435 0.145556,-0.0694 0.264239,-0.11645 0.118684,-0.047 0.165709,-0.047 0.0627,0 0.09405,0.0739 0.03359,0.0717 0.06942,0.23289 0.01568,0.0717 0.03807,0.23513 0.02463,0.16347 0.04703,0.35829 0.02463,0.19482 0.04255,0.36501 0.01791,0.17018 0.02239,0.25304 0.120923,-0.23065 0.219452,-0.47026 0.09853,-0.2396 0.158991,-0.44562 0.06046,-0.20602 0.06718,-0.34037 0.06046,-0.056 0.145555,-0.11645 0.08733,-0.0605 0.167948,-0.10301 0.08286,-0.0425 0.12988,-0.0425 0.01344,0 0.03807,0.0784 0.02463,0.0761 0.05374,0.19706 0.02911,0.11868 0.05598,0.24856 0.02687,0.12765 0.04479,0.22841 0.03359,0.2105 0.06942,0.42323 0.03807,0.2105 0.05374,0.37173 0.232889,-0.41651 0.353812,-0.69419 0.123162,-0.27767 0.123162,-0.41203 0,-0.10077 -0.123162,-0.10077 -0.08062,0 -0.188103,0.0336 l -0.05598,-0.15003 q 0.165709,-0.10301 0.344854,-0.16347 0.179145,-0.0605 0.273196,-0.0605 0.0739,0 0.12988,0.0291 0.05822,0.0291 0.05822,0.14107 z m 1.840714,0.22393 q 0,0.0985 -0.04702,0.21722 -0.04479,0.11868 -0.188102,0.25528 -0.143316,0.13436 -0.432188,0.28439 -0.288871,0.15004 -0.777041,0.30679 l -0.01568,-0.23289 q 0.306786,-0.12316 0.485931,-0.21945 0.181384,-0.0985 0.270956,-0.17915 0.08957,-0.0806 0.116445,-0.15451 0.02687,-0.0761 0.02687,-0.16123 0,-0.10301 -0.04702,-0.15451 -0.04479,-0.0538 -0.107487,-0.0538 -0.03583,0 -0.109726,0.0381 -0.0739,0.0381 -0.12988,0.10525 -0.120923,0.14108 -0.194821,0.3247 -0.07166,0.18362 -0.07166,0.42995 0,0.29335 0.100769,0.46801 0.103009,0.17243 0.235128,0.17243 0.09405,0 0.275435,-0.0873 0.183624,-0.0873 0.454581,-0.30455 0.02463,0.0134 0.06046,0.0784 0.03583,0.0649 0.04255,0.0806 -0.367247,0.32022 -0.606853,0.4501 -0.239607,0.12988 -0.438905,0.12988 -0.123163,0 -0.275436,-0.0761 -0.150034,-0.0739 -0.25976,-0.24185 -0.107487,-0.17019 -0.107487,-0.45234 0,-0.35157 0.16347,-0.64044 0.16347,-0.29111 0.445623,-0.52624 0.100769,-0.0829 0.279914,-0.16571 0.181384,-0.0851 0.35829,-0.0851 0.253042,0 0.371725,0.1254 0.120923,0.12316 0.120923,0.26871 z m 2.454286,1.45556 q -0.134359,0.0806 -0.284393,0.15899 -0.147794,0.0784 -0.277674,0.12764 -0.12988,0.0515 -0.203778,0.0515 -0.07838,0 -0.12988,-0.0717 -0.0515,-0.0694 -0.0515,-0.19035 0,-0.047 0.01791,-0.17018 0.01791,-0.12317 0.04479,-0.2844 0.02911,-0.16123 0.05598,-0.32246 0.02687,-0.16347 0.04479,-0.29335 0.02015,-0.13212 0.02015,-0.19258 0,-0.13212 -0.02463,-0.18362 -0.02239,-0.0537 -0.09405,-0.0537 -0.06046,0 -0.201538,0.0806 -0.141077,0.0806 -0.270957,0.29111 -0.06718,0.10525 -0.105247,0.25752 -0.03583,0.15004 -0.0739,0.36725 -0.03583,0.1993 -0.04703,0.3135 -0.009,0.11197 -0.0045,0.21945 -0.03135,0.0134 -0.103008,0.0448 -0.06942,0.0313 -0.152273,0.0694 -0.08285,0.0381 -0.154513,0.0694 -0.06942,0.0336 -0.09629,0.0493 l -0.08957,-0.0873 q 0.04479,-0.22169 0.08733,-0.46354 0.04255,-0.24408 0.07614,-0.46801 0.03359,-0.22393 0.05374,-0.39412 0.02015,-0.17243 0.02015,-0.25081 0,-0.103 -0.02239,-0.1254 -0.02239,-0.0246 -0.0627,-0.0246 -0.03135,0 -0.109726,0.0224 -0.07614,0.0224 -0.111965,0.0358 l -0.04255,-0.15451 q 0.09405,-0.0403 0.214974,-0.0873 0.123162,-0.0493 0.241845,-0.0918 0.120923,-0.0448 0.212735,-0.0717 0.09181,-0.0269 0.125401,-0.0269 0.0627,0 0.08285,0.047 0.02239,0.047 0.02239,0.20602 0,0.10748 -0.01568,0.22393 0.244085,-0.24185 0.481452,-0.35829 0.237367,-0.11868 0.438905,-0.11868 0.141076,0 0.217213,0.0694 0.07838,0.0694 0.07838,0.28664 0,0.11644 -0.02911,0.29559 -0.02911,0.1769 -0.06718,0.37172 -0.03583,0.19258 -0.06494,0.36053 -0.02911,0.16571 -0.02911,0.25752 0,0.0761 0.02015,0.10525 0.02015,0.0269 0.06046,0.0269 0.0515,0 0.105247,-0.0157 0.05374,-0.0179 0.138838,-0.0582 z m 1.675005,-1.70188 q -0.03135,0.0426 -0.09405,0.10525 -0.0627,0.0627 -0.125402,0.11644 -0.0627,0.0538 -0.08957,0.0694 -0.02687,-0.0627 -0.105248,-0.0806 -0.07838,-0.0202 -0.221692,-0.0202 h -0.835263 l -0.0515,-0.0873 0.268717,-0.18139 h 1.191314 z m -0.136598,1.60111 q -0.246324,0.19482 -0.483691,0.31798 -0.237367,0.12092 -0.36053,0.12092 -0.136598,0 -0.25976,-0.1254 -0.120923,-0.12764 -0.120923,-0.3247 0,-0.0851 0.0045,-0.17243 0.0067,-0.0896 0.02687,-0.21273 l 0.217213,-1.3615 q 0.02687,-0.17467 0.06046,-0.23065 0.03359,-0.056 0.09405,-0.0873 l 0.427708,-0.2105 0.0627,0.056 q -0.01791,0.0157 -0.0515,0.11869 -0.03135,0.10077 -0.0627,0.3023 l -0.190342,1.20699 q -0.01343,0.0873 -0.02015,0.18363 -0.0067,0.0963 -0.0067,0.14107 0,0.13884 0.04031,0.19706 0.04255,0.0582 0.105248,0.0582 0.138837,0 0.456819,-0.14331 z m 2.649105,-1.60111 q -0.02911,0.0426 -0.09405,0.10525 -0.06494,0.0627 -0.12988,0.11644 -0.0627,0.0538 -0.09405,0.0694 -0.02239,-0.0627 -0.09405,-0.0806 -0.07166,-0.0202 -0.214974,-0.0202 h -0.866614 l -0.0515,-0.0873 0.29335,-0.18139 h 1.191314 z m 0.611332,-1.17788 q -0.04926,0.0358 -0.123162,0.094 -0.0739,0.0582 -0.152273,0.11869 -0.07614,0.0605 -0.141077,0.10077 -0.0627,0.0403 -0.08957,0.0403 -0.04926,0 -0.09629,-0.0649 -0.04702,-0.0672 -0.105247,-0.13436 -0.05598,-0.0672 -0.13212,-0.0672 -0.09405,0 -0.158991,0.0873 -0.06494,0.0851 -0.107487,0.22393 -0.04255,0.1366 -0.06942,0.29559 -0.02463,0.15675 -0.04031,0.30007 l -0.19706,1.69963 q -0.03807,0.32694 -0.19258,0.62253 -0.152273,0.29783 -0.367247,0.52848 -0.212735,0.23289 -0.434427,0.36725 l -0.09181,-0.19258 q 0.150034,-0.0829 0.259761,-0.27544 0.111965,-0.19034 0.181384,-0.4389 0.07166,-0.24633 0.09853,-0.49041 l 0.19706,-1.70188 q 0.04479,-0.36501 0.170188,-0.66731 0.12764,-0.30231 0.412033,-0.51505 0.118683,-0.0873 0.248563,-0.14779 0.129881,-0.0605 0.266479,-0.0605 0.147794,0 0.282153,0.0627 0.134359,0.0627 0.235128,0.13212 0.100769,0.0672 0.147794,0.0829 z m 1.146528,1.87431 q 0,0.29782 -0.147795,0.60237 -0.147795,0.30231 -0.398597,0.50832 -0.116445,0.0963 -0.277675,0.16347 -0.158991,0.0694 -0.29335,0.0694 -0.232888,0 -0.400837,-0.11196 -0.167948,-0.11421 -0.257521,-0.30903 -0.08957,-0.19706 -0.08957,-0.44114 0,-0.32022 0.127641,-0.60014 0.12988,-0.27991 0.429948,-0.51056 0.116444,-0.0896 0.275435,-0.15227 0.158991,-0.0627 0.309025,-0.0627 0.351572,0 0.537435,0.23736 0.185863,0.23513 0.185863,0.60686 z m -0.52176,0.17466 q 0,-0.34037 -0.107487,-0.524 -0.105248,-0.18362 -0.248564,-0.18362 -0.172427,0 -0.275435,0.13212 -0.100769,0.13212 -0.145555,0.32694 -0.04255,0.19258 -0.04255,0.38292 0,0.1993 0.05374,0.36725 0.05598,0.16571 0.141077,0.26424 0.08733,0.0985 0.181384,0.0985 0.123162,0 0.208256,-0.0806 0.08509,-0.0829 0.136598,-0.21273 0.0515,-0.13212 0.0739,-0.28216 0.02463,-0.15003 0.02463,-0.28887 z m 2.60432,-0.8263 q -0.02911,0.0358 -0.0739,0.11196 -0.04479,0.0761 -0.09405,0.15899 -0.04926,0.0829 -0.09181,0.14108 -0.04031,0.0582 -0.0627,0.0582 -0.05598,0 -0.105248,-0.0426 -0.04926,-0.0425 -0.09629,-0.0851 -0.04479,-0.0448 -0.08733,-0.0448 -0.07838,0 -0.176906,0.0985 -0.09853,0.0963 -0.190341,0.26648 -0.09181,0.16795 -0.154513,0.38292 -0.04926,0.16795 -0.07838,0.35382 -0.02911,0.18586 -0.02239,0.36276 -0.04702,0.0202 -0.154512,0.0694 -0.107487,0.047 -0.210496,0.0941 -0.103008,0.0493 -0.141076,0.0694 l -0.08957,-0.0873 q 0.06494,-0.31798 0.118684,-0.62701 0.05374,-0.31126 0.08509,-0.55983 0.03135,-0.2508 0.03135,-0.38516 0,-0.10301 -0.02687,-0.1254 -0.02687,-0.0246 -0.06494,-0.0246 -0.03135,0 -0.105247,0.0224 -0.0739,0.0202 -0.107487,0.0313 l -0.04031,-0.15003 q 0.127641,-0.0582 0.291111,-0.12316 0.165709,-0.0649 0.306785,-0.11197 0.141077,-0.047 0.19482,-0.047 0.0627,0 0.08286,0.047 0.02239,0.0448 0.02239,0.17691 0,0.047 -0.01344,0.15899 -0.01344,0.10972 -0.02687,0.19482 0.145556,-0.23513 0.262,-0.36053 0.118683,-0.1254 0.221692,-0.17019 0.103008,-0.047 0.199298,-0.047 0.07838,0 0.188103,0.0761 0.111965,0.0761 0.210495,0.11645 z m 2.987241,1.66604 q -0.190342,0.13436 -0.36053,0.23289 -0.170187,0.0963 -0.248563,0.0963 -0.05374,0 -0.127641,-0.0582 -0.07166,-0.056 -0.125401,-0.20154 -0.05374,-0.14555 -0.05374,-0.41203 0,-0.0515 0.01344,-0.16571 0.01568,-0.1142 0.03807,-0.25976 0.02239,-0.14555 0.04479,-0.29111 0.02463,-0.14556 0.04479,-0.25976 0.02015,-0.11644 0.02911,-0.16795 0.01568,-0.0694 0.120923,-0.1366 0.105247,-0.0672 0.237367,-0.12764 0.134358,-0.0605 0.235127,-0.10748 l 0.06942,0.14555 q -0.0739,0.0627 -0.107487,0.11421 -0.03135,0.0493 -0.06046,0.20153 -0.06942,0.32023 -0.107487,0.59118 -0.03583,0.26872 -0.03583,0.36725 0,0.15451 0.03135,0.25528 0.03359,0.0985 0.08733,0.0985 0.04479,0 0.09629,-0.0112 0.05374,-0.0134 0.143316,-0.0515 z m -0.219453,-1.6011 q -0.0627,0.0448 -0.120923,0.14331 -0.05822,0.0985 -0.107487,0.18139 -0.04927,0.0829 -0.08957,0.0829 -0.02911,0 -0.08285,-0.0515 -0.05374,-0.0538 -0.123162,-0.12093 -0.06942,-0.0694 -0.147794,-0.12092 -0.07614,-0.0537 -0.150034,-0.0537 -0.141077,0.004 -0.246325,0.0985 -0.105247,0.0918 -0.174666,0.23736 -0.06942,0.14332 -0.105248,0.30231 -0.03359,0.15899 -0.03359,0.29111 0,0.25081 0.06718,0.37621 0.06718,0.12316 0.150034,0.12316 0.0739,0 0.214974,-0.14332 0.143316,-0.14555 0.320221,-0.41427 l -0.04031,0.43219 q -0.09405,0.1366 -0.212735,0.26648 -0.116444,0.12988 -0.244085,0.21497 -0.125401,0.0851 -0.253042,0.0851 -0.107487,0 -0.22617,-0.0784 -0.118684,-0.0761 -0.201538,-0.24633 -0.08285,-0.17018 -0.08285,-0.4501 0,-0.35381 0.174666,-0.66955 0.174667,-0.31575 0.49041,-0.53296 0.120922,-0.0828 0.29111,-0.14555 0.170188,-0.0649 0.35829,-0.0649 0.116444,0 0.22841,0.0627 0.114205,0.0605 0.203777,0.1254 0.09181,0.0627 0.143316,0.0694 z m 4.265889,-0.0873 q 0,0.0896 -0.03807,0.21274 -0.03807,0.12316 -0.13212,0.3247 -0.09181,0.1993 -0.25752,0.5128 -0.16347,0.31126 -0.420991,0.77704 -0.02463,0.0134 -0.103008,0.0538 -0.07838,0.0403 -0.156752,0.0806 -0.07838,0.0426 -0.107487,0.056 l -0.09181,-0.0873 q -0.04926,-0.3762 -0.103008,-0.72554 -0.05374,-0.34933 -0.111966,-0.55535 -0.04031,0.15899 -0.174666,0.47474 -0.132119,0.3135 -0.338136,0.67851 -0.02687,0.0134 -0.114205,0.0605 -0.08733,0.047 -0.174666,0.0941 -0.08733,0.047 -0.118684,0.0605 l -0.08733,-0.0873 q -0.02239,-0.19034 -0.04703,-0.42323 -0.02239,-0.23289 -0.04703,-0.45906 -0.02463,-0.22617 -0.04703,-0.3986 -0.02239,-0.17242 -0.03807,-0.24184 -0.02687,-0.12092 -0.0739,-0.15228 -0.04479,-0.0314 -0.08509,-0.0314 -0.02687,0 -0.08061,0.0157 -0.05374,0.0134 -0.09853,0.0269 -0.04255,0.0112 -0.04255,0.0112 l -0.04927,-0.15004 q 0.12988,-0.0672 0.275436,-0.13435 0.145555,-0.0694 0.264238,-0.11645 0.118684,-0.047 0.165709,-0.047 0.0627,0 0.09405,0.0739 0.03359,0.0717 0.06942,0.23289 0.01568,0.0717 0.03807,0.23513 0.02463,0.16347 0.04702,0.35829 0.02463,0.19482 0.04255,0.36501 0.01791,0.17018 0.02239,0.25304 0.120923,-0.23065 0.219453,-0.47026 0.09853,-0.2396 0.158991,-0.44562 0.06046,-0.20602 0.06718,-0.34037 0.06046,-0.056 0.145555,-0.11645 0.08733,-0.0605 0.167949,-0.10301 0.08285,-0.0425 0.12988,-0.0425 0.01344,0 0.03807,0.0784 0.02463,0.0761 0.05374,0.19706 0.02911,0.11868 0.05598,0.24856 0.02687,0.12765 0.04479,0.22841 0.03359,0.2105 0.06942,0.42323 0.03807,0.2105 0.05374,0.37173 0.232888,-0.41651 0.353811,-0.69419 0.123162,-0.27767 0.123162,-0.41203 0,-0.10077 -0.123162,-0.10077 -0.08062,0 -0.188102,0.0336 l -0.05598,-0.15003 q 0.165709,-0.10301 0.344854,-0.16347 0.179145,-0.0605 0.273196,-0.0605 0.0739,0 0.12988,0.0291 0.05822,0.0291 0.05822,0.14107 z m 2.187809,1.68844 q -0.190342,0.13436 -0.360529,0.23289 -0.170188,0.0963 -0.248564,0.0963 -0.05374,0 -0.127641,-0.0582 -0.07166,-0.056 -0.125401,-0.20154 -0.05374,-0.14555 -0.05374,-0.41203 0,-0.0515 0.01344,-0.16571 0.01568,-0.1142 0.03807,-0.25976 0.02239,-0.14555 0.04479,-0.29111 0.02463,-0.14556 0.04479,-0.25976 0.02015,-0.11644 0.02911,-0.16795 0.01568,-0.0694 0.120923,-0.1366 0.105248,-0.0672 0.237367,-0.12764 0.134359,-0.0605 0.235128,-0.10748 l 0.06942,0.14555 q -0.0739,0.0627 -0.107487,0.11421 -0.03135,0.0493 -0.06046,0.20153 -0.06942,0.32023 -0.107487,0.59118 -0.03583,0.26872 -0.03583,0.36725 0,0.15451 0.03135,0.25528 0.03359,0.0985 0.08733,0.0985 0.04479,0 0.09629,-0.0112 0.05374,-0.0134 0.143316,-0.0515 z m -0.219453,-1.6011 q -0.0627,0.0448 -0.120923,0.14331 -0.05822,0.0985 -0.107486,0.18139 -0.04927,0.0829 -0.08957,0.0829 -0.02911,0 -0.08285,-0.0515 -0.05374,-0.0538 -0.123163,-0.12093 -0.06942,-0.0694 -0.147794,-0.12092 -0.07614,-0.0537 -0.150034,-0.0537 -0.141077,0.004 -0.246324,0.0985 -0.105248,0.0918 -0.174667,0.23736 -0.06942,0.14332 -0.105247,0.30231 -0.03359,0.15899 -0.03359,0.29111 0,0.25081 0.06718,0.37621 0.06718,0.12316 0.150034,0.12316 0.0739,0 0.214974,-0.14332 0.143316,-0.14555 0.320222,-0.41427 l -0.04031,0.43219 q -0.09405,0.1366 -0.212734,0.26648 -0.116445,0.12988 -0.244085,0.21497 -0.125402,0.0851 -0.253043,0.0851 -0.107487,0 -0.22617,-0.0784 -0.118684,-0.0761 -0.201538,-0.24633 -0.08285,-0.17018 -0.08285,-0.4501 0,-0.35381 0.174667,-0.66955 0.174666,-0.31575 0.490409,-0.53296 0.120923,-0.0828 0.29111,-0.14555 0.170188,-0.0649 0.35829,-0.0649 0.116444,0 0.22841,0.0627 0.114205,0.0605 0.203777,0.1254 0.09181,0.0627 0.143316,0.0694 z m 1.390612,1.59215 q -0.219453,0.13883 -0.438905,0.2396 -0.217214,0.0985 -0.35829,0.0985 -0.06046,0 -0.111966,-0.0694 -0.04926,-0.0672 -0.04926,-0.19705 0,-0.0739 0.02687,-0.27096 0.02687,-0.19706 0.06718,-0.46802 0.04255,-0.27095 0.08957,-0.56878 0.04927,-0.29783 0.08957,-0.57775 0.04255,-0.27991 0.06942,-0.49712 0.02687,-0.21722 0.02687,-0.32246 0,-0.10301 -0.03583,-0.1254 -0.03583,-0.0246 -0.07838,-0.0246 -0.02687,0 -0.09629,0.0202 -0.06718,0.0201 -0.120922,0.0403 l -0.04031,-0.15451 q 0.125401,-0.056 0.29335,-0.12092 0.170188,-0.0649 0.315743,-0.11197 0.145555,-0.047 0.201538,-0.047 0.0627,0 0.09853,0.0403 0.03807,0.0403 0.03807,0.14331 0,0.11645 -0.02687,0.3359 -0.02687,0.21721 -0.06942,0.49489 -0.04255,0.27767 -0.08957,0.57326 -0.04703,0.29559 -0.08957,0.56878 -0.04255,0.2732 -0.06942,0.4837 -0.02687,0.20825 -0.02687,0.30902 0,0.0761 0.02015,0.10525 0.02239,0.0269 0.05822,0.0269 0.0515,0 0.111966,-0.0157 0.06046,-0.0179 0.158991,-0.0582 z m 2.349037,-1.68173 q 0,0.0672 -0.190341,0.22841 -0.188102,0.16123 -0.523999,0.36501 l -0.463538,0.28439 -0.311264,-0.0784 0.45682,-0.33814 q 0.179145,-0.13212 0.273196,-0.21497 0.09629,-0.0829 0.09629,-0.1254 0,-0.056 -0.217213,-0.047 l -0.01792,-0.15451 q 0.181385,-0.0269 0.35829,-0.0493 0.179145,-0.0246 0.320222,-0.0246 0.132119,0 0.174666,0.0403 0.04479,0.0403 0.04479,0.1142 z m -1.128613,-1.24505 q 0,0.14331 -0.03359,0.40083 -0.03359,0.25529 -0.08509,0.57103 -0.04926,0.31574 -0.105248,0.64492 -0.05374,0.32694 -0.09853,0.62029 -0.04255,0.29335 -0.0627,0.50384 -0.01792,0.2105 0.0045,0.28664 -0.03135,0.0157 -0.105247,0.0493 -0.07166,0.0336 -0.156752,0.0717 -0.08509,0.0381 -0.156752,0.0694 -0.07166,0.0314 -0.09853,0.047 l -0.09629,-0.0873 q 0.0112,-0.0851 0.04479,-0.29783 0.03583,-0.21273 0.08285,-0.49936 0.04926,-0.28664 0.09853,-0.60014 0.0515,-0.31574 0.09405,-0.61133 0.04479,-0.29559 0.07166,-0.52624 0.02911,-0.23065 0.02911,-0.34262 0,-0.11196 -0.02911,-0.13435 -0.02687,-0.0224 -0.07838,-0.0224 -0.03359,0 -0.109726,0.0246 -0.07614,0.0224 -0.116444,0.0358 l -0.04031,-0.15451 q 0.09405,-0.0426 0.217214,-0.0896 0.123162,-0.0493 0.244085,-0.0918 0.123162,-0.0448 0.217213,-0.0717 0.09629,-0.0269 0.136598,-0.0269 0.0627,0 0.09629,0.0358 0.03583,0.0358 0.03583,0.19482 z m 1.090545,2.92006 q -0.09853,0.0829 -0.214974,0.16123 -0.116444,0.0784 -0.221692,0.12764 -0.105247,0.0515 -0.170188,0.0515 -0.09629,0 -0.188102,-0.10524 -0.09181,-0.10749 -0.179145,-0.27096 -0.08733,-0.16347 -0.167948,-0.3359 -0.08062,-0.17466 -0.158991,-0.3135 -0.07614,-0.13884 -0.150034,-0.19034 l 0.396358,-0.12092 q 0.07838,0.047 0.152273,0.15451 0.07614,0.10748 0.147795,0.2396 0.07166,0.12988 0.138837,0.25305 0.06718,0.12092 0.12988,0.20153 0.06494,0.0784 0.125402,0.0784 0.05822,0 0.136598,-0.0157 0.07838,-0.0179 0.152273,-0.0582 z m 0.790478,-0.12092 q 0,0.10077 -0.04927,0.20377 -0.04702,0.10077 -0.141076,0.17019 -0.09181,0.0694 -0.226171,0.0694 -0.138837,0 -0.206016,-0.0694 -0.06494,-0.0717 -0.06494,-0.18586 0,-0.0941 0.0515,-0.19482 0.0515,-0.10077 0.145555,-0.16795 0.09405,-0.0694 0.221692,-0.0694 0.132119,0 0.199298,0.0694 0.06942,0.0694 0.06942,0.17467 z"
         id="text152"
         style="font-style:italic;font-weight:bold;font-size:4.58611px;line-height:1.25;font-family:'Gentium Plus';-inkscape-font-specification:'Gentium Plus, Bold Italic';fill:#094bac;stroke-width:0.264583"
         aria-label="I went for a walk." />
      <path
         style="font-size:6.35px;line-height:1.25;font-family:'Gentium Plus';-inkscape-font-specification:'Gentium Plus, Bold';fill:#094bac;stroke-width:0.264583"
         d="m 24.832849,566.32705 q -0.189135,0.0434 -0.241845,0.0837 -0.04961,0.0372 -0.06821,0.10852 l -0.68523,2.37505 q -0.0248,0.0899 -0.10852,0.14882 -0.08061,0.0558 -0.173633,0.0837 -0.08992,0.031 -0.142627,0.0434 l -0.787549,-2.25103 0.02481,-0.72553 q 0,0 0.07751,0 0.08062,0 0.117822,0 l 0.806152,2.29443 0.536402,-1.96887 q 0.0186,-0.0713 -0.06511,-0.11472 -0.08372,-0.0434 -0.297656,-0.0775 v -0.13332 h 1.00769 z m -2.793627,2.56729 q -0.04651,0.14262 -0.189136,0.19843 -0.142627,0.0589 -0.223242,0.0775 l -0.812354,-2.651 q -0.02791,-0.12093 -0.337964,-0.19224 v -0.13332 h 1.196826 v 0.13332 q -0.201538,0.0186 -0.288354,0.0496 -0.08372,0.031 -0.09922,0.0682 -0.0124,0.0341 0,0.0744 l 0.58291,1.96887 0.762744,-2.29443 q 0.04341,0 0.10542,0 0.06511,0 0.06511,0 l 0.06511,0.32556 z m 5.633764,-0.0713 q -0.26355,0.17984 -0.437182,0.26355 -0.170533,0.0837 -0.257349,0.0837 -0.108521,0 -0.176733,-0.16123 -0.06821,-0.16433 -0.06821,-0.44029 v -1.66811 q 0,-0.21084 -0.108521,-0.35347 -0.10852,-0.14573 -0.412378,-0.13642 -0.198437,0.003 -0.362768,0.12092 -0.161231,0.11472 -0.142627,0.30076 0.0062,0.0372 -0.10542,0.0837 -0.111621,0.0465 -0.241846,0.0775 -0.127124,0.0279 -0.179834,0.0155 l -0.04341,-0.12092 q 0.09612,-0.20774 0.31626,-0.38448 0.220141,-0.17983 0.496093,-0.29145 0.279053,-0.11162 0.539502,-0.11162 0.341065,0 0.523999,0.17983 0.186036,0.17674 0.186036,0.4961 v 1.74873 q 0,0.24184 0.124023,0.24184 0.04341,0 0.111621,-0.0155 0.06821,-0.0186 0.192236,-0.0682 z m -0.908471,-1.25884 q -0.356568,0.0558 -0.555005,0.11163 -0.198438,0.0558 -0.300757,0.11782 -0.10232,0.0589 -0.170532,0.13022 -0.07751,0.0837 -0.130225,0.19224 -0.04961,0.10542 -0.04961,0.25115 0,0.16433 0.05891,0.25114 0.06201,0.0868 0.142627,0.11783 0.08062,0.031 0.133325,0.031 0.192236,0 0.409277,-0.10232 0.217041,-0.10232 0.461988,-0.31936 l 0.0248,0.22945 q -0.291455,0.31315 -0.579809,0.45578 -0.288355,0.13953 -0.499195,0.13953 -0.148828,0 -0.300757,-0.0682 -0.151928,-0.0651 -0.257348,-0.21395 -0.102319,-0.14882 -0.102319,-0.38757 0,-0.23874 0.08062,-0.39377 0.08372,-0.15813 0.198437,-0.27285 0.10232,-0.10232 0.248047,-0.18914 0.145728,-0.0868 0.42168,-0.16433 0.279053,-0.0775 0.765845,-0.14883 z m 1.137915,1.51309 v -0.13332 q 0.26665,-0.0465 0.365869,-0.093 0.09922,-0.0465 0.09922,-0.0961 v -3.6959 q 0,-0.18293 -0.03721,-0.26045 -0.03411,-0.0806 -0.130224,-0.10852 -0.09302,-0.0279 -0.266651,-0.0465 v -0.12402 q 0.223243,-0.0434 0.409278,-0.0961 0.189136,-0.0527 0.378271,-0.15193 l 0.111621,0.10542 v 4.37803 q 0,0.0465 0.10542,0.0961 0.10542,0.0496 0.359668,0.093 v 0.13332 z m 4.523754,-2.75022 q -0.136425,0.0124 -0.251147,0.0496 -0.114722,0.0372 -0.244946,0.14263 l -1.277442,1.02009 -0.238745,-0.093 0.970484,-0.84646 q 0.136425,-0.12092 0.136425,-0.17673 0,-0.0589 -0.08062,-0.0775 -0.08061,-0.0186 -0.189136,-0.0186 v -0.13332 h 1.175122 z m -2.895947,2.75022 v -0.13332 q 0.204639,-0.0527 0.319361,-0.093 0.114721,-0.0403 0.114721,-0.0961 v -3.6959 q 0,-0.18293 -0.03411,-0.26355 -0.03411,-0.0806 -0.127124,-0.10542 -0.09302,-0.0279 -0.272852,-0.0465 v -0.12402 q 0.213941,-0.0434 0.42168,-0.0992 0.207739,-0.0589 0.362768,-0.14883 l 0.114722,0.10542 v 4.37803 q 0,0.0465 0.05581,0.0837 0.05581,0.0341 0.285254,0.10542 v 0.13332 z m 3.004468,-0.0558 q -0.179834,0.0403 -0.344165,0.062 -0.161231,0.0248 -0.226343,0.0248 -0.130224,0 -0.207739,-0.0372 -0.07751,-0.0372 -0.148828,-0.12712 l -1.187525,-1.49759 0.322461,-0.23564 1.296045,1.52239 q 0.08682,0.0992 0.192237,0.13332 0.105419,0.0341 0.285253,0.0217 z"
         id="text154"
         aria-label="walk" />
      <path
         d="m 38.16434,574.78711 q -0.135047,0.0338 -0.180867,0.0651 -0.04341,0.0289 -0.06029,0.0844 l -0.532957,1.77492 q -0.01929,0.0699 -0.08923,0.11575 -0.06752,0.0434 -0.142282,0.0651 -0.07476,0.0241 -0.115755,0.0338 l -0.684885,-1.56993 0.10852,-0.74518 q 0,0 0.06994,0 0.07235,0 0.101286,0 l 0.605304,1.46382 0.347265,-1.13826 q 0.01688,-0.0555 -0.01447,-0.0892 -0.02894,-0.0338 -0.195337,-0.0603 v -0.17605 h 0.783759 z m -2.225876,1.92443 q -0.02412,0.0748 -0.08923,0.11817 -0.06511,0.0434 -0.13746,0.0651 -0.06994,0.0217 -0.113343,0.0313 l -0.648712,-1.98955 q -0.03135,-0.0965 -0.262861,-0.14951 v -0.17605 h 1.09244 v 0.17605 q -0.207394,0.0241 -0.24598,0.0651 -0.03617,0.0386 -0.01929,0.0844 l 0.361735,1.13826 0.576365,-1.46382 q 0.03376,0 0.101285,0 0.06752,0 0.06752,0 l 0.01447,0.39791 z m 4.635032,-0.12781 q -0.135047,0.0941 -0.279741,0.17122 -0.144694,0.0772 -0.262861,0.12299 -0.118167,0.0482 -0.178456,0.0482 -0.09887,0 -0.163987,-0.1254 -0.0627,-0.12782 -0.0627,-0.34245 v -1.26125 q 0,-0.14951 -0.06752,-0.24839 -0.06511,-0.0989 -0.24598,-0.0965 -0.115756,0 -0.217041,0.082 -0.101286,0.082 -0.08682,0.22669 0.0024,0.0241 -0.08199,0.0603 -0.08199,0.0338 -0.20016,0.0675 -0.115755,0.0313 -0.217041,0.0531 -0.09887,0.0193 -0.127813,0.0121 l -0.05064,-0.13023 q 0.07717,-0.19051 0.267684,-0.34485 0.190514,-0.15675 0.443728,-0.24839 0.253215,-0.0916 0.520899,-0.0916 0.330384,0 0.484725,0.16639 0.156752,0.1664 0.156752,0.41238 v 1.16238 q 0,0.1881 0.09646,0.1881 0.03376,0 0.07717,-0.0121 0.04582,-0.0145 0.142283,-0.053 z m -0.92363,-0.87058 q -0.303857,0.0482 -0.429259,0.0965 -0.12299,0.0458 -0.188102,0.11093 -0.0627,0.0627 -0.101286,0.13505 -0.03858,0.0723 -0.03858,0.17363 0,0.16399 0.07958,0.21946 0.08199,0.0555 0.144694,0.0555 0.09405,0 0.217041,-0.053 0.125401,-0.0531 0.315915,-0.22187 l 0.01929,0.2701 q -0.226688,0.24357 -0.450963,0.33521 -0.224276,0.0916 -0.388263,0.0916 -0.132636,0 -0.260449,-0.0627 -0.125402,-0.0603 -0.207395,-0.18328 -0.08199,-0.1254 -0.08199,-0.31109 0,-0.16399 0.06029,-0.27733 0.06029,-0.11576 0.147106,-0.20499 0.07958,-0.0796 0.197748,-0.14951 0.118167,-0.0699 0.342443,-0.13505 0.224275,-0.0651 0.622184,-0.1254 z m 1.068324,1.14067 v -0.17604 q 0.207395,-0.0362 0.274919,-0.0724 0.06752,-0.0362 0.06752,-0.0748 v -2.72989 q 0,-0.14229 -0.02412,-0.20499 -0.02412,-0.0627 -0.09164,-0.082 -0.06752,-0.0217 -0.202572,-0.0362 v -0.16881 q 0.241157,-0.0338 0.422024,-0.0748 0.180868,-0.041 0.371382,-0.11817 l 0.103697,0.0989 v 3.3159 q 0,0.0362 0.07235,0.0748 0.07476,0.0386 0.272507,0.0724 v 0.17604 z m 3.995967,-2.06671 q -0.106109,0.01 -0.212218,0.0506 -0.106109,0.0386 -0.209806,0.11576 l -0.928453,0.70417 -0.313504,-0.0723 0.655946,-0.58601 q 0.103698,-0.0941 0.113344,-0.13988 0.0096,-0.0458 -0.04341,-0.0579 -0.05306,-0.0145 -0.13746,-0.0145 v -0.17605 h 1.075559 z m -2.541792,2.06671 v -0.17604 q 0.159164,-0.041 0.238746,-0.0724 0.08199,-0.0313 0.08199,-0.0748 v -2.72989 q 0,-0.14229 -0.02412,-0.20499 -0.0217,-0.0627 -0.08923,-0.082 -0.06752,-0.0217 -0.207395,-0.0362 v -0.16881 q 0.233922,-0.0338 0.431671,-0.0772 0.197748,-0.0434 0.359323,-0.11576 l 0.108521,0.0989 v 3.3159 q 0,0.0362 0.04341,0.0651 0.04341,0.0265 0.221864,0.082 v 0.17604 z m 2.626197,-0.0796 q -0.09405,0.0217 -0.214629,0.0458 -0.120579,0.0241 -0.221864,0.041 -0.09887,0.0169 -0.132637,0.0169 -0.20016,0 -0.296622,-0.12782 l -0.877811,-1.16478 0.41479,-0.18328 0.962215,1.09244 q 0.06752,0.0796 0.139871,0.0965 0.07235,0.0169 0.212218,0.007 z"
         id="text155"
         style="font-weight:bold;font-size:4.93889px;line-height:1.25;font-family:'Gentium Plus';-inkscape-font-specification:'Gentium Plus, Bold';fill:#094bac;stroke-width:0.264583"
         aria-label="walk" />
      <path
         id="rect155"
         style="fill:#dddddd;stroke-width:0.464998;stroke-linecap:square;stroke-miterlimit:40;paint-order:fill markers stroke"
         transform="rotate(90)"
         d="m 574.98126,-31.130005 h 1.0395 v 6.633122 h -1.0395 z" />
      <path
         id="rect156"
         style="fill:#a8cbfe;stroke-width:0.465001;stroke-linecap:square;stroke-miterlimit:40;paint-order:fill markers stroke"
         d="M 47.706975,573.10638 H 57.1887 c 0.407142,0 0.734914,0.32778 0.734914,0.73492 v 3.18453 c 0,0.40714 -0.327772,0.73492 -0.734914,0.73492 h -9.481725 c -0.407142,0 -0.734914,-0.32778 -0.734914,-0.73492 v -3.18453 c 0,-0.40714 0.327772,-0.73492 0.734914,-0.73492 z" />
      <path
         d="m 50.657498,574.81717 q -0.137583,0.51505 -0.324556,0.98777 -0.183444,0.47273 -0.356305,0.84667 h -0.296334 q -0.172861,-0.37394 -0.359834,-0.84667 -0.183444,-0.47272 -0.321028,-0.98777 h 0.352778 q 0.04233,0.17286 0.09878,0.37041 0.05997,0.19403 0.123473,0.38806 0.06703,0.1905 0.134055,0.37042 0.06703,0.17991 0.127,0.32102 0.05997,-0.14111 0.127,-0.32102 0.06703,-0.17992 0.130528,-0.37042 0.06703,-0.19403 0.123473,-0.38806 0.05997,-0.19755 0.102305,-0.37041 z m 0.186962,0.92075 q 0,-0.24342 0.07056,-0.42334 0.07055,-0.18344 0.186972,-0.30339 0.116417,-0.11994 0.268111,-0.17991 0.151695,-0.06 0.310445,-0.06 0.370417,0 0.567973,0.23284 0.197555,0.2293 0.197555,0.70203 0,0.0212 0,0.0564 0,0.0317 -0.0035,0.06 h -1.255889 q 0.02117,0.28575 0.165805,0.43392 0.144639,0.14817 0.451556,0.14817 0.172861,0 0.289278,-0.0282 0.119945,-0.0317 0.179917,-0.06 l 0.04586,0.27517 q -0.05997,0.0317 -0.211667,0.067 -0.148166,0.0353 -0.338667,0.0353 -0.239889,0 -0.416278,-0.0706 -0.172861,-0.0741 -0.28575,-0.20108 -0.112889,-0.127 -0.169333,-0.29987 -0.05292,-0.17638 -0.05292,-0.38452 z m 1.259418,-0.17992 q 0.0035,-0.22225 -0.112889,-0.36336 Q 51.8781,575.05 51.677016,575.05 q -0.112889,0 -0.201083,0.0459 -0.08467,0.0423 -0.144639,0.11289 -0.05997,0.0706 -0.09525,0.16228 -0.03175,0.0917 -0.04233,0.18697 z m 1.492244,-0.77964 q 0.04233,0 0.09525,0.007 0.05644,0.004 0.109361,0.0141 0.05292,0.007 0.09525,0.0176 0.04586,0.007 0.06703,0.0141 l -0.05644,0.28575 q -0.03881,-0.0141 -0.130528,-0.0317 -0.08819,-0.0212 -0.229306,-0.0212 -0.09172,0 -0.183445,0.0212 -0.08819,0.0176 -0.116416,0.0247 v 1.54164 h -0.328084 v -1.75683 q 0.116417,-0.0423 0.289278,-0.0776 0.172861,-0.0388 0.388056,-0.0388 z m 1.012472,0.11994 q 0.05997,-0.0388 0.179916,-0.0811 0.123473,-0.0423 0.282223,-0.0423 0.197555,0 0.34925,0.0706 0.155222,0.0706 0.261056,0.19755 0.105833,0.127 0.15875,0.30339 0.05644,0.17639 0.05644,0.38806 0,0.22225 -0.06703,0.40217 -0.0635,0.17638 -0.183445,0.29986 -0.119945,0.12347 -0.289278,0.1905 -0.169333,0.067 -0.381,0.067 -0.229306,0 -0.405695,-0.0317 -0.176389,-0.0317 -0.289278,-0.0635 v -2.62819 l 0.328084,-0.0565 z m 0,1.46756 q 0.04939,0.0141 0.137583,0.0282 0.09172,0.0106 0.225778,0.0106 0.264583,0 0.423334,-0.17286 0.15875,-0.17639 0.15875,-0.49742 0,-0.14111 -0.02822,-0.26458 -0.02822,-0.12348 -0.09172,-0.21167 -0.0635,-0.0917 -0.165806,-0.14111 -0.09878,-0.0529 -0.239889,-0.0529 -0.134055,0 -0.246944,0.0459 -0.112889,0.0459 -0.172861,0.0953 z"
         id="text156"
         style="font-size:3.52778px;line-height:1.25;font-family:Ubuntu;-inkscape-font-specification:'Ubuntu, Normal';stroke-width:0.264583"
         aria-label="verb" />
      <path
         d="m 38.16434,597.01221 q -0.135047,0.0338 -0.180867,0.0651 -0.04341,0.0289 -0.06029,0.0844 l -0.532957,1.77492 q -0.01929,0.0699 -0.08923,0.11575 -0.06752,0.0434 -0.142282,0.0651 -0.07476,0.0241 -0.115755,0.0338 l -0.684885,-1.56993 0.10852,-0.74518 q 0,0 0.06994,0 0.07235,0 0.101286,0 l 0.605304,1.46382 0.347265,-1.13826 q 0.01688,-0.0555 -0.01447,-0.0892 -0.02894,-0.0338 -0.195337,-0.0603 v -0.17605 h 0.783759 z m -2.225876,1.92443 q -0.02412,0.0747 -0.08923,0.11816 -0.06511,0.0434 -0.13746,0.0651 -0.06994,0.0217 -0.113343,0.0313 l -0.648712,-1.98955 q -0.03135,-0.0965 -0.262861,-0.14951 v -0.17605 h 1.09244 v 0.17605 q -0.207394,0.0241 -0.24598,0.0651 -0.03617,0.0386 -0.01929,0.0844 l 0.361735,1.13826 0.576365,-1.46382 q 0.03376,0 0.101285,0 0.06752,0 0.06752,0 l 0.01447,0.39791 z m 4.635032,-0.12782 q -0.135047,0.0941 -0.279741,0.17122 -0.144694,0.0772 -0.262861,0.12299 -0.118167,0.0482 -0.178456,0.0482 -0.09887,0 -0.163987,-0.12541 -0.0627,-0.12781 -0.0627,-0.34244 v -1.26125 q 0,-0.14952 -0.06752,-0.24839 -0.06511,-0.0989 -0.24598,-0.0965 -0.115756,0 -0.217041,0.082 -0.101286,0.082 -0.08682,0.22669 0.0024,0.0241 -0.08199,0.0603 -0.08199,0.0338 -0.20016,0.0675 -0.115755,0.0313 -0.217041,0.0531 -0.09887,0.0193 -0.127813,0.0121 l -0.05064,-0.13022 q 0.07717,-0.19051 0.267684,-0.34486 0.190514,-0.15675 0.443728,-0.24839 0.253215,-0.0916 0.520899,-0.0916 0.330384,0 0.484725,0.1664 0.156752,0.1664 0.156752,0.41238 v 1.16238 q 0,0.1881 0.09646,0.1881 0.03376,0 0.07717,-0.0121 0.04582,-0.0145 0.142283,-0.053 z m -0.92363,-0.87057 q -0.303857,0.0482 -0.429259,0.0965 -0.12299,0.0458 -0.188102,0.11093 -0.0627,0.0627 -0.101286,0.13505 -0.03858,0.0723 -0.03858,0.17363 0,0.16399 0.07958,0.21946 0.08199,0.0555 0.144694,0.0555 0.09405,0 0.217041,-0.053 0.125401,-0.0531 0.315915,-0.22187 l 0.01929,0.2701 q -0.226688,0.24357 -0.450963,0.33521 -0.224276,0.0916 -0.388263,0.0916 -0.132636,0 -0.260449,-0.0627 -0.125402,-0.0603 -0.207395,-0.18327 -0.08199,-0.12541 -0.08199,-0.3111 0,-0.16398 0.06029,-0.27733 0.06029,-0.11575 0.147106,-0.20498 0.07958,-0.0796 0.197748,-0.14952 0.118167,-0.0699 0.342443,-0.13505 0.224275,-0.0651 0.622184,-0.1254 z m 1.068324,1.14067 v -0.17605 q 0.207395,-0.0362 0.274919,-0.0723 0.06752,-0.0362 0.06752,-0.0748 v -2.7299 q 0,-0.14228 -0.02412,-0.20498 -0.02412,-0.0627 -0.09164,-0.082 -0.06752,-0.0217 -0.202572,-0.0362 v -0.16881 q 0.241157,-0.0338 0.422024,-0.0747 0.180868,-0.041 0.371382,-0.11817 l 0.103697,0.0989 v 3.31591 q 0,0.0362 0.07235,0.0748 0.07476,0.0386 0.272507,0.0723 v 0.17605 z m 3.995967,-2.06671 q -0.106109,0.01 -0.212218,0.0506 -0.106109,0.0386 -0.209806,0.11575 l -0.928453,0.70418 -0.313504,-0.0724 0.655946,-0.58601 q 0.103698,-0.0941 0.113344,-0.13987 0.0096,-0.0458 -0.04341,-0.0579 -0.05306,-0.0145 -0.13746,-0.0145 v -0.17605 h 1.075559 z m -2.541792,2.06671 v -0.17605 q 0.159164,-0.041 0.238746,-0.0723 0.08199,-0.0313 0.08199,-0.0748 v -2.7299 q 0,-0.14228 -0.02412,-0.20498 -0.0217,-0.0627 -0.08923,-0.082 -0.06752,-0.0217 -0.207395,-0.0362 v -0.16881 q 0.233922,-0.0338 0.431671,-0.0772 0.197748,-0.0434 0.359323,-0.11575 l 0.108521,0.0989 v 3.31591 q 0,0.0362 0.04341,0.0651 0.04341,0.0265 0.221864,0.082 v 0.17605 z m 2.626197,-0.0796 q -0.09405,0.0217 -0.214629,0.0458 -0.120579,0.0241 -0.221864,0.041 -0.09887,0.0169 -0.132637,0.0169 -0.20016,0 -0.296622,-0.12781 l -0.877811,-1.16479 0.41479,-0.18328 0.962215,1.09244 q 0.06752,0.0796 0.139871,0.0965 0.07235,0.0169 0.212218,0.007 z"
         id="text157"
         style="font-weight:bold;font-size:4.93889px;line-height:1.25;font-family:'Gentium Plus';-inkscape-font-specification:'Gentium Plus, Bold';fill:#094bac;stroke-width:0.264583"
         aria-label="walk" />
      <path
         id="rect157"
         style="fill:#dddddd;stroke-width:0.464998;stroke-linecap:square;stroke-miterlimit:40;paint-order:fill markers stroke"
         transform="rotate(90)"
         d="m 597.20636,-31.130005 h 1.0395 v 6.633122 h -1.0395 z" />
      <path
         id="rect158"
         style="fill:#a8cbfe;stroke-width:0.465001;stroke-linecap:square;stroke-miterlimit:40;paint-order:fill markers stroke"
         d="M 47.706975,595.33148 H 57.1887 c 0.407142,0 0.734914,0.32777 0.734914,0.73492 v 3.18453 c 0,0.40714 -0.327772,0.73491 -0.734914,0.73491 h -9.481725 c -0.407142,0 -0.734914,-0.32777 -0.734914,-0.73491 v -3.18453 c 0,-0.40715 0.327772,-0.73492 0.734914,-0.73492 z" />
      <path
         d="m 48.696052,597.09518 q 0.112889,-0.0282 0.299862,-0.06 0.186972,-0.0317 0.430389,-0.0317 0.218722,0 0.363361,0.0635 0.144639,0.06 0.229306,0.17286 0.08819,0.10936 0.123472,0.26458 0.03528,0.15522 0.03528,0.3422 v 1.03011 h -0.328084 v -0.95956 q 0,-0.16933 -0.02469,-0.28928 -0.02117,-0.11994 -0.07408,-0.19402 -0.05292,-0.0741 -0.141111,-0.10584 -0.08819,-0.0353 -0.218722,-0.0353 -0.05292,0 -0.109361,0.004 -0.05644,0.004 -0.109361,0.0106 -0.04939,0.004 -0.09172,0.0106 -0.0388,0.007 -0.05644,0.0106 v 1.5487 h -0.328084 z m 3.644195,0.86431 q 0,0.21872 -0.0635,0.39511 -0.0635,0.17639 -0.179917,0.30339 -0.112889,0.127 -0.271639,0.19755 -0.15875,0.067 -0.345722,0.067 -0.186973,0 -0.345723,-0.067 -0.15875,-0.0706 -0.275167,-0.19755 -0.112889,-0.127 -0.176389,-0.30339 -0.0635,-0.17639 -0.0635,-0.39511 0,-0.2152 0.0635,-0.39159 0.0635,-0.17991 0.176389,-0.30691 0.116417,-0.127 0.275167,-0.19403 0.15875,-0.0706 0.345723,-0.0706 0.186972,0 0.345722,0.0706 0.15875,0.067 0.271639,0.19403 0.116417,0.127 0.179917,0.30691 0.0635,0.17639 0.0635,0.39159 z m -0.342195,0 q 0,-0.31045 -0.141111,-0.49037 -0.137583,-0.18344 -0.377472,-0.18344 -0.23989,0 -0.381001,0.18344 -0.137583,0.17992 -0.137583,0.49037 0,0.31044 0.137583,0.49389 0.141111,0.17991 0.381001,0.17991 0.239889,0 0.377472,-0.17991 0.141111,-0.18345 0.141111,-0.49389 z m 2.264829,0.8643 q -0.112889,0.0282 -0.299862,0.06 -0.183444,0.0317 -0.426861,0.0317 -0.211667,0 -0.356306,-0.06 -0.144639,-0.0635 -0.232833,-0.17639 -0.08819,-0.11289 -0.127,-0.26458 -0.03881,-0.15522 -0.03881,-0.34219 v -1.03012 h 0.328084 v 0.95956 q 0,0.33514 0.105833,0.47978 0.105833,0.14464 0.356306,0.14464 0.05292,0 0.109361,-0.004 0.05644,-0.004 0.105833,-0.007 0.04939,-0.007 0.08819,-0.0106 0.04233,-0.007 0.05997,-0.0141 v -1.5487 h 0.328084 z m 0.564443,-1.72861 q 0.112889,-0.0282 0.299861,-0.06 0.186972,-0.0317 0.430389,-0.0317 0.218722,0 0.363361,0.0635 0.144639,0.06 0.229306,0.17286 0.08819,0.10936 0.123472,0.26458 0.03528,0.15522 0.03528,0.3422 v 1.03011 h -0.328083 v -0.95956 q 0,-0.16933 -0.0247,-0.28928 -0.02117,-0.11994 -0.07408,-0.19402 -0.05292,-0.0741 -0.141111,-0.10584 -0.08819,-0.0353 -0.218723,-0.0353 -0.05292,0 -0.109361,0.004 -0.05644,0.004 -0.109361,0.0106 -0.04939,0.004 -0.09172,0.0106 -0.03881,0.007 -0.05645,0.0106 v 1.5487 h -0.328083 z"
         id="text158"
         style="font-size:3.52778px;line-height:1.25;font-family:Ubuntu;-inkscape-font-specification:'Ubuntu, Normal';stroke-width:0.264583"
         aria-label="noun" />
    </g>
  </g>
</svg>
