<?xml version="1.0" encoding="UTF-8" standalone="no"?>
<!-- Created with Inkscape (http://www.inkscape.org/) -->

<svg
   width="236.29439mm"
   height="51.065712mm"
   viewBox="0 0 236.29439 51.065712"
   version="1.1"
   id="svg1"
   inkscape:version="1.3.1 (9b9bdc1480, 2023-11-25, custom)"
   sodipodi:docname="fig6a.svg"
   xmlns:inkscape="http://www.inkscape.org/namespaces/inkscape"
   xmlns:sodipodi="http://sodipodi.sourceforge.net/DTD/sodipodi-0.dtd"
   xmlns="http://www.w3.org/2000/svg"
   xmlns:svg="http://www.w3.org/2000/svg">
  <sodipodi:namedview
     id="namedview1"
     pagecolor="#ffffff"
     bordercolor="#666666"
     borderopacity="1.0"
     inkscape:showpageshadow="2"
     inkscape:pageopacity="0.0"
     inkscape:pagecheckerboard="0"
     inkscape:deskcolor="#d1d1d1"
     inkscape:document-units="mm"
     inkscape:zoom="0.58618126"
     inkscape:cx="446.96073"
     inkscape:cy="95.53359"
     inkscape:window-width="1558"
     inkscape:window-height="836"
     inkscape:window-x="42"
     inkscape:window-y="27"
     inkscape:window-maximized="1"
     inkscape:current-layer="layer1" />
  <defs
     id="defs1" />
  <g
     inkscape:label="Layer 1"
     inkscape:groupmode="layer"
     id="layer1"
     transform="translate(12.964583,-123.03126)">
    <path
       id="rect11"
       style="fill:#ffffff;stroke-width:0.365001;stroke-linecap:square;stroke-miterlimit:40;stroke-dasharray:0.365001, 0.365001;paint-order:fill markers stroke"
       d="M -12.432588,123.03126 H 222.79781 c 0.29472,0 0.53199,0.23727 0.53199,0.53199 v 50.00172 c 0,0.29473 -0.23727,0.532 -0.53199,0.532 H -12.432588 c -0.294725,0 -0.531995,-0.23727 -0.531995,-0.532 v -50.00172 c 0,-0.29472 0.23727,-0.53199 0.531995,-0.53199 z" />
    <g
       id="g10"
       transform="translate(32.732404,-382.81692)">
      <path
         d="m 24.925867,513.5032 q -0.173633,0.0434 -0.232544,0.0837 -0.05581,0.0372 -0.07751,0.10852 l -0.685229,2.28204 q -0.02481,0.0899 -0.114722,0.14882 -0.08682,0.0558 -0.182934,0.0837 -0.09612,0.031 -0.148828,0.0434 l -0.880567,-2.01848 0.139527,-0.95808 q 0,0 0.08992,0 0.09302,0 0.130224,0 l 0.778247,1.88205 0.446485,-1.46348 q 0.0217,-0.0713 -0.0186,-0.11472 -0.03721,-0.0434 -0.251147,-0.0775 v -0.22634 h 1.00769 z m -2.861841,2.47427 q -0.03101,0.0961 -0.114721,0.15192 -0.08372,0.0558 -0.176734,0.0837 -0.08992,0.0279 -0.145727,0.0403 l -0.834058,-2.55799 q -0.04031,-0.12402 -0.337964,-0.19223 v -0.22634 h 1.404566 v 0.22634 q -0.266651,0.031 -0.31626,0.0837 -0.04651,0.0496 -0.02481,0.10852 l 0.465088,1.46348 0.74104,-1.88205 q 0.04341,0 0.130225,0 0.08682,0 0.08682,0 l 0.0186,0.51159 z m 5.959326,-0.16434 q -0.173633,0.12093 -0.359668,0.22015 -0.186035,0.0992 -0.337964,0.15813 -0.151928,0.062 -0.229443,0.062 -0.127124,0 -0.21084,-0.16123 -0.08061,-0.16433 -0.08061,-0.44029 v -1.6216 q 0,-0.19224 -0.08682,-0.31936 -0.08372,-0.12713 -0.31626,-0.12403 -0.148828,0 -0.279053,0.10542 -0.130224,0.10542 -0.111621,0.29146 0.0031,0.031 -0.10542,0.0775 -0.10542,0.0434 -0.257349,0.0868 -0.148828,0.0403 -0.279052,0.0682 -0.127124,0.0248 -0.164331,0.0155 l -0.06511,-0.16744 q 0.09922,-0.24494 0.344165,-0.44338 0.244947,-0.20154 0.570508,-0.31936 0.325562,-0.11782 0.669727,-0.11782 0.42478,0 0.623218,0.21394 0.201538,0.21394 0.201538,0.5302 v 1.49448 q 0,0.24185 0.124023,0.24185 0.04341,0 0.09922,-0.0155 0.05891,-0.0186 0.182934,-0.0682 z m -1.187524,-1.11931 q -0.390674,0.062 -0.551904,0.12403 -0.15813,0.0589 -0.241846,0.14262 -0.08062,0.0806 -0.130225,0.17364 -0.04961,0.093 -0.04961,0.22324 0,0.21084 0.102319,0.28215 0.10542,0.0713 0.186035,0.0713 0.120923,0 0.279053,-0.0682 0.161231,-0.0682 0.406177,-0.28525 l 0.02481,0.34726 q -0.291455,0.31316 -0.57981,0.43099 -0.288354,0.11782 -0.499194,0.11782 -0.170533,0 -0.334864,-0.0806 -0.16123,-0.0775 -0.26665,-0.23564 -0.10542,-0.16123 -0.10542,-0.39998 0,-0.21084 0.07752,-0.35656 0.07751,-0.14883 0.189135,-0.26355 0.10232,-0.10232 0.254249,-0.19224 0.151928,-0.0899 0.440283,-0.17363 0.288354,-0.0837 0.799951,-0.16123 z m 1.373559,1.46658 v -0.22634 q 0.266651,-0.0465 0.353467,-0.093 0.08682,-0.0465 0.08682,-0.0961 v -3.50986 q 0,-0.18294 -0.03101,-0.26355 -0.03101,-0.0806 -0.117823,-0.10542 -0.08682,-0.0279 -0.260449,-0.0465 v -0.21704 q 0.310059,-0.0434 0.542603,-0.0961 0.232544,-0.0527 0.47749,-0.15193 l 0.133325,0.12713 v 4.2633 q 0,0.0465 0.09302,0.0961 0.09612,0.0496 0.350366,0.093 v 0.22634 z m 5.137671,-2.6572 q -0.136426,0.0124 -0.272851,0.0651 -0.136426,0.0496 -0.269751,0.14883 l -1.193726,0.90537 -0.403076,-0.093 0.843359,-0.75344 q 0.133326,-0.12092 0.145728,-0.17983 0.0124,-0.0589 -0.05581,-0.0744 -0.06821,-0.0186 -0.176733,-0.0186 v -0.22634 h 1.382861 z m -3.268017,2.6572 v -0.22634 q 0.204638,-0.0527 0.306958,-0.093 0.10542,-0.0403 0.10542,-0.0961 v -3.50986 q 0,-0.18294 -0.03101,-0.26355 -0.02791,-0.0806 -0.114722,-0.10542 -0.08682,-0.0279 -0.26665,-0.0465 v -0.21704 q 0.300757,-0.0434 0.555005,-0.0992 0.254248,-0.0558 0.461987,-0.14883 l 0.139526,0.12713 v 4.2633 q 0,0.0465 0.05581,0.0837 0.05581,0.0341 0.285254,0.10542 v 0.22634 z m 3.376538,-0.10232 q -0.120923,0.0279 -0.275952,0.0589 -0.15503,0.031 -0.285254,0.0527 -0.127124,0.0217 -0.170533,0.0217 -0.257348,0 -0.381372,-0.16433 l -1.128613,-1.49759 0.533301,-0.23564 1.237134,1.40456 q 0.08682,0.10232 0.179834,0.12403 0.09302,0.0217 0.272851,0.009 z"
         id="text134"
         style="font-weight:bold;font-size:6.35px;line-height:1.25;font-family:'Gentium Plus';-inkscape-font-specification:'Gentium Plus, Bold';fill:#094bac;stroke-width:0.264583"
         aria-label="walk" />
      <path
         d="m 44.404812,524.34005 h 0.833965 v 0.3302 h -0.833965 v 1.016 q 0,0.1651 0.0254,0.27517 0.0254,0.10583 0.0762,0.16933 0.0508,0.0593 0.127,0.0847 0.0762,0.0254 0.1778,0.0254 0.1778,0 0.283633,-0.0381 0.110067,-0.0423 0.1524,-0.0593 l 0.0762,0.32597 q -0.05927,0.0296 -0.207433,0.072 -0.148167,0.0466 -0.338666,0.0466 -0.224367,0 -0.372533,-0.055 -0.143934,-0.0593 -0.232834,-0.17357 -0.0889,-0.1143 -0.126999,-0.2794 -0.03387,-0.16933 -0.03387,-0.38947 v -1.96426 l 0.3937,-0.0677 z m 3.217316,1.10067 q 0,0.26246 -0.0762,0.47413 -0.0762,0.21167 -0.2159,0.36407 -0.135466,0.1524 -0.325966,0.23706 -0.1905,0.0804 -0.414866,0.0804 -0.224367,0 -0.414867,-0.0804 -0.190499,-0.0847 -0.330199,-0.23706 -0.135467,-0.1524 -0.211667,-0.36407 -0.0762,-0.21167 -0.0762,-0.47413 0,-0.25824 0.0762,-0.4699 0.0762,-0.2159 0.211667,-0.3683 0.1397,-0.1524 0.330199,-0.23284 0.1905,-0.0847 0.414867,-0.0847 0.224366,0 0.414866,0.0847 0.1905,0.0804 0.325966,0.23284 0.1397,0.1524 0.2159,0.3683 0.0762,0.21166 0.0762,0.4699 z m -0.410633,0 q 0,-0.37254 -0.169333,-0.58844 -0.1651,-0.22013 -0.452966,-0.22013 -0.287867,0 -0.4572,0.22013 -0.1651,0.2159 -0.1651,0.58844 0,0.37253 0.1651,0.59266 0.169333,0.2159 0.4572,0.2159 0.287866,0 0.452966,-0.2159 0.169333,-0.22013 0.169333,-0.59266 z m 1.943086,-1.03717 q 0.135467,-0.0339 0.3556,-0.072 0.224367,-0.0381 0.516466,-0.0381 0.211667,0 0.3556,0.0593 0.143933,0.055 0.2413,0.1651 0.02963,-0.0212 0.09313,-0.0593 0.0635,-0.0381 0.156633,-0.072 0.09313,-0.0381 0.207434,-0.0635 0.114299,-0.0296 0.245533,-0.0296 0.253999,0 0.414866,0.0762 0.160867,0.072 0.249766,0.20744 0.09313,0.13546 0.122767,0.32173 0.03387,0.18627 0.03387,0.4064 v 1.23613 h -0.3937 v -1.15146 q 0,-0.19474 -0.02117,-0.33444 -0.01693,-0.1397 -0.07197,-0.23283 -0.0508,-0.0931 -0.143933,-0.13547 -0.0889,-0.0466 -0.232834,-0.0466 -0.198966,0 -0.330199,0.055 -0.127,0.0508 -0.173567,0.0931 0.03387,0.11007 0.0508,0.2413 0.01693,0.13124 0.01693,0.27517 v 1.23613 h -0.393699 v -1.15146 q 0,-0.19474 -0.02117,-0.33444 -0.02117,-0.1397 -0.0762,-0.23283 -0.0508,-0.0931 -0.143933,-0.13547 -0.0889,-0.0466 -0.2286,-0.0466 -0.05927,0 -0.127,0.004 -0.06773,0.004 -0.131233,0.0127 -0.05927,0.004 -0.110067,0.0127 -0.0508,0.008 -0.06773,0.0127 v 1.85843 h -0.3937 z m 5.587988,1.03717 q 0,0.26246 -0.0762,0.47413 -0.0762,0.21167 -0.2159,0.36407 -0.135467,0.1524 -0.325966,0.23706 -0.1905,0.0804 -0.414867,0.0804 -0.224366,0 -0.414866,-0.0804 -0.1905,-0.0847 -0.3302,-0.23706 -0.135466,-0.1524 -0.211666,-0.36407 -0.0762,-0.21167 -0.0762,-0.47413 0,-0.25824 0.0762,-0.4699 0.0762,-0.2159 0.211666,-0.3683 0.1397,-0.1524 0.3302,-0.23284 0.1905,-0.0847 0.414866,-0.0847 0.224367,0 0.414867,0.0847 0.190499,0.0804 0.325966,0.23284 0.1397,0.1524 0.2159,0.3683 0.0762,0.21166 0.0762,0.4699 z m -0.410633,0 q 0,-0.37254 -0.169333,-0.58844 -0.1651,-0.22013 -0.452967,-0.22013 -0.287866,0 -0.457199,0.22013 -0.1651,0.2159 -0.1651,0.58844 0,0.37253 0.1651,0.59266 0.169333,0.2159 0.457199,0.2159 0.287867,0 0.452967,-0.2159 0.169333,-0.22013 0.169333,-0.59266 z m 2.624649,-1.10067 q -0.1651,0.61807 -0.389466,1.18533 -0.220133,0.56727 -0.427566,1.016 h -0.3556 q -0.207433,-0.44873 -0.4318,-1.016 -0.220133,-0.56726 -0.385233,-1.18533 h 0.423333 q 0.0508,0.20743 0.118534,0.4445 0.07197,0.23283 0.148166,0.46567 0.08043,0.2286 0.160867,0.4445 0.08043,0.2159 0.1524,0.38523 0.07197,-0.16933 0.152399,-0.38523 0.08043,-0.2159 0.156634,-0.4445 0.08043,-0.23284 0.148166,-0.46567 0.07197,-0.23707 0.122767,-0.4445 z m 0.224354,1.1049 q 0,-0.2921 0.08467,-0.508 0.08467,-0.22013 0.224366,-0.36407 0.1397,-0.14393 0.321733,-0.2159 0.182033,-0.072 0.372533,-0.072 0.4445,0 0.681566,0.2794 0.237067,0.27516 0.237067,0.84243 0,0.0254 0,0.0677 0,0.0381 -0.0042,0.072 h -1.507065 q 0.0254,0.3429 0.198967,0.5207 0.173566,0.1778 0.541866,0.1778 0.207433,0 0.347133,-0.0339 0.143933,-0.0381 0.2159,-0.072 l 0.05503,0.3302 q -0.07197,0.0381 -0.254,0.0804 -0.1778,0.0423 -0.4064,0.0423 -0.287866,0 -0.499532,-0.0847 -0.207434,-0.0889 -0.3429,-0.2413 -0.135467,-0.1524 -0.2032,-0.35984 -0.0635,-0.21166 -0.0635,-0.46143 z m 1.511299,-0.2159 q 0.0042,-0.2667 -0.135467,-0.43603 -0.135466,-0.17357 -0.376766,-0.17357 -0.135467,0 -0.2413,0.055 -0.1016,0.0508 -0.173566,0.13547 -0.07197,0.0847 -0.1143,0.19473 -0.0381,0.11007 -0.0508,0.22437 z m 3.898885,0.21167 q 0,0.26246 -0.0762,0.47413 -0.0762,0.21167 -0.215899,0.36407 -0.135467,0.1524 -0.325967,0.23706 -0.1905,0.0804 -0.414866,0.0804 -0.224367,0 -0.414866,-0.0804 -0.1905,-0.0847 -0.3302,-0.23706 -0.135467,-0.1524 -0.211667,-0.36407 -0.0762,-0.21167 -0.0762,-0.47413 0,-0.25824 0.0762,-0.4699 0.0762,-0.2159 0.211667,-0.3683 0.1397,-0.1524 0.3302,-0.23284 0.190499,-0.0847 0.414866,-0.0847 0.224366,0 0.414866,0.0847 0.1905,0.0804 0.325967,0.23284 0.139699,0.1524 0.215899,0.3683 0.0762,0.21166 0.0762,0.4699 z m -0.410633,0 q 0,-0.37254 -0.169333,-0.58844 -0.1651,-0.22013 -0.452966,-0.22013 -0.287867,0 -0.4572,0.22013 -0.1651,0.2159 -0.1651,0.58844 0,0.37253 0.1651,0.59266 0.169333,0.2159 0.4572,0.2159 0.287866,0 0.452966,-0.2159 0.169333,-0.22013 0.169333,-0.59266 z m 0.965191,-1.03717 q 0.135466,-0.0339 0.359833,-0.072 0.224366,-0.0381 0.516466,-0.0381 0.262467,0 0.436033,0.0762 0.173567,0.072 0.275167,0.20744 0.105833,0.13123 0.148166,0.3175 0.04233,0.18626 0.04233,0.41063 v 1.23613 H 64.52998 v -1.15146 q 0,-0.2032 -0.02963,-0.34714 -0.0254,-0.14393 -0.0889,-0.23283 -0.0635,-0.0889 -0.169333,-0.127 -0.105833,-0.0423 -0.262466,-0.0423 -0.0635,0 -0.131233,0.004 -0.06773,0.004 -0.131234,0.0127 -0.05927,0.004 -0.110066,0.0127 -0.04657,0.008 -0.06773,0.0127 v 1.85843 h -0.3937 z m 4.267189,-1.14723 q 0.173567,0 0.296333,0.0254 0.127,0.0254 0.1778,0.0466 l -0.07197,0.33867 q -0.0508,-0.0254 -0.143934,-0.0466 -0.09313,-0.0254 -0.228599,-0.0254 -0.275167,0 -0.385233,0.1524 -0.110067,0.14817 -0.110067,0.40217 v 0.1905 h 0.846666 v 0.3302 h -0.846666 v 1.87113 h -0.3937 v -2.4003 q 0,-0.42333 0.207434,-0.65193 0.207433,-0.23283 0.651932,-0.23283 z m 0.651932,2.18863 q 0,-0.2921 0.08467,-0.508 0.08467,-0.22013 0.224367,-0.36407 0.1397,-0.14393 0.321733,-0.2159 0.182033,-0.072 0.372533,-0.072 0.444499,0 0.681566,0.2794 0.237066,0.27516 0.237066,0.84243 0,0.0254 0,0.0677 0,0.0381 -0.0042,0.072 h -1.507065 q 0.0254,0.3429 0.198966,0.5207 0.173567,0.1778 0.541866,0.1778 0.207433,0 0.347133,-0.0339 0.143934,-0.0381 0.2159,-0.072 l 0.05503,0.3302 q -0.07197,0.0381 -0.253999,0.0804 -0.1778,0.0423 -0.4064,0.0423 -0.287866,0 -0.499533,-0.0847 -0.207433,-0.0889 -0.3429,-0.2413 -0.135466,-0.1524 -0.203199,-0.35984 -0.0635,-0.21166 -0.0635,-0.46143 z m 1.511298,-0.2159 q 0.0042,-0.2667 -0.135466,-0.43603 -0.135467,-0.17357 -0.376767,-0.17357 -0.135466,0 -0.241299,0.055 -0.1016,0.0508 -0.173567,0.13547 -0.07197,0.0847 -0.1143,0.19473 -0.0381,0.11007 -0.0508,0.22437 z m 0.855126,0.2159 q 0,-0.2921 0.08467,-0.508 0.08467,-0.22013 0.224366,-0.36407 0.1397,-0.14393 0.321733,-0.2159 0.182033,-0.072 0.372533,-0.072 0.4445,0 0.681566,0.2794 0.237067,0.27516 0.237067,0.84243 0,0.0254 0,0.0677 0,0.0381 -0.0042,0.072 h -1.507066 q 0.0254,0.3429 0.198967,0.5207 0.173566,0.1778 0.541866,0.1778 0.207433,0 0.347133,-0.0339 0.143933,-0.0381 0.2159,-0.072 l 0.05503,0.3302 q -0.07197,0.0381 -0.254,0.0804 -0.1778,0.0423 -0.406399,0.0423 -0.287867,0 -0.499533,-0.0847 -0.207434,-0.0889 -0.3429,-0.2413 -0.135467,-0.1524 -0.2032,-0.35984 -0.0635,-0.21166 -0.0635,-0.46143 z m 1.511299,-0.2159 q 0.0042,-0.2667 -0.135467,-0.43603 -0.135466,-0.17357 -0.376766,-0.17357 -0.135467,0 -0.2413,0.055 -0.1016,0.0508 -0.173566,0.13547 -0.07197,0.0847 -0.1143,0.19473 -0.0381,0.11007 -0.0508,0.22437 z m 1.34619,-0.889 h 0.833966 v 0.3302 h -0.833966 v 1.016 q 0,0.1651 0.0254,0.27517 0.0254,0.10583 0.0762,0.16933 0.0508,0.0593 0.127,0.0847 0.0762,0.0254 0.1778,0.0254 0.1778,0 0.283633,-0.0381 0.110066,-0.0423 0.1524,-0.0593 l 0.0762,0.32597 q -0.05927,0.0296 -0.207434,0.072 -0.148166,0.0466 -0.338666,0.0466 -0.224366,0 -0.372533,-0.055 -0.143933,-0.0593 -0.232833,-0.17357 -0.0889,-0.1143 -0.127,-0.2794 -0.03387,-0.16933 -0.03387,-0.38947 v -1.96426 l 0.3937,-0.0677 z"
         id="text136"
         style="font-size:4.23333px;line-height:1.25;font-family:Ubuntu;-inkscape-font-specification:'Ubuntu, Normal';stroke-width:0.264583"
         aria-label="to move on feet" />
      <path
         id="rect136"
         style="fill:#999999;stroke-width:0.465;stroke-linecap:square;stroke-miterlimit:40;paint-order:fill markers stroke"
         d="m 23.288132,523.84033 h 2.196578 v 2.50828 h -2.196578 z" />
      <path
         d="m 31.971257,530.80145 -0.02239,0.16347 q -0.293349,0.0649 -0.304546,0.13884 l -0.304546,2.21916 q -0.0022,0.0269 0.05822,0.0672 0.0627,0.0381 0.208256,0.0694 l -0.02239,0.16347 H 30.49779 l 0.02239,-0.16347 q 0.29111,-0.0627 0.302307,-0.1366 l 0.302307,-2.21916 q 0.0045,-0.0269 -0.05822,-0.0672 -0.0627,-0.0403 -0.206017,-0.0717 l 0.02239,-0.16347 z m 3.945667,0.89573 q 0,0.0896 -0.03807,0.21273 -0.03807,0.12316 -0.132119,0.3247 -0.09181,0.1993 -0.257521,0.51281 -0.16347,0.31126 -0.420991,0.77704 -0.02463,0.0134 -0.103008,0.0537 -0.07838,0.0403 -0.156752,0.0806 -0.07838,0.0426 -0.107487,0.056 l -0.09181,-0.0873 q -0.04926,-0.3762 -0.103008,-0.72553 -0.05374,-0.34934 -0.111965,-0.55535 -0.04031,0.15899 -0.174667,0.47473 -0.132119,0.31351 -0.338136,0.67851 -0.02687,0.0134 -0.114205,0.0605 -0.08733,0.047 -0.174666,0.0941 -0.08733,0.047 -0.118684,0.0605 l -0.08733,-0.0873 q -0.02239,-0.19034 -0.04702,-0.42323 -0.02239,-0.23288 -0.04703,-0.45905 -0.02463,-0.22617 -0.04702,-0.3986 -0.02239,-0.17243 -0.03807,-0.24185 -0.02687,-0.12092 -0.0739,-0.15227 -0.04479,-0.0313 -0.08509,-0.0313 -0.02687,0 -0.08062,0.0157 -0.05374,0.0134 -0.09853,0.0269 -0.04255,0.0112 -0.04255,0.0112 l -0.04926,-0.15003 q 0.12988,-0.0672 0.275435,-0.13436 0.145555,-0.0694 0.264239,-0.11644 0.118683,-0.047 0.165709,-0.047 0.0627,0 0.09405,0.0739 0.03359,0.0717 0.06942,0.23289 0.01568,0.0716 0.03807,0.23512 0.02463,0.16347 0.04702,0.35829 0.02463,0.19482 0.04255,0.36501 0.01792,0.17019 0.02239,0.25304 0.120923,-0.23065 0.219453,-0.47025 0.09853,-0.23961 0.158991,-0.44562 0.06046,-0.20602 0.06718,-0.34038 0.06046,-0.056 0.145556,-0.11644 0.08733,-0.0605 0.167948,-0.10301 0.08286,-0.0426 0.12988,-0.0426 0.01344,0 0.03807,0.0784 0.02463,0.0761 0.05374,0.19706 0.02911,0.11868 0.05598,0.24856 0.02687,0.12764 0.04479,0.22841 0.03359,0.21049 0.06942,0.42323 0.03807,0.21049 0.05374,0.37172 0.232888,-0.41651 0.353811,-0.69418 0.123162,-0.27768 0.123162,-0.41204 0,-0.10076 -0.123162,-0.10076 -0.08062,0 -0.188102,0.0336 l -0.05598,-0.15004 q 0.165709,-0.10301 0.344854,-0.16347 0.179145,-0.0605 0.273196,-0.0605 0.0739,0 0.12988,0.0291 0.05822,0.0291 0.05822,0.14108 z m 2.187808,1.68844 q -0.190341,0.13436 -0.360529,0.23289 -0.170188,0.0963 -0.248564,0.0963 -0.05374,0 -0.12764,-0.0582 -0.07166,-0.056 -0.125402,-0.20154 -0.05374,-0.14556 -0.05374,-0.41204 0,-0.0515 0.01344,-0.1657 0.01568,-0.11421 0.03807,-0.25977 0.02239,-0.14555 0.04479,-0.29111 0.02463,-0.14555 0.04479,-0.25976 0.02015,-0.11644 0.02911,-0.16794 0.01568,-0.0694 0.120923,-0.1366 0.105248,-0.0672 0.237367,-0.12764 0.134359,-0.0605 0.235128,-0.10749 l 0.06942,0.14556 q -0.0739,0.0627 -0.107487,0.1142 -0.03135,0.0493 -0.06046,0.20154 -0.06942,0.32022 -0.107487,0.59118 -0.03583,0.26871 -0.03583,0.36724 0,0.15452 0.03135,0.25529 0.03359,0.0985 0.08733,0.0985 0.04479,0 0.09629,-0.0112 0.05374,-0.0134 0.143316,-0.0515 z m -0.219452,-1.60111 q -0.0627,0.0448 -0.120923,0.14332 -0.05822,0.0985 -0.107487,0.18138 -0.04926,0.0829 -0.08957,0.0829 -0.02911,0 -0.08285,-0.0515 -0.05374,-0.0537 -0.123162,-0.12092 -0.06942,-0.0694 -0.147795,-0.12092 -0.07614,-0.0538 -0.150034,-0.0538 -0.141076,0.004 -0.246324,0.0985 -0.105248,0.0918 -0.174666,0.23737 -0.06942,0.14332 -0.105248,0.30231 -0.03359,0.15899 -0.03359,0.29111 0,0.2508 0.06718,0.3762 0.06718,0.12316 0.150034,0.12316 0.0739,0 0.214973,-0.14331 0.143316,-0.14556 0.320222,-0.41428 l -0.04031,0.43219 q -0.09405,0.1366 -0.212734,0.26648 -0.116444,0.12988 -0.244085,0.21497 -0.125402,0.0851 -0.253042,0.0851 -0.107487,0 -0.226171,-0.0784 -0.118683,-0.0761 -0.201538,-0.24632 -0.08285,-0.17019 -0.08285,-0.4501 0,-0.35382 0.174666,-0.66956 0.174666,-0.31574 0.490409,-0.53295 0.120923,-0.0829 0.291111,-0.14556 0.170187,-0.0649 0.35829,-0.0649 0.116444,0 0.228409,0.0627 0.114205,0.0605 0.203778,0.1254 0.09181,0.0627 0.143316,0.0694 z m 1.390612,1.59215 q -0.219453,0.13884 -0.438905,0.23961 -0.217213,0.0985 -0.35829,0.0985 -0.06046,0 -0.111966,-0.0694 -0.04926,-0.0672 -0.04926,-0.19706 0,-0.0739 0.02687,-0.27096 0.02687,-0.19706 0.06718,-0.46801 0.04255,-0.27096 0.08957,-0.56879 0.04927,-0.29783 0.08957,-0.57774 0.04255,-0.27991 0.06942,-0.49713 0.02687,-0.21721 0.02687,-0.32246 0,-0.10301 -0.03583,-0.1254 -0.03583,-0.0246 -0.07838,-0.0246 -0.02687,0 -0.09629,0.0201 -0.06718,0.0202 -0.120923,0.0403 l -0.04031,-0.15451 q 0.125402,-0.056 0.29335,-0.12093 0.170188,-0.0649 0.315743,-0.11196 0.145555,-0.047 0.201538,-0.047 0.0627,0 0.09853,0.0403 0.03807,0.0403 0.03807,0.14332 0,0.11644 -0.02687,0.33589 -0.02687,0.21722 -0.06942,0.49489 -0.04255,0.27768 -0.08957,0.57326 -0.04703,0.29559 -0.08957,0.56879 -0.04255,0.2732 -0.06942,0.48369 -0.02687,0.20826 -0.02687,0.30903 0,0.0761 0.02015,0.10524 0.02239,0.0269 0.05822,0.0269 0.0515,0 0.111966,-0.0157 0.06046,-0.0179 0.158991,-0.0582 z m 2.349037,-1.68172 q 0,0.0672 -0.190341,0.22841 -0.188102,0.16123 -0.523999,0.36501 l -0.463537,0.28439 -0.311265,-0.0784 0.45682,-0.33813 q 0.179145,-0.13212 0.273196,-0.21498 0.09629,-0.0829 0.09629,-0.1254 0,-0.056 -0.217213,-0.047 l -0.01791,-0.15452 q 0.181384,-0.0269 0.358289,-0.0493 0.179145,-0.0246 0.320222,-0.0246 0.132119,0 0.174666,0.0403 0.04479,0.0403 0.04479,0.11421 z m -1.128613,-1.24506 q 0,0.14332 -0.03359,0.40084 -0.03359,0.25528 -0.08509,0.57102 -0.04927,0.31575 -0.105248,0.64492 -0.05374,0.32694 -0.09853,0.62029 -0.04255,0.29335 -0.0627,0.50385 -0.01791,0.21049 0.0045,0.28663 -0.03135,0.0157 -0.105247,0.0493 -0.07166,0.0336 -0.156752,0.0716 -0.08509,0.0381 -0.156752,0.0694 -0.07166,0.0313 -0.09853,0.047 l -0.09629,-0.0873 q 0.0112,-0.0851 0.04479,-0.29782 0.03583,-0.21274 0.08286,-0.49937 0.04926,-0.28663 0.09853,-0.60014 0.0515,-0.31574 0.09405,-0.61133 0.04479,-0.29559 0.07166,-0.52624 0.02911,-0.23065 0.02911,-0.34261 0,-0.11197 -0.02911,-0.13436 -0.02687,-0.0224 -0.07838,-0.0224 -0.03359,0 -0.109727,0.0246 -0.07614,0.0224 -0.116444,0.0358 l -0.04031,-0.15451 q 0.09405,-0.0426 0.217213,-0.0896 0.123162,-0.0493 0.244085,-0.0918 0.123162,-0.0448 0.217213,-0.0717 0.09629,-0.0269 0.136598,-0.0269 0.0627,0 0.09629,0.0358 0.03583,0.0358 0.03583,0.19482 z m 1.090545,2.92006 q -0.09853,0.0829 -0.214974,0.16123 -0.116444,0.0784 -0.221692,0.12764 -0.105247,0.0515 -0.170187,0.0515 -0.09629,0 -0.188102,-0.10525 -0.09181,-0.10749 -0.179145,-0.27096 -0.08733,-0.16347 -0.167949,-0.33589 -0.08062,-0.17467 -0.158991,-0.31351 -0.07614,-0.13883 -0.150034,-0.19034 l 0.396358,-0.12092 q 0.07838,0.047 0.152274,0.15451 0.07614,0.10749 0.147794,0.23961 0.07166,0.12988 0.138838,0.25304 0.06718,0.12092 0.12988,0.20154 0.06494,0.0784 0.125401,0.0784 0.05822,0 0.136598,-0.0157 0.07838,-0.0179 0.152273,-0.0582 z m 1.820561,-1.44883 q 0,0.0985 -0.04703,0.21721 -0.04479,0.11869 -0.188102,0.25528 -0.143316,0.13436 -0.432187,0.2844 -0.288871,0.15003 -0.777041,0.30678 l -0.01567,-0.23289 q 0.306786,-0.12316 0.48593,-0.21945 0.181385,-0.0985 0.270957,-0.17914 0.08957,-0.0806 0.116444,-0.15452 0.02687,-0.0761 0.02687,-0.16123 0,-0.10301 -0.04702,-0.15451 -0.04479,-0.0537 -0.107487,-0.0537 -0.03583,0 -0.109727,0.0381 -0.0739,0.0381 -0.12988,0.10524 -0.120923,0.14108 -0.19482,0.3247 -0.07166,0.18363 -0.07166,0.42995 0,0.29335 0.100769,0.46802 0.103009,0.17242 0.235128,0.17242 0.09405,0 0.275435,-0.0873 0.183624,-0.0873 0.45458,-0.30455 0.02463,0.0134 0.06046,0.0784 0.03583,0.0649 0.04255,0.0806 -0.367247,0.32022 -0.606854,0.4501 -0.239606,0.12988 -0.438905,0.12988 -0.123162,0 -0.275435,-0.0761 -0.150034,-0.0739 -0.25976,-0.24184 -0.107487,-0.17019 -0.107487,-0.45235 0,-0.35157 0.16347,-0.64044 0.163469,-0.29111 0.445623,-0.52624 0.100769,-0.0829 0.279914,-0.16571 0.181384,-0.0851 0.358289,-0.0851 0.253043,0 0.371726,0.1254 0.120923,0.12316 0.120923,0.26872 z m 2.302012,1.46899 q -0.190342,0.12764 -0.362769,0.22617 -0.170187,0.0985 -0.25752,0.0985 -0.05598,0 -0.127641,-0.0627 -0.06942,-0.0605 -0.120923,-0.20826 -0.0515,-0.15003 -0.0515,-0.40755 0,-0.0672 0.02239,-0.23289 0.02239,-0.16571 0.05822,-0.38964 0.03583,-0.22393 0.07614,-0.47026 0.04031,-0.24632 0.0739,-0.48145 0.03583,-0.23513 0.05822,-0.42323 0.02463,-0.19034 0.02463,-0.29559 0,-0.10301 -0.03135,-0.1254 -0.02911,-0.0246 -0.06942,-0.0246 -0.02911,0 -0.09853,0.0201 -0.06942,0.0202 -0.125402,0.0403 l -0.03583,-0.15451 q 0.152273,-0.0739 0.311265,-0.1366 0.158991,-0.0649 0.284392,-0.10301 0.127641,-0.0403 0.181384,-0.0403 0.0739,0 0.114205,0.0403 0.04255,0.0403 0.04255,0.14332 0,0.11644 -0.02687,0.31798 -0.02687,0.20154 -0.06942,0.4501 -0.04031,0.24856 -0.08733,0.5128 -0.04479,0.26424 -0.08733,0.50833 -0.04031,0.24408 -0.06718,0.43666 -0.02687,0.19034 -0.02687,0.29111 0,0.37621 0.118684,0.37621 0.05598,0 0.109726,-0.0112 0.05374,-0.0134 0.13212,-0.047 z m -0.273196,-1.54961 -0.270957,0.38964 q -0.04031,0 -0.09629,-0.056 -0.05374,-0.0582 -0.118684,-0.13436 -0.06494,-0.0784 -0.143316,-0.1366 -0.07614,-0.0582 -0.163469,-0.0582 -0.141077,0 -0.246325,0.0941 -0.103008,0.094 -0.172427,0.23961 -0.06718,0.14332 -0.100769,0.30455 -0.03359,0.15899 -0.03359,0.29111 0,0.2508 0.06942,0.3762 0.06942,0.12316 0.16347,0.12316 0.06718,0 0.201538,-0.12764 0.136598,-0.12764 0.333657,-0.44338 l -0.0515,0.4501 q -0.181384,0.27096 -0.367247,0.41651 -0.183623,0.14556 -0.340375,0.14556 -0.118684,0 -0.237367,-0.0829 -0.118684,-0.0829 -0.199299,-0.25976 -0.08062,-0.1769 -0.08062,-0.45458 0,-0.35381 0.170188,-0.66059 0.170187,-0.30903 0.488169,-0.51952 0.123163,-0.0806 0.29559,-0.14556 0.174666,-0.0649 0.338136,-0.0649 0.0627,0 0.134358,0.047 0.07166,0.047 0.145556,0.10972 0.0739,0.0627 0.145555,0.10973 0.07166,0.047 0.136598,0.047 z m 3.453018,1.54513 q -0.190341,0.13436 -0.360529,0.23289 -0.170188,0.0963 -0.248564,0.0963 -0.05374,0 -0.12764,-0.0582 -0.07166,-0.056 -0.125402,-0.20154 -0.05374,-0.14556 -0.05374,-0.41204 0,-0.0515 0.01344,-0.1657 0.01567,-0.11421 0.03807,-0.25977 0.02239,-0.14555 0.04479,-0.29111 0.02463,-0.14555 0.04479,-0.25976 0.02015,-0.11644 0.02911,-0.16794 0.01568,-0.0694 0.120923,-0.1366 0.105248,-0.0672 0.237367,-0.12764 0.134359,-0.0605 0.235128,-0.10749 l 0.06942,0.14556 q -0.0739,0.0627 -0.107487,0.1142 -0.03135,0.0493 -0.06046,0.20154 -0.06942,0.32022 -0.107487,0.59118 -0.03583,0.26871 -0.03583,0.36724 0,0.15452 0.03135,0.25529 0.03359,0.0985 0.08733,0.0985 0.04479,0 0.09629,-0.0112 0.05374,-0.0134 0.143316,-0.0515 z m -0.219452,-1.60111 q -0.0627,0.0448 -0.120923,0.14332 -0.05822,0.0985 -0.107487,0.18138 -0.04927,0.0829 -0.08957,0.0829 -0.02911,0 -0.08285,-0.0515 -0.05374,-0.0537 -0.123162,-0.12092 -0.06942,-0.0694 -0.147795,-0.12092 -0.07614,-0.0538 -0.150034,-0.0538 -0.141076,0.004 -0.246324,0.0985 -0.105248,0.0918 -0.174666,0.23737 -0.06942,0.14332 -0.105248,0.30231 -0.03359,0.15899 -0.03359,0.29111 0,0.2508 0.06718,0.3762 0.06718,0.12316 0.150034,0.12316 0.0739,0 0.214973,-0.14331 0.143316,-0.14556 0.320222,-0.41428 l -0.04031,0.43219 q -0.09405,0.1366 -0.212734,0.26648 -0.116444,0.12988 -0.244085,0.21497 -0.125402,0.0851 -0.253042,0.0851 -0.107487,0 -0.226171,-0.0784 -0.118683,-0.0761 -0.201538,-0.24632 -0.08285,-0.17019 -0.08285,-0.4501 0,-0.35382 0.174666,-0.66956 0.174666,-0.31574 0.490409,-0.53295 0.120923,-0.0829 0.291111,-0.14556 0.170187,-0.0649 0.358289,-0.0649 0.116445,0 0.22841,0.0627 0.114205,0.0605 0.203778,0.1254 0.09181,0.0627 0.143316,0.0694 z m 2.261705,-0.004 q -0.0627,0.0627 -0.154512,0.14556 -0.09181,0.0806 -0.179145,0.14107 -0.08733,0.0582 -0.134359,0.0582 -0.04703,0 -0.09853,-0.0694 -0.0515,-0.0694 -0.116444,-0.13884 -0.06494,-0.0717 -0.152273,-0.0717 -0.16347,0 -0.275435,0.14108 -0.111966,0.13884 -0.172427,0.34933 -0.05822,0.20826 -0.05822,0.41875 0,0.28887 0.08957,0.45234 0.09181,0.16123 0.232888,0.16123 0.118684,0 0.288872,-0.0873 0.172427,-0.0896 0.412033,-0.28663 0.01791,0.0224 0.05822,0.0829 0.04255,0.0582 0.0515,0.0761 -0.351572,0.31798 -0.591178,0.44114 -0.237367,0.12093 -0.438905,0.12093 -0.127641,0 -0.275436,-0.0717 -0.145555,-0.0717 -0.250802,-0.24856 -0.105248,-0.17915 -0.105248,-0.49265 0,-0.30231 0.132119,-0.60686 0.134359,-0.30454 0.463538,-0.52399 0.125401,-0.0829 0.322461,-0.16347 0.197059,-0.0806 0.385161,-0.0806 0.13212,0 0.22841,0.0537 0.09629,0.0515 0.176906,0.11421 0.08061,0.0605 0.16123,0.0851 z m 1.92357,-0.0605 q -0.02911,0.0358 -0.0739,0.11197 -0.04479,0.0761 -0.09405,0.15899 -0.04927,0.0829 -0.09181,0.14107 -0.04031,0.0582 -0.0627,0.0582 -0.05598,0 -0.105248,-0.0426 -0.04927,-0.0426 -0.09629,-0.0851 -0.04479,-0.0448 -0.08733,-0.0448 -0.07838,0 -0.176905,0.0985 -0.09853,0.0963 -0.190342,0.26648 -0.09181,0.16795 -0.154512,0.38292 -0.04926,0.16795 -0.07838,0.35381 -0.02911,0.18586 -0.02239,0.36277 -0.04703,0.0202 -0.154513,0.0694 -0.107487,0.047 -0.210495,0.0941 -0.103008,0.0493 -0.141077,0.0694 l -0.08957,-0.0873 q 0.06494,-0.31798 0.118683,-0.627 0.05374,-0.31127 0.08509,-0.55983 0.03135,-0.2508 0.03135,-0.38516 0,-0.10301 -0.02687,-0.1254 -0.02687,-0.0246 -0.06494,-0.0246 -0.03135,0 -0.105248,0.0224 -0.0739,0.0202 -0.107487,0.0313 l -0.04031,-0.15004 q 0.12764,-0.0582 0.29111,-0.12316 0.165709,-0.0649 0.306786,-0.11196 0.141077,-0.047 0.19482,-0.047 0.0627,0 0.08286,0.047 0.02239,0.0448 0.02239,0.1769 0,0.047 -0.01344,0.15899 -0.01344,0.10973 -0.02687,0.19482 0.145555,-0.23513 0.262,-0.36053 0.118683,-0.1254 0.221691,-0.17018 0.103009,-0.047 0.199299,-0.047 0.07838,0 0.188102,0.0761 0.111966,0.0761 0.210496,0.11644 z m 1.780252,0.65164 q 0,0.29783 -0.147794,0.60238 -0.147795,0.3023 -0.398598,0.50832 -0.116444,0.0963 -0.277675,0.16347 -0.158991,0.0694 -0.293349,0.0694 -0.232889,0 -0.400837,-0.11197 -0.167948,-0.1142 -0.257521,-0.30902 -0.08957,-0.19706 -0.08957,-0.44115 0,-0.32022 0.12764,-0.60013 0.12988,-0.27992 0.429948,-0.51057 0.116444,-0.0896 0.275435,-0.15227 0.158992,-0.0627 0.309025,-0.0627 0.351572,0 0.537435,0.23737 0.185863,0.23512 0.185863,0.60685 z m -0.521759,0.17467 q 0,-0.34038 -0.107487,-0.524 -0.105248,-0.18363 -0.248564,-0.18363 -0.172427,0 -0.275435,0.13212 -0.100769,0.13212 -0.145556,0.32694 -0.04255,0.19258 -0.04255,0.38293 0,0.19929 0.05374,0.36724 0.05598,0.16571 0.141077,0.26424 0.08733,0.0985 0.181384,0.0985 0.123162,0 0.208256,-0.0806 0.08509,-0.0829 0.136598,-0.21274 0.0515,-0.13212 0.0739,-0.28215 0.02463,-0.15004 0.02463,-0.28887 z m 2.37143,-0.81287 q -0.0515,0.0672 -0.118683,0.15003 -0.06718,0.0806 -0.127641,0.13884 -0.05822,0.0582 -0.08733,0.0582 -0.03583,0 -0.08062,-0.0448 -0.04255,-0.0448 -0.09853,-0.103 -0.05374,-0.0605 -0.120923,-0.10525 -0.06494,-0.0448 -0.145555,-0.0448 -0.123162,0 -0.190342,0.0649 -0.06494,0.0649 -0.06494,0.17019 0,0.10525 0.09181,0.18362 0.09181,0.0784 0.273196,0.17019 0.120923,0.0627 0.235128,0.14332 0.114205,0.0784 0.185863,0.19034 0.0739,0.11196 0.0739,0.27095 0,0.15452 -0.09405,0.28888 -0.09181,0.13435 -0.239607,0.23512 -0.145555,0.10077 -0.313503,0.15676 -0.165709,0.0582 -0.311264,0.0582 -0.190342,0 -0.342615,-0.0605 -0.152273,-0.0582 -0.241846,-0.13884 -0.08957,-0.0829 -0.08957,-0.14556 0,-0.0314 0.03135,-0.0985 0.03135,-0.0672 0.07614,-0.13883 0.04479,-0.0739 0.08733,-0.1254 0.04479,-0.0515 0.06718,-0.0515 0.02911,0 0.06718,0.0717 0.03807,0.0717 0.09853,0.16795 0.06046,0.094 0.154513,0.16571 0.09629,0.0716 0.237367,0.0716 0.145555,0 0.230649,-0.0806 0.08733,-0.0829 0.08733,-0.21274 0,-0.15227 -0.141077,-0.26199 -0.138837,-0.11197 -0.306785,-0.19706 -0.237367,-0.11869 -0.322461,-0.24633 -0.08286,-0.12988 -0.08286,-0.27319 0,-0.14108 0.08062,-0.25753 0.08061,-0.11644 0.210495,-0.19929 0.132119,-0.0851 0.282153,-0.12988 0.150034,-0.047 0.288871,-0.047 0.158991,0 0.273196,0.0448 0.114205,0.0448 0.203778,0.0941 0.09181,0.0493 0.183623,0.0672 z m 1.7601,0 q -0.05151,0.0672 -0.118684,0.15003 -0.06718,0.0806 -0.127641,0.13884 -0.05822,0.0582 -0.08733,0.0582 -0.03583,0 -0.08062,-0.0448 -0.04255,-0.0448 -0.09853,-0.103 -0.05374,-0.0605 -0.120923,-0.10525 -0.06494,-0.0448 -0.145555,-0.0448 -0.123162,0 -0.190341,0.0649 -0.06494,0.0649 -0.06494,0.17019 0,0.10525 0.09181,0.18362 0.09181,0.0784 0.273196,0.17019 0.120923,0.0627 0.235128,0.14332 0.114205,0.0784 0.185863,0.19034 0.0739,0.11196 0.0739,0.27095 0,0.15452 -0.09405,0.28888 -0.09181,0.13435 -0.239606,0.23512 -0.145555,0.10077 -0.313504,0.15676 -0.165709,0.0582 -0.311264,0.0582 -0.190342,0 -0.342615,-0.0605 -0.152273,-0.0582 -0.241845,-0.13884 -0.08957,-0.0829 -0.08957,-0.14556 0,-0.0314 0.03135,-0.0985 0.03135,-0.0672 0.07614,-0.13883 0.04479,-0.0739 0.08733,-0.1254 0.04479,-0.0515 0.06718,-0.0515 0.02911,0 0.06718,0.0717 0.03807,0.0717 0.09853,0.16795 0.06046,0.094 0.154512,0.16571 0.09629,0.0716 0.237367,0.0716 0.145555,0 0.230649,-0.0806 0.08733,-0.0829 0.08733,-0.21274 0,-0.15227 -0.141076,-0.26199 -0.138838,-0.11197 -0.306786,-0.19706 -0.237367,-0.11869 -0.322461,-0.24633 -0.08285,-0.12988 -0.08285,-0.27319 0,-0.14108 0.08062,-0.25753 0.08062,-0.11644 0.210495,-0.19929 0.13212,-0.0851 0.282153,-0.12988 0.150034,-0.047 0.288872,-0.047 0.158991,0 0.273196,0.0448 0.114205,0.0448 0.203777,0.0941 0.09181,0.0493 0.183624,0.0672 z m 2.534899,-0.0582 q -0.03135,0.0425 -0.09405,0.10525 -0.0627,0.0627 -0.125402,0.11645 -0.0627,0.0537 -0.08957,0.0694 -0.02687,-0.0627 -0.105248,-0.0806 -0.07838,-0.0201 -0.221692,-0.0201 h -0.835263 l -0.0515,-0.0873 0.268717,-0.18138 H 60.7173 Z m -0.136598,1.60111 q -0.246325,0.19482 -0.483692,0.31798 -0.237367,0.12093 -0.360529,0.12093 -0.136598,0 -0.25976,-0.1254 -0.120923,-0.12764 -0.120923,-0.3247 0,-0.0851 0.0045,-0.17243 0.0067,-0.0896 0.02687,-0.21274 l 0.217213,-1.3615 q 0.02687,-0.17466 0.06046,-0.23065 0.03359,-0.056 0.09405,-0.0873 l 0.427709,-0.21049 0.0627,0.056 q -0.01792,0.0157 -0.0515,0.11868 -0.03135,0.10077 -0.0627,0.30231 l -0.190342,1.20699 q -0.01344,0.0873 -0.02015,0.18362 -0.0067,0.0963 -0.0067,0.14108 0,0.13884 0.04031,0.19706 0.04255,0.0582 0.105248,0.0582 0.138837,0 0.456819,-0.14332 z m 2.413978,0.10077 q -0.138837,0.0806 -0.288871,0.15899 -0.150034,0.0784 -0.282153,0.12764 -0.12988,0.0515 -0.212735,0.0515 -0.06494,0 -0.116444,-0.0717 -0.0515,-0.0694 -0.0515,-0.19034 -0.0022,-0.047 0.01568,-0.17019 0.02015,-0.12316 0.04703,-0.28439 0.02687,-0.16123 0.0515,-0.32246 0.02687,-0.16347 0.04479,-0.29335 0.02015,-0.13212 0.02015,-0.19258 0,-0.14556 -0.02687,-0.19035 -0.02687,-0.047 -0.08509,-0.047 -0.05822,0 -0.203777,0.0784 -0.145555,0.0761 -0.273196,0.28887 -0.0627,0.10524 -0.105248,0.26871 -0.04255,0.16123 -0.0739,0.36053 -0.03807,0.24633 -0.04479,0.35605 -0.0067,0.10749 -0.0067,0.17691 -0.02911,0.0134 -0.100769,0.0448 -0.06942,0.0313 -0.154513,0.0694 -0.08285,0.0381 -0.152273,0.0694 -0.06942,0.0336 -0.09629,0.0493 l -0.09181,-0.0873 q 0.02687,-0.15899 0.06718,-0.40531 0.04255,-0.24856 0.08957,-0.53968 0.04703,-0.29334 0.09405,-0.59341 0.04703,-0.30007 0.08509,-0.57103 0.03807,-0.27319 0.06046,-0.47697 0.02463,-0.20378 0.02463,-0.29783 0,-0.10301 -0.02911,-0.1254 -0.02687,-0.0246 -0.0627,-0.0246 -0.03583,0 -0.118684,0.0246 -0.08062,0.0224 -0.123162,0.0358 l -0.03583,-0.15451 q 0.125401,-0.056 0.291111,-0.12093 0.165709,-0.0649 0.309025,-0.11196 0.143315,-0.047 0.199298,-0.047 0.06046,0 0.103009,0.0403 0.04479,0.0403 0.04479,0.14332 0,0.0627 -0.01792,0.21497 -0.01791,0.15003 -0.04702,0.34709 -0.02687,0.19482 -0.05822,0.3986 -0.03135,0.20154 -0.05822,0.37173 -0.02687,0.17018 -0.04255,0.26871 0.261999,-0.25976 0.492648,-0.36724 0.230649,-0.10973 0.432187,-0.10973 0.141077,0 0.214974,0.0717 0.0739,0.0717 0.0739,0.28887 0,0.11644 -0.02911,0.29559 -0.02911,0.1769 -0.06494,0.36948 -0.03583,0.19259 -0.06494,0.35829 -0.02687,0.16571 -0.02687,0.25753 0,0.0761 0.02015,0.10524 0.02015,0.0269 0.06046,0.0269 0.06046,0 0.114205,-0.0179 0.05598,-0.0201 0.132119,-0.056 z m 1.910132,-1.45555 q 0,0.0985 -0.04703,0.21721 -0.04479,0.11869 -0.188102,0.25528 -0.143316,0.13436 -0.432187,0.2844 -0.288871,0.15003 -0.777041,0.30678 l -0.01567,-0.23289 q 0.306786,-0.12316 0.48593,-0.21945 0.181385,-0.0985 0.270957,-0.17914 0.08957,-0.0806 0.116444,-0.15452 0.02687,-0.0761 0.02687,-0.16123 0,-0.10301 -0.04703,-0.15451 -0.04479,-0.0537 -0.107487,-0.0537 -0.03583,0 -0.109727,0.0381 -0.0739,0.0381 -0.12988,0.10524 -0.120923,0.14108 -0.19482,0.3247 -0.07166,0.18363 -0.07166,0.42995 0,0.29335 0.100769,0.46802 0.103009,0.17242 0.235128,0.17242 0.09405,0 0.275435,-0.0873 0.183624,-0.0873 0.454581,-0.30455 0.02463,0.0134 0.06046,0.0784 0.03583,0.0649 0.04255,0.0806 -0.367247,0.32022 -0.606854,0.4501 -0.239606,0.12988 -0.438905,0.12988 -0.123162,0 -0.275435,-0.0761 -0.150034,-0.0739 -0.25976,-0.24184 -0.107487,-0.17019 -0.107487,-0.45235 0,-0.35157 0.16347,-0.64044 0.163469,-0.29111 0.445623,-0.52624 0.100769,-0.0829 0.279914,-0.16571 0.181384,-0.0851 0.358289,-0.0851 0.253043,0 0.371726,0.1254 0.120923,0.12316 0.120923,0.26872 z m 3.005155,-0.20154 q -0.02911,0.0358 -0.0739,0.11197 -0.04479,0.0761 -0.09405,0.15899 -0.04927,0.0829 -0.09181,0.14107 -0.04031,0.0582 -0.0627,0.0582 -0.05598,0 -0.105248,-0.0426 -0.04927,-0.0426 -0.09629,-0.0851 -0.04479,-0.0448 -0.08733,-0.0448 -0.07837,0 -0.176905,0.0985 -0.09853,0.0963 -0.190342,0.26648 -0.09181,0.16795 -0.154512,0.38292 -0.04927,0.16795 -0.07838,0.35381 -0.02911,0.18586 -0.02239,0.36277 -0.04703,0.0202 -0.154513,0.0694 -0.107487,0.047 -0.210495,0.0941 -0.103008,0.0493 -0.141077,0.0694 l -0.08957,-0.0873 q 0.06494,-0.31798 0.118683,-0.627 0.05374,-0.31127 0.08509,-0.55983 0.03135,-0.2508 0.03135,-0.38516 0,-0.10301 -0.02687,-0.1254 -0.02687,-0.0246 -0.06494,-0.0246 -0.03135,0 -0.105248,0.0224 -0.0739,0.0202 -0.107487,0.0313 l -0.04031,-0.15004 q 0.12764,-0.0582 0.29111,-0.12316 0.165709,-0.0649 0.306786,-0.11196 0.141076,-0.047 0.19482,-0.047 0.0627,0 0.08285,0.047 0.02239,0.0448 0.02239,0.1769 0,0.047 -0.01344,0.15899 -0.01344,0.10973 -0.02687,0.19482 0.145555,-0.23513 0.261999,-0.36053 0.118684,-0.1254 0.221692,-0.17018 0.103009,-0.047 0.199299,-0.047 0.07838,0 0.188102,0.0761 0.111966,0.0761 0.210495,0.11644 z m 1.130855,-0.9226 q 0,0.0829 -0.04703,0.17243 -0.04479,0.0873 -0.132119,0.15004 -0.08733,0.0605 -0.214974,0.0605 -0.118683,0 -0.174666,-0.056 -0.05374,-0.0582 -0.05374,-0.13435 0,-0.0806 0.04479,-0.17019 0.04703,-0.0896 0.134359,-0.15228 0.08957,-0.0627 0.212735,-0.0627 0.120923,0 0.174666,0.0582 0.05598,0.0582 0.05598,0.13435 z m -0.0515,2.57969 q -0.141077,0.0829 -0.286632,0.16123 -0.145555,0.0784 -0.273196,0.12764 -0.125402,0.0493 -0.208256,0.0493 -0.0739,0 -0.127641,-0.0717 -0.05374,-0.0694 -0.05374,-0.19034 0,-0.0806 0.02015,-0.22393 0.02015,-0.14556 0.05151,-0.31799 0.03135,-0.17466 0.0627,-0.34485 0.03135,-0.17243 0.0515,-0.30902 0.02015,-0.1366 0.02015,-0.20154 0,-0.10301 -0.02463,-0.1254 -0.02463,-0.0246 -0.06718,-0.0246 -0.02687,0 -0.09181,0.0179 -0.06494,0.0179 -0.114205,0.0358 l -0.04031,-0.15004 q 0.125402,-0.0582 0.286632,-0.12316 0.16347,-0.0649 0.302307,-0.11196 0.138837,-0.047 0.19482,-0.047 0.0627,0 0.09629,0.0426 0.03583,0.0425 0.03583,0.14555 0,0.0784 -0.02239,0.22617 -0.02239,0.14556 -0.05374,0.3247 -0.03135,0.17691 -0.06494,0.35605 -0.03135,0.17691 -0.05374,0.32246 -0.02239,0.14556 -0.02239,0.22394 0,0.13211 0.06718,0.13211 0.06942,0 0.125401,-0.0157 0.05822,-0.0179 0.147795,-0.0582 z m 2.243788,-1.66157 q 0,0.0963 -0.09405,0.29783 -0.09405,0.20154 -0.311265,0.56655 -0.214974,0.365 -0.582221,0.95394 -0.02463,0.0134 -0.103008,0.0538 -0.07838,0.0381 -0.158991,0.0761 -0.07838,0.0381 -0.107487,0.0515 l -0.08957,-0.0873 q -0.02463,-0.1881 -0.0627,-0.40755 -0.03807,-0.22169 -0.08062,-0.43891 -0.04031,-0.21721 -0.08062,-0.39411 -0.03807,-0.17915 -0.06942,-0.28216 -0.03583,-0.12092 -0.07838,-0.15227 -0.04255,-0.0313 -0.08285,-0.0313 -0.03135,0 -0.103008,0.0202 -0.06942,0.0202 -0.116444,0.0336 l -0.05374,-0.15003 q 0.125402,-0.0627 0.270957,-0.13212 0.145555,-0.0694 0.261999,-0.11644 0.118684,-0.0493 0.165709,-0.0493 0.06494,0 0.105248,0.0627 0.04255,0.0627 0.08957,0.22169 0.02015,0.0694 0.04926,0.20826 0.03135,0.13884 0.06494,0.30902 0.03359,0.17019 0.0627,0.33366 0.02911,0.16347 0.04703,0.28439 0.02015,0.11869 0.02239,0.15228 0.206017,-0.3247 0.311264,-0.55311 0.105248,-0.22841 0.141077,-0.36277 0.03583,-0.13436 0.03583,-0.17691 0,-0.10972 -0.123162,-0.10972 -0.0739,0 -0.161231,0.0336 l -0.04927,-0.14556 q 0.09405,-0.0515 0.230649,-0.11196 0.138838,-0.0605 0.268718,-0.10301 0.12988,-0.0426 0.197059,-0.0426 0.07838,0 0.12988,0.0426 0.05374,0.0403 0.05374,0.14555 z m 1.813845,0.20602 q 0,0.0985 -0.04702,0.21721 -0.04479,0.11869 -0.188102,0.25528 -0.143316,0.13436 -0.432187,0.2844 -0.288872,0.15003 -0.777042,0.30678 l -0.01568,-0.23289 q 0.306786,-0.12316 0.485931,-0.21945 0.181384,-0.0985 0.270957,-0.17914 0.08957,-0.0806 0.116444,-0.15452 0.02687,-0.0761 0.02687,-0.16123 0,-0.10301 -0.04703,-0.15451 -0.04479,-0.0537 -0.107487,-0.0537 -0.03583,0 -0.109726,0.0381 -0.0739,0.0381 -0.12988,0.10524 -0.120923,0.14108 -0.19482,0.3247 -0.07166,0.18363 -0.07166,0.42995 0,0.29335 0.100769,0.46802 0.103008,0.17242 0.235127,0.17242 0.09405,0 0.275436,-0.0873 0.183623,-0.0873 0.45458,-0.30455 0.02463,0.0134 0.06046,0.0784 0.03583,0.0649 0.04255,0.0806 -0.367247,0.32022 -0.606853,0.4501 -0.239607,0.12988 -0.438905,0.12988 -0.123162,0 -0.275436,-0.0761 -0.150033,-0.0739 -0.25976,-0.24184 -0.107487,-0.17019 -0.107487,-0.45235 0,-0.35157 0.16347,-0.64044 0.16347,-0.29111 0.445623,-0.52624 0.100769,-0.0829 0.279914,-0.16571 0.181384,-0.0851 0.35829,-0.0851 0.253042,0 0.371726,0.1254 0.120922,0.12316 0.120922,0.26872 z m 2.087038,-0.20154 q -0.02911,0.0358 -0.0739,0.11197 -0.04479,0.0761 -0.09405,0.15899 -0.04926,0.0829 -0.09181,0.14107 -0.04031,0.0582 -0.0627,0.0582 -0.05598,0 -0.105248,-0.0426 -0.04926,-0.0426 -0.09629,-0.0851 -0.04479,-0.0448 -0.08733,-0.0448 -0.07838,0 -0.176905,0.0985 -0.09853,0.0963 -0.190342,0.26648 -0.09181,0.16795 -0.154512,0.38292 -0.04926,0.16795 -0.07838,0.35381 -0.02911,0.18586 -0.02239,0.36277 -0.04703,0.0202 -0.154513,0.0694 -0.107487,0.047 -0.210495,0.0941 -0.103008,0.0493 -0.141077,0.0694 l -0.08957,-0.0873 q 0.06494,-0.31798 0.118683,-0.627 0.05374,-0.31127 0.08509,-0.55983 0.03135,-0.2508 0.03135,-0.38516 0,-0.10301 -0.02687,-0.1254 -0.02687,-0.0246 -0.06494,-0.0246 -0.03135,0 -0.105248,0.0224 -0.0739,0.0202 -0.107487,0.0313 l -0.04031,-0.15004 q 0.12764,-0.0582 0.29111,-0.12316 0.165709,-0.0649 0.306786,-0.11196 0.141076,-0.047 0.19482,-0.047 0.0627,0 0.08285,0.047 0.02239,0.0448 0.02239,0.1769 0,0.047 -0.01344,0.15899 -0.01344,0.10973 -0.02687,0.19482 0.145555,-0.23513 0.261999,-0.36053 0.118684,-0.1254 0.221692,-0.17018 0.103009,-0.047 0.199299,-0.047 0.07838,0 0.188102,0.0761 0.111966,0.0761 0.210495,0.11644 z m 0.257519,1.52945 q 0,0.10077 -0.04927,0.20378 -0.04703,0.10077 -0.141076,0.17019 -0.09181,0.0694 -0.226171,0.0694 -0.138837,0 -0.206016,-0.0694 -0.06494,-0.0717 -0.06494,-0.18587 0,-0.0941 0.0515,-0.19482 0.0515,-0.10077 0.145555,-0.16795 0.09405,-0.0694 0.221692,-0.0694 0.132119,0 0.199299,0.0694 0.06942,0.0694 0.06942,0.17467 z"
         id="text137"
         style="font-style:italic;font-weight:bold;font-size:4.58611px;line-height:1.25;font-family:'Gentium Plus';-inkscape-font-specification:'Gentium Plus, Bold Italic';fill:#094bac;stroke-width:0.264583"
         aria-label="I walked across the river." />
      <path
         id="rect143"
         style="fill:#a8cbfe;stroke-width:0.465001;stroke-linecap:square;stroke-miterlimit:40;paint-order:fill markers stroke"
         d="m 31.349309,522.99622 h 9.481725 c 0.407142,0 0.734914,0.32777 0.734914,0.73491 v 3.18453 c 0,0.40715 -0.327772,0.73492 -0.734914,0.73492 h -9.481725 c -0.407142,0 -0.734914,-0.32777 -0.734914,-0.73492 v -3.18453 c 0,-0.40714 0.327772,-0.73491 0.734914,-0.73491 z" />
      <path
         d="m 34.299832,524.707 q -0.137583,0.51505 -0.324556,0.98778 -0.183444,0.47272 -0.356305,0.84666 h -0.296334 q -0.172861,-0.37394 -0.359834,-0.84666 -0.183444,-0.47273 -0.321028,-0.98778 h 0.352778 q 0.04233,0.17286 0.09878,0.37041 0.05997,0.19403 0.123473,0.38806 0.06703,0.1905 0.134055,0.37042 0.06703,0.17991 0.127,0.32102 0.05997,-0.14111 0.127,-0.32102 0.06703,-0.17992 0.130528,-0.37042 0.06703,-0.19403 0.123473,-0.38806 0.05997,-0.19755 0.102305,-0.37041 z m 0.186962,0.92075 q 0,-0.24342 0.07056,-0.42334 0.07055,-0.18344 0.186972,-0.30338 0.116417,-0.11995 0.268111,-0.17992 0.151695,-0.06 0.310445,-0.06 0.370417,0 0.567973,0.23283 0.197555,0.22931 0.197555,0.70203 0,0.0212 0,0.0564 0,0.0317 -0.0035,0.06 h -1.255889 q 0.02117,0.28575 0.165805,0.43392 0.144639,0.14817 0.451556,0.14817 0.172861,0 0.289278,-0.0282 0.119945,-0.0318 0.179917,-0.06 l 0.04586,0.27517 q -0.05997,0.0318 -0.211667,0.067 -0.148166,0.0353 -0.338667,0.0353 -0.239889,0 -0.416278,-0.0706 -0.172861,-0.0741 -0.28575,-0.20108 -0.112889,-0.127 -0.169333,-0.29986 -0.05292,-0.17639 -0.05292,-0.38453 z m 1.259418,-0.17992 q 0.0035,-0.22225 -0.112889,-0.36336 -0.112889,-0.14464 -0.313973,-0.14464 -0.112889,0 -0.201083,0.0459 -0.08467,0.0423 -0.144639,0.11289 -0.05997,0.0706 -0.09525,0.16228 -0.03175,0.0917 -0.04233,0.18697 z m 1.492244,-0.77964 q 0.04233,0 0.09525,0.007 0.05644,0.004 0.109361,0.0141 0.05292,0.007 0.09525,0.0176 0.04586,0.007 0.06703,0.0141 l -0.05644,0.28575 q -0.03881,-0.0141 -0.130527,-0.0317 -0.0882,-0.0212 -0.229306,-0.0212 -0.09172,0 -0.183445,0.0212 -0.08819,0.0176 -0.116416,0.0247 v 1.54164 h -0.328084 v -1.75683 q 0.116417,-0.0423 0.289278,-0.0776 0.172861,-0.0388 0.388056,-0.0388 z m 1.012472,0.11995 q 0.05997,-0.0388 0.179916,-0.0811 0.123473,-0.0423 0.282223,-0.0423 0.197555,0 0.34925,0.0706 0.155222,0.0706 0.261056,0.19756 0.105833,0.127 0.15875,0.30338 0.05644,0.17639 0.05644,0.38806 0,0.22225 -0.06703,0.40217 -0.0635,0.17639 -0.183445,0.29986 -0.119945,0.12347 -0.289278,0.1905 -0.169333,0.067 -0.381,0.067 -0.229306,0 -0.405695,-0.0318 -0.176389,-0.0317 -0.289278,-0.0635 v -2.6282 l 0.328084,-0.0564 z m 0,1.46755 q 0.04939,0.0141 0.137583,0.0282 0.09172,0.0106 0.225778,0.0106 0.264583,0 0.423334,-0.17286 0.15875,-0.17639 0.15875,-0.49742 0,-0.14111 -0.02822,-0.26458 -0.02822,-0.12348 -0.09172,-0.21167 -0.0635,-0.0917 -0.165806,-0.14111 -0.09878,-0.0529 -0.239889,-0.0529 -0.134055,0 -0.246944,0.0459 -0.112889,0.0459 -0.172861,0.0952 z"
         id="text143"
         style="font-size:3.52778px;line-height:1.25;font-family:Ubuntu;-inkscape-font-specification:'Ubuntu, Normal';stroke-width:0.264583"
         aria-label="verb" />
      <path
         d="m 44.404812,540.21511 h 0.833965 v 0.3302 h -0.833965 v 1.016 q 0,0.1651 0.0254,0.27517 0.0254,0.10583 0.0762,0.16933 0.0508,0.0593 0.127,0.0847 0.0762,0.0254 0.1778,0.0254 0.1778,0 0.283633,-0.0381 0.110067,-0.0423 0.1524,-0.0593 l 0.0762,0.32597 q -0.05927,0.0296 -0.207433,0.072 -0.148167,0.0466 -0.338666,0.0466 -0.224367,0 -0.372533,-0.055 -0.143934,-0.0593 -0.232834,-0.17357 -0.0889,-0.1143 -0.126999,-0.2794 -0.03387,-0.16933 -0.03387,-0.38947 v -1.96426 l 0.3937,-0.0677 z m 1.333492,2.20133 v -3.21733 l 0.3937,-0.0677 v 1.12606 q 0.110066,-0.0423 0.232833,-0.0635 0.127,-0.0254 0.249766,-0.0254 0.262467,0 0.436033,0.0762 0.173567,0.072 0.275167,0.20744 0.105833,0.13123 0.148166,0.3175 0.04233,0.18626 0.04233,0.41063 v 1.23613 h -0.3937 v -1.15146 q 0,-0.2032 -0.02963,-0.34714 -0.0254,-0.14393 -0.0889,-0.23283 -0.0635,-0.0889 -0.169333,-0.127 -0.105834,-0.0423 -0.262467,-0.0423 -0.0635,0 -0.131233,0.008 -0.06773,0.008 -0.131233,0.0212 -0.05927,0.008 -0.110067,0.0212 -0.04657,0.0127 -0.06773,0.0212 v 1.8288 z m 2.294461,-1.09643 q 0,-0.2921 0.08467,-0.508 0.08467,-0.22013 0.224366,-0.36407 0.1397,-0.14393 0.321733,-0.2159 0.182034,-0.072 0.372533,-0.072 0.4445,0 0.681567,0.2794 0.237066,0.27516 0.237066,0.84243 0,0.0254 0,0.0677 0,0.0381 -0.0042,0.072 h -1.507066 q 0.0254,0.3429 0.198967,0.5207 0.173566,0.1778 0.541866,0.1778 0.207433,0 0.347133,-0.0339 0.143933,-0.0381 0.2159,-0.072 l 0.05503,0.3302 q -0.07197,0.0381 -0.254,0.0804 -0.1778,0.0423 -0.406399,0.0423 -0.287867,0 -0.499533,-0.0847 -0.207433,-0.0889 -0.3429,-0.2413 -0.135467,-0.1524 -0.2032,-0.35984 -0.0635,-0.21166 -0.0635,-0.46143 z m 1.511299,-0.2159 q 0.0042,-0.2667 -0.135467,-0.43603 -0.135466,-0.17357 -0.376766,-0.17357 -0.135466,0 -0.2413,0.055 -0.1016,0.0508 -0.173566,0.13547 -0.07197,0.0847 -0.1143,0.19473 -0.0381,0.11007 -0.0508,0.22437 z m 2.700852,1.0287 q 0.1397,0 0.245533,-0.004 0.110067,-0.008 0.182034,-0.0254 v -0.65617 q -0.04233,-0.0212 -0.1397,-0.0339 -0.09313,-0.0169 -0.2286,-0.0169 -0.0889,0 -0.1905,0.0127 -0.09737,0.0127 -0.182033,0.055 -0.08043,0.0381 -0.135467,0.11007 -0.05503,0.0677 -0.05503,0.18203 0,0.21167 0.135467,0.29634 0.135466,0.0804 0.368299,0.0804 z m -0.03387,-1.97273 q 0.237066,0 0.397933,0.0635 0.165099,0.0593 0.262466,0.17356 0.1016,0.11007 0.143933,0.2667 0.04233,0.1524 0.04233,0.33867 v 1.37583 q -0.0508,0.008 -0.143934,0.0254 -0.0889,0.0127 -0.203199,0.0254 -0.1143,0.0127 -0.249767,0.0212 -0.131233,0.0127 -0.262466,0.0127 -0.186267,0 -0.3429,-0.0381 -0.156633,-0.0381 -0.270933,-0.11853 -0.1143,-0.0847 -0.1778,-0.22014 -0.0635,-0.13546 -0.0635,-0.32596 0,-0.18204 0.07197,-0.31327 0.0762,-0.13123 0.203199,-0.21167 0.127,-0.0804 0.296334,-0.11853 0.169333,-0.0381 0.355599,-0.0381 0.05927,0 0.122767,0.008 0.0635,0.004 0.118533,0.0169 0.05927,0.008 0.1016,0.0169 0.04233,0.008 0.05927,0.0127 v -0.11006 q 0,-0.0974 -0.02117,-0.1905 -0.02117,-0.0974 -0.0762,-0.16934 -0.05503,-0.0762 -0.1524,-0.11853 -0.09313,-0.0466 -0.245533,-0.0466 -0.194733,0 -0.3429,0.0296 -0.143933,0.0254 -0.2159,0.055 l -0.04657,-0.32597 q 0.0762,-0.0339 0.254,-0.0635 0.177799,-0.0339 0.385233,-0.0339 z m 2.455328,2.30716 q -0.2667,0 -0.469899,-0.0847 -0.198967,-0.0847 -0.338667,-0.23707 -0.135466,-0.1524 -0.2032,-0.35983 -0.06773,-0.21167 -0.06773,-0.46567 0,-0.254 0.07197,-0.46567 0.0762,-0.21166 0.211666,-0.36406 0.135467,-0.15664 0.3302,-0.2413 0.198966,-0.0889 0.440266,-0.0889 0.148167,0 0.296333,0.0254 0.148167,0.0254 0.283633,0.0804 l -0.0889,0.33443 q -0.0889,-0.0423 -0.207433,-0.0677 -0.1143,-0.0254 -0.245533,-0.0254 -0.3302,0 -0.507999,0.20743 -0.173567,0.20744 -0.173567,0.60537 0,0.1778 0.0381,0.32597 0.04233,0.14816 0.127,0.254 0.0889,0.10583 0.224366,0.1651 0.135467,0.055 0.3302,0.055 0.156633,0 0.283633,-0.0296 0.127,-0.0296 0.198967,-0.0635 l 0.05503,0.3302 q -0.03387,0.0212 -0.09737,0.0423 -0.0635,0.0169 -0.143933,0.0296 -0.08043,0.0169 -0.173566,0.0254 -0.0889,0.0127 -0.173567,0.0127 z m 1.380058,-2.25213 h 0.833966 v 0.3302 h -0.833966 v 1.016 q 0,0.1651 0.0254,0.27517 0.0254,0.10583 0.0762,0.16933 0.0508,0.0593 0.127,0.0847 0.0762,0.0254 0.1778,0.0254 0.177799,0 0.283633,-0.0381 0.110066,-0.0423 0.1524,-0.0593 l 0.0762,0.32597 q -0.05927,0.0296 -0.207434,0.072 -0.148166,0.0466 -0.338666,0.0466 -0.224366,0 -0.372533,-0.055 -0.143933,-0.0593 -0.232833,-0.17357 -0.0889,-0.1143 -0.127,-0.2794 -0.03387,-0.16933 -0.03387,-0.38947 v -1.96426 l 0.3937,-0.0677 z m 4.254486,1.10067 q 0,0.26246 -0.0762,0.47413 -0.0762,0.21167 -0.2159,0.36407 -0.135466,0.1524 -0.325966,0.23706 -0.1905,0.0804 -0.414866,0.0804 -0.224367,0 -0.414867,-0.0804 -0.190499,-0.0847 -0.330199,-0.23706 -0.135467,-0.1524 -0.211667,-0.36407 -0.0762,-0.21167 -0.0762,-0.47413 0,-0.25824 0.0762,-0.4699 0.0762,-0.2159 0.211667,-0.3683 0.1397,-0.1524 0.330199,-0.23284 0.1905,-0.0847 0.414867,-0.0847 0.224366,0 0.414866,0.0847 0.1905,0.0804 0.325966,0.23284 0.1397,0.1524 0.2159,0.3683 0.0762,0.21166 0.0762,0.4699 z m -0.410633,0 q 0,-0.37254 -0.169333,-0.58844 -0.1651,-0.22013 -0.452966,-0.22013 -0.287867,0 -0.4572,0.22013 -0.1651,0.2159 -0.1651,0.58844 0,0.37253 0.1651,0.59266 0.169333,0.2159 0.4572,0.2159 0.287866,0 0.452966,-0.2159 0.169333,-0.22013 0.169333,-0.59266 z m 1.824559,-2.1844 q 0.173566,0 0.296333,0.0254 0.126999,0.0254 0.177799,0.0466 l -0.07197,0.33866 q -0.0508,-0.0254 -0.143933,-0.0466 -0.09313,-0.0254 -0.2286,-0.0254 -0.275167,0 -0.385233,0.1524 -0.110067,0.14816 -0.110067,0.40216 v 0.1905 h 0.846666 v 0.3302 h -0.846666 v 1.87113 h -0.393699 v -2.4003 q 0,-0.42333 0.207433,-0.65193 0.207433,-0.23283 0.651933,-0.23283 z m 1.752591,1.14723 q 0.135467,-0.0339 0.3556,-0.072 0.224366,-0.0381 0.516466,-0.0381 0.211667,0 0.3556,0.0593 0.143933,0.055 0.2413,0.1651 0.02963,-0.0212 0.09313,-0.0593 0.0635,-0.0381 0.156633,-0.072 0.09313,-0.0381 0.207433,-0.0635 0.1143,-0.0296 0.245533,-0.0296 0.254,0 0.414867,0.0762 0.160866,0.072 0.249766,0.20744 0.09313,0.13546 0.122767,0.32173 0.03387,0.18627 0.03387,0.4064 v 1.23613 h -0.393699 v -1.15146 q 0,-0.19474 -0.02117,-0.33444 -0.01693,-0.1397 -0.07197,-0.23283 -0.0508,-0.0931 -0.143933,-0.13547 -0.0889,-0.0466 -0.232833,-0.0466 -0.198967,0 -0.3302,0.055 -0.127,0.0508 -0.173566,0.0931 0.03387,0.11007 0.0508,0.2413 0.01693,0.13124 0.01693,0.27517 v 1.23613 h -0.3937 v -1.15146 q 0,-0.19474 -0.02117,-0.33444 -0.02117,-0.1397 -0.0762,-0.23283 -0.0508,-0.0931 -0.143933,-0.13547 -0.0889,-0.0466 -0.2286,-0.0466 -0.05927,0 -0.127,0.004 -0.06773,0.004 -0.131233,0.0127 -0.05927,0.004 -0.110067,0.0127 -0.0508,0.008 -0.06773,0.0127 v 1.85843 h -0.3937 z m 5.587988,1.03717 q 0,0.26246 -0.0762,0.47413 -0.0762,0.21167 -0.215899,0.36407 -0.135467,0.1524 -0.325967,0.23706 -0.1905,0.0804 -0.414866,0.0804 -0.224367,0 -0.414866,-0.0804 -0.1905,-0.0847 -0.3302,-0.23706 -0.135467,-0.1524 -0.211667,-0.36407 -0.0762,-0.21167 -0.0762,-0.47413 0,-0.25824 0.0762,-0.4699 0.0762,-0.2159 0.211667,-0.3683 0.1397,-0.1524 0.3302,-0.23284 0.190499,-0.0847 0.414866,-0.0847 0.224366,0 0.414866,0.0847 0.1905,0.0804 0.325967,0.23284 0.139699,0.1524 0.215899,0.3683 0.0762,0.21166 0.0762,0.4699 z m -0.410633,0 q 0,-0.37254 -0.169333,-0.58844 -0.1651,-0.22013 -0.452966,-0.22013 -0.287867,0 -0.4572,0.22013 -0.1651,0.2159 -0.1651,0.58844 0,0.37253 0.1651,0.59266 0.169333,0.2159 0.4572,0.2159 0.287866,0 0.452966,-0.2159 0.169333,-0.22013 0.169333,-0.59266 z m 2.62465,-1.10067 q -0.1651,0.61807 -0.389466,1.18533 -0.220134,0.56727 -0.427567,1.016 h -0.355599 q -0.207434,-0.44873 -0.4318,-1.016 -0.220133,-0.56726 -0.385233,-1.18533 h 0.423333 q 0.0508,0.20743 0.118533,0.4445 0.07197,0.23283 0.148167,0.46567 0.08043,0.2286 0.160866,0.4445 0.08043,0.2159 0.1524,0.38523 0.07197,-0.16933 0.1524,-0.38523 0.08043,-0.2159 0.156633,-0.4445 0.08043,-0.23284 0.148167,-0.46567 0.07197,-0.23707 0.122766,-0.4445 z m 0.800094,2.20133 h -0.3937 v -2.20133 h 0.3937 z m -0.198967,-2.59926 q -0.105833,0 -0.182033,-0.0677 -0.07197,-0.072 -0.07197,-0.1905 0,-0.11854 0.07197,-0.18627 0.0762,-0.072 0.182033,-0.072 0.105833,0 0.1778,0.072 0.0762,0.0677 0.0762,0.18627 0,0.11853 -0.0762,0.1905 -0.07197,0.0677 -0.1778,0.0677 z m 0.876293,0.46143 q 0.135466,-0.0339 0.359833,-0.072 0.224366,-0.0381 0.516466,-0.0381 0.262466,0 0.436033,0.0762 0.173567,0.072 0.275166,0.20744 0.105834,0.13123 0.148167,0.3175 0.04233,0.18626 0.04233,0.41063 v 1.23613 h -0.393699 v -1.15146 q 0,-0.2032 -0.02963,-0.34714 -0.0254,-0.14393 -0.0889,-0.23283 -0.0635,-0.0889 -0.169333,-0.127 -0.105833,-0.0423 -0.262466,-0.0423 -0.0635,0 -0.131233,0.004 -0.06773,0.004 -0.131234,0.0127 -0.05927,0.004 -0.110066,0.0127 -0.04657,0.008 -0.06773,0.0127 v 1.85843 h -0.393699 z m 3.809995,1.9177 q -0.0508,0.0339 -0.198966,0.0889 -0.143934,0.0508 -0.338667,0.0508 -0.198966,0 -0.376766,-0.0635 -0.173567,-0.0635 -0.3048,-0.19473 -0.131233,-0.13547 -0.207433,-0.33444 -0.0762,-0.19896 -0.0762,-0.47413 0,-0.2413 0.07197,-0.44027 0.07197,-0.2032 0.207433,-0.34713 0.1397,-0.14817 0.338666,-0.2286 0.198967,-0.0847 0.448733,-0.0847 0.275166,0 0.478366,0.0423 0.207433,0.0381 0.347133,0.072 v 1.96427 q 0,0.508 -0.262466,0.7366 -0.262467,0.2286 -0.795866,0.2286 -0.207433,0 -0.3937,-0.0339 -0.182033,-0.0339 -0.317499,-0.0804 l 0.07197,-0.3429 q 0.118533,0.0466 0.287867,0.0804 0.173566,0.0381 0.359833,0.0381 0.351366,0 0.503766,-0.1397 0.156633,-0.1397 0.156633,-0.4445 z m -0.0042,-1.63407 q -0.05927,-0.0169 -0.160867,-0.0296 -0.09737,-0.0169 -0.2667,-0.0169 -0.317499,0 -0.491066,0.20743 -0.169333,0.20743 -0.169333,0.55033 0,0.1905 0.04657,0.32597 0.0508,0.13547 0.131233,0.22437 0.08467,0.0889 0.1905,0.13123 0.110066,0.0423 0.224366,0.0423 0.156633,0 0.287867,-0.0423 0.131233,-0.0466 0.207433,-0.10583 z m 3.992021,0.75354 q 0,0.26246 -0.0762,0.47413 -0.0762,0.21167 -0.2159,0.36407 -0.135466,0.1524 -0.325966,0.23706 -0.1905,0.0804 -0.414866,0.0804 -0.224367,0 -0.414867,-0.0804 -0.1905,-0.0847 -0.3302,-0.23706 -0.135466,-0.1524 -0.211666,-0.36407 -0.0762,-0.21167 -0.0762,-0.47413 0,-0.25824 0.0762,-0.4699 0.0762,-0.2159 0.211666,-0.3683 0.1397,-0.1524 0.3302,-0.23284 0.1905,-0.0847 0.414867,-0.0847 0.224366,0 0.414866,0.0847 0.1905,0.0804 0.325966,0.23284 0.1397,0.1524 0.2159,0.3683 0.0762,0.21166 0.0762,0.4699 z m -0.410633,0 q 0,-0.37254 -0.169333,-0.58844 -0.1651,-0.22013 -0.452966,-0.22013 -0.287867,0 -0.4572,0.22013 -0.1651,0.2159 -0.1651,0.58844 0,0.37253 0.1651,0.59266 0.169333,0.2159 0.4572,0.2159 0.287866,0 0.452966,-0.2159 0.169333,-0.22013 0.169333,-0.59266 z m 0.965192,-1.03717 q 0.135467,-0.0339 0.359833,-0.072 0.224367,-0.0381 0.516467,-0.0381 0.262466,0 0.436033,0.0762 0.173566,0.072 0.275166,0.20744 0.105833,0.13123 0.148167,0.3175 0.04233,0.18626 0.04233,0.41063 v 1.23613 h -0.3937 v -1.15146 q 0,-0.2032 -0.02963,-0.34714 -0.0254,-0.14393 -0.0889,-0.23283 -0.0635,-0.0889 -0.169333,-0.127 -0.105833,-0.0423 -0.262467,-0.0423 -0.0635,0 -0.131233,0.004 -0.06773,0.004 -0.131233,0.0127 -0.05927,0.004 -0.110067,0.0127 -0.04657,0.008 -0.06773,0.0127 v 1.85843 h -0.3937 z m 4.267188,-1.14723 q 0.173567,0 0.296333,0.0254 0.127,0.0254 0.1778,0.0466 l -0.07197,0.33866 q -0.0508,-0.0254 -0.143933,-0.0466 -0.09313,-0.0254 -0.2286,-0.0254 -0.275166,0 -0.385233,0.1524 -0.110066,0.14816 -0.110066,0.40216 v 0.1905 h 0.846666 v 0.3302 h -0.846666 v 1.87113 h -0.3937 v -2.4003 q 0,-0.42333 0.207433,-0.65193 0.207433,-0.23283 0.651933,-0.23283 z m 2.717796,2.1844 q 0,0.26246 -0.0762,0.47413 -0.0762,0.21167 -0.2159,0.36407 -0.135466,0.1524 -0.325966,0.23706 -0.1905,0.0804 -0.414866,0.0804 -0.224367,0 -0.414867,-0.0804 -0.190499,-0.0847 -0.330199,-0.23706 -0.135467,-0.1524 -0.211667,-0.36407 -0.0762,-0.21167 -0.0762,-0.47413 0,-0.25824 0.0762,-0.4699 0.0762,-0.2159 0.211667,-0.3683 0.1397,-0.1524 0.330199,-0.23284 0.1905,-0.0847 0.414867,-0.0847 0.224366,0 0.414866,0.0847 0.1905,0.0804 0.325966,0.23284 0.1397,0.1524 0.2159,0.3683 0.0762,0.21166 0.0762,0.4699 z m -0.410633,0 q 0,-0.37254 -0.169333,-0.58844 -0.1651,-0.22013 -0.452966,-0.22013 -0.287867,0 -0.4572,0.22013 -0.1651,0.2159 -0.1651,0.58844 0,0.37253 0.1651,0.59266 0.169333,0.2159 0.4572,0.2159 0.287866,0 0.452966,-0.2159 0.169333,-0.22013 0.169333,-0.59266 z m 2.908291,0 q 0,0.26246 -0.0762,0.47413 -0.0762,0.21167 -0.2159,0.36407 -0.135466,0.1524 -0.325966,0.23706 -0.1905,0.0804 -0.414867,0.0804 -0.224366,0 -0.414866,-0.0804 -0.1905,-0.0847 -0.3302,-0.23706 -0.135466,-0.1524 -0.211666,-0.36407 -0.0762,-0.21167 -0.0762,-0.47413 0,-0.25824 0.0762,-0.4699 0.0762,-0.2159 0.211666,-0.3683 0.1397,-0.1524 0.3302,-0.23284 0.1905,-0.0847 0.414866,-0.0847 0.224367,0 0.414867,0.0847 0.1905,0.0804 0.325966,0.23284 0.1397,0.1524 0.2159,0.3683 0.0762,0.21166 0.0762,0.4699 z m -0.410633,0 q 0,-0.37254 -0.169333,-0.58844 -0.1651,-0.22013 -0.452967,-0.22013 -0.287866,0 -0.457199,0.22013 -0.1651,0.2159 -0.1651,0.58844 0,0.37253 0.1651,0.59266 0.169333,0.2159 0.457199,0.2159 0.287867,0 0.452967,-0.2159 0.169333,-0.22013 0.169333,-0.59266 z m 1.333492,-1.10067 h 0.833966 v 0.3302 h -0.833966 v 1.016 q 0,0.1651 0.0254,0.27517 0.0254,0.10583 0.0762,0.16933 0.0508,0.0593 0.127,0.0847 0.0762,0.0254 0.1778,0.0254 0.1778,0 0.283633,-0.0381 0.110066,-0.0423 0.1524,-0.0593 l 0.0762,0.32597 q -0.05927,0.0296 -0.207434,0.072 -0.148166,0.0466 -0.338666,0.0466 -0.224366,0 -0.372533,-0.055 -0.143933,-0.0593 -0.232833,-0.17357 -0.0889,-0.1143 -0.127,-0.2794 -0.03387,-0.16933 -0.03387,-0.38947 v -1.96426 l 0.3937,-0.0677 z"
         id="text144"
         style="font-size:4.23333px;line-height:1.25;font-family:Ubuntu;-inkscape-font-specification:'Ubuntu, Normal';stroke-width:0.264583"
         aria-label="the act of moving on foot" />
      <path
         id="rect144"
         style="fill:#999999;stroke-width:0.465;stroke-linecap:square;stroke-miterlimit:40;paint-order:fill markers stroke"
         d="m 23.288132,539.71539 h 2.196578 v 2.50828 h -2.196578 z" />
      <path
         d="m 31.971257,546.67651 -0.02239,0.16347 q -0.293349,0.0649 -0.304546,0.13884 l -0.304546,2.21916 q -0.0022,0.0269 0.05822,0.0672 0.0627,0.0381 0.208256,0.0694 l -0.02239,0.16347 H 30.49779 l 0.02239,-0.16347 q 0.29111,-0.0627 0.302307,-0.1366 l 0.302307,-2.21916 q 0.0045,-0.0269 -0.05822,-0.0672 -0.0627,-0.0403 -0.206017,-0.0717 l 0.02239,-0.16347 z m 3.945667,0.89573 q 0,0.0896 -0.03807,0.21273 -0.03807,0.12317 -0.132119,0.3247 -0.09181,0.1993 -0.257521,0.51281 -0.16347,0.31126 -0.420991,0.77704 -0.02463,0.0134 -0.103008,0.0537 -0.07838,0.0403 -0.156752,0.0806 -0.07838,0.0425 -0.107487,0.056 l -0.09181,-0.0873 q -0.04926,-0.37621 -0.103008,-0.72554 -0.05374,-0.34933 -0.111965,-0.55535 -0.04031,0.15899 -0.174667,0.47473 -0.132119,0.31351 -0.338136,0.67851 -0.02687,0.0134 -0.114205,0.0605 -0.08733,0.047 -0.174666,0.0941 -0.08733,0.047 -0.118684,0.0605 l -0.08733,-0.0873 q -0.02239,-0.19035 -0.04702,-0.42323 -0.02239,-0.23289 -0.04703,-0.45906 -0.02463,-0.22617 -0.04702,-0.3986 -0.02239,-0.17243 -0.03807,-0.24185 -0.02687,-0.12092 -0.0739,-0.15227 -0.04479,-0.0314 -0.08509,-0.0314 -0.02687,0 -0.08062,0.0157 -0.05374,0.0134 -0.09853,0.0269 -0.04255,0.0112 -0.04255,0.0112 l -0.04926,-0.15003 q 0.12988,-0.0672 0.275435,-0.13436 0.145555,-0.0694 0.264239,-0.11644 0.118683,-0.047 0.165709,-0.047 0.0627,0 0.09405,0.0739 0.03359,0.0717 0.06942,0.23289 0.01568,0.0716 0.03807,0.23512 0.02463,0.16347 0.04702,0.35829 0.02463,0.19482 0.04255,0.36501 0.01792,0.17019 0.02239,0.25304 0.120923,-0.23064 0.219453,-0.47025 0.09853,-0.23961 0.158991,-0.44562 0.06046,-0.20602 0.06718,-0.34038 0.06046,-0.056 0.145556,-0.11644 0.08733,-0.0605 0.167948,-0.10301 0.08286,-0.0426 0.12988,-0.0426 0.01344,0 0.03807,0.0784 0.02463,0.0761 0.05374,0.19706 0.02911,0.11868 0.05598,0.24856 0.02687,0.12764 0.04479,0.22841 0.03359,0.2105 0.06942,0.42323 0.03807,0.2105 0.05374,0.37173 0.232888,-0.41652 0.353811,-0.69419 0.123162,-0.27768 0.123162,-0.41203 0,-0.10077 -0.123162,-0.10077 -0.08062,0 -0.188102,0.0336 l -0.05598,-0.15004 q 0.165709,-0.10301 0.344854,-0.16347 0.179145,-0.0605 0.273196,-0.0605 0.0739,0 0.12988,0.0291 0.05822,0.0291 0.05822,0.14108 z m 1.840715,0.22393 q 0,0.0985 -0.04703,0.21721 -0.04479,0.11869 -0.188102,0.25528 -0.143316,0.13436 -0.432187,0.2844 -0.288871,0.15003 -0.777041,0.30678 l -0.01568,-0.23289 q 0.306785,-0.12316 0.48593,-0.21945 0.181385,-0.0985 0.270957,-0.17914 0.08957,-0.0806 0.116444,-0.15452 0.02687,-0.0761 0.02687,-0.16123 0,-0.103 -0.04703,-0.15451 -0.04479,-0.0537 -0.107487,-0.0537 -0.03583,0 -0.109726,0.0381 -0.0739,0.0381 -0.12988,0.10524 -0.120923,0.14108 -0.19482,0.3247 -0.07166,0.18363 -0.07166,0.42995 0,0.29335 0.100769,0.46802 0.103008,0.17243 0.235128,0.17243 0.09405,0 0.275435,-0.0873 0.183624,-0.0873 0.45458,-0.30454 0.02463,0.0134 0.06046,0.0784 0.03583,0.0649 0.04255,0.0806 -0.367247,0.32022 -0.606854,0.4501 -0.239606,0.12988 -0.438905,0.12988 -0.123162,0 -0.275435,-0.0761 -0.150034,-0.0739 -0.25976,-0.24184 -0.107487,-0.17019 -0.107487,-0.45234 0,-0.35158 0.163469,-0.64045 0.16347,-0.29111 0.445624,-0.52624 0.100769,-0.0828 0.279913,-0.1657 0.181385,-0.0851 0.35829,-0.0851 0.253043,0 0.371726,0.1254 0.120923,0.12316 0.120923,0.26872 z m 2.454285,1.45555 q -0.134358,0.0806 -0.284392,0.15899 -0.147795,0.0784 -0.277675,0.12764 -0.12988,0.0515 -0.203777,0.0515 -0.07838,0 -0.12988,-0.0717 -0.0515,-0.0694 -0.0515,-0.19034 0,-0.047 0.01791,-0.17019 0.01792,-0.12316 0.04479,-0.28439 0.02911,-0.16123 0.05598,-0.32246 0.02687,-0.16347 0.04479,-0.29335 0.02015,-0.13212 0.02015,-0.19258 0,-0.13212 -0.02463,-0.18363 -0.02239,-0.0537 -0.09405,-0.0537 -0.06046,0 -0.201538,0.0806 -0.141077,0.0806 -0.270957,0.29111 -0.06718,0.10524 -0.105248,0.25752 -0.03583,0.15003 -0.0739,0.36724 -0.03583,0.1993 -0.04703,0.31351 -0.009,0.11196 -0.0045,0.21945 -0.03135,0.0134 -0.103009,0.0448 -0.06942,0.0314 -0.152273,0.0694 -0.08285,0.0381 -0.154512,0.0694 -0.06942,0.0336 -0.09629,0.0493 l -0.08957,-0.0873 q 0.04479,-0.2217 0.08733,-0.46354 0.04255,-0.24409 0.07614,-0.46802 0.03359,-0.22393 0.05374,-0.39412 0.02015,-0.17242 0.02015,-0.2508 0,-0.10301 -0.02239,-0.1254 -0.02239,-0.0246 -0.0627,-0.0246 -0.03135,0 -0.109726,0.0224 -0.07614,0.0224 -0.111966,0.0358 l -0.04255,-0.15451 q 0.09405,-0.0403 0.214974,-0.0873 0.123162,-0.0493 0.241846,-0.0918 0.120923,-0.0448 0.212734,-0.0717 0.09181,-0.0269 0.125402,-0.0269 0.0627,0 0.08285,0.047 0.02239,0.047 0.02239,0.20601 0,0.10749 -0.01568,0.22393 0.244085,-0.24184 0.481452,-0.35829 0.237367,-0.11868 0.438905,-0.11868 0.141077,0 0.217214,0.0694 0.07838,0.0694 0.07838,0.28663 0,0.11645 -0.02911,0.29559 -0.02911,0.17691 -0.06718,0.37173 -0.03583,0.19258 -0.06494,0.36053 -0.02911,0.1657 -0.02911,0.25752 0,0.0761 0.02015,0.10524 0.02015,0.0269 0.06046,0.0269 0.0515,0 0.105248,-0.0157 0.05374,-0.0179 0.138837,-0.0582 z m 1.675005,-1.70187 q -0.03135,0.0425 -0.09405,0.10524 -0.0627,0.0627 -0.125401,0.11645 -0.0627,0.0537 -0.08957,0.0694 -0.02687,-0.0627 -0.105248,-0.0806 -0.07838,-0.0202 -0.221692,-0.0202 h -0.835263 l -0.0515,-0.0873 0.268717,-0.18138 h 1.191314 z m -0.136598,1.6011 q -0.246324,0.19482 -0.483691,0.31799 -0.237367,0.12092 -0.360529,0.12092 -0.136598,0 -0.25976,-0.1254 -0.120923,-0.12764 -0.120923,-0.3247 0,-0.0851 0.0045,-0.17243 0.0067,-0.0896 0.02687,-0.21273 l 0.217214,-1.36151 q 0.02687,-0.17466 0.06046,-0.23065 0.03359,-0.056 0.09405,-0.0873 l 0.427709,-0.21049 0.0627,0.056 q -0.01791,0.0157 -0.0515,0.11868 -0.03135,0.10077 -0.0627,0.30231 l -0.190341,1.20699 q -0.01344,0.0873 -0.02015,0.18362 -0.0067,0.0963 -0.0067,0.14108 0,0.13884 0.04031,0.19706 0.04255,0.0582 0.105248,0.0582 0.138837,0 0.456819,-0.14332 z m 2.649106,-1.6011 q -0.02911,0.0425 -0.09405,0.10524 -0.06494,0.0627 -0.129881,0.11645 -0.0627,0.0537 -0.09405,0.0694 -0.02239,-0.0627 -0.09405,-0.0806 -0.07166,-0.0202 -0.214974,-0.0202 h -0.866613 l -0.0515,-0.0873 0.293349,-0.18138 h 1.191314 z m 0.611332,-1.17788 q -0.04927,0.0358 -0.123162,0.094 -0.0739,0.0582 -0.152274,0.11868 -0.07614,0.0605 -0.141076,0.10077 -0.0627,0.0403 -0.08957,0.0403 -0.04926,0 -0.09629,-0.0649 -0.04703,-0.0672 -0.105248,-0.13436 -0.05598,-0.0672 -0.132119,-0.0672 -0.09405,0 -0.158991,0.0873 -0.06494,0.0851 -0.107487,0.22394 -0.04255,0.13659 -0.06942,0.29558 -0.02463,0.15676 -0.04031,0.30007 l -0.19706,1.69964 q -0.03807,0.32694 -0.192581,0.62253 -0.152273,0.29783 -0.367247,0.52848 -0.212734,0.23288 -0.434426,0.36724 l -0.09181,-0.19258 q 0.150034,-0.0829 0.25976,-0.27543 0.111966,-0.19034 0.181384,-0.43891 0.07166,-0.24632 0.09853,-0.49041 l 0.197059,-1.70187 q 0.04479,-0.36501 0.170188,-0.66732 0.127641,-0.30231 0.412033,-0.51504 0.118684,-0.0873 0.248564,-0.1478 0.12988,-0.0605 0.266478,-0.0605 0.147795,0 0.282153,0.0627 0.134359,0.0627 0.235128,0.13212 0.100769,0.0672 0.147795,0.0829 z m 1.146527,1.8743 q 0,0.29783 -0.147794,0.60238 -0.147795,0.3023 -0.398598,0.50832 -0.116444,0.0963 -0.277675,0.16347 -0.158991,0.0694 -0.293349,0.0694 -0.232889,0 -0.400837,-0.11197 -0.167948,-0.1142 -0.257521,-0.30902 -0.08957,-0.19706 -0.08957,-0.44115 0,-0.32022 0.12764,-0.60013 0.12988,-0.27992 0.429948,-0.51056 0.116444,-0.0896 0.275436,-0.15228 0.158991,-0.0627 0.309025,-0.0627 0.351571,0 0.537434,0.23737 0.185863,0.23513 0.185863,0.60685 z m -0.521759,0.17467 q 0,-0.34038 -0.107487,-0.524 -0.105248,-0.18362 -0.248564,-0.18362 -0.172427,0 -0.275435,0.13211 -0.100769,0.13212 -0.145556,0.32694 -0.04255,0.19259 -0.04255,0.38293 0,0.1993 0.05374,0.36724 0.05598,0.16571 0.141077,0.26424 0.08733,0.0985 0.181384,0.0985 0.123162,0 0.208256,-0.0806 0.08509,-0.0829 0.136598,-0.21274 0.0515,-0.13212 0.0739,-0.28215 0.02463,-0.15003 0.02463,-0.28887 z m 2.60432,-0.82631 q -0.02911,0.0358 -0.0739,0.11197 -0.04479,0.0761 -0.09405,0.15899 -0.04926,0.0829 -0.09181,0.14108 -0.04031,0.0582 -0.0627,0.0582 -0.05598,0 -0.105248,-0.0426 -0.04926,-0.0426 -0.09629,-0.0851 -0.04479,-0.0448 -0.08733,-0.0448 -0.07838,0 -0.176906,0.0985 -0.09853,0.0963 -0.190342,0.26648 -0.09181,0.16795 -0.154512,0.38292 -0.04927,0.16795 -0.07838,0.35381 -0.02911,0.18586 -0.02239,0.36277 -0.04703,0.0201 -0.154513,0.0694 -0.107487,0.047 -0.210495,0.0941 -0.103008,0.0493 -0.141077,0.0694 l -0.08957,-0.0873 q 0.06494,-0.31799 0.118684,-0.62701 0.05374,-0.31127 0.08509,-0.55983 0.03135,-0.2508 0.03135,-0.38516 0,-0.10301 -0.02687,-0.1254 -0.02687,-0.0246 -0.06494,-0.0246 -0.03135,0 -0.105248,0.0224 -0.0739,0.0201 -0.107487,0.0313 l -0.04031,-0.15004 q 0.12764,-0.0582 0.29111,-0.12316 0.165709,-0.0649 0.306786,-0.11196 0.141077,-0.047 0.19482,-0.047 0.0627,0 0.08286,0.047 0.02239,0.0448 0.02239,0.1769 0,0.047 -0.01344,0.15899 -0.01344,0.10973 -0.02687,0.19482 0.145555,-0.23512 0.262,-0.36053 0.118683,-0.1254 0.221691,-0.17018 0.103009,-0.047 0.199299,-0.047 0.07838,0 0.188102,0.0761 0.111966,0.0761 0.210496,0.11644 z m 2.98724,1.66605 q -0.190341,0.13436 -0.360529,0.23289 -0.170188,0.0963 -0.248564,0.0963 -0.05374,0 -0.12764,-0.0582 -0.07166,-0.056 -0.125402,-0.20154 -0.05374,-0.14556 -0.05374,-0.41203 0,-0.0515 0.01344,-0.16571 0.01568,-0.11421 0.03807,-0.25976 0.02239,-0.14556 0.04479,-0.29111 0.02463,-0.14556 0.04479,-0.25976 0.02015,-0.11645 0.02911,-0.16795 0.01568,-0.0694 0.120923,-0.1366 0.105248,-0.0672 0.237367,-0.12764 0.134359,-0.0605 0.235128,-0.10749 l 0.06942,0.14556 q -0.0739,0.0627 -0.107487,0.1142 -0.03135,0.0493 -0.06046,0.20154 -0.06942,0.32022 -0.107487,0.59118 -0.03583,0.26872 -0.03583,0.36724 0,0.15452 0.03135,0.25529 0.03359,0.0985 0.08733,0.0985 0.04479,0 0.09629,-0.0112 0.05374,-0.0134 0.143316,-0.0515 z m -0.219452,-1.60111 q -0.0627,0.0448 -0.120923,0.14332 -0.05822,0.0985 -0.107487,0.18138 -0.04926,0.0829 -0.08957,0.0829 -0.02911,0 -0.08285,-0.0515 -0.05374,-0.0537 -0.123162,-0.12092 -0.06942,-0.0694 -0.147795,-0.12092 -0.07614,-0.0538 -0.150034,-0.0538 -0.141076,0.004 -0.246324,0.0985 -0.105248,0.0918 -0.174666,0.23737 -0.06942,0.14332 -0.105248,0.30231 -0.03359,0.15899 -0.03359,0.29111 0,0.2508 0.06718,0.3762 0.06718,0.12316 0.150034,0.12316 0.0739,0 0.214973,-0.14331 0.143316,-0.14556 0.320222,-0.41427 l -0.04031,0.43218 q -0.09405,0.1366 -0.212734,0.26648 -0.116444,0.12988 -0.244085,0.21497 -0.125402,0.0851 -0.253042,0.0851 -0.107487,0 -0.226171,-0.0784 -0.118683,-0.0761 -0.201538,-0.24632 -0.08285,-0.17019 -0.08285,-0.4501 0,-0.35381 0.174666,-0.66956 0.174666,-0.31574 0.490409,-0.53295 0.120923,-0.0829 0.291111,-0.14556 0.170187,-0.0649 0.35829,-0.0649 0.116444,0 0.228409,0.0627 0.114205,0.0605 0.203778,0.1254 0.09181,0.0627 0.143316,0.0694 z m 4.265889,-0.0873 q 0,0.0896 -0.03807,0.21273 -0.03807,0.12317 -0.132119,0.3247 -0.09181,0.1993 -0.257521,0.51281 -0.163469,0.31126 -0.42099,0.77704 -0.02463,0.0134 -0.103009,0.0537 -0.07838,0.0403 -0.156751,0.0806 -0.07838,0.0425 -0.107487,0.056 l -0.09181,-0.0873 q -0.04926,-0.37621 -0.103009,-0.72554 -0.05374,-0.34933 -0.111965,-0.55535 -0.04031,0.15899 -0.174666,0.47473 -0.13212,0.31351 -0.338136,0.67851 -0.02687,0.0134 -0.114205,0.0605 -0.08733,0.047 -0.174667,0.0941 -0.08733,0.047 -0.118683,0.0605 l -0.08733,-0.0873 q -0.02239,-0.19035 -0.04703,-0.42323 -0.02239,-0.23289 -0.04702,-0.45906 -0.02463,-0.22617 -0.04703,-0.3986 -0.02239,-0.17243 -0.03807,-0.24185 -0.02687,-0.12092 -0.0739,-0.15227 -0.04479,-0.0314 -0.08509,-0.0314 -0.02687,0 -0.08062,0.0157 -0.05374,0.0134 -0.09853,0.0269 -0.04255,0.0112 -0.04255,0.0112 l -0.04926,-0.15003 q 0.12988,-0.0672 0.275435,-0.13436 0.145556,-0.0694 0.264239,-0.11644 0.118684,-0.047 0.165709,-0.047 0.0627,0 0.09405,0.0739 0.03359,0.0717 0.06942,0.23289 0.01567,0.0716 0.03807,0.23512 0.02463,0.16347 0.04703,0.35829 0.02463,0.19482 0.04255,0.36501 0.01791,0.17019 0.02239,0.25304 0.120923,-0.23064 0.219452,-0.47025 0.09853,-0.23961 0.158991,-0.44562 0.06046,-0.20602 0.06718,-0.34038 0.06046,-0.056 0.145555,-0.11644 0.08733,-0.0605 0.167948,-0.10301 0.08285,-0.0426 0.12988,-0.0426 0.01344,0 0.03807,0.0784 0.02463,0.0761 0.05374,0.19706 0.02911,0.11868 0.05598,0.24856 0.02687,0.12764 0.04479,0.22841 0.03359,0.2105 0.06942,0.42323 0.03807,0.2105 0.05374,0.37173 0.232889,-0.41652 0.353812,-0.69419 0.123162,-0.27768 0.123162,-0.41203 0,-0.10077 -0.123162,-0.10077 -0.08062,0 -0.188103,0.0336 l -0.05598,-0.15004 q 0.165709,-0.10301 0.344854,-0.16347 0.179145,-0.0605 0.273196,-0.0605 0.0739,0 0.12988,0.0291 0.05822,0.0291 0.05822,0.14108 z m 2.187808,1.68844 q -0.190341,0.13436 -0.360529,0.23289 -0.170187,0.0963 -0.248563,0.0963 -0.05374,0 -0.127641,-0.0582 -0.07166,-0.056 -0.125402,-0.20154 -0.05374,-0.14556 -0.05374,-0.41203 0,-0.0515 0.01344,-0.16571 0.01568,-0.11421 0.03807,-0.25976 0.02239,-0.14556 0.04479,-0.29111 0.02463,-0.14556 0.04479,-0.25976 0.02015,-0.11645 0.02911,-0.16795 0.01568,-0.0694 0.120923,-0.1366 0.105247,-0.0672 0.237367,-0.12764 0.134358,-0.0605 0.235127,-0.10749 l 0.06942,0.14556 q -0.0739,0.0627 -0.107487,0.1142 -0.03135,0.0493 -0.06046,0.20154 -0.06942,0.32022 -0.107487,0.59118 -0.03583,0.26872 -0.03583,0.36724 0,0.15452 0.03135,0.25529 0.03359,0.0985 0.08733,0.0985 0.04479,0 0.09629,-0.0112 0.05374,-0.0134 0.143315,-0.0515 z m -0.219452,-1.60111 q -0.0627,0.0448 -0.120923,0.14332 -0.05822,0.0985 -0.107487,0.18138 -0.04926,0.0829 -0.08957,0.0829 -0.02911,0 -0.08285,-0.0515 -0.05374,-0.0537 -0.123162,-0.12092 -0.06942,-0.0694 -0.147795,-0.12092 -0.07614,-0.0538 -0.150033,-0.0538 -0.141077,0.004 -0.246325,0.0985 -0.105247,0.0918 -0.174666,0.23737 -0.06942,0.14332 -0.105248,0.30231 -0.03359,0.15899 -0.03359,0.29111 0,0.2508 0.06718,0.3762 0.06718,0.12316 0.150034,0.12316 0.0739,0 0.214974,-0.14331 0.143316,-0.14556 0.320221,-0.41427 l -0.04031,0.43218 q -0.09405,0.1366 -0.212735,0.26648 -0.116444,0.12988 -0.244085,0.21497 -0.125401,0.0851 -0.253042,0.0851 -0.107487,0 -0.22617,-0.0784 -0.118684,-0.0761 -0.201539,-0.24632 -0.08285,-0.17019 -0.08285,-0.4501 0,-0.35381 0.174666,-0.66956 0.174667,-0.31574 0.490409,-0.53295 0.120923,-0.0829 0.291111,-0.14556 0.170188,-0.0649 0.35829,-0.0649 0.116444,0 0.22841,0.0627 0.114205,0.0605 0.203777,0.1254 0.09181,0.0627 0.143316,0.0694 z m 1.390611,1.59215 q -0.219452,0.13884 -0.438905,0.23961 -0.217213,0.0985 -0.35829,0.0985 -0.06046,0 -0.111965,-0.0694 -0.04926,-0.0672 -0.04926,-0.19706 0,-0.0739 0.02687,-0.27096 0.02687,-0.19706 0.06718,-0.46801 0.04255,-0.27096 0.08957,-0.56879 0.04926,-0.29783 0.08957,-0.57774 0.04255,-0.27991 0.06942,-0.49713 0.02687,-0.21721 0.02687,-0.32246 0,-0.10301 -0.03583,-0.1254 -0.03583,-0.0246 -0.07838,-0.0246 -0.02687,0 -0.09629,0.0202 -0.06718,0.0202 -0.120923,0.0403 l -0.04031,-0.15451 q 0.125401,-0.056 0.293349,-0.12093 0.170188,-0.0649 0.315743,-0.11196 0.145556,-0.047 0.201538,-0.047 0.0627,0 0.09853,0.0403 0.03807,0.0403 0.03807,0.14332 0,0.11644 -0.02687,0.33589 -0.02687,0.21722 -0.06942,0.49489 -0.04255,0.27768 -0.08957,0.57327 -0.04703,0.29558 -0.08957,0.56878 -0.04255,0.2732 -0.06942,0.48369 -0.02687,0.20826 -0.02687,0.30903 0,0.0761 0.02015,0.10524 0.02239,0.0269 0.05822,0.0269 0.0515,0 0.111965,-0.0157 0.06046,-0.0179 0.158991,-0.0582 z M 60.981539,547.57 q 0,0.0672 -0.190342,0.22841 -0.188102,0.16123 -0.523999,0.36501 l -0.463537,0.28439 -0.311264,-0.0784 0.456819,-0.33813 q 0.179145,-0.13212 0.273196,-0.21498 0.09629,-0.0829 0.09629,-0.1254 0,-0.056 -0.217214,-0.047 l -0.01791,-0.15452 q 0.181384,-0.0269 0.35829,-0.0493 0.179145,-0.0246 0.320221,-0.0246 0.13212,0 0.174667,0.0403 0.04479,0.0403 0.04479,0.11421 z m -1.128613,-1.24506 q 0,0.14332 -0.03359,0.40084 -0.03359,0.25528 -0.08509,0.57102 -0.04926,0.31575 -0.105247,0.64493 -0.05374,0.32693 -0.09853,0.62028 -0.04255,0.29335 -0.0627,0.50385 -0.01791,0.2105 0.0045,0.28663 -0.03135,0.0157 -0.105248,0.0493 -0.07166,0.0336 -0.156752,0.0716 -0.08509,0.0381 -0.156751,0.0694 -0.07166,0.0313 -0.09853,0.047 l -0.09629,-0.0873 q 0.0112,-0.0851 0.04479,-0.29783 0.03583,-0.21274 0.08285,-0.49937 0.04927,-0.28663 0.09853,-0.60013 0.0515,-0.31575 0.09405,-0.61134 0.04479,-0.29559 0.07166,-0.52624 0.02911,-0.23064 0.02911,-0.34261 0,-0.11197 -0.02911,-0.13436 -0.02687,-0.0224 -0.07838,-0.0224 -0.03359,0 -0.109726,0.0246 -0.07614,0.0224 -0.116444,0.0358 l -0.04031,-0.15451 q 0.09405,-0.0425 0.217213,-0.0896 0.123162,-0.0493 0.244085,-0.0918 0.123162,-0.0448 0.217213,-0.0716 0.09629,-0.0269 0.136598,-0.0269 0.0627,0 0.09629,0.0358 0.03583,0.0358 0.03583,0.19482 z m 1.090545,2.92006 q -0.09853,0.0829 -0.214974,0.16124 -0.116445,0.0784 -0.221692,0.12764 -0.105248,0.0515 -0.170188,0.0515 -0.09629,0 -0.188102,-0.10525 -0.09181,-0.10748 -0.179145,-0.27095 -0.08733,-0.16347 -0.167948,-0.3359 -0.08062,-0.17467 -0.158991,-0.3135 -0.07614,-0.13884 -0.150034,-0.19035 l 0.396358,-0.12092 q 0.07838,0.047 0.152273,0.15451 0.07614,0.10749 0.147795,0.23961 0.07166,0.12988 0.138837,0.25304 0.06718,0.12092 0.12988,0.20154 0.06494,0.0784 0.125401,0.0784 0.05822,0 0.136598,-0.0157 0.07838,-0.0179 0.152274,-0.0582 z m 0.790478,-0.12092 q 0,0.10077 -0.04927,0.20378 -0.04703,0.10077 -0.141077,0.17019 -0.09181,0.0694 -0.22617,0.0694 -0.138838,0 -0.206017,-0.0694 -0.06494,-0.0717 -0.06494,-0.18587 0,-0.0941 0.0515,-0.19482 0.0515,-0.10077 0.145555,-0.16794 0.09405,-0.0694 0.221692,-0.0694 0.13212,0 0.199299,0.0694 0.06942,0.0694 0.06942,0.17466 z"
         id="text145"
         style="font-style:italic;font-weight:bold;font-size:4.58611px;line-height:1.25;font-family:'Gentium Plus';-inkscape-font-specification:'Gentium Plus, Bold Italic';fill:#094bac;stroke-width:0.264583"
         aria-label="I went for a walk." />
      <path
         id="rect145"
         style="fill:#a8cbfe;stroke-width:0.465001;stroke-linecap:square;stroke-miterlimit:40;paint-order:fill markers stroke"
         d="m 31.349309,538.87128 h 9.481725 c 0.407142,0 0.734914,0.32777 0.734914,0.73491 v 3.18453 c 0,0.40715 -0.327772,0.73492 -0.734914,0.73492 h -9.481725 c -0.407142,0 -0.734914,-0.32777 -0.734914,-0.73492 v -3.18453 c 0,-0.40714 0.327772,-0.73491 0.734914,-0.73491 z" />
      <path
         d="m 32.338386,540.63497 q 0.112889,-0.0282 0.299861,-0.06 0.186973,-0.0318 0.43039,-0.0318 0.218722,0 0.363361,0.0635 0.144639,0.06 0.229306,0.17286 0.08819,0.10937 0.123472,0.26459 0.03528,0.15522 0.03528,0.34219 v 1.03011 H 33.49197 v -0.95955 q 0,-0.16934 -0.02469,-0.28928 -0.02117,-0.11994 -0.07408,-0.19403 -0.05292,-0.0741 -0.141111,-0.10583 -0.08819,-0.0353 -0.218722,-0.0353 -0.05292,0 -0.109361,0.004 -0.05644,0.004 -0.109362,0.0106 -0.04939,0.004 -0.09172,0.0106 -0.03881,0.007 -0.05644,0.0106 v 1.54869 h -0.328084 z m 3.644195,0.86431 q 0,0.21872 -0.0635,0.39511 -0.0635,0.17639 -0.179917,0.30339 -0.112889,0.127 -0.271639,0.19756 -0.15875,0.067 -0.345723,0.067 -0.186972,0 -0.345722,-0.067 -0.15875,-0.0706 -0.275167,-0.19756 -0.112889,-0.127 -0.176389,-0.30339 -0.0635,-0.17639 -0.0635,-0.39511 0,-0.21519 0.0635,-0.39158 0.0635,-0.17992 0.176389,-0.30692 0.116417,-0.127 0.275167,-0.19403 0.15875,-0.0706 0.345722,-0.0706 0.186973,0 0.345723,0.0706 0.15875,0.067 0.271639,0.19403 0.116417,0.127 0.179917,0.30692 0.0635,0.17639 0.0635,0.39158 z m -0.342195,0 q 0,-0.31044 -0.141111,-0.49036 -0.137583,-0.18344 -0.377473,-0.18344 -0.239889,0 -0.381,0.18344 -0.137583,0.17992 -0.137583,0.49036 0,0.31045 0.137583,0.49389 0.141111,0.17992 0.381,0.17992 0.23989,0 0.377473,-0.17992 0.141111,-0.18344 0.141111,-0.49389 z m 2.264829,0.86431 q -0.112889,0.0282 -0.299862,0.06 -0.183444,0.0318 -0.426861,0.0318 -0.211667,0 -0.356306,-0.06 -0.144639,-0.0635 -0.232833,-0.17639 -0.0882,-0.11289 -0.127,-0.26459 -0.03881,-0.15522 -0.03881,-0.34219 v -1.03011 h 0.328084 v 0.95955 q 0,0.33514 0.105833,0.47978 0.105833,0.14464 0.356306,0.14464 0.05292,0 0.109361,-0.004 0.05644,-0.004 0.105833,-0.007 0.04939,-0.007 0.08819,-0.0106 0.04233,-0.007 0.05997,-0.0141 v -1.54869 h 0.328084 z m 0.564443,-1.72862 q 0.112889,-0.0282 0.299861,-0.06 0.186972,-0.0318 0.430389,-0.0318 0.218722,0 0.363361,0.0635 0.144639,0.06 0.229306,0.17286 0.08819,0.10937 0.123472,0.26459 0.03528,0.15522 0.03528,0.34219 v 1.03011 h -0.328083 v -0.95955 q 0,-0.16934 -0.02469,-0.28928 -0.02117,-0.11994 -0.07408,-0.19403 -0.05292,-0.0741 -0.141111,-0.10583 -0.08819,-0.0353 -0.218723,-0.0353 -0.05292,0 -0.109361,0.004 -0.05644,0.004 -0.109361,0.0106 -0.04939,0.004 -0.09172,0.0106 -0.03881,0.007 -0.05644,0.0106 v 1.54869 h -0.328083 z"
         id="text146"
         style="font-size:3.52778px;line-height:1.25;font-family:Ubuntu;-inkscape-font-specification:'Ubuntu, Normal';stroke-width:0.264583"
         aria-label="noun" />
    </g>
  </g>
</svg>
