<?xml version="1.0" encoding="UTF-8" standalone="no"?>
<!-- Created with Inkscape (http://www.inkscape.org/) -->

<svg
   width="65.70636mm"
   height="66.208015mm"
   viewBox="0 0 65.70636 66.208015"
   version="1.1"
   id="svg245"
   inkscape:version="1.1.2 (b8e25be833, 2022-02-05)"
   sodipodi:docname="edp.svg"
   xmlns:inkscape="http://www.inkscape.org/namespaces/inkscape"
   xmlns:sodipodi="http://sodipodi.sourceforge.net/DTD/sodipodi-0.dtd"
   xmlns="http://www.w3.org/2000/svg"
   xmlns:svg="http://www.w3.org/2000/svg">
  <sodipodi:namedview
     id="namedview247"
     pagecolor="#ffffff"
     bordercolor="#666666"
     borderopacity="1.0"
     inkscape:pageshadow="2"
     inkscape:pageopacity="0.0"
     inkscape:pagecheckerboard="0"
     inkscape:document-units="mm"
     showgrid="false"
     fit-margin-top="0"
     fit-margin-left="0"
     fit-margin-right="0"
     fit-margin-bottom="0"
     inkscape:zoom="0.62716049"
     inkscape:cx="15.147638"
     inkscape:cy="102.04724"
     inkscape:window-width="1553"
     inkscape:window-height="831"
     inkscape:window-x="47"
     inkscape:window-y="27"
     inkscape:window-maximized="1"
     inkscape:current-layer="layer1" />
  <defs
     id="defs242" />
  <g
     inkscape:label="Layer 1"
     inkscape:groupmode="layer"
     id="layer1"
     transform="translate(-68.519523,-121.48297)">
    <path
       d="m 101.37563,142.79624 a 11.787822,11.787822 0 0 1 11.78782,11.78783 11.787822,11.787822 0 1 1 -11.78782,-11.78783 z"
       style="fill:none;stroke:#336699;stroke-width:4.7625;stroke-linecap:butt;stroke-linejoin:miter;stroke-dasharray:none;stroke-opacity:1"
       id="path35" />
    <g
       id="Layer1005"
       transform="matrix(0.26458333,0,0,0.26458333,411.13742,319.73947)">
      <path
         d="m -1186.5282,-705.6671 h 12.5794 l 3.8945,-11.9716 3.8866,11.9716 h 12.5794 l -10.1642,7.4054 3.8866,11.9716 -10.1884,-7.4054 -10.1962,7.4054 3.8866,-11.9716 z"
         style="fill:#ffcb00;fill-rule:evenodd"
         id="path37" />
      <g
         id="Layer1006">
        <path
           d="m -1186.5282,-551.6384 h 12.5794 l 3.8945,-11.9716 3.8866,11.9716 h 12.5794 l -10.1642,7.4054 3.8866,11.9716 -10.1884,-7.4054 -10.1962,7.4054 3.8866,-11.9716 z"
           style="fill:#ffcb00;fill-rule:evenodd"
           id="path39" />
        <path
           d="m -1118.5369,-588.3791 h 12.5794 l 3.8945,-11.9716 3.8866,11.9716 h 12.5794 l -10.1643,7.4054 3.8866,11.9716 -10.1883,-7.4054 -10.1963,7.4054 3.8866,-11.9716 z"
           style="fill:#ffcb00;fill-rule:evenodd"
           id="path41" />
        <path
           d="m -1148.5677,-561.2889 h 12.5794 l 3.8945,-11.9716 3.8866,11.9716 h 12.5794 l -10.1643,7.4053 3.8866,11.9716 -10.1883,-7.4053 -10.1963,7.4053 3.8866,-11.9716 z"
           style="fill:#ffcb00;fill-rule:evenodd"
           id="path43" />
        <path
           d="m -1111.6754,-627.2406 h 12.5794 l 3.8945,-11.9716 3.8866,11.9716 h 12.5794 l -10.1642,7.4053 3.8866,11.9716 -10.1884,-7.4053 -10.1962,7.4053 3.8865,-11.9716 z"
           style="fill:#ffcb00;fill-rule:evenodd"
           id="path45" />
      </g>
      <path
         d="m -1221.3573,-588.3791 h -12.5794 l -3.8946,-11.9716 -3.8865,11.9716 h -12.5794 l 10.1642,7.4054 -3.8866,11.9716 10.1883,-7.4054 10.1963,7.4054 -3.8866,-11.9716 z"
         style="fill:#ffcb00;fill-rule:evenodd"
         id="path48" />
      <path
         d="m -1191.3265,-561.2889 h -12.5794 l -3.8946,-11.9716 -3.8865,11.9716 h -12.5794 l 10.1642,7.4053 -3.8866,11.9716 10.1883,-7.4053 10.1963,7.4053 -3.8866,-11.9716 z"
         style="fill:#ffcb00;fill-rule:evenodd"
         id="path50" />
      <path
         d="m -1228.2189,-627.2406 h -12.5794 l -3.8945,-11.9716 -3.8866,11.9716 h -12.5794 l 10.1643,7.4053 -3.8866,11.9716 10.1883,-7.4053 10.1963,7.4053 -3.8866,-11.9716 z"
         style="fill:#ffcb00;fill-rule:evenodd"
         id="path52" />
      <path
         d="m -1113.6672,-693.2714 h -12.5794 l -3.8945,-11.9716 -3.8866,11.9716 h -12.5794 l 10.1643,7.4053 -3.8866,11.9716 10.1883,-7.4053 10.1963,7.4053 -3.8866,-11.9716 z"
         style="fill:#ffcb00;fill-rule:evenodd"
         id="path54" />
      <path
         d="m -1118.315,-664.2209 h 12.5794 l 3.8945,-11.9716 3.8866,11.9716 h 12.5794 l -10.1642,7.4054 3.8866,11.9716 -10.1884,-7.4054 -10.1962,7.4054 3.8866,-11.9716 z"
         style="fill:#ffcb00;fill-rule:evenodd"
         id="path56" />
      <path
         d="m -1226.2271,-693.1374 h 12.5794 l 3.8945,-11.9716 3.8866,11.9716 h 12.5794 l -10.1642,7.4054 3.8865,11.9716 -10.1883,-7.4054 -10.1962,7.4054 3.8865,-11.9716 z"
         style="fill:#ffcb00;fill-rule:evenodd"
         id="path58" />
      <path
         d="m -1221.5793,-664.0868 h -12.5794 l -3.8945,-11.9716 -3.8866,11.9716 h -12.5794 l 10.1642,7.4054 -3.8865,11.9716 10.1883,-7.4054 10.1962,7.4054 -3.8865,-11.9716 z"
         style="fill:#ffcb00;fill-rule:evenodd"
         id="path60" />
    </g>
    <path
       d="m 122.28262,171.83519 a 3.476281,3.476281 0 0 1 3.47628,3.47628 3.476281,3.476281 0 1 1 -3.47628,-3.47628 z"
       style="fill:#336699;fill-opacity:1;fill-rule:evenodd;stroke-width:0.264583"
       id="path63" />
    <path
       d="m 128.68101,178.93298 a 3.476281,3.476281 0 0 1 3.47628,3.47629 3.476281,3.476281 0 1 1 -3.47628,-3.47629 z"
       style="fill:#336699;fill-opacity:1;fill-rule:evenodd;stroke-width:0.264583"
       id="path65" />
  </g>
</svg>
