<?xml version="1.0" encoding="UTF-8" standalone="no"?>
<svg
   xmlns:dc="http://purl.org/dc/elements/1.1/"
   xmlns:cc="http://creativecommons.org/ns#"
   xmlns:rdf="http://www.w3.org/1999/02/22-rdf-syntax-ns#"
   xmlns:svg="http://www.w3.org/2000/svg"
   xmlns="http://www.w3.org/2000/svg"
   xmlns:sodipodi="http://sodipodi.sourceforge.net/DTD/sodipodi-0.dtd"
   xmlns:inkscape="http://www.inkscape.org/namespaces/inkscape"
   version="1.1"
   width="370.31204"
   height="342.01709"
   id="svg48"
   viewBox="0 0 370.31204 342.01709"
   sodipodi:docname="logo.svg"
   inkscape:version="0.92.4 (f8dce91, 2019-08-02)">
  <metadata
     id="metadata54">
    <rdf:RDF>
      <cc:Work
         rdf:about="">
        <dc:format>image/svg+xml</dc:format>
        <dc:type
           rdf:resource="http://purl.org/dc/dcmitype/StillImage" />
        <dc:title></dc:title>
      </cc:Work>
    </rdf:RDF>
  </metadata>
  <defs
     id="defs52" />
  <sodipodi:namedview
     pagecolor="#ffffff"
     bordercolor="#666666"
     borderopacity="1"
     objecttolerance="10"
     gridtolerance="10"
     guidetolerance="10"
     inkscape:pageopacity="0"
     inkscape:pageshadow="2"
     inkscape:window-width="1547"
     inkscape:window-height="836"
     id="namedview50"
     showgrid="false"
     fit-margin-top="0"
     fit-margin-left="0"
     fit-margin-right="0"
     fit-margin-bottom="0"
     inkscape:zoom="1.2317764"
     inkscape:cx="173.2832"
     inkscape:cy="152.35823"
     inkscape:window-x="53"
     inkscape:window-y="27"
     inkscape:window-maximized="1"
     inkscape:current-layer="svg48" />
  <path
     inkscape:connector-curvature="0"
     id="path2"
     style="fill:#9e9e7f;fill-rule:evenodd;fill-opacity:1"
     d="m 306.22774,215.11571 9.0036,-6.3896 8.1323,-7.261 7.2609,-7.8418 6.3897,-8.7131 5.2278,-9.0036 4.647,-9.294 3.4853,-9.8749 2.6139,-10.1653 1.7427,-10.1654 0.5808,-10.4557 -0.2904,-10.4558 -1.4522,-10.4558 -2.3235,-10.4557 -3.4852,-10.1653 -4.6471,-9.8749 -5.5183,-9.5845 -6.68,-9.0036 -7.261,-8.1322 -7.8418,-7.261 -8.4227,-6.3896 -9.0036,-5.2279 -9.5844,-4.647 -9.5845,-3.4852 -10.1653,-2.614 -10.1653,-1.7426 -10.4558,-0.5809 -10.4558,0.2905 -10.4557,1.4522 -10.4558,2.3235 -10.1653,3.4852 -9.8749,4.647 -9.5844,5.5183 -9.0036,6.6801 -8.1323,7.261 -7.2609,7.8418 -6.3897,8.7131 -5.2278,9.0036 -4.6471,9.5844 -3.4852,9.5845 -2.6139,10.1653 -1.7427,10.4558 -0.5808,10.1653 0.2904,10.4558 1.4522,10.4557 2.3235,10.4558 3.4852,9.8749 4.647,9.8749 5.5184,9.5844 6.68,9.0036 7.261,8.1322 7.8418,7.261 8.7131,6.3896 9.0036,5.2279 9.5845,4.647 9.5844,3.4853 10.1653,2.6139 10.4558,1.7426 10.1653,0.5809 10.4558,-0.2904 10.4558,-1.4522 10.4557,-2.3235 9.8749,-3.4853 9.8749,-4.647 z" />
  <path
     inkscape:connector-curvature="0"
     id="path4"
     style="fill:#ffffff;fill-rule:evenodd"
     d="m 192.08574,51.59921 -0.2905,-2.0331 v -2.033 l 0.2905,-2.0331 0.8713,-2.0331 1.1617,-2.033 1.4522,-1.7427 1.7426,-1.7426 2.0331,-1.7426 2.0331,-1.4522 2.3235,-1.4522 2.6139,-1.1618 2.614,-0.8713 4.3565,-1.1617 4.3566,-0.5809 4.0661,0.2904 3.4853,0.5809 3.1948,1.1618 2.9044,1.4522 2.033,2.033 1.1618,2.614 0.2904,2.033 v 1.7427 l -0.2904,2.033 -0.8713,2.0331 -1.1618,2.0331 -1.4522,1.7426 -1.7426,2.033 -1.7426,1.4522 -2.3235,1.4522 -2.3235,1.4522 -2.614,1.1618 -2.6139,0.8713 -2.9044,0.8713 -2.6139,0.2904 -2.9044,0.5809 h -2.614 l -2.6139,-0.2904 -2.3235,-0.2905 -2.0331,-0.5808 -2.033,-0.8714 -2.0331,-1.1617 -1.4522,-1.4522 -1.1617,-1.4522 z" />
  <path
     inkscape:connector-curvature="0"
     id="path6"
     style="fill:#ffffff;fill-rule:evenodd"
     d="m 218.22514,59.73141 2.9043,-1.1617 2.614,-1.1618 2.6139,-1.4522 2.3235,-1.7426 2.0331,-1.7426 1.7426,-1.7426 1.7426,-2.0331 1.1618,-2.0331 1.1618,-2.3235 0.2904,-2.6139 v -2.3235 l -0.2904,-2.3235 -1.4522,-2.9044 -2.3235,-2.3235 -2.9044,-2.0331 -3.4853,-1.4521 -4.0661,-0.5809 -4.647,-0.2905 -4.647,0.5809 -4.647,1.1618 -2.9044,1.1617 -2.6139,1.1618 -2.614,1.4522 -2.3235,1.7426 -2.0331,1.7426 -2.033,2.0331 -1.4522,2.033 -1.1618,2.0331 -1.1617,2.3235 -0.2904,2.3235 v 2.3235 l 0.2904,2.3235 0.8713,2.3235 1.4522,1.7426 2.0331,1.7427 2.3235,1.4522 2.3235,0.8713 2.3235,0.8713 2.6139,0.2904 2.6139,0.2905 h 2.9044 l 2.9044,-0.2905 2.9044,-0.5808 z" />
  <g
     id="Layer1001"
     transform="translate(807.55364,157.77751)">
    <path
       inkscape:connector-curvature="0"
       id="path8"
       style="fill:#ffffff;fill-rule:evenodd;stroke:#ffffff;stroke-width:11.52029991;stroke-linecap:butt;stroke-linejoin:round;stroke-dasharray:none"
       d="m -655.1116,-86.4388 -0.4368,3.2051 0.5809,6.0992 1.4522,5.8087 1.1617,2.9044 1.7427,2.9044 2.033,2.6139 2.0331,2.3235 2.6139,2.3235 2.9044,2.0331 2.9044,2.0331 3.4853,1.7426 3.4852,1.4522 3.4853,1.1617 3.7757,1.1618 3.7757,0.5809 4.0661,0.5808 4.0661,0.5809 h 4.3566 4.3565 4.3566 l 4.647,-0.5809 4.647,-0.5808 4.647,-0.8714 4.647,-1.1617 4.647,-1.1618 4.6471,-1.4522 4.647,-1.7426 7.2609,-2.9044 6.6801,-3.1948 6.3896,-3.7757 5.8088,-3.7757 5.5183,-4.0661 4.9374,-4.3566 4.3566,-4.647 4.0661,-4.647 3.4853,-4.647 2.6139,-4.9374 2.3235,-4.9375 1.4522,-4.9374 0.8713,-4.9374 0.2905,-4.6471 -0.5809,-4.647 -1.1618,-4.647 -1.4522,-3.4852 -2.033,-3.1948 -1.3916,-1.7392 -1.8032,-0.8748 -2.0022,-0.7284 1.4213,1.5997 2.3235,2.9044 1.7426,2.9044 1.4522,3.1948 1.1618,4.3566 0.5808,4.647 -0.2904,4.647 -0.8713,4.647 -1.4522,4.647 -2.3235,4.647 -2.6139,4.647 -3.4853,4.647 -3.7757,4.647 -4.647,4.3566 -4.647,4.0661 -5.5183,4.0662 -5.8088,3.7756 -6.0992,3.4853 -6.68,3.1948 -6.9706,2.9044 -4.647,1.4522 -4.3565,1.4522 -4.647,1.1617 -4.647,1.1618 -4.3566,0.8713 -4.647,0.5809 -4.3566,0.2904 -4.0661,0.2904 h -4.3566 -4.0661 l -4.0661,-0.5808 -4.0662,-0.5809 -3.7757,-0.5809 -3.4852,-1.1617 -3.4853,-1.1618 -3.4852,-1.4522 -3.1948,-1.4522 -2.9044,-1.7426 -2.614,-2.0331 -2.3235,-2.3235 -2.033,-2.3235 -2.0331,-2.3235 -1.4522,-2.6139 -1.1617,-2.9044 -1.4522,-5.5183 -0.2905,-5.8088 0.8713,-5.8087 1.044,-3.6534 z" />
    <path
       inkscape:connector-curvature="0"
       id="path10"
       style="fill:#ffffff;fill-rule:evenodd;stroke:#ffffff;stroke-width:11.52029991;stroke-linecap:butt;stroke-linejoin:round;stroke-dasharray:none"
       d="m -666.936,-11.4807 1.2223,2.5991 3.1948,5.2278 3.7757,4.9375 4.647,4.647 5.2279,4.647 5.8088,4.0661 5.8087,3.7757 6.3896,3.1948 5.2279,2.0331 5.5184,2.0331 5.5183,1.4522 5.5183,1.4522 5.8087,1.1617 5.8088,0.5809 6.0992,0.5809 6.0992,0.2904 h 5.8088 l 6.0991,-0.2904 6.0992,-0.5809 6.0992,-0.8713 6.0992,-1.1618 6.0992,-1.4522 6.0992,-1.7426 5.8088,-2.0331 5.8087,-2.3235 5.5184,-2.6139 5.5183,-2.9044 5.2279,-2.9044 4.9374,-3.1948 4.9374,-3.7757 4.9375,-3.4852 4.3566,-4.0662 4.3565,-4.0661 4.0662,-4.3566 3.7756,-4.3565 3.7757,-4.647 3.1949,-4.647 3.1948,-4.647 2.6139,-5.2279 2.614,-4.9375 2.6139,-6.3896 2.0331,-6.3896 1.4522,-6.0992 0.8713,-6.0992 0.2904,-5.8088 -0.2904,-5.8087 -0.2905,-1.3802 -2.9044,-6.1712 -0.9776,-1.6981 1.2681,4.312 0.8713,5.2279 0.2904,5.5183 -0.2904,5.5183 -0.8713,5.8088 -1.1618,6.0992 -2.033,6.0992 -2.614,6.3896 -2.6139,4.9375 -2.614,4.9374 -3.1948,4.647 -3.1948,4.647 -3.4852,4.647 -3.7757,4.3566 -4.0662,4.0661 -4.3565,4.0661 -4.3566,3.7757 -4.647,3.7757 -4.9374,3.4853 -4.9375,3.1948 -5.2279,2.9044 -5.5183,2.9044 -5.5183,2.3235 -5.5183,2.3235 -5.8088,2.033 -5.8087,1.7427 -5.8088,1.4521 -6.0992,1.1618 -5.8088,0.8713 -6.0992,0.5809 -6.0991,0.2904 h -5.8088 l -6.0992,-0.2904 -5.8088,-0.5809 -5.8087,-0.5809 -5.5183,-1.1617 -5.8088,-1.4522 -5.5183,-1.4522 -5.2279,-2.0331 -5.2279,-2.033 -6.0992,-3.1948 -5.8087,-3.4853 -5.2279,-4.0661 -4.9375,-4.3566 -4.647,-4.647 -3.7757,-4.647 -2.9043,-4.9374 -2.3235,-4.9375 -0.2905,-1.1617 -0.5808,-1.1618 -0.2905,-1.1617 -0.2904,-1.1618 -0.7376,0.2104 0.7376,5.3079 z" />
    <path
       inkscape:connector-curvature="0"
       id="path12"
       style="fill:#ffffff;fill-rule:evenodd;stroke:#ffffff;stroke-width:11.52029991;stroke-linecap:butt;stroke-linejoin:round;stroke-dasharray:none"
       d="m -588.2857,-138.3254 -1.6237,3.3937 -3.7757,8.4227 -3.7757,10.1654 -3.1948,11.9079 -2.9044,13.3602 -1.7426,14.2314 -0.5809,16.8454 0.5809,18.588 2.6139,20.9116 4.647,22.3637 6.9705,23.8159 9.8749,24.9776 11.8542,23.9783 2.2378,0.1281 -11.7685,-23.8159 -9.5844,-23.5255 -6.9705,-22.3637 -4.3566,-20.9115 -2.6139,-20.0403 -0.8714,-18.2975 0.5809,-17.1359 1.7426,-15.3932 2.614,-13.941 3.1948,-12.4888 3.4853,-10.4558 3.4852,-9.0036 2.9318,-6.3953 z" />
    <path
       inkscape:connector-curvature="0"
       id="path14"
       style="fill:#ffffff;fill-rule:evenodd;stroke:#ffffff;stroke-width:11.52029991;stroke-linecap:butt;stroke-linejoin:round;stroke-dasharray:none"
       d="m -635.6579,-111.6669 1.6019,-0.3202 4.647,-0.8713 4.9375,-0.5809 5.8087,-0.2904 5.8088,-0.5809 h 6.0992 6.6801 l 6.9705,0.2905 7.2609,0.5808 7.261,1.1618 7.8418,1.1617 7.8418,1.7427 8.1323,2.033 8.1322,2.9044 8.4227,2.9044 8.4227,3.7757 8.7132,4.0661 8.7131,4.9375 8.7131,5.5183 8.7132,6.0992 8.7131,6.9705 8.7131,7.5514 8.4227,8.4227 8.7132,9.0035 8.0305,9.692 -0.0846,-3.0302 -2.1372,-2.5956 -4.0661,-4.647 -4.0661,-4.647 -4.3566,-4.6471 -4.3566,-4.3565 -4.647,-4.3566 -4.647,-4.0661 -4.3565,-4.0662 -4.9375,-3.7756 -4.647,-3.7757 -4.647,-3.4853 -4.9374,-3.4852 -4.647,-2.9044 -4.9375,-3.1948 -4.647,-2.614 -4.9374,-2.6139 -3.7757,-2.0331 -3.7757,-1.7426 -4.0662,-1.7426 -3.7756,-1.7427 -4.0662,-1.4522 -4.0661,-1.4521 -4.0661,-1.4522 -3.7757,-1.1618 -4.3566,-1.1617 -4.0661,-1.1618 -4.0662,-0.8713 -4.0661,-0.8713 -4.0661,-0.5809 -4.3566,-0.8713 -4.0661,-0.5809 -4.3566,-0.2904 -6.9705,-0.5809 h -6.6801 -6.3896 l -6.0992,0.2904 -5.8087,0.2905 -5.2279,0.8713 -4.9375,0.5809 -1.4373,0.287 z" />
    <path
       inkscape:connector-curvature="0"
       id="path16"
       style="fill:#ffffff;fill-rule:evenodd;stroke:#ffffff;stroke-width:11.52029991;stroke-linecap:butt;stroke-linejoin:round;stroke-dasharray:none"
       d="m -611.3058,-129.2567 0.4849,0.4242 6.0992,5.5183 7.2609,6.9706 8.1323,8.7131 9.294,9.8749 9.5844,11.6175 10.1654,12.7793 10.1653,14.2314 10.4557,15.6837 9.8749,16.8454 9.5845,18.2975 9.0036,19.4594 8.1322,20.9115 7.0689,21.489 1.8341,-1.3024 -3.0942,-10.3117 -4.0662,-11.6175 -4.3565,-11.3271 -4.647,-10.7462 -4.647,-10.7462 -4.9375,-10.1653 -5.2279,-9.8749 -5.2278,-9.5845 -5.2279,-9.294 -5.5183,-8.4227 -5.2279,-8.4227 -5.2279,-7.8418 -5.2279,-7.2609 -4.9374,-6.6801 -4.9375,-6.0992 -4.647,-5.8088 -4.9374,-5.5183 -4.647,-5.5183 -4.647,-4.647 -4.3566,-4.647 -4.0661,-4.0661 -3.7757,-3.7757 -3.4853,-3.4853 -3.4852,-3.1948 -2.9044,-2.6139 -1.2189,-1.084 -1.6855,0.7935 z" />
    <path
       inkscape:connector-curvature="0"
       id="path18"
       style="fill:#ffffff;fill-rule:evenodd;stroke:#ffffff;stroke-width:11.52029991;stroke-linecap:butt;stroke-linejoin:round;stroke-dasharray:none"
       d="m -668.8593,-40.6823 1.1125,-1.8901 4.0662,-6.3897 5.2279,-7.8418 6.3896,-8.7131 7.8418,-9.294 8.7131,-9.5845 10.4558,-9.8749 11.3271,-9.5844 13.0697,-9.294 14.2314,-8.4227 15.6837,-7.5514 16.8454,-6.3896 15.3417,-4.0753 -5.3216,-0.9125 -2.7592,0.6312 -9.294,2.9044 -9.0036,3.1948 -8.7131,3.4852 -8.1323,3.7757 -7.8418,4.0662 -7.5514,4.3565 -6.9705,4.647 -6.68,4.647 -6.0992,4.647 -5.8088,4.6471 -5.2279,4.9374 -4.9374,4.647 -4.647,4.647 -9.0036,9.5845 -7.5514,9.294 -6.3896,8.7131 -5.2279,7.8418 -2.8666,4.7088 -0.0378,0.2287 z m 153.3717,-104.218 -0.0697,-0.4871 -0.9525,0.1292 z" />
  </g>
  <path
     inkscape:connector-curvature="0"
     id="path21"
     style="fill:#ff5555;fill-opacity:1;fill-rule:evenodd;stroke:#ff5555;stroke-width:7.91960001;stroke-linecap:butt;stroke-linejoin:miter;stroke-dasharray:none;stroke-opacity:1"
     d="m 312.32694,223.24801 9.8749,-7.261 9.0036,-7.8418 7.8418,-8.7131 6.9705,-9.2941 6.0992,-9.8748 4.9375,-10.4558 3.7757,-10.7462 2.9043,-11.0366 1.7427,-11.3271 0.8713,-11.3271 -0.2905,-11.6175 -1.7426,-11.6175 -2.6139,-11.3271 -3.7757,-11.0366 -4.9375,-11.0367 -6.0992,-10.4557 -7.2609,-9.8749 -8.1323,-9.0036 -8.7131,-8.1323 -9.294,-6.9705 -9.8749,-5.8087 -10.4558,-5.2279 -10.7462,-3.7757 -11.0366,-2.9044 -11.3271,-1.7426 -11.3271,-0.8713 -11.6175,0.5808 -11.6175,1.4522 -11.3271,2.614 -11.0366,3.7757 -11.0366,5.2278 -10.4558,6.0992 -9.8749,7.261 -9.0036,8.1323 -8.1322,8.7131 -6.9705,9.294 -5.8088,9.8749 -5.2279,10.4558 -3.7757,10.7462 -2.9043,11.327 -1.7427,11.3271 -0.8713,11.3271 0.5809,11.6175 1.4522,11.3271 2.6139,11.6175 3.7757,11.0366 5.2279,11.0367 6.0992,10.4557 7.2609,9.8749 7.8419,8.7132 8.7131,8.1322 9.5844,6.9705 9.8749,5.8088 10.4558,4.9374 10.7462,3.7757 11.0366,2.9044 11.3271,1.7426 11.6175,0.8713 11.3271,-0.5808 11.6175,-1.4522 11.3271,-2.614 11.0366,-3.7757 11.0367,-5.2278 z m -6.0992,-8.1323 9.0036,-6.3896 8.1323,-7.261 7.2609,-7.8418 6.3897,-8.7131 5.2278,-9.0036 4.647,-9.294 3.4853,-9.8749 2.6139,-10.1653 1.7427,-10.1654 0.5808,-10.4557 -0.2904,-10.4558 -1.4522,-10.4558 -2.3235,-10.4557 -3.4852,-10.1653 -4.647,-9.8749 -5.5184,-9.5845 -6.68,-9.0036 -7.261,-8.1322 -7.8418,-7.261 -8.4227,-6.3896 -9.0036,-5.2279 -9.5844,-4.647 -9.5845,-3.4852 -10.1653,-2.614 -10.1653,-1.7426 -10.4558,-0.5809 -10.4558,0.2905 -10.4557,1.4521 -10.4558,2.3236 -10.1653,3.4852 -9.8749,4.647 -9.5845,5.5183 -9.0035,6.6801 -8.1323,7.2609 -7.2609,7.8419 -6.3897,8.7131 -5.2278,9.0036 -4.6471,9.5844 -3.4852,9.5845 -2.6139,10.1653 -1.7427,10.4558 -0.5809,10.1653 0.2905,10.4558 1.4522,10.4557 2.3235,10.4558 3.4852,9.8749 4.647,9.8749 5.5184,9.5844 6.68,9.0036 7.261,8.1322 7.8418,7.261 8.7131,6.3896 9.0036,5.2279 9.5845,4.647 9.5844,3.4853 10.1653,2.6139 10.4558,1.7426 10.1653,0.5809 10.4558,-0.2904 10.4558,-1.4522 10.4557,-2.3235 9.8749,-3.4853 9.8749,-4.647 z" />
  <path
     inkscape:connector-curvature="0"
     id="path24"
     style="fill:#9e9e7f;fill-rule:evenodd;fill-opacity:1"
     d="m 55.48184,259.32761 -7.795,-5.5319 -7.0406,-6.2863 -6.2862,-6.7892 -5.532,-7.5435 -4.5261,-7.795 -4.0232,-8.0464 -3.0174,-8.5493 -2.263,-8.8008 -1.5088,-8.8007 -0.5029,-9.0523 0.2515,-9.0522 1.2573,-9.0522 2.0116,-9.0522 3.0174,-8.8008 4.0232,-8.5493 4.7775,-8.2979 5.7834,-7.795 6.2863,-7.0406 6.7891,-6.2863 7.2921,-5.5319 7.795,-4.5261 8.2978,-4.0232 8.2979,-3.0174 8.8008,-2.2631 8.8008,-1.5087 9.0522,-0.5029 9.0522,0.2515 9.0522,1.2572 9.0522,2.0116 8.8008,3.0175 8.5493,4.0232 8.2979,4.7775 7.795,5.7834 7.0406,6.2863 6.2863,6.7891 5.5319,7.5435 4.5261,7.795 4.0232,8.2979 3.0174,8.2979 2.2631,8.8007 1.5087,9.0523 0.5029,8.8007 -0.2515,9.0522 -1.2572,9.0523 -2.0116,9.0522 -3.0174,8.5493 -4.0233,8.5493 -4.7775,8.2979 -5.7834,7.795 -6.2862,7.0406 -6.7892,6.2863 -7.5435,5.5319 -7.795,4.5261 -8.2979,4.0232 -8.2978,3.0174 -8.8008,2.2631 -9.0522,1.5087 -8.8008,0.5029 -9.0522,-0.2515 -9.0523,-1.2572 -9.0522,-2.0116 -8.5493,-3.0175 -8.5493,-4.0232 z" />
  <path
     inkscape:connector-curvature="0"
     id="path26"
     style="fill:#ffffff;fill-rule:evenodd"
     d="m 154.30194,117.76091 0.2515,-1.7602 v -1.7601 l -0.2515,-1.7602 -0.7543,-1.7601 -1.0059,-1.7602 -1.2572,-1.5087 -1.5087,-1.5087 -1.7602,-1.5087 -1.7601,-1.2573 -2.0116,-1.2572 -2.2631,-1.0058 -2.263,-0.7544 -3.7718,-1.0058 -3.7718,-0.5029 -3.5203,0.2515 -3.0174,0.5029 -2.7659,1.0058 -2.5145,1.2572 -1.7602,1.7602 -1.0058,2.263 -0.2514,1.7602 v 1.5087 l 0.2514,1.7602 0.7544,1.7601 1.0058,1.7602 1.2572,1.5087 1.5087,1.7601 1.5087,1.2573 2.0116,1.2572 2.0116,1.2573 2.2631,1.0058 2.263,0.7543 2.5146,0.7544 2.263,0.2514 2.5145,0.5029 h 2.2631 l 2.263,-0.2514 2.0116,-0.2515 1.7602,-0.5029 1.7601,-0.7543 1.7602,-1.0058 1.2572,-1.2573 1.0059,-1.2572 z" />
  <path
     inkscape:connector-curvature="0"
     id="path28"
     style="fill:#ffffff;fill-rule:evenodd"
     d="m 131.67134,124.80151 -2.5145,-1.0058 -2.263,-1.0058 -2.2631,-1.2573 -2.0116,-1.5087 -1.7601,-1.5087 -1.5087,-1.5087 -1.5087,-1.7601 -1.0058,-1.7602 -1.0058,-2.0116 -0.2515,-2.2631 v -2.0116 l 0.2515,-2.0116 1.2572,-2.5145 2.0116,-2.0116 2.5145,-1.7601 3.0174,-1.2573 3.5203,-0.5029 4.0232,-0.2514 4.0233,0.5029 4.0232,1.0058 2.5145,1.0058 2.263,1.0058 2.2631,1.2572 2.0116,1.5087 1.7601,1.5087 1.7602,1.7602 1.2573,1.7601 1.0058,1.7602 1.0058,2.0116 0.2514,2.0116 v 2.0116 l -0.2514,2.0116 -0.7544,2.0116 -1.2572,1.5087 -1.7602,1.5087 -2.0116,1.2573 -2.0116,0.7543 -2.0116,0.7544 -2.2631,0.2514 -2.263,0.2515 h -2.5145 l -2.5145,-0.2515 -2.5145,-0.5029 z" />
  <g
     id="Layer1003"
     transform="translate(807.55364,157.77751)">
    <path
       inkscape:connector-curvature="0"
       id="path30"
       style="fill:#ffffff;fill-rule:evenodd;stroke:#ffffff;stroke-width:9.97389984;stroke-linecap:butt;stroke-linejoin:round;stroke-dasharray:none"
       d="m -618.9297,-22.9269 0.3782,2.7749 -0.5029,5.2804 -1.2573,5.029 -1.0058,2.5146 -1.5087,2.5145 -1.7601,2.263 -1.7602,2.0116 -2.263,2.0116 -2.5145,1.7602 -2.5145,1.7601 -3.0175,1.5087 -3.0174,1.2573 -3.0174,1.0058 -3.2688,1.0058 -3.2689,0.5029 -3.5203,0.5029 -3.5203,0.5029 h -3.7718 -3.7717 -3.7718 l -4.0232,-0.5029 -4.0232,-0.5029 -4.0232,-0.7544 -4.0232,-1.0058 -4.0232,-1.0058 -4.0232,-1.2572 -4.0233,-1.5087 -6.2862,-2.5145 -5.7834,-2.766 -5.5319,-3.2688 -5.029,-3.2689 -4.7776,-3.5203 -4.2746,-3.7718 -3.7718,-4.0232 -3.5203,-4.0232 -3.0174,-4.0232 -2.2631,-4.2747 -2.0116,-4.2746 -1.2572,-4.2747 -0.7544,-4.2746 -0.2514,-4.0233 0.5029,-4.0232 1.0058,-4.0232 1.2572,-3.0174 1.7602,-2.7659 1.2048,-1.5058 1.5611,-0.7573 1.7335,-0.6306 -1.2306,1.385 -2.0116,2.5145 -1.5087,2.5145 -1.2572,2.7659 -1.0058,3.7718 -0.5029,4.0232 0.2514,4.0232 0.7544,4.0232 1.2572,4.0232 2.0116,4.0232 2.2631,4.0233 3.0174,4.0232 3.2689,4.0232 4.0232,3.7717 4.0232,3.5203 4.7775,3.5203 5.0291,3.2689 5.2804,3.0174 5.7834,2.766 6.0348,2.5145 4.0232,1.2572 3.7718,1.2573 4.0232,1.0058 4.0232,1.0058 3.7717,0.7543 4.0233,0.5029 3.7717,0.2515 3.5203,0.2514 h 3.7718 3.5203 l 3.5203,-0.5029 3.5203,-0.5029 3.2689,-0.5029 3.0174,-1.0058 3.0174,-1.0058 3.0174,-1.2572 2.766,-1.2573 2.5145,-1.5087 2.263,-1.7601 2.0116,-2.0116 1.7602,-2.0116 1.7601,-2.0116 1.2573,-2.2631 1.0058,-2.5145 1.2572,-4.7776 0.2515,-5.029 -0.7544,-5.029 -0.9038,-3.1629 z" />
    <path
       inkscape:connector-curvature="0"
       id="path32"
       style="fill:#ffffff;fill-rule:evenodd;stroke:#ffffff;stroke-width:9.97389984;stroke-linecap:butt;stroke-linejoin:round;stroke-dasharray:none"
       d="m -608.6925,41.9691 -1.0582,2.2502 -2.766,4.5261 -3.2689,4.2747 -4.0232,4.0232 -4.5261,4.0232 -5.029,3.5203 -5.029,3.2689 -5.5319,2.7659 -4.5261,1.7602 -4.7776,1.7602 -4.7775,1.2572 -4.7776,1.2573 -5.029,1.0058 -5.029,0.5029 -5.2805,0.5029 -5.2805,0.2514 h -5.029 l -5.2804,-0.2514 -5.2805,-0.5029 -5.2805,-0.7544 -5.2804,-1.0058 -5.2805,-1.2572 -5.2805,-1.5087 -5.029,-1.7602 -5.029,-2.0116 -4.7775,-2.2631 -4.7776,-2.5145 -4.5261,-2.5145 -4.2747,-2.7659 -4.2746,-3.2689 -4.2747,-3.0174 -3.7718,-3.5203 -3.7717,-3.5203 -3.5203,-3.7718 -3.2689,-3.7717 -3.2688,-4.0232 -2.766,-4.0233 -2.766,-4.0232 -2.263,-4.5261 -2.2631,-4.2746 -2.263,-5.5319 -1.7602,-5.532 -1.2572,-5.2804 -0.7544,-5.2805 -0.2514,-5.029 0.2514,-5.029 0.2515,-1.1949 2.5145,-5.3428 0.8464,-1.4701 -1.0979,3.7331 -0.7543,4.5261 -0.2515,4.7776 0.2515,4.7776 0.7543,5.029 1.0058,5.2804 1.7602,5.2805 2.263,5.5319 2.2631,4.2747 2.263,4.2746 2.766,4.0232 2.766,4.0233 3.0174,4.0232 3.2688,3.7717 3.5203,3.5203 3.7718,3.5203 3.7718,3.2689 4.0232,3.2689 4.2746,3.0174 4.2747,2.7659 4.5261,2.5145 4.7776,2.5145 4.7775,2.0116 4.7776,2.0116 5.029,1.7602 5.029,1.5087 5.029,1.2573 5.2805,1.0058 5.029,0.7543 5.2805,0.5029 5.2804,0.2515 h 5.029 l 5.2805,-0.2515 5.029,-0.5029 5.029,-0.5029 4.7776,-1.0058 5.029,-1.2572 4.7776,-1.2573 4.5261,-1.7602 4.5261,-1.7601 5.2804,-2.766 5.0291,-3.0174 4.5261,-3.5203 4.2746,-3.7717 4.0232,-4.0232 3.2689,-4.0233 2.5145,-4.2746 2.0116,-4.2747 0.2515,-1.0058 0.5029,-1.0058 0.2514,-1.0058 0.2515,-1.0058 0.6385,0.1822 -0.6385,4.5954 z" />
    <path
       inkscape:connector-curvature="0"
       id="path34"
       style="fill:#ffffff;fill-rule:evenodd;stroke:#ffffff;stroke-width:9.97389984;stroke-linecap:butt;stroke-linejoin:round;stroke-dasharray:none"
       d="m -676.7851,-67.8485 1.4057,2.9383 3.2689,7.292 3.2689,8.8008 2.7659,10.3095 2.5145,11.5667 1.5087,12.3211 0.5029,14.5841 -0.5029,16.0929 -2.263,18.1044 -4.0232,19.3617 -6.0349,20.619 -8.5493,21.6247 -10.2629,20.7595 -1.9374,0.1109 10.1887,-20.6189 8.2979,-20.3675 6.0348,-19.3617 3.7718,-18.1045 2.263,-17.3501 0.7544,-15.8414 -0.5029,-14.8356 -1.5087,-13.3268 -2.2631,-12.0697 -2.7659,-10.8123 -3.0174,-9.0523 -3.0175,-7.7949 -2.5382,-5.5369 z" />
    <path
       inkscape:connector-curvature="0"
       id="path36"
       style="fill:#ffffff;fill-rule:evenodd;stroke:#ffffff;stroke-width:9.97389984;stroke-linecap:butt;stroke-linejoin:round;stroke-dasharray:none"
       d="m -635.7719,-44.7685 -1.387,-0.2771 -4.0232,-0.7544 -4.2746,-0.5029 -5.029,-0.2514 -5.0291,-0.5029 h -5.2804 -5.7834 l -6.0348,0.2514 -6.2863,0.5029 -6.2862,1.0058 -6.7892,1.0058 -6.7892,1.5087 -7.0406,1.7602 -7.0406,2.5145 -7.2921,2.5145 -7.292,3.2688 -7.5436,3.5203 -7.5435,4.2747 -7.5435,4.7776 -7.5435,5.2804 -7.5435,6.0348 -7.5435,6.5378 -7.2921,7.292 -7.5435,7.795 -6.9525,8.3909 0.0732,-2.6234 1.8503,-2.2472 3.5203,-4.0232 3.5203,-4.0232 3.7717,-4.0232 3.7718,-3.7718 4.0232,-3.7717 4.0232,-3.5203 3.7718,-3.5204 4.2746,-3.2688 4.0232,-3.2689 4.0232,-3.0174 4.2747,-3.0174 4.0232,-2.5145 4.2747,-2.766 4.0232,-2.263 4.2747,-2.2631 3.2688,-1.7601 3.2689,-1.5087 3.5203,-1.5087 3.2688,-1.5087 3.5203,-1.2573 3.5204,-1.2572 3.5203,-1.2573 3.2688,-1.0058 3.7718,-1.0058 3.5203,-1.0058 3.5203,-0.7543 3.5203,-0.7544 3.5203,-0.5029 3.7718,-0.7544 3.5203,-0.5029 3.7717,-0.2514 6.0349,-0.5029 h 5.7833 5.5319 l 5.2805,0.2514 5.029,0.2515 4.5261,0.7543 4.2747,0.5029 1.2444,0.2485 z" />
    <path
       inkscape:connector-curvature="0"
       id="path38"
       style="fill:#ffffff;fill-rule:evenodd;stroke:#ffffff;stroke-width:9.97389984;stroke-linecap:butt;stroke-linejoin:round;stroke-dasharray:none"
       d="m -656.8552,-59.9971 -0.4197,0.3673 -5.2805,4.7776 -6.2862,6.0348 -7.0407,7.5435 -8.0464,8.5493 -8.2978,10.0581 -8.8008,11.0638 -8.8008,12.3211 -9.0522,13.5783 -8.5493,14.5841 -8.2979,15.8414 -7.795,16.8472 -7.0406,18.1045 -6.1199,18.6043 -1.5879,-1.1275 2.6788,-8.9275 3.5203,-10.058 3.7718,-9.8066 4.0232,-9.3037 4.0232,-9.3037 4.2746,-8.8007 4.5262,-8.5493 4.5261,-8.2979 4.5261,-8.0464 4.7775,-7.2921 4.5262,-7.2921 4.5261,-6.7891 4.5261,-6.2863 4.2746,-5.7834 4.2747,-5.2804 4.0232,-5.0291 4.2747,-4.7775 4.0232,-4.7776 4.0232,-4.0232 3.7717,-4.0232 3.5204,-3.5203 3.2688,-3.2689 3.0174,-3.0174 3.0174,-2.7659 2.5145,-2.2631 1.0553,-0.9385 1.4592,0.6871 z" />
    <path
       inkscape:connector-curvature="0"
       id="path40"
       style="fill:#ffffff;fill-rule:evenodd;stroke:#ffffff;stroke-width:9.97389984;stroke-linecap:butt;stroke-linejoin:round;stroke-dasharray:none"
       d="m -607.0273,16.6875 -0.9633,-1.6364 -3.5203,-5.532 -4.5261,-6.7891 -5.5319,-7.5435 -6.7892,-8.0465 -7.5435,-8.2978 -9.0522,-8.5494 -9.8066,-8.2978 -11.3153,-8.0464 -12.3211,-7.2921 -13.5783,-6.5377 -14.5841,-5.5319 -13.2824,-3.5283 4.6073,-0.79 2.3888,0.5465 8.0464,2.5145 7.795,2.766 7.5435,3.0174 7.0406,3.2688 6.7892,3.5203 6.5377,3.7718 6.0348,4.0232 5.7834,4.0232 5.2805,4.0232 5.029,4.0232 4.5261,4.2747 4.2746,4.0232 4.0233,4.0232 7.7949,8.2979 6.5377,8.0464 5.532,7.5435 4.5261,6.7892 2.4818,4.0767 0.0327,0.198 z m -132.7838,-90.2282 0.0604,-0.4218 0.8246,0.1119 z" />
  </g>
  <path
     inkscape:connector-curvature="0"
     id="path43"
     style="fill:#0088aa;fill-opacity:1;fill-rule:evenodd;stroke:#0088aa;stroke-width:6.85650015;stroke-linecap:butt;stroke-linejoin:miter;stroke-dasharray:none;stroke-opacity:1"
     d="m 50.20134,266.36821 -8.5493,-6.2863 -7.795,-6.7891 -6.7891,-7.5436 -6.0348,-8.0464 -5.2805,-8.5493 -4.2747,-9.0522 -3.2688,-9.3037 -2.5145,-9.5551 -1.5087,-9.8066 -0.7544,-9.8066 0.2515,-10.058 1.5087,-10.058 2.263,-9.8066 3.2689,-9.5551 4.2746,-9.5551 5.2805,-9.0523 6.2863,-8.5493 7.0406,-7.795 7.5435,-7.0406 8.0464,-6.0348 8.5494,-5.029 9.0522,-4.5261 9.3037,-3.2689 9.5551,-2.5145 9.8066,-1.5087 9.8065,-0.7543 10.0581,0.5029 10.058,1.2572 9.8066,2.2631 9.5551,3.2688 9.5551,4.5261 9.0522,5.2805 8.5493,6.2863 7.795,7.0406 7.0406,7.5435 6.0349,8.0464 5.029,8.5494 4.5261,9.0522 3.2688,9.3036 2.5145,9.8066 1.5087,9.8066 0.7544,9.8066 -0.5029,10.058 -1.2573,9.8066 -2.263,10.058 -3.2689,9.5551 -4.5261,9.5551 -5.2804,9.0523 -6.2863,8.5493 -6.7892,7.5435 -7.5435,7.0406 -8.2979,6.0348 -8.5493,5.0291 -9.0522,4.2746 -9.3037,3.2689 -9.5551,2.5145 -9.8066,1.5087 -10.058,0.7543 -9.8066,-0.5029 -10.058,-1.2572 -9.8066,-2.2631 -9.5551,-3.2688 -9.5551,-4.5261 z m 5.2805,-7.0406 -7.795,-5.5319 -7.0406,-6.2863 -6.2863,-6.7892 -5.5319,-7.5435 -4.5261,-7.795 -4.0232,-8.0464 -3.0174,-8.5493 -2.2631,-8.8008 -1.5087,-8.8007 -0.5029,-9.0523 0.2515,-9.0522 1.2572,-9.0522 2.0117,-9.0522 3.0174,-8.8008 4.0232,-8.5493 4.7775,-8.2979 5.7834,-7.795 6.2863,-7.0406 6.7891,-6.2863 7.2921,-5.5319 7.795,-4.5261 8.2978,-4.0232 8.2979,-3.0174 8.8008,-2.2631 8.8008,-1.5087 9.0522,-0.5029 9.0522,0.2515 9.0522,1.2572 9.0522,2.0116 8.8008,3.0175 8.5493,4.0232 8.2979,4.7775 7.795,5.7834 7.0406,6.2863 6.2863,6.7891 5.5319,7.5435 4.5261,7.795 4.0232,8.2979 3.0174,8.2979 2.2631,8.8007 1.5087,9.0523 0.5029,8.8007 -0.2515,9.0522 -1.2572,9.0523 -2.0116,9.0522 -3.0174,8.5493 -4.0233,8.5493 -4.7775,8.2979 -5.7834,7.795 -6.2862,7.0406 -6.7892,6.2863 -7.5435,5.5319 -7.795,4.5261 -8.2979,4.0232 -8.2978,3.0174 -8.8008,2.2631 -9.0522,1.5087 -8.8008,0.5029 -9.0522,-0.2515 -9.0523,-1.2572 -9.0522,-2.0116 -8.5493,-3.0174 -8.5493,-4.0233 z" />
  <path
     d="m 193.01574,174.87611 c 60.3261,0 109.5277,32.562 109.5277,72.4855 0,39.9235 -49.2016,72.4856 -109.5277,72.4856 -14.2981,0 -27.9685,-1.8335 -40.5082,-5.1563 -24.5325,11.8312 -46.9346,19.3187 -74.8883,19.8076 13.1728,-10.5663 22.856,-23.5444 29.0484,-42.6346 -14.5127,-12.2981 -23.1797,-27.7499 -23.1797,-44.5023 0,-39.9235 49.2017,-72.4855 109.5278,-72.4855 z"
     style="fill:#ffffff;fill-rule:evenodd;stroke:#ffaa00;stroke-width:14.30720043;stroke-linecap:butt;stroke-linejoin:miter;stroke-dasharray:none;stroke-opacity:1"
     id="path46"
     inkscape:connector-curvature="0" />
</svg>
